<svg width="596" height="410" viewBox="0 0 596 410" fill="none" xmlns="http://www.w3.org/2000/svg">
<path d="M12.4044 181.478C12.5736 179.531 14.224 177.584 16.3822 176.568C13.9278 177.499 12.2351 179.32 12.4044 181.478ZM15.1973 266.897C15.959 279.638 18.8789 292.21 23.576 304.147C20.9524 296.993 18.9212 289.416 17.4401 281.458C16.3398 276.675 15.5781 271.765 15.1973 266.897ZM23.9569 177.076C23.9992 177.118 23.9992 177.161 24.0415 177.161C26.1997 179.193 28.4001 181.097 30.6429 182.663C30.1774 182.283 29.8389 181.902 29.4581 181.478C27.7654 179.277 25.9034 177.796 23.9569 177.076ZM23.9569 191.256C27.9347 193.754 31.8701 196.336 35.8479 198.918C32.0817 196.124 27.977 193.711 23.9569 191.256ZM41.3491 203.489C41.4337 203.574 41.5184 203.658 41.603 203.743C41.603 203.701 41.5607 203.701 41.5607 203.658C41.476 203.574 41.4337 203.531 41.3491 203.489ZM37.9214 216.061C41.2221 215.51 43.7188 213.14 43.5072 209.415C43.4649 212.717 41.1375 215.383 37.9214 216.061ZM44.9037 187.828C48.2044 187.701 51.759 186.558 55.3983 184.103C57.4295 183.171 59.9685 181.309 62.5498 180.039C57.5141 182.071 51.4628 186.769 44.9037 187.828ZM87.5591 310.411C88.4054 311.3 89.1671 312.189 89.8019 313.163C89.1671 312.147 88.49 311.258 87.5591 310.411ZM127.21 144.06C132.669 147.531 138.932 151.213 144.856 155.362C139.355 151.171 133.346 147.531 127.21 144.06ZM168.977 196.505C168.977 194.431 169.019 192.357 169.019 190.283C168.723 192.272 168.765 194.389 168.977 196.505ZM152.642 118.155C162.079 123.446 171.092 129.964 178.159 133.689C168.765 127.34 160.259 122.049 152.642 118.155ZM188.019 214.918C188.654 215.426 189.331 215.934 190.008 216.484V216.442C189.331 215.934 188.696 215.383 188.019 214.918ZM223.311 314.305C224.919 313.247 226.485 312.147 228.009 311.004C228.77 310.411 229.532 309.861 230.251 309.184C229.997 309.395 229.744 309.565 229.532 309.734C228.77 310.284 228.051 310.792 227.374 311.3C225.766 312.401 224.369 313.416 223.311 314.305ZM247.22 293.395C247.39 293.183 247.601 293.014 247.771 292.802C249.548 291.279 249.209 289.289 248.998 287.13V287.596C249.082 289.458 248.405 291.406 247.22 293.395ZM229.828 375.089C244.893 364.888 258.181 350.708 269.056 332.507C258.646 349.015 245.443 364.041 229.828 375.089ZM251.198 280.612C253.018 278.538 255.472 277.099 258.096 276.294C255.261 277.056 252.806 278.453 251.198 280.612ZM273.542 278.114C274.684 278.792 275.7 279.596 276.673 280.485C277.604 281.416 278.45 282.517 279.254 283.744C278.62 282.559 277.858 281.458 276.842 280.485C276.419 280.062 275.996 279.723 275.53 279.384C275.319 279.215 275.15 279.088 274.938 278.961C274.472 278.665 274.007 278.368 273.542 278.114ZM301.555 279.511C304.644 277.353 308.326 276.125 312.092 275.829C307.903 275.913 304.052 277.099 301.555 279.511ZM318.524 285.861C319.752 285.395 321.063 285.141 322.375 284.887C321.063 285.099 319.752 285.395 318.524 285.861ZM325.803 279.088C327.876 280.4 329.823 282.093 331.346 284.252C330.077 282.136 328.173 280.4 325.803 279.088ZM336.128 12.5449C338.963 12.5873 341.841 12.7566 344.676 13.0105C341.799 12.7142 339.006 12.5873 336.128 12.5449ZM389.997 105.245C391.944 100.715 393.891 96.2285 395.626 91.657C393.848 96.2285 391.986 100.715 389.997 105.245ZM412.087 34.3018C412.341 35.1061 412.552 35.9526 412.722 36.7569C412.595 35.9526 412.383 35.1907 412.087 34.3018ZM407.686 377.883C414.541 376.825 421.185 374.624 427.532 371.999C420.466 374.539 413.145 376.74 407.686 377.883ZM418.307 39.5506C423.851 44.63 428.844 50.0904 433.838 55.8471C429.183 50.0057 423.893 44.5453 418.307 39.5506ZM447.21 362.348C447.548 362.137 447.887 362.01 448.225 361.798C450.045 360.909 450.891 359.597 450.891 357.608C450.764 359.089 449.41 360.698 447.21 362.348ZM451.695 89.1173C451.822 89.5829 451.907 89.9639 452.034 90.4295C453.938 97.4561 454.869 104.694 454.869 112.271C454.954 108.927 454.784 105.625 454.404 102.409C454.277 101.52 454.192 100.588 454.023 99.6995C453.896 98.8106 453.727 97.8793 453.557 96.9904C453.388 96.1439 453.219 95.2126 453.007 94.3237C452.796 93.4772 452.584 92.5883 452.372 91.6994C452.203 90.8528 451.949 90.0062 451.695 89.1173Z" fill="black"/>
<path d="M14.0548 201.921C-43.7923 321.034 91.9177 441.628 208.458 402.474C214.129 401.035 233.087 392.612 244.935 382.411C251.24 375.934 258.942 372.633 268.167 372.125C297.535 366.834 324.364 355.871 351.15 343.003C352.208 404.421 415.726 404.337 465.871 370.855C516.694 351.765 555.879 314.389 592.652 275.7C601.116 269.309 590.367 207.932 590.452 193.202C587.067 161.117 573.991 128.566 547.712 108.375C523.93 92.4172 494.604 108.163 469.807 114.216C467.86 85.687 457.831 59.7395 436.207 40.6917C433.414 38.1519 431.51 35.6545 430.791 31.718C426.517 14.9135 412.171 23.2523 401.127 18.0882C352.039 -8.7905 279.847 -9.63708 247.305 42.5964C244.3 45.5594 243.454 53.5172 238.122 51.6548C210.701 45.3478 177.821 28.0354 152.304 47.8029C126.787 77.0943 185.565 99.994 205.115 112.439C201.222 116.756 197.54 120.904 193.563 125.349C143.29 96.0152 99.577 65.1999 88.7016 147.995C85.1047 168.058 107.913 174.281 96.4456 199.805C94.1181 205.477 91.2406 210.937 87.9822 216.186C72.4096 241.456 86.9666 271.425 95.5569 296.653C79.0534 290.177 70.59 275.319 67.6278 258.642C62.8037 235.869 73.5099 216.313 83.9198 196.927C91.6214 183.254 79.3073 158.069 61.9574 164.545C56.16 166.958 50.5742 169.752 44.8614 172.461C34.0283 177.201 31.7009 156.164 14.5626 163.445C-3.33745 170.598 -6.13035 195.403 14.0548 201.921ZM182.645 136.693C179.09 143 175.663 149.095 172.066 155.487C169.527 153.794 167.072 152.228 164.66 150.661C162.291 149.095 159.963 147.571 157.678 146.132C155.435 144.693 153.235 143.339 151.161 142.069C149.003 140.841 146.972 139.656 145.068 138.555C134.531 132.714 126.194 129.963 120.355 132.629C119.847 132.841 119.381 133.137 118.916 133.391C118.45 133.73 117.985 134.069 117.562 134.407C117.265 134.704 116.969 134.957 116.758 135.254C116.292 135.719 115.911 136.227 115.53 136.862C115.403 137.032 115.277 137.201 115.15 137.413C114.769 138.047 114.43 138.725 114.092 139.402C113.922 139.783 113.753 140.122 113.584 140.545C113.457 140.968 113.288 141.349 113.118 141.815C112.991 142.069 112.907 142.407 112.822 142.661C112.568 143.381 112.357 144.185 112.187 144.947C111.934 145.878 111.722 146.852 111.553 147.825C111.468 148.333 111.341 148.799 111.256 149.349C111.172 149.984 111.129 150.534 111.045 151.212C110.833 152.736 110.664 154.386 110.579 156.122C110.537 156.672 110.495 157.18 110.495 157.73C110.156 163.529 110.241 170.302 110.749 178.344C111.003 178.302 111.214 178.302 111.426 178.26C111.807 177.201 112.187 175.635 112.526 173.73C112.611 173.477 112.653 173.223 112.695 172.969C112.864 172.037 113.034 171.021 113.245 170.006C113.33 169.54 113.415 169.074 113.499 168.566C113.668 167.804 113.795 167 113.965 166.238C114.049 165.476 114.219 164.63 114.388 163.826C114.642 162.513 114.938 161.117 115.192 159.804C115.234 159.508 115.319 159.254 115.403 158.958C115.573 158.238 115.7 157.561 115.911 156.884C115.954 156.672 115.996 156.503 116.081 156.291C116.208 155.699 116.334 155.148 116.546 154.598C116.715 153.921 116.927 153.286 117.138 152.651C117.392 151.804 117.731 150.958 118.027 150.196C118.831 148.291 119.72 146.725 120.778 145.582C121.074 145.286 121.37 144.989 121.666 144.778C121.878 144.566 122.132 144.354 122.343 144.227C122.597 144.058 122.894 143.931 123.105 143.804C123.782 143.55 124.544 143.423 125.306 143.55C125.898 143.635 126.49 143.762 127.168 144.058C133.303 147.529 139.312 151.169 144.814 155.36C144.898 155.36 144.983 155.402 145.068 155.487C152.685 160.863 159.836 166.916 164.279 174.365C164.322 174.45 164.364 174.492 164.406 174.577C164.449 174.619 164.449 174.619 164.491 174.662C167.919 178.725 168.807 183.508 168.977 188.461V188.715C168.977 189.053 169.019 189.265 169.019 189.561C168.977 189.731 168.977 189.858 168.977 190.027V190.281C168.977 192.355 168.934 194.429 168.934 196.503C168.934 196.884 168.934 197.138 168.977 197.519C169.104 199.636 169.4 201.794 169.484 203.868C169.484 203.911 169.484 203.911 169.484 203.953C169.865 206.535 169.527 208.779 168.68 210.98C168.511 211.488 168.342 211.911 168.13 212.334C168.003 212.63 167.876 213.011 167.622 213.308C167.411 213.689 167.242 213.985 167.03 214.281C156.028 232.991 154.25 255.086 150.738 276.039C150.653 276.674 150.569 277.351 150.357 277.986C150.188 279.044 149.892 280.06 149.511 281.076C149.384 281.541 149.215 281.922 149.045 282.346C148.961 282.6 148.876 282.854 148.749 283.065C148.538 283.489 148.326 283.827 148.157 284.251C147.776 285.012 147.353 285.817 146.845 286.494C146.422 287.129 145.999 287.806 145.533 288.399C145.491 288.483 145.448 288.526 145.406 288.568C144.941 289.161 144.433 289.711 143.925 290.303C143.29 290.981 142.613 291.658 141.936 292.251C141.259 292.843 140.582 293.393 139.905 293.944C139.186 294.494 138.424 295.002 137.704 295.468C137.027 295.976 136.308 296.357 135.631 296.78C134.869 297.203 134.023 297.626 133.303 297.965C132.542 298.346 131.738 298.685 130.934 298.981C130.426 299.235 129.96 299.404 129.453 299.573C128.099 300.081 126.744 300.462 125.348 300.843C124.502 301.055 123.571 301.309 122.724 301.478C121.836 301.648 120.947 301.817 120.058 301.944C116.377 302.536 114.176 301.563 112.864 297.923C109.395 288.229 105.501 278.748 102.074 269.012C98.1806 260.123 96.7418 251.869 96.5725 243.954C95.8954 235.319 96.5725 226.514 99.0692 217.668C99.3654 216.863 99.577 216.017 99.7886 215.297V215.128C101.143 207.297 102.455 199.339 102.497 190.916C102.497 188.461 102.37 185.963 102.243 183.508C101.693 179.403 101.439 175.297 101.27 171.191C100.804 161.328 101.354 151.466 103.259 141.815C103.301 141.561 103.343 141.391 103.386 141.18C105.755 125.603 110.368 116.418 117.181 112.396C117.562 112.1 117.9 111.931 118.323 111.761C127.379 106.682 139.143 110.872 150.569 117.095C151.204 117.476 151.838 117.73 152.515 118.153C160.09 122.047 168.638 127.338 178.032 133.688C178.075 133.688 178.117 133.688 178.159 133.73C178.794 134.111 179.429 134.365 180.064 134.704C181.164 135.254 181.841 136.016 182.645 136.693ZM190.05 216.482C183.449 230.239 176.847 244.038 170.246 257.837C169.865 257.668 169.484 257.499 169.061 257.33C169.23 240.567 174.732 225.287 181.883 210.218C184.084 211.911 186.03 213.392 188.019 214.874C188.696 215.382 189.331 215.932 190.05 216.482ZM185.819 189.815C186.369 189.773 186.877 189.773 187.427 189.731C188.442 189.688 189.373 189.646 190.22 189.604C190.6 189.561 190.939 189.519 191.278 189.519C192.462 193.625 192.97 197.519 194.663 200.736C195.213 201.71 195.594 202.514 195.848 203.149C196.017 203.488 196.102 203.784 196.186 204.038C196.482 204.969 196.356 205.731 195.678 206.662C195.467 207.001 195.128 207.339 194.79 207.763C194.451 208.186 194.07 208.567 193.563 209.075C187.638 207.424 183.999 197.096 185.819 189.815ZM341.587 111.804C341.671 111.846 341.714 111.888 341.756 111.931C364.692 124.545 382.38 135.719 388.516 141.307C314.546 136.905 255.472 59.3586 182.137 61.5597C180.106 61.6443 178.032 61.7713 176.001 61.9406C176.001 61.9406 176.001 61.9406 175.959 61.9406C173.928 62.1523 171.812 62.4062 169.738 62.7025C167.665 63.0412 165.507 63.3798 163.391 63.8877C162.333 64.1417 161.275 64.3957 160.175 64.6497V64.6073C160.175 64.2264 160.175 63.8877 160.217 63.5068V63.3375C160.217 63.2951 160.217 63.2951 160.217 63.2951C160.64 55.7606 166.861 52.967 174.308 52.205C174.351 52.205 174.393 52.205 174.393 52.205C189.754 49.2844 215.44 55.6337 243.793 66.1312C244.004 66.2158 244.216 66.3005 244.427 66.3851C278.281 77.8139 310.611 93.7294 341.587 111.804ZM404.385 53.4749C404.385 53.9828 404.385 54.4485 404.3 54.9564C404.046 59.5279 403.412 64.0147 402.481 68.5016C402.269 69.6868 402.015 70.9143 401.719 72.0995C401.677 72.2688 401.634 72.4381 401.592 72.6074C401.211 74.2159 400.83 75.8244 400.365 77.3906C399.899 78.9567 399.476 80.6075 398.926 82.1737C398.418 83.7822 397.91 85.3907 397.318 86.9145C396.768 88.523 396.218 90.0891 395.583 91.6553C393.848 96.2268 391.944 100.714 389.955 105.243C388.643 108.248 387.247 111.211 385.85 114.216C384.496 117.179 383.1 120.1 381.745 123.063L381.703 123.105C379.206 121.455 376.667 119.846 374.128 118.195C369.093 114.936 363.972 111.761 358.852 108.629C353.732 105.454 348.611 102.449 343.449 99.4438H343.406C338.244 96.3961 333.039 93.5178 327.834 90.6817C324.068 88.6077 320.217 86.5759 316.408 84.6288C314.292 83.5282 312.177 82.47 310.061 81.3695C307.183 79.9303 304.306 78.4911 301.428 77.0943C297.958 75.4011 294.404 73.7926 290.891 72.2265C287.844 70.8296 284.798 69.4751 281.709 68.1206C278.323 66.6391 274.853 65.1999 271.426 63.8454C268.633 62.7025 265.84 61.6443 263.047 60.5861C260.254 59.5279 257.419 58.512 254.583 57.4538H254.541C254.88 56.7342 255.218 55.9723 255.641 55.2527C255.853 54.8294 256.065 54.4485 256.276 54.0252C256.615 53.3056 256.953 52.6283 257.376 51.9511C257.926 51.0198 258.477 50.0463 259.069 49.1574C259.535 48.4378 259.958 47.7182 260.465 46.9986C261.227 45.8557 262.074 44.7129 262.92 43.6123C263.428 42.9774 263.851 42.3848 264.401 41.7499C265.036 40.988 265.67 40.226 266.348 39.5065C267.025 38.7445 267.702 37.9826 268.379 37.3477C269.394 36.2895 270.452 35.2736 271.595 34.2577C273.753 32.2683 276.123 30.4058 278.535 28.7127C279.423 28.0354 280.354 27.4428 281.285 26.8502C284.078 25.0301 286.998 23.4216 289.96 21.9824C291.188 21.3475 292.457 20.7972 293.769 20.2469C296.604 19.0617 299.524 18.0035 302.444 17.0723C303.883 16.6067 305.321 16.2257 306.802 15.8448C307.522 15.6331 308.241 15.4638 308.961 15.2945C309.68 15.0828 310.442 14.9135 311.161 14.7865C312.473 14.4902 313.785 14.2363 315.096 14.0669C316.281 13.8553 317.466 13.6437 318.693 13.4743C320.725 13.178 322.756 12.9664 324.787 12.8394C325.93 12.7548 327.114 12.7124 328.299 12.6278C328.934 12.5854 329.653 12.5431 330.331 12.5431C331.304 12.5008 332.277 12.4585 333.293 12.4585C334.181 12.4585 335.112 12.4585 336.043 12.5008C338.921 12.5431 341.756 12.6701 344.591 12.9664C347.469 13.2204 350.304 13.6013 353.097 14.0246C354.663 14.2786 356.228 14.5749 357.752 14.8712C361.983 15.6754 366.215 16.8183 370.235 18.1305C370.658 18.2575 370.997 18.3845 371.42 18.5115C374.382 19.4427 377.302 20.5432 380.137 21.7708C382.465 22.7443 384.792 23.8025 387.035 25.0301C392.917 28.0354 398.376 31.5487 403.285 35.5699C403.623 37.644 403.919 39.7604 404.046 41.8345C404.131 42.5964 404.173 43.3584 404.216 44.0779C404.554 47.2526 404.554 50.3426 404.385 53.4749ZM454.869 112.312C454.869 113.031 454.869 113.836 454.827 114.555C454.784 116.714 454.573 118.28 451.949 119.211C446.363 121.158 440.862 123.148 435.319 125.137C432.526 126.111 429.775 127.084 426.982 128.143C424.189 129.116 421.396 130.132 418.646 131.19C414.922 132.545 411.24 133.857 407.559 135.211C405.654 135.846 403.919 135.592 402.227 134.915C401.719 134.704 401.211 134.45 400.703 134.196C399.984 133.815 399.265 133.434 398.588 133.01C397.233 132.206 395.922 131.317 394.61 130.725C394.229 130.513 393.89 130.344 393.509 130.217C391.859 129.497 391.986 127.381 392.917 124.756C393.129 124.121 393.383 123.529 393.636 122.852C393.721 122.64 393.806 122.428 393.933 122.217C394.44 121.158 394.991 120.015 395.625 118.915C395.795 118.492 396.006 118.153 396.218 117.772C396.599 117.137 396.895 116.46 397.276 115.825C397.276 115.74 397.36 115.656 397.403 115.529C397.614 115.105 397.868 114.724 398.037 114.259C398.587 113.243 399.053 112.312 399.392 111.423C399.603 110.915 399.815 110.449 399.942 110.026C400.026 109.73 400.069 109.476 400.111 109.264L400.153 109.222C402.481 103.634 404.808 98.0469 406.882 92.3326C407.686 90.0892 408.49 87.7611 409.209 85.5177C409.59 84.3325 409.928 83.1896 410.267 82.0044C410.902 79.7186 411.536 77.4329 412.129 75.1048C412.933 71.6762 413.61 68.2053 414.075 64.692C414.202 63.8031 414.329 62.9142 414.372 62.0253C414.499 61.3057 414.541 60.5438 414.583 59.8242C414.626 59.5279 414.668 59.2316 414.626 59.0199C414.71 58.258 414.753 57.4538 414.753 56.7342C414.837 54.8294 414.837 52.9669 414.753 51.0198C414.753 50.3849 414.71 49.75 414.668 49.0727C414.583 47.4642 414.414 45.8557 414.16 44.2473C414.075 43.443 413.949 42.5964 413.779 41.7922C413.652 40.988 413.483 40.1414 413.314 39.3371C413.145 38.5329 412.975 37.6863 412.764 36.8821C412.552 36.0778 412.34 35.2313 412.129 34.427H412.171C412.594 34.7656 412.975 35.1043 413.398 35.4429C415.091 36.7974 416.699 38.2366 418.307 39.6758C423.935 44.6705 429.225 50.1309 433.837 55.9723C434.049 56.1839 434.218 56.3956 434.388 56.6072C434.557 56.7342 434.641 56.9035 434.768 57.0305C440.143 63.6761 444.501 70.7026 447.675 78.1525C448.225 79.38 448.733 80.6075 449.241 81.8774C449.749 83.1049 450.214 84.3748 450.637 85.6446L451.357 87.9727C451.484 88.4383 451.653 88.8193 451.737 89.2849C451.991 90.1315 452.245 91.0204 452.457 91.867C452.668 92.7559 452.88 93.6448 453.092 94.4913C453.303 95.3802 453.472 96.3115 453.642 97.158C453.811 98.0469 453.98 98.9782 454.107 99.8671C454.276 100.756 454.361 101.687 454.488 102.576C454.784 105.666 454.953 108.925 454.869 112.312ZM43.5072 209.414C43.4649 207.847 42.9148 206.027 41.7299 203.953C41.6876 203.868 41.6453 203.741 41.5607 203.699C41.476 203.615 41.3914 203.53 41.3068 203.445C41.3068 203.403 41.3068 203.361 41.2645 203.361C39.5295 201.752 37.7522 200.313 35.8056 198.874C31.8278 196.292 27.8924 193.71 23.9146 191.212C21.1217 189.519 18.3711 187.911 15.7051 186.09C13.1661 184.821 12.2351 183.085 12.4044 181.477C12.2351 179.318 13.9278 177.455 16.3822 176.567C16.4245 176.524 16.5091 176.482 16.5938 176.482C18.7942 175.466 21.5448 175.339 23.6607 176.905C23.7453 176.947 23.8299 176.99 23.9146 177.032C23.9569 177.074 23.9569 177.074 23.9992 177.074C25.9458 177.794 27.8077 179.276 29.5004 181.477C29.8812 181.9 30.2198 182.281 30.6853 182.662C35.2132 185.921 39.9103 188.08 44.946 187.826C51.5051 186.81 57.5564 182.069 62.5498 180.037C62.7191 179.953 62.846 179.868 62.973 179.826C66.2314 178.26 69.4051 177.879 71.4363 181.815C71.4787 181.858 71.521 181.942 71.5633 182.027C75.0756 191.932 64.6656 200.821 61.7458 209.837C51.2512 230.832 49.347 252.335 57.2179 274.6C58.2335 277.563 60.8571 280.568 56.16 283.065C70.1245 287.594 71.4787 296.991 59.7992 308.166C66.1467 307.743 71.0555 305.584 74.6524 300.928C76.3028 301.859 77.8262 302.833 79.2226 303.722C81.2962 305.119 83.1581 306.473 84.7661 307.743C85.7817 308.632 86.7973 309.521 87.6437 310.41C88.5323 311.256 89.2517 312.187 89.8865 313.161C90.5635 314.05 91.0713 315.023 91.5368 316.039C91.7907 316.59 92.0023 317.098 92.1716 317.648C92.5524 318.748 92.8063 319.849 92.9756 320.992C93.6103 325.394 93.0179 330.643 91.4945 337.627C98.3498 330.77 100.762 322.727 100.169 313.161C116.969 319.129 116.969 333.013 117.435 347.193C124.882 337.5 122.724 327.51 121.497 316.547C139.651 313.838 142.909 335.51 147.86 348.167C151.838 334.706 150.442 322.092 139.82 311.087C155.985 299.785 166.776 316.59 174.393 328.696C174.562 314.473 170.204 302.96 156.366 297.076C164.618 281.118 176.89 280.991 191.362 287.975C187.681 279.933 181.672 275.912 173.716 273.922C176.17 269.562 178.54 265.795 180.487 261.774C190.304 243.149 211.124 256.949 222.888 265.118C216.795 249.964 205.75 242.599 189.331 244.292C194.155 223.848 212.436 227.361 227.289 232.652C222.423 220.461 210.362 221.223 199.487 220.504C207.866 203.107 221.492 185.159 219.037 164.799C218.572 164.799 218.149 164.715 217.683 164.672C214.552 170.302 212.563 174.111 211.039 176.651C210.489 177.54 210.066 178.26 209.601 178.852C209.093 179.487 208.712 179.91 208.247 180.376C204.946 183.254 201.053 180.926 185.099 181.519C185.522 177.498 186.073 173.561 186.877 169.879C187.088 168.99 187.342 168.101 187.511 167.212C188.654 163.064 190.177 159.296 192.293 156.164C193.013 155.064 193.901 154.048 194.79 153.074C195.425 152.439 196.059 151.847 196.779 151.296C197.413 150.746 198.175 150.28 198.979 149.773C203.38 147.275 209.135 146.344 216.752 147.529C217.556 147.487 218.318 147.233 218.953 146.979C219.587 146.64 220.138 146.302 220.561 145.794C222.338 143.889 222.465 141.01 220.603 138.767C215.567 133.772 208.585 134.619 201.899 134.788C202.576 133.984 203.295 133.18 204.015 132.46C207.654 128.651 211.801 125.815 216.371 123.698C218.191 122.852 220.053 122.09 222 121.497C239.561 115.825 261.016 118.661 278.365 120.735C285.475 121.878 292.415 123.74 299.355 126.026C301.64 126.788 303.925 127.592 306.21 128.439C309.638 129.709 313.108 131.021 316.493 132.46C318.778 133.349 321.063 134.323 323.348 135.296C324.491 135.762 325.591 136.185 326.734 136.693C330.077 138.132 333.547 139.571 336.932 140.926C356.186 148.757 375.609 155.36 396.26 153.497C422.962 141.434 451.695 134.788 479.455 125.603C500.994 119.931 529.473 109.222 547.119 127C547.67 127.55 548.135 128.058 548.685 128.651C549.193 129.243 549.616 129.793 550.124 130.428C578.815 166.662 575.726 215.636 579.957 259.234C580.254 263.806 578.645 267.573 575.26 270.917C546.4 302.579 515.551 332.082 475.477 349.056C472.642 350.326 470.695 350.791 468.283 348.124C468.072 347.955 467.86 347.701 467.649 347.574C466.929 346.939 466.083 346.431 465.236 346.135C464.771 345.966 464.348 345.881 463.84 345.796C463.205 345.669 462.444 345.669 461.767 345.754C461.555 345.712 461.301 345.754 461.089 345.796C460.582 345.881 460.116 345.923 459.651 346.093C457.789 346.601 456.096 347.532 454.573 348.759C454.276 349.013 453.98 349.267 453.811 349.521C453.303 350.029 452.838 350.537 452.372 351.13C451.23 352.823 450.595 354.728 450.806 356.759C450.891 357.013 450.891 357.31 450.849 357.564C450.849 359.511 450.002 360.823 448.183 361.754C447.802 361.966 447.506 362.093 447.167 362.305C442.893 365.479 435.615 368.823 427.998 371.701C427.828 371.786 427.659 371.871 427.49 371.955C421.142 374.622 414.499 376.781 407.643 377.839C407.601 377.881 407.516 377.881 407.432 377.881C404.131 378.559 401.507 378.897 400.111 378.643C346.707 378.855 371.039 311.383 374.636 278.875C374.382 278.79 374.044 278.663 373.79 278.621C373.494 278.917 373.24 279.256 373.028 279.594C372.478 280.272 372.013 281.118 371.505 282.007C370.151 284.42 368.839 287.467 367.485 290.811C367.104 291.785 366.765 292.759 366.384 293.817C365.242 296.907 364.099 300.166 362.957 303.425C362.491 304.653 362.11 305.838 361.687 306.981C358.429 316.124 355.086 324.547 351.616 327.51C350.812 328.188 350.008 328.611 349.161 328.653C350.177 325.182 351.15 321.881 352.166 318.621C344.972 324.928 339.683 332.674 331.092 337.542C331.261 335.595 331.346 334.156 331.558 331.828C323.221 336.484 316.747 342.833 307.395 344.992C308.537 342.537 309.426 340.675 310.78 337.839C303.417 341.013 298.931 347.32 291.103 348.04C292.034 345.966 292.838 344.315 293.515 342.706C293.346 342.537 293.134 342.452 292.922 342.283C287.929 345.288 282.936 348.294 277.9 351.341C277.688 351.045 277.477 350.749 277.265 350.452C278.916 347.405 280.524 344.357 282.259 341.183C281.243 340.971 280.608 340.844 280.354 340.802C290.172 324.336 298.889 307.277 310.484 291.997C313.023 288.568 315.647 286.748 318.524 285.732C319.751 285.224 321.063 284.97 322.375 284.758C323.264 284.674 324.195 284.547 325.126 284.462C327.072 284.293 329.061 284.208 331.304 284.081C329.78 281.922 327.876 280.229 325.76 278.917C325.379 278.621 325.041 278.409 324.575 278.24C321.148 276.547 316.958 275.615 312.981 275.615C312.642 275.615 312.346 275.658 312.092 275.658C308.326 275.954 304.644 277.182 301.555 279.34C300.539 280.229 299.693 281.33 299.228 282.684C299.143 282.938 299.058 283.15 298.974 283.404C298.931 283.573 298.847 283.743 298.805 283.954C298.297 285.182 297.831 286.452 297.239 287.637C293.98 294.79 289.453 301.351 283.867 307.066C283.274 307.658 282.682 308.251 282.047 308.843C280.82 310.029 279.508 311.172 278.239 312.23C276.884 313.33 275.573 314.346 274.176 315.362C273.457 315.87 272.78 316.336 272.103 316.844C271.383 317.352 270.622 317.775 269.944 318.198C269.225 318.664 268.421 319.087 267.702 319.553C266.982 319.976 266.221 320.315 265.543 320.738C264.782 321.161 263.978 321.457 263.258 321.838C256.149 325.182 248.532 327.383 240.788 327.934C239.349 328.061 237.868 328.145 236.345 328.145C233.087 328.145 229.828 327.849 226.57 327.299C240.28 314.896 255.938 303.637 265.036 286.494C268.294 280.991 273.795 281.922 279.212 283.573C278.408 282.346 277.561 281.245 276.631 280.314C275.7 279.425 274.684 278.621 273.499 277.944C273.076 277.69 272.695 277.478 272.272 277.309C271.806 277.097 271.426 276.885 270.96 276.758C270.791 276.674 270.622 276.589 270.452 276.547C269.31 276.123 268.125 275.827 266.898 275.658C264.359 275.235 261.693 275.277 259.238 275.742C259.238 275.742 259.238 275.742 259.196 275.742C258.815 275.827 258.434 275.954 258.053 276.081C255.43 276.843 252.975 278.282 251.156 280.399C250.902 280.653 250.733 280.864 250.606 281.118C249.548 282.684 248.913 284.589 248.913 286.875C248.913 286.917 248.913 286.96 248.913 286.96C249.125 289.076 249.463 291.108 247.686 292.632C247.517 292.843 247.305 293.013 247.136 293.224C247.136 293.267 247.093 293.309 247.051 293.351C244.427 297.584 239.392 301.986 234.398 305.838C234.271 305.923 234.187 306.007 234.06 306.092C233.51 306.515 233.044 306.896 232.494 307.277C231.944 307.701 231.478 308.039 230.971 308.42C230.674 308.632 230.421 308.843 230.209 309.013C229.49 309.69 228.728 310.24 227.966 310.833C226.4 311.976 224.835 313.076 223.269 314.135C222.592 314.6 221.83 314.981 221.153 315.404C220.307 315.912 219.418 316.378 218.572 316.928C217.768 317.478 216.879 317.944 216.075 318.494C214.848 319.214 213.621 319.976 212.521 320.738C210.616 321.965 208.966 323.278 207.781 324.547C204.904 327.468 204.057 330.346 207.316 333.182C207.781 333.563 208.247 333.902 208.839 334.283C209.643 334.876 210.701 335.383 211.886 335.934C213.071 336.526 214.467 337.034 216.033 337.585C216.583 337.796 217.091 337.966 217.683 338.135C235.456 343.13 252.298 339.278 269.098 332.336C258.223 350.537 244.978 364.717 229.87 374.918C229.828 374.961 229.743 375.003 229.701 375.003C213.282 386.728 194.113 394.051 172.827 394.305C158.482 395.236 143.46 393.839 128.099 389.987C122.724 388.76 117.435 387.321 112.314 385.585C112.187 385.585 112.06 385.543 111.976 385.501C93.0602 379.998 75.8796 370.22 61.3649 357.437C60.6879 356.844 59.9685 356.251 59.3337 355.659C44.5652 342.96 32.7165 326.833 25.0148 307.828C24.8879 307.616 24.8032 307.404 24.7186 307.193C24.2954 306.219 23.9569 305.203 23.5337 304.145C18.8789 292.166 15.959 279.637 15.155 266.896C15.1127 266.346 15.1127 265.838 15.0704 265.287C13.7585 246.409 17.4824 227.572 26.4536 210.387C26.8767 210.937 27.2576 211.445 27.6808 211.869C27.7654 211.996 27.85 212.08 27.9347 212.123C28.2309 212.504 28.5694 212.8 28.908 213.096C29.2465 213.392 29.585 213.731 29.9659 213.943C32.5472 215.805 35.4247 216.44 37.8368 216.017C37.8368 216.017 37.8368 216.017 37.8791 216.017C41.1375 215.382 43.4649 212.715 43.5072 209.414Z" fill="black"/>
<path d="M226.57 327.514C229.828 328.106 233.129 328.36 236.345 328.36C237.868 328.36 239.349 328.276 240.788 328.149C248.532 327.556 256.149 325.397 263.258 322.053C263.978 321.672 264.782 321.376 265.544 320.953C266.221 320.529 266.982 320.191 267.702 319.767C268.421 319.302 269.225 318.879 269.944 318.413C270.622 317.99 271.383 317.566 272.103 317.058C272.78 316.55 273.457 316.085 274.176 315.577C275.573 314.603 276.884 313.587 278.239 312.445C279.508 311.386 280.82 310.244 282.047 309.058C282.682 308.466 283.274 307.873 283.867 307.281C289.453 301.524 293.98 294.963 297.239 287.852C297.831 286.666 298.297 285.397 298.805 284.169C298.847 283.957 298.932 283.788 298.974 283.619C299.058 283.323 299.143 283.111 299.228 282.899C299.482 282.222 299.693 281.502 299.905 280.825L276.8 280.529H276.631C277.562 281.46 278.408 282.561 279.212 283.788C273.795 282.095 268.252 281.206 265.036 286.709C255.938 303.852 240.28 315.069 226.57 327.514Z" fill="white"/>
<path d="M169.061 257.327C169.484 257.497 169.865 257.666 170.246 257.835C176.847 244.036 183.449 230.237 190.05 216.48V216.438C189.373 215.93 188.696 215.422 188.061 214.914C186.072 213.39 184.126 211.909 181.925 210.258C174.689 225.285 169.23 240.565 169.061 257.327Z" fill="white"/>
<path d="M152.642 118.156C162.079 123.447 171.092 129.965 178.159 133.69C168.765 127.341 160.259 122.05 152.642 118.156ZM168.976 196.506C168.976 194.432 169.019 192.358 169.019 190.283C168.723 192.273 168.765 194.389 168.976 196.506ZM127.21 144.061C132.669 147.532 138.932 151.214 144.856 155.362C139.355 151.172 133.346 147.532 127.21 144.061Z" fill="#4CA3DB"/>
<path d="M96.6149 243.912C96.7841 251.827 98.2229 260.081 102.116 268.97C105.501 278.706 109.395 288.188 112.907 297.881C114.261 301.521 116.419 302.452 120.101 301.902C120.989 301.775 121.878 301.606 122.767 301.436C123.613 301.267 124.544 301.013 125.39 300.801C126.787 300.421 128.141 300.04 129.495 299.532C130.003 299.362 130.468 299.193 130.976 298.939C131.78 298.643 132.584 298.304 133.346 297.923C134.065 297.585 134.912 297.161 135.673 296.738C136.35 296.315 137.07 295.934 137.747 295.426C138.466 294.96 139.228 294.452 139.947 293.902C140.624 293.352 141.301 292.801 141.978 292.209C142.656 291.574 143.375 290.897 143.967 290.262C144.475 289.669 144.983 289.119 145.448 288.526C145.491 288.484 145.533 288.442 145.575 288.357C146.041 287.764 146.464 287.129 146.887 286.452C147.395 285.775 147.818 284.971 148.199 284.209C148.368 283.785 148.58 283.447 148.791 283.023C148.918 282.769 149.003 282.516 149.088 282.304C149.257 281.881 149.426 281.5 149.553 281.034C149.976 280.06 150.23 279.045 150.4 277.944C150.611 277.309 150.696 276.674 150.78 275.997C154.25 255.044 156.07 232.949 167.072 214.239C167.284 213.901 167.453 213.604 167.665 213.266C167.834 212.927 168.003 212.631 168.173 212.292C168.384 211.869 168.553 211.446 168.723 210.938C169.569 208.779 169.908 206.493 169.527 203.911C169.527 203.869 169.527 203.869 169.527 203.827C169.442 201.752 169.146 199.594 169.019 197.477C168.977 197.096 168.977 196.842 168.977 196.461C168.765 194.345 168.723 192.228 169.019 190.239V188.461C168.85 183.509 168.003 178.683 164.533 174.662C164.491 174.62 164.491 174.62 164.449 174.577C164.406 174.493 164.364 174.45 164.322 174.366C158.821 167.043 152.261 160.863 145.11 155.487C145.025 155.403 144.941 155.36 144.856 155.36C138.932 151.17 132.626 147.529 127.21 144.058C126.575 143.762 125.94 143.635 125.348 143.551C124.586 143.424 123.825 143.551 123.148 143.805C122.894 143.932 122.597 144.058 122.386 144.228C122.132 144.355 121.878 144.566 121.709 144.778C121.37 145.032 121.074 145.328 120.82 145.582C119.762 146.725 118.874 148.334 118.069 150.196C117.773 150.958 117.435 151.805 117.181 152.651C116.969 153.286 116.758 153.921 116.588 154.598C116.377 155.149 116.25 155.699 116.123 156.291C116.038 156.503 115.996 156.672 115.954 156.884C115.742 157.561 115.615 158.239 115.446 158.958C115.361 159.297 115.277 159.551 115.234 159.805C114.938 161.117 114.642 162.514 114.43 163.826C114.261 164.63 114.092 165.477 114.007 166.239C113.838 167.001 113.711 167.805 113.542 168.567C113.457 169.075 113.372 169.54 113.288 170.006C113.076 171.022 112.907 171.995 112.738 172.969C112.695 173.265 112.653 173.519 112.568 173.731C112.23 175.636 111.849 177.16 111.468 178.26C111.256 178.302 111.045 178.302 110.791 178.345C110.283 170.302 110.199 163.487 110.537 157.731C110.537 157.18 110.579 156.672 110.622 156.122C110.706 154.344 110.876 152.736 111.087 151.212C111.172 150.535 111.214 149.984 111.299 149.35C111.383 148.799 111.51 148.334 111.595 147.826C111.764 146.852 111.976 145.879 112.23 144.947C112.399 144.185 112.611 143.381 112.865 142.662C112.949 142.365 113.034 142.027 113.161 141.815C113.33 141.349 113.499 140.968 113.626 140.545C113.795 140.122 113.965 139.783 114.134 139.402C114.473 138.725 114.811 138.005 115.192 137.413C115.319 137.201 115.446 137.032 115.573 136.863C115.954 136.228 116.335 135.72 116.8 135.254C117.054 134.916 117.35 134.662 117.604 134.408C118.027 134.027 118.493 133.73 118.958 133.392C119.424 133.095 119.889 132.799 120.397 132.63C126.279 129.963 134.573 132.757 145.11 138.556C147.056 139.614 149.045 140.799 151.204 142.069C153.277 143.339 155.478 144.693 157.72 146.133C159.963 147.572 162.291 149.096 164.703 150.662C167.115 152.228 169.569 153.836 172.108 155.487C175.705 149.096 179.133 143.043 182.687 136.693C181.206 135.72 179.725 134.746 178.329 133.73C178.286 133.688 178.244 133.688 178.202 133.688C171.092 129.963 162.079 123.444 152.685 118.153C152.008 117.73 151.33 117.476 150.738 117.095C137.027 110.238 126.321 107.91 118.493 111.762C118.069 111.973 117.731 112.143 117.35 112.397C110.495 116.418 105.925 125.603 103.555 141.18C103.513 141.392 103.47 141.561 103.428 141.815C101.481 151.466 100.974 161.286 101.439 171.191C101.862 175.297 102.158 179.403 102.412 183.509C102.539 185.964 102.666 188.461 102.666 190.916C102.835 199.086 102.201 207.171 99.9579 215.128V215.255C99.704 215.975 99.4924 216.821 99.2385 217.626C96.6149 226.472 95.9378 235.234 96.6149 243.912ZM120.735 280.865C124.586 284.59 127.083 290.389 125.813 292.505C121.497 288.569 119.043 282.939 120.735 280.865ZM106.686 246.959C106.982 246.875 107.321 246.79 107.66 246.705C109.31 253.817 117.646 267.066 115.954 273.161C114.049 270.96 112.695 268.293 111.51 265.415C110.537 262.367 109.818 259.192 108.675 256.356C108.548 255.933 108.421 255.552 108.21 255.171C107.363 252.547 107.152 249.711 106.686 246.959Z" fill="#4CA3DB"/>
<path d="M12.4044 181.477C12.5736 179.53 14.224 177.583 16.3822 176.567C13.9278 177.498 12.2351 179.318 12.4044 181.477ZM15.1973 266.896C15.959 279.637 18.8788 292.209 23.576 304.145C20.9524 296.992 18.9212 289.415 17.4401 281.457C16.3398 276.674 15.5781 271.764 15.1973 266.896ZM23.8722 177.033C23.9145 177.075 23.9992 177.117 24.0415 177.16C26.1997 179.191 28.4001 181.096 30.6429 182.662C30.1774 182.281 29.8389 181.9 29.458 181.477C27.7654 179.318 25.9034 177.837 23.9569 177.075C23.9145 177.033 23.9145 177.033 23.8722 177.033ZM23.9569 191.255C27.9346 193.752 31.8701 196.334 35.8479 198.916C32.0817 196.123 27.977 193.71 23.9569 191.255ZM41.3491 203.488C41.4337 203.573 41.5183 203.657 41.603 203.742C41.603 203.7 41.5606 203.7 41.5606 203.657C41.476 203.573 41.4337 203.53 41.3491 203.488ZM37.9214 216.06C41.2221 215.509 43.7188 213.139 43.5072 209.414C43.4649 212.716 41.1375 215.382 37.9214 216.06ZM44.9037 187.826C48.2044 187.699 51.759 186.557 55.3982 184.101C57.4294 183.17 59.9684 181.308 62.5498 180.038C57.5141 182.07 51.4628 186.768 44.9037 187.826ZM87.559 310.41C88.4053 311.299 89.167 312.188 89.8018 313.161C89.167 312.145 88.49 311.257 87.559 310.41ZM223.311 314.304C226.527 312.188 229.574 309.902 232.579 307.447C231.563 308.209 230.547 309.013 229.532 309.69C228.77 310.241 228.051 310.749 227.374 311.257C225.766 312.399 224.369 313.415 223.311 314.304ZM247.22 293.394C247.39 293.182 247.601 293.013 247.77 292.801C249.548 291.277 249.209 289.288 248.998 287.129V287.595C249.082 289.457 248.405 291.404 247.22 293.394ZM251.198 280.611C253.018 278.537 255.472 277.097 258.096 276.293C255.26 277.055 252.806 278.452 251.198 280.611ZM229.828 375.088C244.893 364.887 258.18 350.707 269.056 332.506C258.646 349.014 245.443 364.04 229.828 375.088ZM273.541 278.113C274.684 278.791 275.699 279.595 276.673 280.484H276.842C276.419 280.06 275.996 279.722 275.53 279.383C275.319 279.214 275.149 279.087 274.938 278.96C274.472 278.664 274.007 278.367 273.541 278.113ZM289.368 146.852C289.622 147.657 290.087 148.418 290.68 148.969C290.129 148.376 289.664 147.657 289.368 146.852ZM303.882 152.736C310.315 153.498 318.27 154.387 326.395 157.688C323.39 156.292 320.217 155.191 316.916 154.429C313.573 152.863 308.664 152.905 303.882 152.736ZM301.555 279.51C304.644 277.351 308.326 276.124 312.092 275.828C307.903 275.912 304.052 277.097 301.555 279.51ZM318.524 285.859C319.751 285.394 321.063 285.14 322.375 284.886C321.063 285.097 319.751 285.394 318.524 285.859ZM325.803 279.087C327.876 280.399 329.823 282.092 331.346 284.251C330.077 282.134 328.172 280.399 325.803 279.087ZM407.686 377.882C414.541 376.824 421.185 374.622 427.532 371.998C420.465 374.538 413.144 376.739 407.686 377.882ZM447.209 362.347C447.548 362.136 447.886 362.009 448.225 361.797C450.045 360.908 450.891 359.596 450.891 357.606C450.764 359.088 449.41 360.696 447.209 362.347Z" fill="#4CA3DB"/>
<path d="M41.73 203.953C43.0842 205.815 43.6343 207.678 43.5073 209.413C43.7189 213.138 41.2646 215.509 37.9215 216.059C37.8792 216.059 37.8792 216.059 37.8792 216.059C35.5518 216.567 32.7589 216.016 30.0083 213.985C29.6274 213.731 29.2889 213.392 28.9504 213.138C28.5695 212.842 28.2733 212.503 27.9771 212.165C27.8924 212.122 27.8078 212.038 27.7232 211.911C27.3 211.487 26.9192 210.979 26.496 210.429C17.7364 228.249 14.1818 247.001 15.1128 265.329C15.1551 265.88 15.1551 266.388 15.1974 266.938C15.6206 271.806 16.34 276.716 17.3979 281.541C18.879 289.499 20.9102 297.076 23.5338 304.229C23.957 305.245 24.2955 306.261 24.7187 307.277C24.8033 307.489 24.8879 307.7 25.0149 307.912C32.7166 326.029 44.5229 342.537 59.2915 355.997C59.9263 356.59 60.6457 357.183 61.3227 357.775C75.8374 370.516 93.0603 380.336 111.934 385.839C112.018 385.881 112.145 385.924 112.272 385.924C117.393 387.659 122.682 389.098 128.056 390.326C143.417 394.178 158.44 395.575 172.785 394.643C194.113 394.389 213.24 387.067 229.659 375.342C229.701 375.342 229.786 375.299 229.828 375.257C245.443 364.167 258.646 349.182 269.056 332.674C252.299 339.616 235.456 343.468 217.641 338.473C217.049 338.304 216.541 338.135 215.991 337.923C214.425 337.373 213.029 336.865 211.844 336.272C210.659 335.722 209.643 335.214 208.797 334.621C208.204 334.24 207.739 333.902 207.273 333.521C204.015 330.642 204.861 327.764 207.739 324.886C208.924 323.616 210.616 322.304 212.478 321.076C213.579 320.314 214.806 319.552 216.033 318.833C216.837 318.283 217.726 317.817 218.53 317.267C219.376 316.716 220.265 316.251 221.111 315.743C221.788 315.32 222.55 314.939 223.227 314.473C224.285 313.626 225.681 312.568 227.289 311.425C227.966 310.917 228.686 310.409 229.447 309.859C230.421 309.182 231.436 308.378 232.494 307.616C233.044 307.235 233.51 306.854 234.06 306.43C234.187 306.346 234.272 306.261 234.398 306.176C238.926 302.367 243.2 298.261 247.051 293.69C247.094 293.647 247.136 293.605 247.136 293.563C248.321 291.615 249.04 289.626 248.913 287.764V287.298C248.913 287.298 248.913 287.256 248.913 287.213C248.786 285.52 248.744 283.869 249.886 282.345C250.056 282.049 250.267 281.711 250.564 281.499C250.69 281.203 250.86 280.991 251.114 280.779C252.722 278.663 255.176 277.266 258.011 276.462C258.392 276.335 258.773 276.208 259.154 276.123C259.196 276.123 259.196 276.123 259.196 276.123C261.651 275.573 264.316 275.531 266.855 276.039C268.083 276.208 269.268 276.546 270.41 276.927C270.579 276.97 270.749 277.054 270.918 277.139C271.383 277.266 271.764 277.478 272.23 277.689C272.653 277.859 273.034 278.07 273.457 278.324C273.965 278.578 274.388 278.875 274.853 279.171C275.065 279.298 275.234 279.425 275.446 279.594C275.911 279.933 276.334 280.271 276.758 280.695L299.863 280.991C300.413 280.525 300.921 280.102 301.513 279.721C304.01 277.308 307.86 276.123 312.05 276.039C312.304 276.039 312.642 275.996 312.938 275.996C316.959 275.785 321.021 276.673 324.533 278.621C324.999 278.79 325.337 279.002 325.718 279.298C328.088 280.61 330.034 282.388 331.262 284.462C329.019 284.589 326.988 284.674 325.083 284.843C324.152 284.928 323.221 285.055 322.333 285.139C321.021 285.393 319.709 285.689 318.482 286.113C315.604 287.129 312.981 288.949 310.442 292.377C298.847 307.616 290.172 324.674 280.312 341.182C280.566 341.225 281.159 341.352 282.216 341.563C280.482 344.738 278.873 347.786 277.223 350.833C277.435 351.172 277.646 351.468 277.858 351.722C282.851 348.674 287.845 345.669 292.88 342.664C293.092 342.833 293.303 342.918 293.473 343.087C292.796 344.696 291.992 346.346 291.061 348.421C298.889 347.701 303.375 341.352 310.738 338.219C309.384 341.055 308.495 342.875 307.353 345.373C316.747 343.214 323.221 336.907 331.516 332.209C331.304 334.494 331.219 335.934 331.05 337.923C339.598 333.098 344.93 325.351 352.124 319.002C351.151 322.261 350.177 325.563 349.119 329.034C349.966 328.992 350.77 328.568 351.574 327.891C355.044 324.886 358.429 316.505 361.645 307.362C362.068 306.219 362.449 305.034 362.915 303.806C364.057 300.547 365.2 297.288 366.342 294.198C366.723 293.182 367.062 292.208 367.443 291.192C368.797 287.848 370.108 284.801 371.463 282.388C371.97 281.499 372.436 280.652 372.986 279.975C373.24 279.594 373.494 279.298 373.748 279.002C374.044 279.044 374.383 279.171 374.594 279.255C371.039 311.722 346.665 379.193 400.069 379.024C402.565 378.939 404.978 378.643 407.39 378.262C407.474 378.262 407.559 378.262 407.601 378.22C413.06 377.077 420.381 374.918 427.448 372.336C427.617 372.252 427.786 372.167 427.956 372.082C434.472 369.331 440.82 366.029 447.125 362.685C449.326 361.034 450.68 359.426 450.807 357.987C450.807 357.733 450.807 357.437 450.764 357.183C450.553 355.193 451.188 353.246 452.33 351.553C452.753 350.96 453.219 350.452 453.769 349.944C453.98 349.648 454.277 349.394 454.531 349.182C456.054 347.955 457.789 347.024 459.609 346.516C460.074 346.346 460.54 346.304 461.047 346.219C461.301 346.177 461.555 346.135 461.724 346.177C462.401 346.092 463.163 346.092 463.798 346.219C464.306 346.304 464.729 346.389 465.194 346.558C466.041 346.854 466.887 347.32 467.606 347.997C467.818 348.124 468.03 348.378 468.241 348.547C470.611 351.214 472.6 350.749 475.435 349.479C515.467 332.505 546.358 303.002 575.218 271.34C578.603 267.996 580.211 264.186 579.915 259.657C575.684 216.016 578.773 167.085 550.082 130.851C549.574 130.216 549.151 129.666 548.643 129.073C548.093 128.481 547.628 127.973 547.077 127.423C529.431 109.645 500.952 120.354 479.413 126.026C451.653 135.211 422.878 141.857 396.218 153.92C375.567 155.783 356.144 149.18 336.89 141.349C333.504 139.994 330.034 138.555 326.691 137.116C325.549 136.608 324.449 136.185 323.306 135.719C321.021 134.746 318.736 133.772 316.451 132.883C313.065 131.444 309.595 130.132 306.168 128.862C303.925 128.015 301.598 127.211 299.312 126.449C292.373 124.163 285.433 122.301 278.323 121.158C260.973 119.126 239.519 116.29 221.957 121.92C220.011 122.555 218.191 123.317 216.329 124.121C211.759 126.237 207.654 129.073 203.973 132.883C203.253 133.603 202.534 134.407 201.857 135.211C208.543 135.042 215.525 134.195 220.561 139.19C222.423 141.391 222.296 144.312 220.519 146.217C220.095 146.725 219.545 147.063 218.911 147.402C218.276 147.698 217.514 147.91 216.71 147.952C209.093 146.767 203.296 147.698 198.937 150.195C198.175 150.703 197.414 151.169 196.737 151.719C196.017 152.27 195.34 152.82 194.748 153.497C193.859 154.428 192.97 155.444 192.251 156.587C190.135 159.719 188.612 163.487 187.469 167.635C187.258 168.524 187.004 169.413 186.834 170.302C186.073 173.984 185.48 177.921 185.057 181.942C201.011 181.307 204.904 183.677 208.204 180.799C208.67 180.333 209.051 179.91 209.559 179.275C210.024 178.64 210.447 177.963 210.997 177.074C212.521 174.534 214.51 170.725 217.641 165.095C218.107 165.137 218.53 165.222 218.995 165.222C221.45 185.582 207.824 203.572 199.445 220.927C210.32 221.604 222.338 220.884 227.247 233.075C212.394 227.784 194.113 224.271 189.289 244.715C205.708 243.022 216.752 250.387 222.846 265.541C211.082 257.329 190.262 243.572 180.445 262.197C178.498 266.218 176.128 269.986 173.674 274.345C181.672 276.335 187.638 280.356 191.32 288.398C176.848 281.414 164.576 281.541 156.324 297.499C170.162 303.383 174.52 314.896 174.351 329.119C166.734 316.97 155.901 300.166 139.778 311.51C150.4 322.515 151.796 335.129 147.818 348.59C142.867 335.976 139.609 314.261 121.455 316.97C122.682 327.976 124.84 337.965 117.392 347.616C116.927 333.436 116.927 319.552 100.127 313.584C100.72 323.193 98.2653 331.193 91.4523 338.05C92.9757 331.023 93.5258 325.775 92.9334 321.415C92.7641 320.272 92.4679 319.171 92.1294 318.071C91.9601 317.521 91.7485 317.013 91.4946 316.462C91.0291 315.446 90.5213 314.515 89.8443 313.584C89.2095 312.61 88.4478 311.722 87.6015 310.833C86.7974 309.944 85.7395 309.055 84.7239 308.166C83.1159 306.896 81.2963 305.542 79.1804 304.145C77.784 303.256 76.2606 302.282 74.6102 301.351C71.0556 306.007 66.1468 308.208 59.757 308.589C71.4364 297.457 70.0823 288.018 56.1178 283.488C60.8149 280.991 58.1913 277.943 57.1757 275.023C49.2624 252.758 51.209 231.255 61.7036 210.26C64.6657 201.244 75.0757 192.397 71.5211 182.45C71.4788 182.365 71.4364 182.281 71.3941 182.238C69.236 178.937 66.3161 178.937 62.9308 180.249C62.8038 180.291 62.6769 180.376 62.5076 180.46C59.9686 181.73 57.4296 183.593 55.3561 184.524C51.7168 186.979 48.1622 188.122 44.8615 188.249C40.2913 189.053 35.4248 188.037 30.6007 183.085C28.3579 181.519 26.1575 179.656 23.9993 177.582C23.957 177.54 23.8723 177.497 23.83 177.455C23.7454 177.413 23.6608 177.37 23.5761 177.328C21.0794 176.312 18.5404 176.312 16.5092 176.905C16.4246 176.905 16.34 176.947 16.2976 176.989C14.1395 178.005 12.4891 179.952 12.3199 181.9C12.4045 183.423 13.4201 185.074 15.6629 186.513C18.4135 188.207 21.1641 189.857 23.8723 191.635C27.8924 194.09 31.9972 196.503 35.7634 199.297C36.3135 199.635 36.8636 200.016 37.4137 200.355C39.0641 201.413 40.3336 202.556 41.2222 203.741C41.2646 203.741 41.2646 203.784 41.2646 203.826C41.3492 203.868 41.3915 203.91 41.4761 203.995C41.4761 204.037 41.5185 204.037 41.5185 204.08C41.6454 203.741 41.6877 203.868 41.73 203.953ZM477.466 329.584C489.696 322.05 502.687 315.658 513.436 305.88C514.493 304.526 515.975 304.695 517.498 304.822C517.963 307.192 516.821 309.013 514.917 310.367C505.014 316.589 489.442 333.986 477.509 331.023C477.509 330.515 477.466 330.092 477.466 329.584ZM401.592 201.921C406.67 183 417.249 169.286 436.673 163.233C465.321 154.344 494.181 141.687 524.523 141.137C558.503 142.153 561.338 227.953 565.612 254.282C565.062 264.144 540.095 286.113 531.801 292.843C531.589 292.589 531.293 292.335 531.124 292.081C539.122 280.61 547.501 269.351 555.456 257.837C556.556 256.229 557.276 253.731 556.98 251.827C553.51 222.493 549.447 193.201 539.46 165.264C532.182 137.243 477.255 164.46 459.609 170.767C426.982 180.672 416.107 219.149 405.316 214.027C401.508 212.63 400.153 207.127 401.592 201.921ZM345.522 170.979C339.894 165.603 333.716 161.032 326.776 157.857C326.691 157.73 326.522 157.688 326.395 157.688C318.27 154.386 310.315 153.497 303.883 152.735H303.629C298.72 152.566 293.938 152.058 291.145 149.476C290.976 149.307 290.764 149.222 290.638 149.01C290.045 148.418 289.58 147.698 289.326 146.894C287.464 140.756 297.747 138.343 301.767 137.793C323.602 139.105 339.683 148.756 352.251 164.799C358.937 172.503 350.008 177.54 345.522 170.979ZM276.292 197.392C278.281 195.529 280.905 194.26 284.036 193.498C285.729 193.032 287.548 192.778 289.495 192.609C291.061 192.439 292.711 192.355 294.404 192.355C300.116 192.312 306.506 193.117 312.938 194.344C319.328 195.614 325.718 197.392 331.727 199.339C332.362 199.551 332.997 199.805 333.674 199.974C336.467 200.905 339.09 201.921 341.545 202.937C343.068 203.572 344.591 204.207 345.946 204.884C346.919 205.392 347.892 205.815 348.865 206.323C350.727 207.212 352.293 208.143 353.605 209.032C353.478 209.413 353.351 209.794 353.224 210.175C347.511 212.122 339.513 208.905 337.778 216.524C333.801 228.249 325.38 235.445 313.192 237.646C291.061 242.98 272.357 220.334 279.593 199.212C278.45 198.662 277.689 198.196 276.292 197.392Z" fill="#4CA3DB"/>
<path d="M160.217 64.6062C161.275 64.3523 162.333 64.0983 163.433 63.8866C165.549 63.3787 167.707 63.0401 169.781 62.7015C171.854 62.3628 173.97 62.1089 176.001 61.9395C176.043 61.9395 176.043 61.9395 176.043 61.9395C178.117 61.7279 180.19 61.6432 182.179 61.5586C255.514 59.3575 314.546 136.903 388.558 141.306C382.422 135.718 364.734 124.586 341.798 111.93C341.756 111.887 341.714 111.845 341.629 111.803C310.653 93.7283 278.323 77.8128 244.47 66.4264C244.258 66.3417 244.047 66.2571 243.835 66.1724C215.483 55.6749 189.796 49.3256 174.435 52.2463C174.435 52.2463 174.393 52.2463 174.351 52.2463C166.903 52.9659 160.64 55.7596 160.259 63.3364C160.259 63.3364 160.259 63.3364 160.259 63.3787V63.548C160.217 63.8866 160.217 64.2253 160.217 64.6062Z" fill="#4CA3DB"/>
<path d="M393.509 130.215C393.89 130.342 394.229 130.511 394.609 130.723C395.921 131.358 397.233 132.204 398.587 133.009C399.264 133.432 399.984 133.813 400.703 134.194C401.211 134.49 401.719 134.744 402.226 134.913C403.961 135.591 405.654 135.76 407.558 135.167C411.24 133.855 414.921 132.501 418.645 131.188C421.396 130.173 424.189 129.157 426.982 128.141C429.775 127.125 432.525 126.151 435.318 125.135C440.862 123.146 446.405 121.114 451.949 119.209C454.572 118.278 454.784 116.712 454.826 114.553C454.869 113.834 454.869 113.029 454.869 112.31C455.038 103.759 453.768 95.59 451.356 87.8438L450.637 85.5158C450.214 84.2459 449.748 82.9761 449.24 81.7485C448.733 80.4787 448.267 79.2511 447.675 78.0236C444.205 70.3621 439.677 63.1239 434.387 56.4783C434.218 56.2667 434.049 56.055 433.837 55.8434C429.225 50.002 423.935 44.584 418.307 39.5468C416.699 38.1077 415.048 36.6685 413.398 35.314C412.975 34.9754 412.594 34.6791 412.171 34.3404V34.2981H412.129C412.382 35.1023 412.594 35.9489 412.763 36.7532C412.975 37.5574 413.144 38.404 413.313 39.2082C413.483 40.0125 413.652 40.859 413.779 41.6633C413.948 42.4675 414.075 43.3141 414.16 44.1183C414.414 45.7692 414.583 47.3776 414.668 48.9438C414.71 49.6211 414.752 50.2983 414.752 50.8909C414.837 52.838 414.837 54.7005 414.752 56.6053C414.752 57.3249 414.71 58.1291 414.625 58.891C414.668 59.145 414.625 59.4413 414.583 59.6953C414.541 60.4149 414.498 61.1768 414.371 61.8964C414.329 62.7853 414.202 63.6742 414.075 64.5631C413.61 68.0764 412.975 71.5473 412.129 74.9759C411.578 77.2617 410.986 79.5474 410.267 81.8755C409.928 83.0607 409.59 84.2036 409.209 85.3888C408.489 87.6322 407.685 89.9603 406.881 92.2037C404.85 97.9181 402.48 103.505 400.153 109.093C400.111 109.347 400.026 109.643 399.941 109.897C399.814 110.32 399.645 110.786 399.391 111.294C399.053 112.14 398.587 113.114 398.037 114.13C397.825 114.596 397.572 114.977 397.402 115.4C397.36 115.527 397.275 115.611 397.275 115.696C396.894 116.373 396.598 117.008 396.217 117.643C396.006 118.024 395.794 118.363 395.625 118.786C394.99 119.887 394.44 121.03 393.932 122.088C393.805 122.342 393.721 122.553 393.636 122.723C393.34 123.4 393.086 123.993 392.917 124.627C391.986 127.379 391.859 129.453 393.509 130.215Z" fill="#4CA3DB"/>
<path d="M254.626 57.498C257.461 58.5138 260.296 59.5297 263.089 60.6303C265.882 61.6885 268.675 62.7467 271.468 63.8896C274.896 65.2441 278.366 66.6833 281.751 68.1648C284.84 69.477 287.887 70.8315 290.934 72.2706C294.446 73.8368 298 75.4876 301.47 77.1384C304.348 78.5353 307.268 79.9321 310.103 81.4136C312.219 82.4718 314.335 83.5301 316.451 84.6729C320.259 86.6201 324.11 88.6518 327.876 90.7259C333.081 93.562 338.286 96.4826 343.449 99.488C343.449 99.488 343.449 99.4456 343.491 99.488C348.654 102.493 353.774 105.499 358.894 108.673C364.015 111.806 369.135 114.98 374.171 118.24C376.71 119.848 379.249 121.499 381.788 123.107C383.142 120.144 384.538 117.224 385.892 114.261C387.289 111.255 388.685 108.292 389.997 105.287C391.944 100.758 393.89 96.271 395.625 91.6995C396.26 90.091 396.81 88.5248 397.36 86.9587C397.953 85.3925 398.461 83.784 398.968 82.2179C399.518 80.6094 399.942 79.0009 400.407 77.4347C400.873 75.8686 401.253 74.2178 401.634 72.6516C401.677 72.4823 401.719 72.313 401.761 72.1437C402.057 70.9585 402.311 69.7733 402.523 68.5457C403.412 64.0589 404.089 59.5721 404.343 55.0006C404.427 54.4926 404.427 54.027 404.427 53.5191C404.596 50.3867 404.596 47.3391 404.385 44.1644C404.343 43.4448 404.3 42.6829 404.216 41.921C404.046 39.8469 403.75 37.7305 403.454 35.6564C398.587 31.6351 393.129 28.1219 387.204 25.1165C385.004 23.9313 382.634 22.8731 380.307 21.8572C377.471 20.6297 374.509 19.5291 371.589 18.5979C371.166 18.4709 370.828 18.3439 370.404 18.217C366.342 16.9048 362.11 15.8042 357.921 14.9577C356.355 14.619 354.79 14.3227 353.266 14.1111C350.431 13.6455 347.596 13.3068 344.761 13.0529C341.883 12.7566 339.048 12.6296 336.213 12.5872C335.282 12.5449 334.351 12.5449 333.462 12.5449C332.489 12.5449 331.515 12.5873 330.5 12.6296C329.823 12.6296 329.103 12.6719 328.469 12.7142C327.199 12.7566 325.972 12.7989 324.829 12.8836C322.798 13.0529 320.767 13.2645 318.736 13.5185C317.509 13.6878 316.324 13.8994 315.139 14.1111C313.827 14.3227 312.515 14.5767 311.203 14.8307C310.484 14.9577 309.722 15.127 309.003 15.3386C308.283 15.5079 307.564 15.6772 306.845 15.8889C305.364 16.2698 303.925 16.6508 302.486 17.1164C299.524 18.0053 296.604 19.0635 293.811 20.2911C292.457 20.799 291.188 21.3493 289.96 21.9842C286.956 23.4234 284.078 25.0742 281.285 26.852C280.354 27.4446 279.423 28.0372 278.535 28.7145C276.123 30.4076 273.795 32.2277 271.595 34.2595C270.495 35.2331 269.437 36.249 268.379 37.3495C267.702 38.0268 266.982 38.7887 266.348 39.5083C265.713 40.2279 265.036 40.9898 264.401 41.7517C263.851 42.3866 263.428 42.9792 262.92 43.6141C262.074 44.7147 261.227 45.8576 260.466 47.0004C259.958 47.72 259.535 48.4396 259.069 49.1592C258.477 50.0481 257.927 51.0217 257.376 51.9529C256.996 52.6301 256.657 53.3497 256.276 54.027C256.065 54.4503 255.853 54.8312 255.641 55.2545C255.345 56.0164 254.964 56.736 254.626 57.498Z" fill="#4CA3DB"/>
<path d="M193.563 209.116C194.07 208.608 194.451 208.227 194.79 207.804C195.171 207.38 195.467 207.042 195.678 206.703C196.313 205.772 196.398 205.01 196.186 204.079C196.102 203.825 196.017 203.486 195.848 203.19C195.594 202.555 195.213 201.751 194.663 200.777C192.928 197.518 192.462 193.624 191.277 189.56C190.939 189.56 190.6 189.602 190.22 189.645C189.416 189.687 188.442 189.729 187.427 189.772C186.877 189.814 186.369 189.814 185.819 189.856C183.999 197.095 187.638 207.423 193.563 209.116Z" fill="white"/>
<path d="M405.316 214.028C416.107 219.149 426.982 180.715 459.651 170.768C477.297 164.461 532.182 137.286 539.46 165.265C549.404 193.202 553.509 222.493 556.979 251.827C557.233 253.774 556.556 256.272 555.456 257.88C547.5 269.393 539.122 280.653 531.124 292.124C531.335 292.378 531.631 292.674 531.843 292.886C540.137 286.113 565.146 264.187 565.654 254.282C561.38 227.996 558.545 142.196 524.565 141.138C494.223 141.73 465.363 154.344 436.715 163.233C417.291 169.286 406.67 183.001 401.592 201.922C400.153 207.128 401.465 212.588 405.316 214.028Z" fill="black"/>
<path d="M279.55 199.252C272.356 220.332 291.018 242.978 313.15 237.645C325.337 235.443 333.758 228.248 337.736 216.523C339.471 208.903 347.511 212.078 353.181 210.131C353.308 209.75 353.435 209.369 353.562 208.988C352.208 208.099 350.642 207.21 348.78 206.279C347.849 205.771 346.876 205.305 345.861 204.882C344.506 204.247 342.983 203.57 341.46 202.935C339.005 201.962 336.382 200.946 333.589 200.014C332.954 199.803 332.277 199.549 331.642 199.379C325.676 197.39 319.286 195.655 312.896 194.385C306.464 193.115 300.074 192.311 294.361 192.353C292.626 192.353 291.018 192.438 289.452 192.565C287.548 192.776 285.729 193.03 284.036 193.496C280.904 194.3 278.281 195.57 276.292 197.39C277.646 198.194 278.45 198.66 279.55 199.252ZM287.421 202.512C290.341 198.491 302.401 203.993 307.395 203.909C305.321 215.21 309.68 221.941 321.994 224.734C316.747 231.719 303.332 231.845 295.377 226.554C287.76 221.517 284.12 210.512 287.421 202.512Z" fill="black"/>
<path d="M295.377 226.597C303.333 231.889 316.747 231.762 321.952 224.777C309.68 221.941 305.321 215.253 307.353 203.952C302.402 204.036 290.341 198.534 287.421 202.513C284.121 210.555 287.802 221.518 295.377 226.597Z" fill="white"/>
<path d="M289.326 146.849C289.58 147.696 290.045 148.415 290.68 149.008C290.807 149.22 290.976 149.304 291.145 149.474C293.642 151.505 298.043 152.056 303.671 152.775H303.883C310.315 153.537 318.271 154.426 326.395 157.728C326.522 157.728 326.649 157.77 326.776 157.897C333.081 160.437 339.514 164.458 345.48 171.019C349.966 177.538 358.937 172.543 352.293 164.797C339.683 148.754 323.645 139.103 301.809 137.791C297.747 138.299 287.506 140.712 289.326 146.849Z" fill="black"/>
<path d="M477.466 329.585C477.466 330.093 477.509 330.558 477.509 331.024C489.442 333.945 504.972 316.59 514.917 310.325C516.863 308.971 517.963 307.193 517.498 304.78C515.974 304.653 514.536 304.526 513.435 305.838C502.687 315.659 489.696 322.008 477.466 329.585Z" fill="black"/>
<path d="M106.644 246.959C107.152 249.711 107.363 252.547 108.21 255.171C108.421 255.552 108.548 255.933 108.675 256.356C109.818 259.192 110.495 262.409 111.51 265.457C112.653 268.335 114.049 270.96 115.954 273.161C117.689 267.108 109.31 253.859 107.66 246.748C107.321 246.79 106.983 246.875 106.644 246.959Z" fill="black"/>
<path d="M125.813 292.504C127.083 290.345 124.544 284.589 120.735 280.864C119.085 282.938 121.497 288.568 125.813 292.504Z" fill="black"/>
</svg>
