<svg width="220" height="59" viewBox="0 0 220 59" fill="none" xmlns="http://www.w3.org/2000/svg">
<path d="M84.5896 26.6395C84.6423 24.9303 83.5536 23.344 81.9087 22.6942C81.4404 22.4952 80.978 22.3957 80.5448 22.3957C79.3683 22.3957 78.6249 23.104 78.1273 23.5781C77.9985 23.701 77.8171 23.8767 77.7117 23.941L77.2668 23.7245C76.6464 23.4259 76.0083 23.1215 75.3527 22.8464L75.3059 22.8289C74.9254 22.6884 74.5391 22.6181 74.1586 22.6181C73.4503 22.6181 72.783 22.8581 72.2094 23.303C72.3674 22.7469 72.4318 22.1147 72.3089 21.3889C72.0338 19.305 71.2026 13.0827 66.3031 13.0827C63.669 13.0827 60.5784 14.9032 57.3062 16.829C57.1892 16.8992 57.0721 16.9695 56.955 17.0397C56.914 16.9929 56.8731 16.9519 56.8379 16.9051C57.0311 16.7997 57.236 16.6885 57.4467 16.5714C60.1511 15.108 63.8505 13.1003 64.3481 10.3432C64.5588 9.17837 64.1959 8.04864 63.2651 6.97744L63.1949 6.89549L63.113 6.8311C61.8076 5.82429 60.3091 5.33259 58.5296 5.33259C56.5745 5.33259 54.6312 5.91794 52.7522 6.48574C52.0146 6.70817 51.318 6.9189 50.6449 7.08865C50.639 7.07109 50.6273 7.05939 50.6215 7.04183C50.5103 6.81939 50.3756 6.54427 50.1707 6.30428C47.5835 2.24191 43.164 0 37.7085 0C34.2491 0 30.6374 0.930715 27.5468 2.61654C27.2131 2.75702 26.7741 2.77459 26.3058 2.79215C25.2405 2.83312 23.4551 2.89751 22.8698 5.20381L22.8581 5.24479L22.8522 5.28576C22.8171 5.49063 22.7468 5.63697 22.4542 5.90038C19.7381 8.28863 18.0991 11.5139 17.5723 15.4944C17.2386 15.3948 16.8933 15.2836 16.5421 15.1724C14.7626 14.6105 12.9246 14.031 11.0631 14.031C9.57049 14.031 8.28271 14.4056 7.14126 15.1724L7.112 15.19L7.08273 15.2134C3.5706 17.9119 1.32283 22.343 0.755037 27.6873L0.749183 27.7459V27.8044C0.755037 28.3546 0.614552 29.5897 0.474066 30.8951C-0.175678 36.7779 -0.234214 39.1076 0.784305 40.0032C5.53154 44.9963 11.2095 50.5396 18.5674 53.3434C21.6698 55.3863 25.1409 56.5629 28.1087 56.5629C32.4228 56.5629 35.2325 54.2039 35.8764 50.1708C38.8675 51.5464 42.3504 52.922 46.2196 53.6186L46.284 53.6303L46.3484 53.6361C47.3845 53.6947 48.1805 54.0459 48.8478 54.7307L48.883 54.7659L48.9181 54.7951C50.639 56.2761 53.3375 57.5112 54.3619 57.7863C56.516 58.5063 58.7813 58.8692 61.0876 58.8692C69.1304 58.8692 77.1205 54.4146 81.4404 47.5133C84.9935 41.8412 85.5262 35.4901 82.9799 29.5136C83.9633 28.8522 84.5487 27.8219 84.5896 26.6395Z" fill="white"/>
<path d="M81.2181 25.5741C81.5166 25.7146 81.7449 25.9839 81.7683 26.2531C81.7917 25.9546 81.5576 25.7029 81.2181 25.5741ZM81.0776 40.0851C80.8727 41.1856 80.5917 42.2333 80.2288 43.2226C80.8727 41.566 81.2766 39.8334 81.3878 38.0715C81.3293 38.7388 81.2239 39.4178 81.0776 40.0851ZM79.4093 26.2473C79.3566 26.3058 79.3098 26.3585 79.2454 26.4112C79.5557 26.1946 79.86 25.937 80.1586 25.6502C80.1644 25.6502 80.1644 25.6444 80.1703 25.6385C79.9069 25.7439 79.6435 25.9488 79.4093 26.2473ZM78.5254 28.6648C79.0757 28.3077 79.62 27.9507 80.1703 27.6053C79.6142 27.9448 79.0464 28.2785 78.5254 28.6648ZM77.741 29.3145C77.741 29.3204 77.7352 29.3204 77.7352 29.3263C77.7469 29.3145 77.7586 29.3028 77.7703 29.2911C77.7528 29.3028 77.7528 29.3087 77.741 29.3145ZM77.4659 30.1165C77.4367 30.6316 77.7762 30.9594 78.2386 31.0355C77.7937 30.9418 77.4718 30.5731 77.4659 30.1165ZM74.8377 26.0541C75.1889 26.2297 75.5401 26.4873 75.8269 26.6161C76.3303 26.9556 76.822 27.1136 77.2786 27.1312C76.3655 26.9848 75.5284 26.3351 74.8377 26.0541ZM71.0621 44.4635C71.1499 44.3289 71.2553 44.206 71.3724 44.0831C71.2495 44.2001 71.1499 44.3231 71.0621 44.4635ZM63.4467 22.6415C64.2662 22.062 65.1383 21.5586 65.8876 21.0786C65.0388 21.5586 64.2135 22.062 63.4467 22.6415ZM60.1043 27.4707C60.1043 27.7575 60.1101 28.0443 60.1101 28.3312C60.1394 28.0385 60.1453 27.7458 60.1043 27.4707ZM58.8341 19.6445C59.8175 19.1294 61.0643 18.2279 62.3638 17.4962C61.3218 18.0347 60.1394 18.7664 58.8341 19.6445ZM57.1951 31.0882C57.2887 31.0179 57.3824 30.9477 57.4702 30.8774C57.3824 30.9418 57.2946 31.0179 57.1951 31.0882ZM52.0322 44.2001C51.9386 44.1299 51.8391 44.0597 51.7337 43.9836C51.6986 43.9601 51.6635 43.9367 51.6342 43.9075C51.7337 44.0011 51.8391 44.0772 51.9444 44.1592C52.161 44.3172 52.3776 44.4694 52.5942 44.6157C52.4478 44.4987 52.2547 44.3582 52.0322 44.2001ZM49.0469 40.928V40.8636C49.0177 41.1563 48.9708 41.4373 49.2167 41.648C49.2401 41.6773 49.2694 41.7007 49.2928 41.7299C49.123 41.4548 49.0294 41.1856 49.0469 40.928ZM46.2665 47.1386C47.7708 49.6556 49.603 51.6166 51.6927 53.0273C49.5328 51.4995 47.7065 49.4215 46.2665 47.1386ZM47.7884 39.3651C48.1513 39.4705 48.4908 39.6695 48.7425 39.9622C48.5201 39.6636 48.1747 39.4705 47.7884 39.3651ZM45.4587 39.7397C45.4294 39.7573 45.406 39.7748 45.3767 39.7983C45.3124 39.8451 45.2538 39.8919 45.1953 39.9505C45.0548 40.0851 44.9436 40.2373 44.8616 40.4012C44.9728 40.2314 45.0899 40.0792 45.2187 39.9505C45.3475 39.8275 45.488 39.7163 45.6519 39.6227C45.5816 39.6519 45.5172 39.6929 45.4587 39.7397ZM40.3134 39.3007C40.8344 39.3417 41.3436 39.5114 41.771 39.81C41.4256 39.4763 40.8929 39.3124 40.3134 39.3007ZM38.891 40.5534C39.0725 40.5885 39.2539 40.6295 39.4237 40.688C39.2539 40.6236 39.0725 40.5826 38.891 40.5534ZM37.6559 40.4656C37.8666 40.167 38.13 39.9329 38.4227 39.7514C38.0891 39.9329 37.8257 40.1729 37.6559 40.4656ZM35.8062 2.95599C36.2042 2.92087 36.6023 2.89746 36.9886 2.8916C36.5964 2.89746 36.2042 2.91502 35.8062 2.95599ZM28.7585 13.8319C28.9985 14.4641 29.2619 15.0846 29.537 15.7109C29.2619 15.0846 29.0044 14.4641 28.7585 13.8319ZM26.4756 5.90033C26.4405 6.0174 26.4112 6.12862 26.3878 6.23983C26.4171 6.12862 26.4463 6.0174 26.4756 5.90033ZM24.3508 52.5941C25.2288 52.9629 26.1478 53.2614 27.0961 53.4078C26.3351 53.2556 25.3225 52.9512 24.3508 52.5941ZM23.4727 8.87979C24.1635 8.0837 24.8542 7.33445 25.621 6.62617C24.8483 7.31689 24.1166 8.072 23.4727 8.87979ZM21.1138 50.6098C21.1138 50.879 21.2308 51.0605 21.4825 51.1893C21.5352 51.2185 21.5762 51.2361 21.623 51.2654C21.3186 51.0371 21.1313 50.8147 21.1138 50.6098ZM20.903 13.8377C20.8738 13.9607 20.8445 14.0836 20.8152 14.2007C20.786 14.3236 20.7625 14.4524 20.7391 14.5694C20.7157 14.6924 20.6923 14.8211 20.6747 14.9441C20.6513 15.067 20.6396 15.1958 20.6221 15.3187C20.5694 15.7694 20.546 16.2201 20.5577 16.6826C20.5577 15.6348 20.6865 14.628 20.9499 13.6621C20.9674 13.5978 20.9791 13.5451 20.9967 13.4807C20.9674 13.6036 20.9323 13.7207 20.903 13.8377Z" fill="black"/>
<path d="M81.458 23.7655C79.0873 22.7587 78.7654 25.6679 77.2669 25.0123C76.4766 24.6376 75.704 24.2513 74.902 23.9177C72.5021 23.0221 70.7987 26.5108 71.864 28.3956C73.304 31.0766 74.7908 33.7809 74.1177 36.9301C73.7079 39.2364 72.543 41.291 70.2543 42.1866C71.4426 38.692 73.4562 34.5477 71.3021 31.059C70.8514 30.3332 70.4592 29.5722 70.1314 28.7937C68.5451 25.264 71.7001 24.3977 71.2026 21.6289C69.6982 10.1794 63.6574 14.4466 56.6975 18.4973C56.1472 17.8768 55.638 17.309 55.0995 16.7119C57.8038 14.991 65.9402 11.8184 62.4047 7.77356C58.875 5.03995 54.3268 7.43405 50.5337 8.30623C49.7961 8.56379 49.6791 7.46332 49.2635 7.05357C44.7738 -0.175571 34.7935 -0.0584999 28.0033 3.66436C26.4697 4.37264 24.4854 3.21949 23.9 5.54921C23.8064 6.09359 23.5371 6.43895 23.1508 6.79016C20.1596 9.41841 18.7723 13.0125 18.503 16.9578C15.0728 16.1266 11.0163 13.9491 7.72663 16.15C4.09158 18.9421 2.28283 23.4435 1.81454 27.8805C1.8204 29.9117 0.339447 38.3994 1.5043 39.2832C6.59104 44.6334 12.0114 49.8021 19.0416 52.442C25.9839 57.0722 34.7642 57.0839 34.9105 48.5904C38.6158 50.3699 42.3329 51.8859 46.3894 52.6176C47.6654 52.6937 48.7308 53.1445 49.603 54.0401C51.242 55.4449 53.8644 56.6156 54.6487 56.8146C70.7694 62.2292 89.5418 45.5465 81.54 29.0805C84.3321 28.1791 83.9458 24.7489 81.458 23.7655ZM58.5589 19.7851C58.6467 19.7382 58.7287 19.6972 58.8223 19.6504C58.8282 19.6446 58.834 19.6446 58.8399 19.6446C60.1452 18.7665 61.3218 18.0348 62.3696 17.4963C62.4632 17.4378 62.5569 17.4027 62.6388 17.35C64.2193 16.4895 65.8466 15.91 67.0992 16.6124C67.1578 16.6417 67.2046 16.6651 67.2573 16.7002C68.2056 17.2563 68.8378 18.5265 69.1656 20.6806C69.1714 20.7099 69.1773 20.7333 69.1831 20.7684C69.4524 22.1031 69.5226 23.4611 69.4582 24.8308C69.4348 25.3986 69.3938 25.9664 69.3236 26.5342C69.306 26.8737 69.2885 27.2191 69.2885 27.5586C69.2943 28.7293 69.4758 29.8239 69.6631 30.9068V30.9244C69.6982 31.0239 69.7275 31.1409 69.7626 31.2522C70.108 32.4756 70.2075 33.6872 70.108 34.8872C70.0846 35.9818 69.8855 37.1233 69.347 38.3525C68.8787 39.6988 68.3402 41.01 67.8543 42.3505C67.667 42.8539 67.3685 42.9827 66.8592 42.9066C66.7363 42.889 66.6134 42.8656 66.4905 42.8422C66.3734 42.8188 66.2446 42.7837 66.1276 42.7544C65.9344 42.7017 65.7471 42.649 65.5598 42.5788C65.4895 42.5554 65.4251 42.532 65.3549 42.4968C65.2437 42.4559 65.1324 42.409 65.0271 42.3564C64.9276 42.3095 64.8105 42.251 64.7051 42.1925C64.6115 42.1339 64.512 42.0812 64.4183 42.011C64.3188 41.9466 64.2134 41.8764 64.1139 41.8003C64.0203 41.7242 63.9266 41.6481 63.833 41.5661C63.7393 41.4783 63.6398 41.3847 63.5578 41.2969C63.4876 41.2149 63.4174 41.1388 63.353 41.0569C63.3471 41.051 63.3413 41.0452 63.3354 41.0335C63.271 40.9515 63.2125 40.8637 63.1539 40.77C63.0837 40.6764 63.0252 40.5652 62.9725 40.4598C62.9491 40.4013 62.9198 40.3544 62.8905 40.2959C62.873 40.2608 62.8613 40.2257 62.8496 40.1964C62.8261 40.1379 62.8027 40.0852 62.7852 40.0208C62.7266 39.8862 62.6915 39.7457 62.6681 39.5935C62.6388 39.5057 62.6271 39.4179 62.6154 39.3242C62.1354 36.4267 61.8837 33.3712 60.3618 30.7839C60.3325 30.7371 60.3091 30.6961 60.2799 30.6493C60.2447 30.6024 60.2272 30.5556 60.2096 30.5146C60.1803 30.4561 60.1569 30.3975 60.1335 30.3273C60.0164 30.0288 59.9696 29.7127 60.0223 29.3556C60.0223 29.3498 60.0223 29.3498 60.0223 29.3439C60.034 29.0571 60.075 28.7586 60.0925 28.4659C60.0984 28.4132 60.0984 28.3781 60.0984 28.3254C60.0984 28.0386 60.0925 27.7517 60.0925 27.4649V27.4298C60.0925 27.4064 60.0925 27.3888 60.0867 27.3654C60.0867 27.3186 60.0925 27.2893 60.0925 27.2483V27.2191C60.116 26.5342 60.233 25.8669 60.713 25.3108C60.7189 25.305 60.7189 25.305 60.7247 25.2991C60.7306 25.2874 60.7364 25.2815 60.7423 25.2698C61.3628 24.2455 62.3462 23.4025 63.3998 22.6591C63.4115 22.6474 63.4232 22.6416 63.4349 22.6416C64.2017 22.0562 65.0271 21.5587 65.8758 21.0787C65.9637 21.0377 66.0515 21.0202 66.1334 21.0084C66.2388 20.9909 66.3441 21.0084 66.4378 21.0436C66.4729 21.0611 66.5139 21.0787 66.5432 21.1021C66.5783 21.1197 66.6134 21.1489 66.6368 21.1782C66.6836 21.2133 66.7246 21.2543 66.7597 21.2894C66.9061 21.4475 67.029 21.6699 67.1402 21.9275C67.187 22.0328 67.228 22.1499 67.2631 22.267C67.2924 22.3548 67.3217 22.4426 67.3451 22.5362C67.3744 22.6123 67.3919 22.6884 67.4095 22.7704C67.4212 22.7996 67.427 22.823 67.4329 22.8523C67.4622 22.946 67.4797 23.0396 67.5031 23.1391C67.5148 23.186 67.5266 23.2211 67.5324 23.2562C67.5734 23.4377 67.6144 23.6308 67.6436 23.8123C67.667 23.9235 67.6905 24.0406 67.7022 24.146C67.7256 24.2513 67.7431 24.3625 67.7665 24.4679C67.7783 24.5381 67.79 24.6025 67.8017 24.6669C67.8309 24.8074 67.8544 24.942 67.8778 25.0767C67.8836 25.1176 67.8895 25.1528 67.9012 25.182C67.948 25.4454 68.0007 25.6562 68.0534 25.8084C68.0826 25.8142 68.1119 25.8142 68.147 25.8201C68.2173 24.7079 68.229 23.7655 68.1822 22.9694C68.1822 22.8933 68.1763 22.823 68.1704 22.747C68.1587 22.5011 68.1353 22.2787 68.1061 22.0679C68.0943 21.9743 68.0885 21.8982 68.0768 21.8104C68.0651 21.7343 68.0475 21.6699 68.0358 21.5997C68.0124 21.465 67.9831 21.3304 67.948 21.2016C67.9246 21.0963 67.8953 20.985 67.8602 20.8855C67.8485 20.8445 67.8368 20.7977 67.8192 20.7684C67.7958 20.7041 67.7724 20.6514 67.7548 20.5928C67.7314 20.5343 67.708 20.4875 67.6846 20.4348C67.6378 20.3411 67.5909 20.2416 67.5383 20.1597C67.5207 20.1304 67.5031 20.107 67.4856 20.0836C67.4329 19.9958 67.3802 19.9255 67.3158 19.8611C67.2807 19.8143 67.2397 19.7792 67.2046 19.7441C67.1461 19.6914 67.0817 19.6504 67.0173 19.6036C66.9529 19.5626 66.8885 19.5216 66.8183 19.4982C66.0046 19.1295 64.8573 19.5158 63.3998 20.3177C63.1305 20.4699 62.8554 20.6338 62.5569 20.8036C62.2701 20.9792 61.9657 21.1665 61.6554 21.3655C61.3452 21.5645 61.0233 21.7753 60.6896 21.9918C60.3559 22.2084 60.0164 22.4309 59.6652 22.6591C59.1677 21.7753 58.6935 20.9382 58.2018 20.0602C58.3306 19.9665 58.4301 19.8611 58.5589 19.7851ZM57.195 31.0883C57.2887 31.018 57.3823 30.9478 57.4701 30.8775C57.7453 30.6668 58.0145 30.4619 58.3189 30.2337C59.314 32.3117 60.0691 34.4306 60.0925 36.7487C60.034 36.7721 59.9813 36.7955 59.9286 36.8189C59.0213 34.9048 58.1082 32.9965 57.195 31.0883ZM56.7092 30.0756C56.6389 30.0054 56.5863 29.9527 56.5394 29.8941C56.4867 29.8356 56.4458 29.7888 56.4165 29.742C56.3228 29.6132 56.3111 29.5078 56.3463 29.379C56.358 29.3439 56.3697 29.2971 56.3931 29.2561C56.4282 29.1683 56.4809 29.0571 56.557 28.9225C56.797 28.4717 56.8614 27.9332 57.0253 27.3713C57.0721 27.3713 57.1189 27.3771 57.1716 27.383C57.2828 27.3888 57.4175 27.3947 57.5579 27.4005C57.634 27.4064 57.7043 27.4064 57.7804 27.4122C58.0321 28.4132 57.5345 29.8415 56.7092 30.0756ZM49.6732 10.3433C49.7025 10.3316 49.7317 10.3199 49.761 10.3081C53.6829 8.85646 57.236 7.97843 59.3608 8.38233C59.3608 8.38233 59.3667 8.38233 59.3726 8.38233C60.4028 8.48184 61.2691 8.86817 61.3218 9.91596C61.3218 9.91596 61.3218 9.91596 61.3218 9.92181V9.94523C61.3276 9.99791 61.3276 10.0447 61.3276 10.0974V10.1033C61.1813 10.0623 61.035 10.0272 60.8828 9.99791C60.5901 9.92766 60.2916 9.88084 60.0047 9.83401C59.7179 9.78718 59.4252 9.75206 59.1443 9.72864C59.1384 9.72864 59.1384 9.72864 59.1384 9.72864C58.8574 9.70523 58.5706 9.68767 58.2896 9.67596C48.1454 9.37158 39.9797 20.0953 29.7419 20.7041C30.5906 19.9314 33.0374 18.3919 36.21 16.6417C36.2159 16.6358 36.2217 16.63 36.2334 16.6241C40.5183 14.1188 44.9904 11.9179 49.6732 10.3433ZM27.5526 7.25844C27.5585 7.15893 27.5643 7.05357 27.576 6.94821C27.5995 6.66138 27.6404 6.3687 27.6814 6.08188C28.3546 5.52579 29.1097 5.03995 29.9292 4.62434C30.2336 4.46044 30.5614 4.31411 30.8833 4.17362C31.2755 4.00387 31.6852 3.85168 32.0891 3.7229C32.1418 3.69948 32.1945 3.68778 32.253 3.67021C32.815 3.48875 33.4003 3.33656 33.9798 3.21949C34.1964 3.17266 34.413 3.13169 34.6237 3.10242C35.0159 3.03803 35.4081 2.9912 35.8003 2.95608C36.1983 2.91511 36.5905 2.89755 36.9827 2.89169C37.1115 2.88584 37.2403 2.88584 37.3632 2.88584C37.4978 2.88584 37.6324 2.89169 37.7729 2.89755C37.8666 2.89755 37.9661 2.9034 38.0539 2.90925C38.2178 2.92096 38.3817 2.92681 38.5397 2.93852C38.8207 2.96193 39.1017 2.9912 39.3827 3.02632C39.5524 3.04974 39.7163 3.07901 39.8802 3.10827C40.0617 3.13754 40.2431 3.17266 40.4246 3.20778C40.5241 3.22534 40.6295 3.24876 40.729 3.27803C40.8285 3.30144 40.928 3.32485 41.0275 3.35412C41.2324 3.4068 41.4314 3.45949 41.6304 3.52388C42.0402 3.6468 42.4441 3.79314 42.8304 3.96289C43.0119 4.03899 43.1875 4.11508 43.3572 4.20289C43.7728 4.40191 44.1709 4.6302 44.5572 4.87605C44.686 4.958 44.8148 5.03995 44.9377 5.1336C45.2713 5.36775 45.5933 5.61945 45.8977 5.90042C46.0499 6.03505 46.1962 6.17554 46.3425 6.32773C46.4362 6.42139 46.5357 6.5209 46.6235 6.62626C46.7113 6.72577 46.805 6.83113 46.8928 6.9365C46.9689 7.0243 47.0274 7.10625 47.0976 7.19406C47.2147 7.34625 47.3318 7.50429 47.4372 7.66234C47.5074 7.76185 47.5659 7.86136 47.6303 7.96087C47.7123 8.0838 47.7884 8.21843 47.8645 8.34721C47.923 8.44086 47.9698 8.53452 48.0167 8.63403C48.0459 8.69256 48.0752 8.74525 48.1045 8.80378C48.163 8.90329 48.2098 9.00866 48.2566 9.10817H48.2508C47.8586 9.24865 47.4664 9.38914 47.0801 9.54133C46.6937 9.68767 46.3074 9.83401 45.9211 9.99205C45.4469 10.1794 44.9669 10.3784 44.4987 10.5833C44.0714 10.7706 43.6499 10.9579 43.2284 11.1511C42.7426 11.3676 42.2509 11.5959 41.7709 11.8242C41.367 12.0174 40.969 12.2164 40.5768 12.4154C40.2841 12.5618 39.9914 12.7081 39.6987 12.8661C39.1719 13.1354 38.6393 13.4164 38.1183 13.7032C37.3983 14.0954 36.6783 14.4993 35.9642 14.9149H35.9583C35.2442 15.3305 34.5359 15.7461 33.8276 16.1851C33.1194 16.6183 32.4111 17.0573 31.7145 17.508C31.3633 17.7363 31.0121 17.9587 30.6667 18.187L30.6609 18.1812C30.4736 17.7714 30.2804 17.3675 30.0931 16.9578C29.8999 16.5422 29.7067 16.1324 29.5253 15.7168C29.256 15.0905 28.9867 14.47 28.7468 13.8378C28.6589 13.6154 28.5829 13.3988 28.5068 13.1822C28.4248 12.9657 28.3546 12.7432 28.2843 12.5266C28.2082 12.3042 28.1497 12.0818 28.0853 11.8652C28.0209 11.6486 27.9682 11.4203 27.9155 11.2037C27.9097 11.1803 27.9038 11.1569 27.898 11.1335C27.8512 10.9696 27.816 10.7998 27.7926 10.6359C27.6697 10.0155 27.576 9.39499 27.5409 8.76281C27.5292 8.69256 27.5292 8.62818 27.5292 8.55793C27.5234 8.11892 27.5234 7.69161 27.5526 7.25844ZM20.6279 15.3188C20.6454 15.1959 20.6571 15.0671 20.6806 14.9442C20.6981 14.8212 20.7215 14.6925 20.7449 14.5695C20.7684 14.4525 20.7918 14.3237 20.821 14.2008C20.8503 14.0837 20.8796 13.9608 20.9088 13.8378C20.944 13.7208 20.9791 13.5978 21.0084 13.4808C21.0201 13.4164 21.0435 13.3637 21.061 13.2993L21.1605 12.9774C21.2191 12.8018 21.2835 12.6262 21.3537 12.4564C21.424 12.2808 21.4942 12.111 21.5703 11.9413C22.0152 10.9111 22.6122 9.93937 23.3556 9.02036C23.3732 9.0028 23.3849 8.97939 23.4083 8.96183C23.4317 8.93256 23.4551 8.90329 23.4844 8.87403C24.1224 8.06623 24.8541 7.31698 25.6327 6.62041C25.8551 6.42139 26.0834 6.22236 26.3117 6.03505C26.3702 5.98822 26.4229 5.94139 26.4814 5.89457H26.4873C26.4522 6.00578 26.4229 6.12285 26.3936 6.23407C26.3644 6.34529 26.3409 6.46236 26.3175 6.57358C26.2941 6.6848 26.2707 6.80187 26.2531 6.91308C26.2297 7.0243 26.2122 7.14137 26.2005 7.25259C26.1653 7.48088 26.1419 7.70331 26.1302 7.9199C26.1244 8.01355 26.1185 8.10721 26.1185 8.18916C26.1068 8.45842 26.1068 8.71598 26.1185 8.97939C26.1185 9.0789 26.1244 9.19012 26.1361 9.29548C26.1302 9.3306 26.1361 9.37158 26.1419 9.4067C26.1478 9.50621 26.1536 9.61157 26.1712 9.71108C26.177 9.83401 26.1946 9.95693 26.2122 10.0799C26.2766 10.5657 26.3644 11.0457 26.4814 11.5198C26.5634 11.8359 26.6453 12.152 26.739 12.474C26.7858 12.6379 26.8326 12.7959 26.8853 12.9598C26.9848 13.27 27.096 13.592 27.2073 13.9022C27.4882 14.6925 27.816 15.4651 28.138 16.2378L28.1438 16.2437C28.1497 16.2788 28.1555 16.3139 28.1672 16.349C28.1848 16.4076 28.2141 16.4719 28.2433 16.5422C28.2902 16.6593 28.3546 16.7939 28.4307 16.9344C28.4599 16.9988 28.495 17.0514 28.5185 17.11C28.5243 17.1275 28.536 17.1392 28.536 17.151C28.5887 17.2446 28.6297 17.3324 28.6824 17.4202C28.7116 17.4729 28.7409 17.5197 28.7643 17.5783C28.8521 17.7305 28.9282 17.8885 28.9985 18.0348C29.016 18.07 29.0277 18.0992 29.0394 18.1226C29.0804 18.2163 29.1155 18.2983 29.1389 18.3861C29.2677 18.749 29.2853 19.0358 29.057 19.1412C29.0043 19.1587 28.9575 19.1821 28.9048 19.2114C28.7233 19.2992 28.5419 19.4163 28.3546 19.5275C28.2609 19.586 28.1614 19.6387 28.0619 19.6914C27.9916 19.7324 27.9214 19.7675 27.8512 19.7909C27.617 19.8846 27.377 19.9138 27.1136 19.8319C26.6044 19.6446 26.0951 19.4631 25.58 19.2758C25.1995 19.1353 24.8132 18.9948 24.4268 18.8543C24.0405 18.7139 23.66 18.5792 23.2737 18.4387C22.5069 18.1636 21.74 17.8826 20.9732 17.6192C20.6103 17.4905 20.581 17.2739 20.5752 16.9753C20.5693 16.8758 20.5693 16.7646 20.5693 16.6651C20.5576 16.2202 20.5752 15.7695 20.6279 15.3188ZM78.2386 31.0356C78.2444 31.0356 78.2444 31.0356 78.2386 31.0356C78.5781 31.0941 78.9761 31.0005 79.3332 30.7488C79.3859 30.7136 79.4327 30.6668 79.4795 30.6317C79.5322 30.5907 79.5732 30.5439 79.6141 30.4971C79.6259 30.4912 79.6376 30.4795 79.6493 30.4619C79.7078 30.4034 79.7605 30.3332 79.819 30.2571C81.06 32.6336 81.5751 35.2384 81.3936 37.8491C81.3878 37.9252 81.3878 37.9955 81.3819 38.0716C81.2766 39.8335 80.8727 41.572 80.2229 43.2227C80.1644 43.3632 80.1176 43.5037 80.059 43.6441C80.0473 43.6734 80.0356 43.7027 80.018 43.7319C78.9527 46.3602 77.3137 48.5904 75.2767 50.3816C75.1889 50.4635 75.0893 50.5455 74.9957 50.6274C72.9879 52.3894 70.6055 53.7474 67.9948 54.5083C67.9831 54.5142 67.9656 54.52 67.948 54.52C67.2397 54.76 66.508 54.9591 65.7646 55.1288C63.6398 55.6615 61.5618 55.8547 59.5774 55.7259C56.6272 55.6908 53.9814 54.6781 51.7102 53.0567C51.7044 53.0567 51.6927 53.0508 51.6868 53.045C49.603 51.6342 47.7649 49.6733 46.2606 47.1563C48.5786 48.1163 50.9083 48.6489 53.3727 47.9582C53.4546 47.9348 53.5248 47.9114 53.6009 47.8821C53.8175 47.806 54.0107 47.7358 54.1746 47.6538C54.3385 47.5777 54.479 47.5075 54.596 47.4255C54.678 47.3729 54.7424 47.326 54.8068 47.2733C55.2575 46.8753 55.1404 46.4773 54.7424 46.0792C54.5785 45.9036 54.3443 45.7222 54.0868 45.5524C53.9346 45.447 53.7648 45.3417 53.5951 45.2422C53.4839 45.1661 53.361 45.1017 53.2497 45.0256C53.1327 44.9495 53.0097 44.8851 52.8927 44.8148C52.799 44.7563 52.6936 44.7036 52.6 44.6392C52.3776 44.4929 52.161 44.3407 51.9502 44.1827C51.8449 44.1007 51.7395 44.0246 51.64 43.931C51.6049 43.9076 51.5698 43.8783 51.5346 43.849C51.4644 43.7963 51.4 43.7495 51.3239 43.691C51.2478 43.6383 51.1834 43.5856 51.1073 43.5271C51.0898 43.5154 51.0781 43.5037 51.0605 43.492C50.3698 42.9593 49.6732 42.3447 49.3103 41.7651C49.3044 41.7593 49.2986 41.7534 49.2986 41.7476C49.2752 41.7183 49.2459 41.6949 49.2225 41.6656C48.9766 41.4549 49.0235 41.1798 49.0527 40.8813C49.0527 40.8813 49.0527 40.8754 49.0527 40.8696C49.0527 40.5593 48.9649 40.2901 48.8186 40.0735C48.801 40.0325 48.7776 40.0032 48.7425 39.974C48.4908 39.6871 48.1513 39.4881 47.7884 39.3769C47.7357 39.3593 47.683 39.3418 47.6303 39.3301C47.6245 39.3301 47.6245 39.3301 47.6245 39.3301C47.285 39.2657 46.9162 39.2598 46.565 39.3184C46.3952 39.3418 46.2313 39.3886 46.0733 39.4413C46.0499 39.4471 46.0264 39.4589 46.003 39.4706C45.9386 39.4881 45.886 39.5174 45.8216 39.5466C45.763 39.5701 45.7104 39.5993 45.6518 39.6345C45.4938 39.7281 45.3533 39.8393 45.2187 39.9623C45.0899 40.091 44.9728 40.2432 44.8616 40.413C45.6108 40.1788 46.3777 40.0559 46.8225 40.8169C48.081 43.1876 50.2469 44.7388 52.1434 46.4597C51.6927 46.5417 51.2361 46.5768 50.7912 46.5768C50.5805 46.5768 50.3756 46.5651 50.1766 46.5475C49.1054 46.4656 48.0518 46.167 47.0684 45.7046C46.9689 45.6519 46.8577 45.6109 46.7523 45.5524C46.6586 45.4939 46.5533 45.447 46.4538 45.3885C46.3542 45.3241 46.243 45.2656 46.1435 45.2012C46.0499 45.1427 45.9445 45.0841 45.845 45.0139C45.7513 44.9436 45.6577 44.8792 45.5582 44.809C45.365 44.6744 45.1835 44.5339 44.9962 44.3758C44.8206 44.2295 44.6392 44.0715 44.4694 43.9076C44.3816 43.8256 44.2996 43.7436 44.2177 43.6617C43.445 42.8656 42.8187 41.9583 42.368 40.9749C42.286 40.811 42.2216 40.6354 42.1514 40.4657C42.1455 40.4364 42.1338 40.413 42.128 40.3896C42.1163 40.3486 42.1046 40.3193 42.0929 40.2901C42.0226 40.1027 41.9114 39.9506 41.7709 39.8276C41.3436 39.5291 40.8343 39.3593 40.3134 39.3184C40.2783 39.3184 40.2314 39.3125 40.1905 39.3125C39.6402 39.3125 39.0607 39.4413 38.5866 39.6754C38.5222 39.6988 38.4754 39.7281 38.4227 39.7691C38.1359 39.9506 37.8666 40.1847 37.6559 40.4832C37.9661 40.5008 38.2471 40.5125 38.5105 40.5359C38.6393 40.5476 38.768 40.5652 38.891 40.5769C39.0724 40.6061 39.2539 40.6471 39.4236 40.7115C39.8217 40.852 40.1846 41.1037 40.5358 41.5778C42.1397 43.6851 43.3397 46.0441 44.7035 48.327C44.6684 48.3328 44.5865 48.3504 44.4401 48.3797C44.6801 48.8187 44.9026 49.2401 45.1308 49.6616C45.1016 49.7084 45.0723 49.7494 45.043 49.7845C44.3523 49.3631 43.6616 48.9475 42.965 48.5319C42.9358 48.5553 42.9065 48.567 42.8831 48.5904C42.9767 48.8128 43.088 49.0411 43.2167 49.3279C42.1338 49.2284 41.5134 48.3504 40.4948 47.9172C40.6821 48.3094 40.8051 48.5611 40.9631 48.9065C39.6636 48.608 38.768 47.7358 37.6207 47.086C37.65 47.4021 37.6617 47.6011 37.6851 47.8763C36.5027 47.209 35.7652 46.1378 34.7701 45.2597C34.9047 45.7104 35.0393 46.167 35.1857 46.647C35.0686 46.6412 34.9574 46.5826 34.8462 46.489C34.3662 46.0734 33.8979 44.9144 33.453 43.65C33.3945 43.4919 33.3418 43.3281 33.2774 43.1583C33.1194 42.7076 32.9613 42.2568 32.8033 41.8295C32.7506 41.6891 32.7038 41.5544 32.6511 41.4139C32.4638 40.9515 32.2823 40.53 32.095 40.1964C32.0247 40.0735 31.9604 39.9564 31.8843 39.8627C31.8491 39.8101 31.814 39.7691 31.7789 39.7281C31.7379 39.734 31.6911 39.7515 31.6618 39.7632C32.1535 44.2529 35.5252 53.5835 28.138 53.5601C27.9448 53.5952 27.5819 53.5484 27.1253 53.4547C27.1136 53.4547 27.1019 53.4547 27.0961 53.4488C26.1478 53.3025 25.2288 52.9981 24.3507 52.6352C24.3273 52.6235 24.3039 52.6118 24.2805 52.6001C23.2268 52.202 22.2142 51.7396 21.6288 51.3006C21.582 51.2713 21.5352 51.2538 21.4883 51.2245C21.2366 51.1016 21.1196 50.9201 21.1196 50.645C21.1137 50.604 21.1137 50.563 21.1254 50.5338C21.1547 50.2587 21.0669 49.9894 20.9088 49.7553C20.8445 49.6733 20.7801 49.6031 20.7098 49.5328C20.6806 49.4918 20.6396 49.4567 20.6045 49.4275C20.3937 49.2577 20.1537 49.1289 19.902 49.0587C19.8376 49.0353 19.7733 49.0294 19.703 49.0177C19.6679 49.0118 19.6328 49.006 19.6094 49.0119C19.5157 49.0001 19.4103 49.0001 19.3225 49.0177C19.2523 49.0294 19.1937 49.0411 19.1294 49.0645C19.0123 49.1055 18.8952 49.1699 18.7957 49.2636C18.7664 49.2811 18.7372 49.3162 18.7079 49.3397C18.3801 49.7084 18.105 49.644 17.7128 49.4684C12.1695 47.086 7.90224 43.0061 3.91012 38.6276C3.44183 38.1652 3.2194 37.6384 3.26037 37.0121C3.84573 30.977 3.41842 24.2103 7.38713 19.1997C7.45737 19.1119 7.51591 19.0358 7.58615 18.9538C7.66224 18.8719 7.72663 18.8017 7.80273 18.7256C10.2437 16.2671 14.1831 17.748 17.1626 18.5324C21.0025 19.8026 24.9829 20.7216 28.6707 22.3899C31.5272 22.6474 34.214 21.7343 36.8773 20.6514C37.3456 20.4641 37.8256 20.265 38.288 20.066C38.4461 19.9958 38.5983 19.9372 38.7563 19.8729C39.0724 19.7382 39.3885 19.6036 39.7046 19.4807C40.1729 19.2816 40.6529 19.1002 41.127 18.9246C41.4373 18.8075 41.7592 18.6963 42.0753 18.5909C43.0353 18.2748 43.9953 18.0173 44.9787 17.8592C47.3786 17.5783 50.3464 17.1861 52.7756 17.9646C53.0449 18.0524 53.3024 18.1519 53.5541 18.269C54.1863 18.5617 54.7541 18.9538 55.2634 19.4807C55.3629 19.5802 55.4624 19.6914 55.556 19.8026C54.6312 19.7792 53.6653 19.6621 52.9688 20.3528C52.7112 20.6572 52.7288 21.0611 52.9746 21.3245C53.0331 21.3948 53.1092 21.4416 53.197 21.4884C53.2849 21.5236 53.3902 21.5587 53.5014 21.5645C54.5551 21.4006 55.357 21.5294 55.9599 21.8748C56.0711 21.945 56.1765 22.0094 56.2643 22.0855C56.3638 22.1616 56.4575 22.2377 56.5394 22.3314C56.6624 22.4601 56.7853 22.6006 56.8848 22.7587C57.1775 23.1918 57.3882 23.7128 57.5462 24.2864C57.5755 24.4094 57.6106 24.5323 57.634 24.6552C57.7394 25.1645 57.8214 25.7089 57.8799 26.2649C55.6731 26.1771 55.1346 26.5049 54.678 26.1069C54.6136 26.0425 54.5609 25.984 54.4907 25.8962C54.4263 25.8084 54.3678 25.7147 54.2917 25.5918C54.0809 25.2406 53.8058 24.7137 53.3727 23.9352C53.3083 23.9411 53.2497 23.9528 53.1853 23.9528C52.8458 26.7683 54.7307 29.2561 55.8897 31.6561C54.3853 31.7497 52.7229 31.6502 52.0439 33.336C54.0985 32.6043 56.6272 32.1185 57.2945 34.9458C55.0234 34.7116 53.4956 35.7301 52.6527 37.8257C54.28 36.6901 57.1599 34.7877 58.5179 37.3633C58.7872 37.9194 59.115 38.4403 59.4545 39.0432C58.3482 39.3184 57.5228 39.8745 57.0136 40.9866C59.0155 40.0208 60.713 40.0383 61.8545 42.2451C59.9403 43.0588 59.3374 44.651 59.3608 46.6177C60.4145 44.9378 61.913 42.6139 64.1432 44.1827C62.674 45.7046 62.4808 47.449 63.031 49.3104C63.7159 47.566 64.1666 44.5631 66.6778 44.9378C66.508 46.4597 66.2095 47.8411 67.2397 49.1758C67.3041 47.2148 67.3041 45.2948 69.628 44.4695C69.546 45.7983 69.8855 46.9046 70.828 47.8528C70.6172 46.8812 70.5411 46.1553 70.6231 45.5524C70.6465 45.3944 70.6875 45.2422 70.7343 45.09C70.7577 45.0139 70.787 44.9436 70.8221 44.8675C70.8865 44.7271 70.9567 44.5983 71.0504 44.4695C71.1382 44.3349 71.2377 44.2061 71.3606 44.089C71.4718 43.9661 71.6182 43.8432 71.7587 43.7202C71.9811 43.5446 72.2328 43.3573 72.5255 43.1642C72.7187 43.0412 72.9294 42.9066 73.1577 42.7778C73.6494 43.4217 74.3284 43.7261 75.2123 43.7788C73.5967 42.2393 73.784 40.9339 75.7157 40.3076C75.0659 39.9623 75.4289 39.5408 75.5693 39.1369C76.664 36.0579 76.3947 33.0843 74.943 30.181C74.5333 28.9342 73.0933 27.7108 73.585 26.3352C73.5908 26.3235 73.5967 26.3118 73.6025 26.3059C73.8835 25.7615 74.3225 25.8142 74.7733 26.0308C74.7908 26.0366 74.8084 26.0484 74.8318 26.0601C75.5225 26.341 76.3654 26.9966 77.2669 27.1371C77.9634 27.1722 78.619 26.8737 79.2395 26.423C79.3039 26.3703 79.3507 26.3176 79.4034 26.2591C79.6376 25.9606 79.8951 25.7557 80.1644 25.6503C80.1702 25.6503 80.1702 25.6503 80.1761 25.6445C80.1878 25.6386 80.1995 25.6328 80.2112 25.6269C80.498 25.4103 80.8785 25.4279 81.1888 25.5684C81.2005 25.5684 81.2122 25.5742 81.218 25.5801C81.5575 25.703 81.7917 25.9606 81.7683 26.2591C81.7917 26.4815 81.6629 26.7157 81.3058 26.8971C80.937 27.1488 80.5566 27.3713 80.1702 27.6054C79.62 27.9508 79.0756 28.3078 78.5254 28.6649C78.2561 28.8639 78.0103 29.0629 77.7703 29.2854C77.7644 29.2854 77.7644 29.2912 77.7644 29.2971C77.7527 29.3088 77.741 29.3205 77.7293 29.3322C77.7176 29.3381 77.7117 29.3556 77.7059 29.3673C77.542 29.6483 77.4659 29.9058 77.46 30.1224C77.4717 30.5732 77.7937 30.9419 78.2386 31.0356Z" fill="black"/>
<path d="M52.1434 46.4479C51.6927 46.5298 51.2361 46.565 50.7912 46.565C50.5805 46.565 50.3756 46.5532 50.1766 46.5357C49.1054 46.4537 48.0518 46.1552 47.0684 45.6928C46.9689 45.6401 46.8577 45.5991 46.7523 45.5406C46.6586 45.4821 46.5533 45.4352 46.4538 45.3767C46.3543 45.3123 46.243 45.2538 46.1435 45.1894C46.0499 45.1308 45.9445 45.0723 45.845 45.0021C45.7513 44.9318 45.6577 44.8674 45.5582 44.7972C45.365 44.6626 45.1835 44.5221 44.9962 44.364C44.8206 44.2177 44.6392 44.0596 44.4694 43.8957C44.3816 43.8138 44.2997 43.7318 44.2177 43.6499C43.445 42.8538 42.8187 41.9465 42.368 40.9631C42.286 40.7992 42.2216 40.6236 42.1514 40.4538C42.1455 40.4246 42.1338 40.4012 42.128 40.3778C42.1163 40.3368 42.1046 40.3075 42.0929 40.2782C42.0577 40.1846 42.0285 40.0851 41.9992 39.9914L45.1952 39.9504H45.2187C45.0899 40.0792 44.9728 40.2314 44.8616 40.4012C45.6108 40.167 46.3777 40.0441 46.8225 40.8051C48.081 43.1757 50.2469 44.7269 52.1434 46.4479Z" fill="white"/>
<path d="M60.0984 36.7428C60.0399 36.7662 59.9872 36.7896 59.9345 36.813C59.0213 34.9048 58.1082 32.9965 57.195 31.0941V31.0883C57.2887 31.018 57.3824 30.9478 57.4702 30.8775C57.7453 30.6668 58.0145 30.4619 58.3189 30.2336C59.3199 32.3117 60.075 34.4248 60.0984 36.7428Z" fill="white"/>
<path d="M58.8341 19.6448C59.8175 19.1297 61.0643 18.2283 62.3638 17.4966C61.3218 18.0351 60.1394 18.7668 58.8341 19.6448ZM60.1043 27.471C60.1043 27.7579 60.1102 28.0447 60.1102 28.3315C60.1394 28.0388 60.1453 27.7462 60.1043 27.471ZM63.4467 22.6419C64.2662 22.0624 65.1384 21.5589 65.8876 21.079C65.0388 21.5589 64.2135 22.0624 63.4467 22.6419Z" fill="#4CA3DB"/>
<path d="M69.7744 31.2521C69.7334 31.1409 69.7041 31.0238 69.6749 30.9243V30.9067C69.3646 29.8004 69.2768 28.6824 69.3002 27.5585C69.3002 27.219 69.3178 26.8736 69.3354 26.5341C69.3705 25.9663 69.4173 25.3985 69.47 24.8307C69.5344 23.4669 69.4583 22.103 69.1949 20.7684C69.189 20.7332 69.1832 20.7098 69.1773 20.6806C68.8495 18.5265 68.2115 17.2562 67.2691 16.7001C67.2164 16.6592 67.1695 16.6358 67.111 16.6123C66.0281 16.0797 64.5472 16.4016 62.6506 17.3499C62.5628 17.4026 62.475 17.4377 62.3813 17.4962C61.076 18.2279 59.8292 19.1294 58.8516 19.6445C58.8458 19.6445 58.8399 19.6445 58.8341 19.6503C58.6409 19.785 58.436 19.9196 58.2312 20.0601C58.7229 20.9323 59.197 21.7752 59.6946 22.6591C60.0458 22.4249 60.3853 22.2083 60.7189 21.9918C61.0467 21.7752 61.3687 21.5645 61.6848 21.3654C61.995 21.1664 62.2994 20.9791 62.5862 20.8035C62.8847 20.6279 63.1657 20.464 63.4291 20.3176C64.8867 19.5099 66.0398 19.1294 66.8476 19.4981C66.9178 19.5274 66.9822 19.5684 67.0466 19.6035C67.111 19.6503 67.1754 19.6972 67.2339 19.744C67.2749 19.785 67.3159 19.8201 67.3452 19.8611C67.4095 19.9255 67.4622 19.9957 67.5149 20.0835C67.5325 20.1069 67.55 20.1303 67.5676 20.1596C67.6203 20.2474 67.6671 20.3411 67.7139 20.4347C67.7373 20.4874 67.7608 20.5342 67.7842 20.5928C67.8017 20.6513 67.8251 20.704 67.8486 20.7684C67.8661 20.8035 67.8778 20.8503 67.8895 20.8854C67.9247 20.985 67.9539 21.0962 67.9773 21.2015C68.0125 21.3303 68.0417 21.4649 68.0651 21.5996C68.0768 21.6698 68.0944 21.7342 68.1061 21.8103C68.1178 21.8981 68.1237 21.9742 68.1354 22.0679C68.1647 22.2786 68.1881 22.5069 68.1998 22.7469C68.2056 22.823 68.2115 22.8932 68.2115 22.9693C68.2583 23.7712 68.2466 24.7078 68.1764 25.82C68.1412 25.8141 68.112 25.8141 68.0827 25.8083C68.03 25.6619 67.9773 25.4454 67.9305 25.1819C67.9188 25.1468 67.9129 25.1117 67.9071 25.0766C67.8837 24.9478 67.8603 24.8073 67.831 24.6668C67.8193 24.6024 67.8076 24.5381 67.7959 24.4678C67.7725 24.3625 67.7549 24.2512 67.7315 24.1459C67.7198 24.0405 67.6964 23.9234 67.673 23.8122C67.6378 23.6308 67.5969 23.4376 67.5617 23.2561C67.5559 23.2152 67.5442 23.18 67.5325 23.1391C67.5091 23.0395 67.4915 22.9459 67.4622 22.8522C67.4564 22.823 67.4505 22.7996 67.4388 22.7703C67.4212 22.6883 67.4037 22.6122 67.3744 22.5361C67.351 22.4425 67.3217 22.3547 67.2925 22.2669C67.2515 22.1498 67.2047 22.0327 67.1695 21.9274C67.0583 21.664 66.9354 21.4474 66.7891 21.2893C66.7481 21.2484 66.7071 21.2074 66.6661 21.1781C66.6369 21.1489 66.6018 21.1196 66.5725 21.102C66.5374 21.0786 66.4964 21.061 66.4671 21.0435C66.3735 21.0084 66.2681 20.9908 66.1627 21.0084C66.0808 21.0201 65.9988 21.0376 65.9052 21.0786C65.1501 21.5586 64.2837 22.0679 63.4642 22.6415C63.4525 22.6415 63.4408 22.6474 63.4291 22.6591C62.434 23.4025 61.5326 24.2512 60.7716 25.2698C60.7658 25.2815 60.7599 25.2873 60.7541 25.299C60.7482 25.3049 60.7482 25.3049 60.7423 25.3107C60.2682 25.8727 60.1453 26.5341 60.1219 27.219V27.4707C60.1628 27.7458 60.157 28.0385 60.1277 28.3312C60.1277 28.3838 60.1277 28.419 60.1219 28.4716C60.1043 28.7643 60.0633 29.0629 60.0516 29.3497C60.0516 29.3555 60.0516 29.3555 60.0516 29.3614C59.9989 29.7185 60.0458 30.0287 60.1628 30.3331C60.1863 30.4033 60.2097 30.4619 60.2389 30.5204C60.2624 30.5672 60.2858 30.614 60.3092 30.655C60.3384 30.7077 60.3619 30.7487 60.3911 30.7897C61.9131 33.3769 62.1589 36.4325 62.6447 39.33C62.6565 39.4178 62.6682 39.5114 62.6974 39.5993C62.7208 39.7456 62.7618 39.8861 62.8145 40.0266C62.8321 40.091 62.8555 40.1436 62.8789 40.2022C62.8906 40.2373 62.9023 40.2724 62.9199 40.3017C62.9491 40.3602 62.9784 40.407 63.0018 40.4656C63.0545 40.5709 63.113 40.6822 63.1833 40.7758C63.2418 40.8636 63.3003 40.9573 63.3647 41.0392C63.3706 41.0509 63.3764 41.0568 63.3823 41.0626C63.4467 41.1446 63.5169 41.2207 63.5872 41.3026C63.675 41.3963 63.7686 41.49 63.8623 41.5719C63.9559 41.6538 64.0496 41.7299 64.1433 41.806C64.2428 41.8821 64.3481 41.9524 64.4476 42.0168C64.5413 42.087 64.6408 42.1397 64.7345 42.1982C64.8398 42.2568 64.9569 42.3153 65.0564 42.3621C65.1618 42.4148 65.273 42.4616 65.3842 42.5026C65.4545 42.5377 65.5188 42.5612 65.5891 42.5846C65.7764 42.6548 65.9637 42.7075 66.1569 42.7602C66.274 42.7894 66.4027 42.8246 66.5198 42.848C66.6427 42.8714 66.7656 42.8948 66.8886 42.9124C67.3978 42.9943 67.7022 42.8597 67.8837 42.3563C68.3637 41.0158 68.9022 39.7046 69.3763 38.3583C69.9149 37.1291 70.1139 35.9876 70.1373 34.893C70.2134 33.6872 70.1197 32.4755 69.7744 31.2521ZM66.0808 41.607C65.9052 41.3143 66.2505 40.5124 66.7832 39.9973C67.0174 40.2841 66.6778 41.0626 66.0808 41.607ZM68.5159 36.4442C68.4866 36.4969 68.469 36.5496 68.4515 36.6081C68.2934 37.0003 68.1939 37.4393 68.0593 37.8607C67.9012 38.2588 67.7081 38.6276 67.4447 38.9319C67.2047 38.0949 68.3637 36.2569 68.592 35.2735C68.6388 35.2852 68.6856 35.2969 68.7266 35.3086C68.6622 35.6891 68.6329 36.0813 68.5159 36.4442Z" fill="#4CA3DB"/>
<path d="M81.2181 25.5743C81.5166 25.7148 81.7449 25.984 81.7683 26.2533C81.7917 25.9548 81.5576 25.7031 81.2181 25.5743ZM81.0776 40.0853C80.8727 41.1857 80.5917 42.2335 80.2288 43.2228C80.8727 41.5662 81.2766 39.8335 81.3878 38.0716C81.3293 38.7389 81.2239 39.4179 81.0776 40.0853ZM80.1703 25.6445C79.901 25.744 79.6435 25.9489 79.4093 26.2533C79.3566 26.3118 79.3098 26.3645 79.2454 26.4172C79.5557 26.2006 79.8601 25.9431 80.1586 25.6562C80.1644 25.6504 80.1761 25.6445 80.182 25.6387C80.1761 25.6387 80.1761 25.6387 80.1703 25.6445ZM78.5254 28.665C79.0757 28.3079 79.6201 27.9508 80.1703 27.6055C79.6142 27.945 79.0464 28.2786 78.5254 28.665ZM77.7411 29.3147C77.7411 29.3206 77.7352 29.3206 77.7352 29.3264C77.7469 29.3147 77.7586 29.303 77.7703 29.2913C77.7528 29.303 77.7528 29.3089 77.7411 29.3147ZM77.4659 30.1166C77.4367 30.6318 77.7762 30.9596 78.2386 31.0357C77.7937 30.942 77.4718 30.5732 77.4659 30.1166ZM74.8377 26.0543C75.1889 26.2299 75.5401 26.4874 75.8269 26.6162C76.3304 26.9557 76.8221 27.1138 77.2786 27.1313C76.3655 26.985 75.5284 26.3352 74.8377 26.0543ZM71.0622 44.4637C71.15 44.3291 71.2553 44.2062 71.3724 44.0832C71.2495 44.2003 71.15 44.3232 71.0622 44.4637ZM52.0322 44.2003C51.9386 44.1301 51.8391 44.0598 51.7337 43.9837C51.5991 43.8901 51.4586 43.7788 51.3123 43.6735C51.7279 44.013 52.1493 44.3232 52.5942 44.6218C52.4478 44.4988 52.2547 44.3583 52.0322 44.2003ZM49.0469 40.9282V40.8638C49.0177 41.1564 48.9708 41.4374 49.2167 41.6481C49.2401 41.6774 49.2694 41.7008 49.2928 41.7301C49.123 41.455 49.0294 41.1857 49.0469 40.9282ZM47.7884 39.3653C48.1513 39.4706 48.4908 39.6696 48.7425 39.9623C48.5201 39.6638 48.1748 39.4706 47.7884 39.3653ZM46.2665 47.1388C47.7709 49.6558 49.603 51.6167 51.6927 53.0275C49.5328 51.4997 47.7065 49.4217 46.2665 47.1388ZM45.4587 39.7399C45.4294 39.7574 45.406 39.775 45.3768 39.7984C45.3124 39.8453 45.2538 39.8921 45.1953 39.9506H45.2187C45.3475 39.8277 45.488 39.7165 45.6519 39.6228C45.5816 39.6521 45.5172 39.6931 45.4587 39.7399ZM43.2812 21.7578C43.3631 21.6758 43.4275 21.5763 43.4626 21.4651C43.4158 21.5763 43.3514 21.6758 43.2812 21.7578ZM39.6461 22.507C39.1954 22.6124 38.7505 22.7704 38.3349 22.9577C39.4588 22.5012 40.5593 22.3782 41.449 22.2729C40.7876 22.3021 40.1086 22.2963 39.6461 22.507ZM40.3134 39.3009C40.8344 39.3418 41.3437 39.5116 41.771 39.8101C41.4256 39.4765 40.8929 39.3126 40.3134 39.3009ZM38.891 40.5535C39.0725 40.5887 39.2539 40.6296 39.4237 40.6882C39.2539 40.6238 39.0725 40.5828 38.891 40.5535ZM37.6559 40.4657C37.8666 40.1672 38.1301 39.9331 38.4227 39.7516C38.0891 39.9331 37.8257 40.173 37.6559 40.4657ZM24.3508 52.5943C25.2288 52.9631 26.1478 53.2616 27.0961 53.4079C26.3351 53.2557 25.3225 52.9514 24.3508 52.5943ZM21.1138 50.6099C21.1138 50.8792 21.2308 51.0607 21.4825 51.1894C21.5352 51.2187 21.5762 51.2363 21.623 51.2655C21.3186 51.0373 21.1313 50.8148 21.1138 50.6099Z" fill="#4CA3DB"/>
<path d="M77.7352 29.3265C77.7352 29.3207 77.741 29.3207 77.741 29.3148C77.7527 29.3031 77.7586 29.2972 77.7703 29.2914C77.7703 29.2855 77.7703 29.2797 77.7762 29.2797C77.8991 29.1158 78.0747 28.9577 78.303 28.8114C78.3791 28.7646 78.4552 28.7119 78.5313 28.6651C79.0522 28.2787 79.62 27.9451 80.1761 27.6056C80.5507 27.3597 80.9312 27.1314 81.3117 26.8973C81.6219 26.6924 81.7624 26.4641 81.7741 26.2592C81.7507 25.99 81.5224 25.7207 81.2239 25.5802C81.218 25.5744 81.2063 25.5685 81.1946 25.5685C80.9195 25.4807 80.5624 25.4807 80.2171 25.6271C80.2054 25.6329 80.1937 25.6388 80.182 25.6446C80.1761 25.6505 80.1644 25.6563 80.1586 25.6622C79.86 25.9432 79.5556 26.2066 79.2454 26.4231C78.5781 27.108 77.9049 27.2485 77.2727 27.1373C76.8162 27.1197 76.3245 26.9617 75.8211 26.6222C75.5401 26.4934 75.1889 26.2358 74.8318 26.0602C74.8084 26.0485 74.7908 26.0368 74.7733 26.031C74.305 25.8495 73.9011 25.8495 73.6026 26.3061C73.5967 26.3119 73.5909 26.3236 73.585 26.3353C73.0992 27.7051 74.5391 28.9343 74.943 30.1811C76.3947 33.0845 76.6581 36.0581 75.5694 39.1371C75.4289 39.5468 75.066 39.9624 75.7157 40.3078C73.784 40.9341 73.5967 42.2336 75.2123 43.7789C74.3343 43.7204 73.6553 43.4219 73.1577 42.778C72.9294 42.9068 72.7187 43.0414 72.5255 43.1643C72.2387 43.3575 71.9811 43.5448 71.7587 43.7204C71.6182 43.8433 71.4777 43.9663 71.3607 44.0892C71.2436 44.2121 71.1382 44.335 71.0504 44.4697C70.9568 44.5926 70.8865 44.7272 70.8221 44.8677C70.787 44.9438 70.7577 45.014 70.7343 45.0901C70.6816 45.2423 70.6465 45.3945 70.6231 45.5526C70.5353 46.1613 70.6173 46.8872 70.828 47.853C69.8797 46.9047 69.5461 45.7926 69.628 44.4697C67.3041 45.295 67.3041 47.215 67.2398 49.1759C66.2095 47.8355 66.5081 46.454 66.6778 44.9379C64.1666 44.5633 63.7159 47.5603 63.031 49.3105C62.4808 47.4491 62.674 45.7048 64.1432 44.1828C61.9072 42.6199 60.4145 44.9438 59.3609 46.6179C59.3375 44.6511 59.9404 43.0589 61.8545 42.2453C60.713 40.0385 59.0155 40.021 57.0136 40.9868C57.5229 39.8746 58.3541 39.3185 59.4545 39.0434C59.115 38.4405 58.7872 37.9195 58.518 37.3634C57.1599 34.7879 54.28 36.6961 52.6527 37.8259C53.4956 35.7303 55.0234 34.7118 57.2946 34.9459C56.6273 32.1187 54.0985 32.6045 52.0439 33.3362C52.7171 31.6504 54.3853 31.7557 55.8897 31.6562C54.7307 29.2504 52.8459 26.7685 53.1854 23.9529C53.2498 23.9529 53.3083 23.9412 53.3727 23.9354C53.8058 24.7139 54.081 25.2407 54.2917 25.5919C54.3678 25.7149 54.4263 25.8144 54.4907 25.8963C54.561 25.9841 54.6136 26.0427 54.678 26.1071C55.1346 26.5051 55.6731 26.1832 57.8799 26.2651C57.8214 25.709 57.7453 25.1646 57.6341 24.6554C57.6048 24.5324 57.5697 24.4095 57.5463 24.2866C57.3882 23.713 57.1775 23.192 56.8848 22.7588C56.7853 22.6066 56.6624 22.4661 56.5395 22.3315C56.4517 22.2437 56.3639 22.1618 56.2643 22.0857C56.1707 22.0096 56.0653 21.9452 55.96 21.8749C55.3512 21.5296 54.5551 21.4008 53.5015 21.5647C53.3902 21.5588 53.2849 21.5296 53.1971 21.4886C53.1093 21.4418 53.0332 21.3949 52.9746 21.3247C52.7288 21.0613 52.7112 20.6632 52.9688 20.353C53.6654 19.6623 54.6312 19.7794 55.5561 19.8028C55.4624 19.6916 55.3629 19.5803 55.2634 19.4808C54.76 18.954 54.1863 18.5618 53.5541 18.2691C53.2966 18.1579 53.0449 18.0526 52.7756 17.9648C50.3464 17.1804 47.3786 17.5726 44.9787 17.8594C43.9953 18.0174 43.0353 18.275 42.0753 18.5911C41.7592 18.6965 41.4431 18.8077 41.127 18.9247C40.6529 19.1004 40.1729 19.2818 39.7046 19.4808C39.3885 19.6038 39.0724 19.7384 38.7564 19.873C38.5983 19.9374 38.4461 19.9959 38.2881 20.0662C37.8256 20.2652 37.3456 20.4642 36.8774 20.6515C34.214 21.7344 31.5272 22.6476 28.6707 22.39C24.9771 20.7218 21.0025 19.8028 17.1626 18.5326C14.1831 17.7482 10.2437 16.2672 7.80276 18.7257C7.72667 18.8018 7.66228 18.8721 7.58618 18.954C7.51594 19.036 7.4574 19.1121 7.38716 19.1999C3.41845 24.2105 3.84576 30.9831 3.2604 37.0122C3.21943 37.6444 3.44186 38.1654 3.91015 38.6278C7.90227 43.0063 12.1695 47.0862 17.7128 49.4335C18.105 49.6091 18.3743 49.6735 18.7079 49.3047C18.7372 49.2813 18.7665 49.2462 18.7957 49.2286C18.8952 49.1408 19.0123 49.0706 19.1294 49.0296C19.1938 49.0062 19.2523 48.9945 19.3226 48.9827C19.4104 48.9652 19.5157 48.9652 19.6094 48.9769C19.6386 48.971 19.6738 48.9769 19.703 48.9827C19.7733 48.9945 19.8377 49.0003 19.9021 49.0237C20.1596 49.094 20.3938 49.2227 20.6045 49.3925C20.6455 49.4276 20.6864 49.4627 20.7099 49.4979C20.7859 49.5681 20.8503 49.6383 20.9089 49.7203C21.0669 49.9544 21.1547 50.2178 21.1255 50.4988C21.1196 50.5398 21.1196 50.5808 21.1196 50.61C21.1372 50.8149 21.3245 51.0373 21.6289 51.2598C22.501 51.7164 23.3791 52.1788 24.2805 52.5593C24.3039 52.571 24.3273 52.5827 24.3508 52.5944C25.3283 52.9515 26.341 53.25 27.0961 53.408C27.1019 53.4139 27.1136 53.4139 27.1253 53.4139C27.459 53.4724 27.7927 53.5075 28.138 53.5193C35.5252 53.5485 32.1594 44.218 31.6618 39.7224C31.697 39.7107 31.7438 39.6932 31.7789 39.6873C31.8199 39.7283 31.855 39.7751 31.8843 39.8219C31.9604 39.9156 32.0248 40.0327 32.095 40.1556C32.2823 40.4892 32.4638 40.9107 32.6511 41.3731C32.7038 41.5078 32.7506 41.6424 32.8033 41.7887C32.9613 42.216 33.1194 42.6668 33.2774 43.1175C33.3418 43.2872 33.3945 43.4511 33.453 43.6092C33.9038 44.8736 34.3662 46.0384 34.8462 46.4482C34.9574 46.5418 35.0686 46.6004 35.1857 46.6062C35.0452 46.1262 34.9106 45.6696 34.7701 45.2189C35.7652 46.0911 36.4969 47.1623 37.6852 47.8355C37.6617 47.5662 37.65 47.3672 37.6208 47.0452C38.7739 47.6891 39.6695 48.5671 40.9632 48.8657C40.8051 48.5262 40.6822 48.2686 40.4949 47.8764C41.5134 48.3154 42.1339 49.1876 43.2168 49.2871C43.088 49.0003 42.9768 48.772 42.8831 48.5496C42.9065 48.5262 42.9358 48.5145 42.9651 48.491C43.6558 48.9066 44.3465 49.3223 45.0431 49.7437C45.0723 49.7027 45.1016 49.6618 45.1309 49.6208C44.9026 49.1993 44.6802 48.7779 44.4402 48.3389C44.5806 48.3096 44.6684 48.292 44.7036 48.2862C43.3455 46.0091 42.1397 43.6502 40.5358 41.537C40.1846 41.0629 39.8217 40.8112 39.4237 40.6707C39.2539 40.6063 39.0725 40.5712 38.891 40.5361C38.7681 40.5244 38.6393 40.5068 38.5105 40.4951C38.2412 40.4717 37.9661 40.46 37.6559 40.4424C37.8256 40.1556 38.0949 39.9097 38.4227 39.7283C38.4754 39.6873 38.5222 39.658 38.5866 39.6346C39.0724 39.3654 39.6344 39.2424 40.1905 39.2717C40.2373 39.2717 40.2783 39.2776 40.3134 39.2776C40.8929 39.2893 41.4256 39.4532 41.7709 39.7868C41.8529 39.8395 41.9231 39.898 41.9992 39.9624L45.1953 39.9214C45.2538 39.8629 45.3123 39.8161 45.3767 39.7693C45.406 39.7458 45.4294 39.7283 45.4587 39.7107C45.5231 39.6639 45.5816 39.6229 45.6518 39.5936C45.7104 39.5585 45.7631 39.5293 45.8216 39.5058C45.886 39.4766 45.9387 39.4473 46.0031 39.4297C46.0265 39.418 46.0499 39.4063 46.0733 39.4005C46.2313 39.3419 46.3952 39.301 46.565 39.2776C46.9162 39.2073 47.285 39.2132 47.6245 39.2893C47.6245 39.2893 47.6245 39.2893 47.6303 39.2893C47.683 39.301 47.7357 39.3185 47.7884 39.3361C48.1806 39.4415 48.5201 39.6346 48.7425 39.9332C48.7776 39.9683 48.8011 39.9975 48.8186 40.0327C48.8654 40.0678 48.8947 40.1146 48.9123 40.1497C49.0703 40.3605 49.0645 40.5946 49.0469 40.8229C49.0469 40.8287 49.0469 40.8346 49.0469 40.8346V40.899C49.0293 41.1565 49.1289 41.4258 49.2928 41.7009C49.2928 41.7068 49.2986 41.7126 49.3045 41.7185C49.8371 42.3507 50.4342 42.9185 51.0547 43.4453C51.0722 43.457 51.0839 43.4687 51.1015 43.4804C51.1776 43.5389 51.242 43.5916 51.3181 43.6443C51.4586 43.7497 51.5991 43.8609 51.7395 43.9545C51.8449 44.0306 51.9444 44.1009 52.0381 44.1711C52.2605 44.3292 52.4537 44.4697 52.6 44.5926C52.6937 44.657 52.799 44.7097 52.8927 44.7682C53.0098 44.8384 53.1327 44.9028 53.2498 44.9789C53.361 45.055 53.4839 45.1194 53.5951 45.1955C53.7649 45.295 53.9346 45.4004 54.0868 45.5057C54.3502 45.6755 54.5785 45.8569 54.7424 46.0326C55.1405 46.4365 55.2575 46.8345 54.8068 47.2267C54.7424 47.2794 54.678 47.3262 54.5961 47.3789C54.4849 47.4608 54.3385 47.5311 54.1746 47.6072C54.0107 47.6891 53.8176 47.7594 53.601 47.8355C53.5249 47.8647 53.4546 47.8881 53.3727 47.9115C50.9142 48.6023 48.5845 48.0696 46.2606 47.1096C47.7006 49.3925 49.5269 51.4705 51.6869 52.9983C51.6927 53.0041 51.7044 53.01 51.7103 53.01C53.9815 54.6314 56.6331 55.6441 59.5774 55.6792C61.5618 55.808 63.6398 55.6148 65.7647 55.0822C66.5081 54.9124 67.2398 54.7134 67.948 54.4734C67.9656 54.4734 67.9832 54.4675 67.9949 54.4617C70.6114 53.7007 72.9879 52.3485 74.9957 50.5808C75.0894 50.4988 75.1889 50.4169 75.2767 50.3349C77.3196 48.4735 78.9527 46.1906 80.0181 43.6853C80.0356 43.656 80.0473 43.6267 80.059 43.5975C80.1176 43.4628 80.1644 43.3224 80.2229 43.176C80.5859 42.1868 80.8668 41.139 81.0717 40.0385C81.218 39.3712 81.3234 38.6922 81.3761 38.019C81.382 37.9429 81.3819 37.8727 81.3878 37.7966C81.5107 35.262 81.0249 32.6689 79.8132 30.2045C79.7547 30.2806 79.702 30.3509 79.6434 30.4094C79.6317 30.427 79.62 30.4387 79.6083 30.4445C79.5673 30.4972 79.5205 30.5382 79.4737 30.5792C79.4269 30.6201 79.38 30.667 79.3274 30.6962C78.9469 30.9772 78.5605 31.0533 78.2386 30.9831C78.2386 30.9831 78.2386 30.9831 78.2327 30.9831C77.7762 30.907 77.4308 30.5792 77.4601 30.0641C77.4425 29.8241 77.5186 29.5665 77.7059 29.3089C77.7176 29.3499 77.7235 29.3324 77.7352 29.3265ZM17.4319 46.934C15.7812 47.3438 13.627 44.9379 12.2573 44.0775C11.9881 43.8902 11.8359 43.6385 11.9003 43.3107C12.111 43.2931 12.3159 43.2697 12.4622 43.457C13.9548 44.8092 15.7519 45.693 17.4377 46.735C17.4377 46.8052 17.4319 46.8638 17.4319 46.934ZM27.418 30.7548C25.9195 31.4631 24.421 26.148 19.9079 24.7724C17.4728 23.9003 9.87492 20.1423 8.86226 24.0115C7.48667 27.8748 6.92473 31.9255 6.43888 35.982C6.39791 36.2513 6.49742 36.5966 6.64961 36.8132C7.75008 38.4054 8.90908 39.9624 10.0154 41.5487C9.98614 41.5897 9.94516 41.6248 9.92175 41.6541C8.77445 40.7175 5.32086 37.6854 5.24476 36.3215C5.83597 32.6806 6.22816 20.8154 10.9286 20.675C15.1256 20.7569 19.1177 22.5013 23.0805 23.7305C25.7673 24.5676 27.2307 26.47 27.9331 29.0807C28.138 29.8006 27.9507 30.5616 27.418 30.7548ZM34.7525 23.9412C36.491 21.7169 38.7154 20.3881 41.7358 20.2067C42.2978 20.2828 43.7143 20.6164 43.4568 21.4652C43.4216 21.5764 43.3573 21.6818 43.2753 21.7579C43.2577 21.7871 43.2285 21.7988 43.2051 21.8223C42.8129 22.1852 42.1573 22.2554 41.4783 22.273H41.4431C40.5534 22.3783 39.4529 22.5013 38.3291 22.9578C38.3115 22.9578 38.2881 22.9637 38.2764 22.9813C37.3164 23.4203 36.4618 24.0525 35.6832 24.7959C35.0686 25.709 33.8335 25.0124 34.7525 23.9412ZM44.8206 28.7119C45.8157 31.6328 43.2343 34.7586 40.1729 34.0269C38.4871 33.7225 37.3222 32.7274 36.772 31.106C36.5262 30.0524 35.4198 30.4914 34.6355 30.228C34.6179 30.1753 34.6003 30.1226 34.5828 30.0699C34.7642 29.947 34.9867 29.8182 35.2384 29.6953C35.3671 29.625 35.5076 29.5665 35.6423 29.4963C35.8296 29.4085 36.0403 29.3207 36.251 29.227C36.5905 29.0924 36.9535 28.9519 37.3398 28.8173C37.4335 28.788 37.5213 28.7529 37.6091 28.7294C38.4344 28.4602 39.3242 28.2143 40.208 28.0387C41.0978 27.869 41.9817 27.7578 42.7719 27.7636C43.0119 27.7636 43.2343 27.7753 43.4509 27.7987C43.7202 27.8221 43.9719 27.8631 44.206 27.9217C44.6392 28.027 45.0021 28.2026 45.2772 28.4602C45.0782 28.5655 44.967 28.6299 44.8206 28.7119Z" fill="#4CA3DB"/>
<path d="M61.3276 10.0913C61.1813 10.0562 61.035 10.0211 60.8828 9.99183C60.5901 9.92158 60.2916 9.87476 60.0047 9.82793C59.7179 9.7811 59.4252 9.74598 59.1443 9.72256C59.1384 9.72256 59.1384 9.72256 59.1384 9.72256C58.8516 9.6933 58.5648 9.68159 58.2896 9.66988C48.1454 9.3655 39.9797 20.0892 29.7419 20.698C30.5906 19.9253 33.0374 18.3858 36.21 16.6356C36.2159 16.6298 36.2217 16.6239 36.2334 16.6181C40.5182 14.1186 44.9904 11.9176 49.6732 10.343C49.7025 10.3313 49.7317 10.3196 49.761 10.3079C53.6829 8.85624 57.236 7.9782 59.3608 8.3821C59.3608 8.3821 59.3667 8.3821 59.3725 8.3821C60.4028 8.48161 61.2691 8.86795 61.3218 9.91573C61.3218 9.91573 61.3218 9.91573 61.3218 9.92159V9.945C61.3276 9.99183 61.3276 10.0387 61.3276 10.0913Z" fill="#4CA3DB"/>
<path d="M29.0512 19.1648C28.9985 19.1824 28.9516 19.2058 28.899 19.235C28.7175 19.3228 28.536 19.4399 28.3487 19.5511C28.2551 19.6097 28.1556 19.6623 28.0561 19.715C27.9858 19.756 27.9156 19.7911 27.8453 19.8145C27.6053 19.9082 27.3712 19.9316 27.1078 19.8497C26.5985 19.6682 26.0893 19.4809 25.5741 19.2994C25.1937 19.1589 24.8073 19.0185 24.421 18.878C24.0347 18.7375 23.6542 18.6028 23.2678 18.4624C22.501 18.1872 21.7342 17.9063 20.9674 17.6429C20.6045 17.5141 20.5752 17.2975 20.5694 16.999C20.5635 16.8995 20.5635 16.7882 20.5635 16.6887C20.5401 15.5063 20.7157 14.3766 21.0494 13.3054L21.1489 12.9834C21.2074 12.8078 21.2718 12.6322 21.342 12.4625C21.4123 12.2869 21.4767 12.1171 21.5586 11.9474C22.0386 10.8879 22.6649 9.88691 23.3966 8.9679C23.42 8.93863 23.4435 8.90936 23.4727 8.88009C24.1108 8.0723 24.8425 7.32305 25.621 6.62648C25.8434 6.42745 26.0717 6.22843 26.3 6.04112C26.3585 5.99429 26.4112 5.95332 26.4697 5.90649V5.90063H26.4756C26.4405 6.01185 26.4112 6.12892 26.3819 6.24014C26.3527 6.35136 26.3293 6.46843 26.3058 6.57965C26.2824 6.69086 26.259 6.80794 26.2415 6.91915C26.218 7.03037 26.2005 7.14744 26.1888 7.25866C26.1537 7.48695 26.1302 7.70938 26.1185 7.92596C26.1127 8.01962 26.1068 8.11328 26.1068 8.19523C26.0951 8.46449 26.0951 8.72205 26.1068 8.98546C26.1068 9.08497 26.1127 9.19619 26.1244 9.30155C26.1185 9.33667 26.1244 9.37765 26.1302 9.41277C26.1361 9.51228 26.1419 9.61764 26.1595 9.71715C26.1654 9.84008 26.1829 9.963 26.2005 10.0859C26.2649 10.5718 26.3527 11.0518 26.4697 11.5259C26.5458 11.842 26.6278 12.1581 26.7273 12.48C26.7741 12.6439 26.821 12.802 26.8736 12.9659C26.9731 13.2761 27.0844 13.5981 27.1956 13.9083C27.4766 14.6985 27.8044 15.4712 28.1263 16.2439C28.1322 16.279 28.1439 16.32 28.1556 16.3551C28.1731 16.4136 28.1965 16.478 28.2317 16.5483C28.2785 16.6653 28.3429 16.8 28.419 16.9404C28.4482 17.0048 28.4834 17.0575 28.5068 17.116C28.5126 17.1336 28.5243 17.1453 28.5243 17.157C28.577 17.2507 28.618 17.3385 28.6707 17.4263C28.6999 17.479 28.7292 17.5258 28.7526 17.5843C28.8404 17.7365 28.9165 17.8946 28.9868 18.0409C29.0043 18.076 29.016 18.1053 29.0277 18.1287C29.0687 18.2224 29.1038 18.3043 29.1273 18.3921C29.2619 18.7726 29.2795 19.0594 29.0512 19.1648Z" fill="#4CA3DB"/>
<path d="M48.2625 9.10807C47.8703 9.24856 47.4781 9.38904 47.0918 9.54123C46.7055 9.68757 46.3191 9.83391 45.9328 9.99196C45.4587 10.1793 44.9787 10.3783 44.5104 10.5832C44.0831 10.7646 43.6616 10.9519 43.2402 11.151C42.7543 11.3675 42.2626 11.5958 41.7826 11.8241C41.3846 12.0173 40.9807 12.2105 40.5885 12.4153C40.2958 12.5617 40.0032 12.708 39.7105 12.8661C39.1837 13.1353 38.651 13.4163 38.13 13.7031C37.41 14.0953 36.69 14.4992 35.9759 14.9148C35.9759 14.9148 35.9759 14.9089 35.9701 14.9148C35.2559 15.3304 34.5476 15.746 33.8394 16.185C33.1311 16.6182 32.4228 17.0572 31.7262 17.5079C31.375 17.7304 31.0238 17.9586 30.6726 18.1811C30.4853 17.7713 30.2921 17.3674 30.1048 16.9577C29.9116 16.5421 29.7185 16.1323 29.537 15.7167C29.2677 15.0904 28.9985 14.4699 28.7585 13.8377C28.6707 13.6153 28.5946 13.3987 28.5185 13.1821C28.4365 12.9656 28.3663 12.7431 28.296 12.5265C28.22 12.3041 28.1614 12.0817 28.097 11.8651C28.0326 11.6485 27.98 11.4202 27.9273 11.2036C27.9214 11.1802 27.9156 11.1568 27.9097 11.1334C27.8687 10.9695 27.8336 10.8056 27.8043 10.6358C27.6814 10.0154 27.5878 9.3949 27.5526 8.76271C27.5409 8.69247 27.5409 8.62808 27.5409 8.55784C27.5175 8.12467 27.5175 7.70322 27.5468 7.2642C27.5526 7.16469 27.5585 7.05933 27.5702 6.95396C27.5936 6.66714 27.6346 6.37446 27.6756 6.08764C28.3487 5.53155 29.1038 5.0457 29.9233 4.6301C30.2277 4.4662 30.5555 4.31986 30.8775 4.17938C31.2697 4.00962 31.6794 3.85743 32.0833 3.72865C32.1418 3.69939 32.1945 3.68768 32.253 3.67012C32.815 3.48866 33.4003 3.33647 33.9798 3.21939C34.1964 3.17257 34.413 3.13159 34.6237 3.10232C35.0159 3.03793 35.4081 2.99111 35.8003 2.95599C36.1983 2.91501 36.5905 2.89745 36.9827 2.8916C37.1115 2.88574 37.2403 2.88574 37.3632 2.88574C37.4978 2.88574 37.6325 2.8916 37.773 2.89745C37.8666 2.89745 37.9661 2.9033 38.0539 2.90916C38.2178 2.92086 38.3817 2.92672 38.5398 2.93842C38.8207 2.96184 39.1017 2.99111 39.3827 3.02623C39.5524 3.04964 39.7163 3.07891 39.8802 3.10818C40.0617 3.13745 40.2431 3.17257 40.4246 3.20769C40.5241 3.22525 40.6295 3.24866 40.729 3.27793C40.8285 3.30134 40.928 3.32476 41.0275 3.35403C41.2324 3.40671 41.4314 3.45939 41.6304 3.52378C42.0402 3.6467 42.4441 3.79304 42.8304 3.9628C43.0119 4.03889 43.1875 4.11499 43.3572 4.20279C43.7728 4.40181 44.1709 4.6301 44.5572 4.87595C44.686 4.9579 44.8148 5.03985 44.9377 5.13351C45.2714 5.36765 45.5933 5.61935 45.8977 5.90032C46.0499 6.03496 46.1962 6.17544 46.3426 6.32763C46.4362 6.42129 46.5357 6.52665 46.6235 6.62616C46.7113 6.72567 46.805 6.83104 46.8928 6.9364C46.9689 7.02421 47.0274 7.10616 47.0977 7.19396C47.2147 7.34615 47.3318 7.5042 47.4372 7.66224C47.5074 7.76175 47.566 7.86126 47.6303 7.96077C47.7123 8.0837 47.7884 8.21833 47.8645 8.34711C47.9172 8.44077 47.964 8.54028 48.0167 8.63393C48.0459 8.69247 48.0752 8.74515 48.1045 8.80369C48.1689 8.9032 48.2157 9.00271 48.2625 9.10807Z" fill="#4CA3DB"/>
<path d="M56.7092 30.0757C56.6389 30.0054 56.5863 29.9528 56.5394 29.8942C56.4868 29.8357 56.4458 29.7889 56.4165 29.742C56.3287 29.6133 56.317 29.5079 56.3463 29.3791C56.358 29.344 56.3697 29.2972 56.3931 29.2562C56.4282 29.1684 56.4809 29.0572 56.557 28.9225C56.797 28.4718 56.8614 27.9333 57.0253 27.3713C57.0721 27.3713 57.1189 27.3772 57.1716 27.383C57.2828 27.3889 57.4175 27.3948 57.558 27.4006C57.6341 27.4065 57.7043 27.4065 57.7804 27.4123C58.0321 28.4133 57.5345 29.8415 56.7092 30.0757Z" fill="white"/>
<path d="M27.4181 30.7546C25.9254 31.4629 24.4211 26.1479 19.9021 24.7723C17.4612 23.9001 9.86911 20.1421 8.8623 24.0113C7.48672 27.8747 6.91892 31.9253 6.43893 35.9819C6.40381 36.2511 6.49747 36.5965 6.64966 36.8189C7.75013 38.4111 8.90913 39.9681 10.0155 41.5544C9.98619 41.5896 9.94521 41.6305 9.91594 41.6598C8.76865 40.7232 5.3092 37.6911 5.23895 36.3214C5.83016 32.6863 6.22235 20.8211 10.9228 20.6748C15.1198 20.7568 19.1119 22.5011 23.0747 23.7304C25.7615 24.5674 27.2308 26.464 27.9332 29.0805C28.1322 29.8005 27.9507 30.5556 27.4181 30.7546Z" fill="black"/>
<path d="M45.2655 28.4541C44.9904 28.2024 44.6275 28.0268 44.1943 27.9156C43.9602 27.8512 43.7085 27.8161 43.4451 27.7868C43.2285 27.7634 43.0002 27.7575 42.7661 27.7575C41.9758 27.7517 41.0919 27.8629 40.2022 28.0385C39.3183 28.2141 38.4344 28.4541 37.6091 28.7292C37.5213 28.7585 37.4276 28.7878 37.3398 28.817C36.9535 28.9517 36.5906 29.0863 36.2511 29.2209C36.0403 29.3087 35.8354 29.4024 35.6423 29.4902C35.5076 29.5546 35.3672 29.619 35.2384 29.6834C34.9867 29.8121 34.7642 29.9351 34.5769 30.058C34.5945 30.1107 34.6121 30.1634 34.6296 30.216C35.414 30.4853 36.5262 30.0404 36.7662 31.0999C37.3164 32.7214 38.4813 33.7106 40.1671 34.0208C43.2285 34.7525 45.8099 31.6209 44.8148 28.7117C44.967 28.6297 45.0782 28.5653 45.2655 28.4541ZM42.6256 32.4931C41.5251 33.2189 39.6695 33.2072 38.9437 32.2414C40.6412 31.8492 41.2441 30.9185 40.9632 29.3614C41.648 29.3731 43.3163 28.6122 43.726 29.1683C44.1826 30.2687 43.6792 31.7906 42.6256 32.4931Z" fill="black"/>
<path d="M42.6256 32.4931C41.5251 33.2248 39.6695 33.2072 38.9495 32.2414C40.6471 31.8492 41.25 30.9243 40.969 29.3614C41.6539 29.3731 43.3221 28.6122 43.726 29.1624C44.1826 30.2746 43.6792 31.7906 42.6256 32.4931Z" fill="white"/>
<path d="M43.4626 21.4651C43.4275 21.5821 43.3631 21.6816 43.2753 21.7636C43.2578 21.7929 43.2343 21.8046 43.2109 21.828C42.8656 22.109 42.2568 22.1851 41.4783 22.2846H41.449C40.5593 22.3899 39.4588 22.5129 38.3349 22.9694C38.3173 22.9694 38.2998 22.9753 38.2822 22.9928C37.4101 23.3441 36.5203 23.9001 35.695 24.8074C35.0745 25.7089 33.8335 25.0182 34.7525 23.947C36.4969 21.7285 38.7154 20.3939 41.7358 20.2124C42.2978 20.2826 43.7143 20.6163 43.4626 21.4651Z" fill="black"/>
<path d="M17.4377 46.7348C17.4377 46.805 17.4318 46.8694 17.4318 46.9338C15.7811 47.3377 13.6329 44.9378 12.2573 44.0714C11.988 43.8841 11.8358 43.6383 11.9002 43.3046C12.111 43.2871 12.31 43.2695 12.4622 43.451C13.949 44.809 15.746 45.687 17.4377 46.7348Z" fill="black"/>
<path d="M68.7324 35.3086C68.6621 35.689 68.6329 36.0812 68.5158 36.4442C68.4865 36.4968 68.469 36.5495 68.4514 36.6081C68.2934 37.0002 68.1997 37.4451 68.0592 37.8666C67.9012 38.2646 67.708 38.6275 67.4446 38.9319C67.2046 38.0949 68.3636 36.2627 68.5919 35.2793C68.6387 35.2852 68.6914 35.2969 68.7324 35.3086Z" fill="black"/>
<path d="M66.0807 41.6073C65.9051 41.3088 66.2563 40.5127 66.7831 39.9976C67.0173 40.2844 66.6778 41.0629 66.0807 41.6073Z" fill="black"/>
<path d="M96.7827 32.727L100.71 32.6743L100.634 35.7591L100.582 39.1483L92.211 39.0956L89.2316 39.1717L89.1789 33.6518C89.1789 33.2245 89.173 32.645 89.1555 31.9075C89.1379 31.1699 89.1145 30.2743 89.0794 29.209C89.0267 27.3475 89.0033 25.8725 89.0033 24.7954C89.0033 24.4852 89.015 24.0344 89.0384 23.4315C89.0677 22.8345 89.097 22.0911 89.1321 21.2013C89.1496 20.9964 89.1672 20.7096 89.1789 20.3525C89.1965 19.9955 89.2257 19.5506 89.2609 19.0179L91.4676 19.094L100.892 18.8892V19.3282C100.892 19.4804 100.88 19.6501 100.863 19.8374C100.827 20.8325 100.804 21.6286 100.786 22.2257C100.769 22.8286 100.763 23.2208 100.763 23.4081C100.763 23.853 100.816 24.5613 100.915 25.5388L94.9622 25.41V26.411L99.8148 26.3115L99.8909 31.5211L94.9622 31.6499L94.9329 32.6275C95.0383 32.6275 95.1671 32.6275 95.331 32.6392C95.4949 32.645 95.6646 32.6626 95.8461 32.6743C96.0276 32.6918 96.1973 32.7094 96.3729 32.7153C96.5427 32.727 96.6773 32.727 96.7827 32.727Z" fill="#01A0E2"/>
<path d="M115.526 32.6276L115.45 35.7592L115.397 39.2479L111.569 39.2772L106.898 39.2245L103.789 39.3533L103.743 36.6314C103.725 36.2041 103.713 35.4665 103.702 34.4246C103.69 33.3768 103.672 32.0071 103.637 30.3154L103.561 24.7955C103.561 24.4853 103.573 24.0287 103.596 23.4199C103.625 22.8112 103.655 22.0502 103.69 21.1253C103.707 20.9029 103.725 20.6044 103.743 20.2356C103.76 19.8668 103.784 19.422 103.819 18.8893L106.154 18.9654C106.429 18.9829 106.868 18.9771 107.477 18.942C108.086 18.9068 108.876 18.8483 109.854 18.7605C109.836 18.8951 109.824 19.1176 109.824 19.4278C109.824 19.738 109.819 20.1361 109.801 20.6336L109.725 23.4843L109.643 32.651L111.469 32.6744L115.526 32.6276Z" fill="#01A0E2"/>
<path d="M125.875 32.727L129.803 32.6743L129.726 35.7591L129.674 39.1483L121.303 39.0956L118.324 39.1717L118.271 33.6518C118.271 33.2245 118.265 32.645 118.248 31.9075C118.23 31.1699 118.207 30.2743 118.172 29.209C118.119 27.3475 118.095 25.8725 118.095 24.7954C118.095 24.4852 118.107 24.0344 118.131 23.4315C118.16 22.8345 118.189 22.0911 118.224 21.2013C118.236 20.9964 118.254 20.7096 118.271 20.3525C118.289 19.9955 118.318 19.5506 118.353 19.0179L120.56 19.094L129.984 18.8892V19.3282C129.984 19.4804 129.972 19.6501 129.955 19.8374C129.92 20.8325 129.896 21.6286 129.879 22.2257C129.861 22.8286 129.855 23.2208 129.855 23.4081C129.855 23.853 129.902 24.5613 130.007 25.5388L124.049 25.41V26.411L128.901 26.3115L128.983 31.5211L124.049 31.6499L124.025 32.6275C124.125 32.6275 124.259 32.6275 124.423 32.6392C124.587 32.645 124.757 32.6626 124.938 32.6743C125.114 32.6918 125.289 32.7094 125.465 32.7153C125.635 32.727 125.769 32.727 125.875 32.727Z" fill="#01A0E2"/>
<path d="M144.694 22.5888C143.067 20.9791 140.31 19.984 136.423 19.6093C135.826 19.5215 135.153 19.4981 134.398 19.5332H134.14C134.052 19.5332 133.953 19.5391 133.83 19.5566H132.653L132.753 24.181C132.788 26.1653 132.811 27.9975 132.829 29.6716C132.846 31.3516 132.858 32.8852 132.858 34.2666V39.1485L137.506 39.248L137.453 34.372V33.8042H137.787C139.976 33.5701 141.878 32.9145 143.488 31.855C145.455 30.573 146.438 28.9399 146.438 26.9497C146.438 25.2053 145.859 23.7536 144.694 22.5888ZM138.993 28.4892C138.665 28.7994 138.126 29.0394 137.377 29.2092V25.8726C137.875 25.8726 138.302 25.9312 138.659 26.0541C139.256 26.2414 139.56 26.5048 139.56 26.8502C139.56 27.5877 139.367 28.1321 138.993 28.4892Z" fill="#01A0E2"/>
<path d="M164.005 36.4498C164.052 37.2752 164.081 37.8898 164.081 38.2996V39.3298L163.027 39.2244C162.682 39.1893 162.325 39.1659 161.95 39.1483C161.57 39.1308 161.184 39.1191 160.791 39.1191H160.405C160.27 39.1191 160.06 39.1366 159.779 39.16C159.498 39.1834 159.287 39.201 159.146 39.201H158.251L158.198 38.3288C158.198 38.1064 158.192 37.8313 158.186 37.5152C158.175 37.1991 158.163 36.8479 158.146 36.4498C158.081 35.5133 158.034 34.7816 158.005 34.2548C157.982 33.7338 157.97 33.4294 157.97 33.3475L158.017 31.5211L157.098 31.5738L155.4 31.5504C155.4 31.7026 155.394 31.9133 155.388 32.1767C155.377 32.4402 155.365 32.7621 155.348 33.1367L155.301 34.3718L155.248 39.2244H154.294C154.177 39.2244 154.03 39.2186 153.861 39.2127C153.691 39.201 153.492 39.1893 153.269 39.1717L152.573 39.0956H149.57L149.623 38.1181C149.64 37.8313 149.646 37.2752 149.646 36.4498C149.646 35.6128 149.634 34.5182 149.599 33.166C149.564 31.3163 149.535 29.6714 149.506 28.2373C149.482 26.7973 149.471 25.5388 149.471 24.4618C149.453 24.3213 149.412 23.9584 149.353 23.3671C149.295 22.7818 149.213 21.9447 149.108 20.8677C149.008 19.8726 148.973 19.2989 149.008 19.1467C149.88 19.334 150.665 19.4804 151.367 19.5799C152.07 19.6853 152.713 19.7379 153.293 19.7379H154.423C154.75 19.7379 155.014 19.7087 155.219 19.6618C155.377 21.6111 155.453 24.2101 155.453 27.4646C155.605 27.4646 155.839 27.4822 156.155 27.5173C156.471 27.5524 156.711 27.57 156.864 27.57H157.788C157.888 27.5349 157.982 27.5115 158.058 27.5056C158.134 27.4939 158.21 27.4822 158.274 27.4646C158.345 26.9144 158.391 26.0598 158.415 24.8832C158.444 23.7125 158.456 22.2198 158.456 20.4052H159.404C159.527 20.4052 159.673 20.4111 159.843 20.417C160.013 20.4228 160.212 20.4404 160.434 20.4579L161.125 20.534H164.461C164.274 22.0384 164.134 23.3671 164.04 24.5144C163.946 25.6617 163.9 26.6334 163.9 27.4412L163.923 34.6528C163.923 35.0333 163.952 35.6303 164.005 36.4498Z" fill="#01A0E2"/>
<path d="M183.105 33.9622C182.66 32.5047 182.327 31.293 182.104 30.3155C181.864 29.256 181.659 28.3194 181.489 27.5058C181.314 26.6921 181.179 25.9955 181.074 25.4102C180.787 23.9058 180.529 22.0327 180.307 19.7849L171.164 19.9664C170.976 21.4766 170.777 22.8932 170.573 24.2278C170.368 25.5624 170.145 26.8502 169.905 28.0794C169.771 28.7467 169.601 29.5135 169.408 30.3681C169.209 31.2228 168.975 32.171 168.699 33.2188C168.325 34.6705 168.003 35.8997 167.739 36.9007C167.47 37.9017 167.271 38.6919 167.137 39.2773H173.886L174.424 36.8363L177.017 36.7368L177.556 39.406C177.796 39.3709 178.024 39.3416 178.241 39.3299C178.451 39.3124 178.668 39.2948 178.896 39.2773C179.271 39.2421 179.622 39.2187 179.944 39.2129C180.272 39.2012 180.582 39.1894 180.869 39.1719L184.75 39.0724C184.1 37.1173 183.55 35.4139 183.105 33.9622ZM175.22 30.9067C175.291 30.8364 175.419 30.5028 175.607 29.9057C175.624 29.8355 175.648 29.736 175.683 29.5955C175.718 29.4608 175.759 29.2852 175.812 29.0804L176.327 30.854L175.22 30.9067Z" fill="#01A0E2"/>
<path d="M202.621 39.8157L200.642 39.7923C200.25 39.7923 199.606 39.8391 198.717 39.9445C198.576 39.9621 198.406 39.9855 198.19 40.0206C197.973 40.0557 197.733 40.0908 197.458 40.126L196.586 38.2996L194.918 34.8578C194.642 34.2782 194.432 33.8275 194.285 33.5114C194.139 33.1953 194.051 33.0022 194.016 32.9319L194.145 39.2772L190.884 39.3006L187.624 39.3767L187.753 35.888C187.77 35.4958 187.776 34.8051 187.765 33.8217C187.759 32.8383 187.735 31.5563 187.7 29.9817C187.665 28.3896 187.624 26.7506 187.571 25.0648C187.519 23.3789 187.46 21.6112 187.396 19.7614L193.53 19.6853L194.841 22.3546C195.778 24.1867 196.445 25.3165 196.843 25.7438C196.843 25.5213 196.82 25.0882 196.779 24.4326C196.732 23.7828 196.668 22.9224 196.586 21.8394C196.551 21.3477 196.51 20.8385 196.457 20.3292C196.404 19.8141 196.352 19.2814 196.305 18.7371L199.027 18.8132L202.545 18.7839L202.439 20.9439C202.322 23.2911 202.235 25.2813 202.182 26.9262C202.129 28.571 202.106 29.8764 202.106 30.8539C202.106 31.4042 202.129 32.1358 202.17 33.0607C202.211 33.9856 202.275 35.0977 202.363 36.4031C202.398 36.9475 202.434 37.5036 202.48 38.0714C202.521 38.6333 202.568 39.2186 202.621 39.8157Z" fill="#01A0E2"/>
<path d="M220 19.3516L219.848 24.7954L216.02 25.0237L215.815 39.7102L210.529 39.4585L210.81 25.5388L205.237 25.691L205.261 20.3525L220 19.3516Z" fill="#01A0E2"/>
</svg>
