<svg width="119" height="114" viewBox="0 0 119 114" fill="none" xmlns="http://www.w3.org/2000/svg">
<path d="M97.4558 17.3299C96.936 16.7719 96.2021 16.4534 95.4402 16.4534C95.3893 16.4534 95.3383 16.4534 95.2873 16.4585C92.3927 16.6139 81.9964 17.5898 69.7807 23.5626C62.7785 26.9873 56.3548 31.4847 50.6878 36.9325C50.6113 37.0039 50.54 37.0803 50.4635 37.1517L36.5942 40.0896L15.7506 58.7851L15.6793 58.8539C15.0626 59.4706 14.8537 60.3981 15.1493 61.2186C15.4448 62.0391 16.1965 62.6226 17.0654 62.7041L30.1474 63.9298L26.7049 67.2347L29.7321 70.1981L24.4779 75.4523L39.3461 89.9562L44.2359 84.3962L47.9613 88.0425L50.5629 85.2167L51.284 97.0679C51.3401 97.9827 51.9312 98.7854 52.7899 99.109C53.055 99.2083 53.3301 99.2593 53.613 99.2593C54.2296 99.2593 54.8335 99.0096 55.2693 98.5713L55.282 98.5586L73.6258 78.1355L77.2391 64.075C81.7951 59.2361 85.6911 53.9463 88.8534 48.2971C93.7687 39.5112 96.9079 29.8386 98.1845 19.5493C98.2763 18.7416 98.0138 17.9313 97.4558 17.3299ZM55.4221 91.7296L54.7775 81.1091C57.4224 79.7943 63.887 76.2575 71.1185 69.9586L69.5718 75.9747L55.4221 91.7296ZM30.8227 75.4166L32.9198 73.3195L41.0432 81.2747L39.0964 83.4891L30.8227 75.4166ZM45.1609 42.834C40.8979 47.8741 37.1496 53.5564 33.9671 59.8095L22.4878 58.7342L38.6862 44.2048L45.1609 42.834ZM33.1109 67.2678L35.2972 65.1707L49.5615 79.7179L47.7931 81.6391L33.1109 67.2678ZM73.5418 61.4861L73.3099 61.4275L73.2029 61.8403C72.4231 62.6455 71.623 63.4405 70.8051 64.2177C63.334 71.3091 56.2426 75.3504 53.0957 76.9557L38.0517 61.611C42.042 53.8189 46.9522 46.9772 52.6625 41.2465L52.9326 41.1879L52.897 41.0146C53.19 40.7241 53.483 40.4336 53.7786 40.1482C59.1118 35.0214 65.1559 30.789 71.7402 27.5682C73.0958 26.9057 74.426 26.3095 75.7229 25.7718C76.095 27.1682 76.7142 28.9544 77.7258 30.7534C79.4967 33.8952 82.771 37.5848 88.596 38.6245C87.536 41.17 86.3333 43.6519 84.9879 46.0599C81.8996 51.5969 78.057 56.7696 73.5418 61.4861ZM79.9248 24.1869C85.8517 22.1637 90.7313 21.3814 93.4654 21.0833C92.7749 25.652 91.6868 30.0858 90.2166 34.3538C86.4556 33.9181 83.5762 32.0045 81.6549 28.641C80.7223 27.0102 80.2025 25.3488 79.9248 24.1869Z" fill="white"/>
<path d="M66.7205 36.7642C61.4178 36.7642 57.1064 41.0781 57.1064 46.3782C57.1064 51.6808 61.4204 55.9922 66.7205 55.9922C72.0205 55.9922 76.3345 51.6782 76.3345 46.3782C76.3345 41.0756 72.0231 36.7642 66.7205 36.7642ZM66.7205 51.533C63.8793 51.533 61.5656 49.2193 61.5656 46.3782C61.5656 43.537 63.8793 41.2234 66.7205 41.2234C69.5616 41.2234 71.8753 43.537 71.8753 46.3782C71.8753 49.2193 69.5642 51.533 66.7205 51.533Z" fill="white"/>
<path d="M29.992 84.5057C29.569 84.0751 29.0033 83.8381 28.402 83.8381C27.8134 83.8381 27.2604 84.0649 26.84 84.4777L0.665814 110.178C-0.210736 111.039 -0.223476 112.453 0.637785 113.333C1.06077 113.763 1.62645 114 2.22781 114C2.81642 114 3.37191 113.773 3.7898 113.361L29.9614 87.6603C30.8405 86.7965 30.8533 85.3823 29.992 84.5057Z" fill="white"/>
<path d="M9.2733 98.2042C9.86956 98.2042 10.4276 97.9723 10.8506 97.5519L25.7443 82.6582C26.6132 81.7893 26.6132 80.3751 25.7443 79.5036C25.3238 79.0832 24.7633 78.8513 24.167 78.8513C23.5707 78.8513 23.0127 79.0832 22.5897 79.5036L7.69602 94.3973C6.82712 95.2662 6.82712 96.6804 7.69602 97.5519C8.11901 97.9723 8.67959 98.2042 9.2733 98.2042Z" fill="white"/>
<path d="M33.3861 88.0703C32.7898 88.0703 32.2292 88.3022 31.8088 88.7226L17.7865 102.747C16.9176 103.616 16.9176 105.031 17.7865 105.902C18.207 106.322 18.7676 106.554 19.3638 106.554C19.9601 106.554 20.5181 106.322 20.9411 105.902L34.9659 91.8772C35.3863 91.4568 35.6182 90.8962 35.6182 90.2999C35.6182 89.7037 35.3863 89.1456 34.9659 88.7226C34.5429 88.3022 33.9823 88.0703 33.3861 88.0703Z" fill="white"/>
<path d="M52.2854 81.4071L33.5695 62.3192L34.0256 61.3891C38.5791 52.1114 44.3633 44.0696 51.2152 37.4827C56.8261 32.0909 63.1837 27.6368 70.1145 24.2479C82.2028 18.3362 92.4691 17.373 95.3281 17.2202C95.9192 17.187 96.49 17.4189 96.8952 17.8521C97.3003 18.2853 97.4889 18.8713 97.4175 19.4625C96.1537 29.6524 93.0475 39.2307 88.1781 47.93C84.2846 54.8863 79.2673 61.2948 73.264 66.9797C63.0384 76.6599 53.6079 80.8337 53.2104 81.007L52.2854 81.4071ZM37.119 61.7535L52.9403 77.8881C55.5164 76.6115 63.2499 72.4428 71.3325 64.7704C77.104 59.292 81.9225 53.123 85.658 46.4342C90.1401 38.4051 93.0679 29.5938 94.3649 20.2269C90.6319 20.548 81.7415 21.8271 71.4064 26.8826C64.7507 30.1391 58.6404 34.4148 53.2511 39.5977C46.8707 45.7259 41.4483 53.1765 37.119 61.7535Z" fill="#4DA4DC"/>
<path d="M47.9281 86.9493L27.8005 67.2423L34.3288 60.979L36.3571 63.0939L32.0126 67.2626L47.8185 82.7399L51.2712 78.9865L53.4294 80.9715L47.9281 86.9493Z" fill="#4DA4DC"/>
<path d="M39.3003 88.8529L25.5634 75.4498L31.8802 69.1331L33.9518 71.2047L29.7347 75.4243L39.1372 84.6001L42.916 80.3014L45.1176 82.238L39.3003 88.8529Z" fill="#4DA4DC"/>
<path d="M35.1315 63.6314L17.1342 61.9446C16.5583 61.8911 16.0614 61.5037 15.8652 60.961C15.669 60.4182 15.8066 59.8042 16.2169 59.3965L16.2729 59.3429L36.9509 40.7978L51.4165 37.7324L52.0229 40.599L38.3243 43.5013L20.6735 59.3328L35.4042 60.7138L35.1315 63.6314Z" fill="#4DA4DC"/>
<path d="M53.6053 98.4999C53.4193 98.4999 53.2307 98.4668 53.0524 98.398C52.474 98.1789 52.079 97.6412 52.0408 97.0246L51.019 80.2274L53.9442 80.0491L54.7672 93.5974L70.2649 76.3416L73.8577 62.355L76.6963 63.0837L72.9251 77.766L54.7188 98.0336C54.4207 98.3394 54.0156 98.4999 53.6053 98.4999Z" fill="#4DA4DC"/>
<path d="M66.7204 55.228C61.8408 55.228 57.8708 51.258 57.8708 46.3784C57.8708 41.4988 61.8408 37.5288 66.7204 37.5288C71.6001 37.5288 75.57 41.4988 75.57 46.3784C75.57 51.258 71.6001 55.228 66.7204 55.228ZM66.7204 40.4591C63.4563 40.4591 60.8012 43.1143 60.8012 46.3784C60.8012 49.6425 63.4563 52.2977 66.7204 52.2977C69.9846 52.2977 72.6397 49.6425 72.6397 46.3784C72.6397 43.1143 69.9846 40.4591 66.7204 40.4591Z" fill="#4DA4DC"/>
<path d="M91.4906 38.1455C84.1928 37.985 80.3401 33.8341 78.3933 30.3789C76.337 26.73 75.9675 23.1448 75.9548 22.9919L78.8724 22.7065C78.8749 22.7371 79.2138 25.9044 80.9949 29.0208C83.2857 33.0264 86.8378 35.1107 91.5569 35.2152L91.4906 38.1455Z" fill="black"/>
<path d="M2.23032 113.233C1.85065 113.233 1.47098 113.088 1.1856 112.795C0.617367 112.216 0.627559 111.289 1.20343 110.723L27.3751 85.023C27.9535 84.4547 28.881 84.4649 29.4467 85.0408C30.0149 85.6192 30.0047 86.5467 29.4289 87.1124L3.25721 112.813C2.97182 113.093 2.5998 113.233 2.23032 113.233Z" fill="#4DA4DC"/>
<path d="M9.27329 97.4398C8.89872 97.4398 8.52414 97.2972 8.23621 97.0118C7.66288 96.4384 7.66288 95.5109 8.23621 94.9401L23.1299 80.0464C23.7032 79.4731 24.6307 79.4731 25.2015 80.0464C25.7748 80.6198 25.7748 81.5473 25.2015 82.1181L10.3078 97.0118C10.025 97.2972 9.65041 97.4398 9.27329 97.4398Z" fill="#4DA4DC"/>
<path d="M19.3612 105.79C18.9867 105.79 18.6121 105.647 18.3242 105.362C17.7508 104.789 17.7508 103.861 18.3242 103.29L32.349 89.2654C32.9223 88.6921 33.8498 88.6921 34.4206 89.2654C34.9913 89.8388 34.9939 90.7663 34.4206 91.3371L20.3958 105.362C20.1129 105.647 19.7384 105.79 19.3612 105.79Z" fill="#4DA4DC"/>
<path d="M118.05 18.7923C118.088 17.5871 117.318 16.4659 116.156 16.0098C115.825 15.8696 115.502 15.7983 115.193 15.7983C114.365 15.7983 113.838 16.3003 113.489 16.6315C113.399 16.7156 113.269 16.8405 113.195 16.8889L112.882 16.7334C112.444 16.5245 111.993 16.3079 111.532 16.1143L111.504 16.1041C111.236 16.0047 110.966 15.9537 110.696 15.9537C110.199 15.9537 109.725 16.1219 109.32 16.4353C109.432 16.0429 109.478 15.597 109.389 15.0848C109.195 13.6146 108.606 9.22671 105.154 9.22671C103.296 9.22671 101.115 10.511 98.8063 11.8691C98.7222 11.9175 98.6407 11.9659 98.5566 12.0169C98.5285 11.9863 98.5005 11.9532 98.4725 11.9226C98.6101 11.8487 98.7528 11.7697 98.9031 11.6882C100.809 10.6562 103.421 9.23945 103.77 7.29524C103.918 6.4722 103.66 5.67464 103.006 4.92295L102.957 4.86689L102.899 4.82102C101.979 4.1101 100.924 3.76356 99.6676 3.76356C98.289 3.76356 96.9181 4.1789 95.5931 4.57895C95.0759 4.73694 94.5815 4.88473 94.1076 5.00194C94.1025 4.99175 94.0974 4.97901 94.0923 4.96881C94.0133 4.81083 93.919 4.61718 93.7738 4.449C91.9493 1.57983 88.833 0 84.9828 0C82.5417 0 79.9961 0.654864 77.8124 1.84483C77.578 1.94676 77.2671 1.95695 76.9384 1.96969C76.1867 1.99772 74.928 2.04358 74.5152 3.66928L74.5075 3.69731L74.5024 3.72534C74.4769 3.87058 74.426 3.97505 74.2221 4.16106C72.3034 5.84536 71.1491 8.11828 70.7771 10.9288C70.5401 10.8575 70.298 10.7811 70.0509 10.7046C68.7972 10.3097 67.4977 9.89941 66.1854 9.89941C65.1305 9.89941 64.2259 10.1619 63.4181 10.7046L63.3978 10.7174L63.3774 10.7326C60.8981 12.6361 59.3106 15.7626 58.9105 19.5338L58.9054 19.5771V19.6204C58.908 20.0103 58.8112 20.8792 58.7092 21.8016C58.2506 25.9449 58.2124 27.5884 58.9309 28.2203C62.2791 31.7418 66.2822 35.6532 71.4727 37.6279C73.6615 39.0702 76.1103 39.8983 78.2048 39.8983C81.2473 39.8983 83.2322 38.2344 83.6833 35.3882C85.7956 36.359 88.2495 37.3298 90.9785 37.8216L91.0244 37.8292L91.0702 37.8318C91.8015 37.8751 92.3621 38.1197 92.8335 38.6064L92.8565 38.6319L92.8819 38.6548C94.0974 39.697 96.0008 40.5685 96.7194 40.7621C98.2406 41.2692 99.8357 41.5266 101.464 41.5266H101.467C107.141 41.5266 112.775 38.3822 115.823 33.5178C118.327 29.5173 118.704 25.0352 116.911 20.8206C117.606 20.3518 118.024 19.6255 118.05 18.7923Z" fill="white"/>
<path d="M115.693 17.9871C115.904 18.0865 116.065 18.2751 116.08 18.4662C116.095 18.2547 115.932 18.0763 115.693 17.9871ZM115.591 28.2229C115.445 28.9975 115.247 29.739 114.992 30.4347C115.448 29.2676 115.731 28.042 115.807 26.7985C115.766 27.275 115.695 27.7489 115.591 28.2229ZM114.416 18.4636C114.38 18.5044 114.345 18.5426 114.299 18.5808C114.518 18.428 114.729 18.2445 114.943 18.0457C114.949 18.0457 114.949 18.0406 114.951 18.0381C114.765 18.1069 114.579 18.2521 114.416 18.4636ZM113.792 20.1683C114.179 19.9161 114.564 19.6638 114.951 19.4217C114.559 19.6587 114.161 19.8957 113.792 20.1683ZM113.236 20.627C113.236 20.6321 113.231 20.6321 113.231 20.6346C113.239 20.627 113.246 20.6193 113.254 20.6117C113.249 20.6142 113.244 20.6193 113.236 20.627ZM113.045 21.1901C113.025 21.5545 113.264 21.7864 113.588 21.8373C113.277 21.7711 113.048 21.5112 113.045 21.1901ZM111.188 18.3235C111.435 18.4483 111.684 18.6267 111.883 18.7184C112.24 18.958 112.584 19.0701 112.908 19.0828C112.268 18.9834 111.677 18.5248 111.188 18.3235ZM108.525 31.3087C108.588 31.2118 108.66 31.1277 108.744 31.0411C108.657 31.1252 108.588 31.2118 108.525 31.3087ZM103.153 15.9206C103.734 15.5129 104.346 15.1562 104.876 14.8173C104.277 15.1562 103.694 15.5078 103.153 15.9206ZM100.799 19.3223C100.799 19.5262 100.804 19.7275 100.804 19.9313C100.822 19.7224 100.827 19.5185 100.799 19.3223ZM99.902 13.8057C100.595 13.4413 101.474 12.8068 102.394 12.2896C101.655 12.6692 100.822 13.1839 99.902 13.8057ZM98.7477 21.8755V21.8806C98.8165 21.8297 98.8802 21.7762 98.9439 21.7278C98.8802 21.7762 98.8139 21.8271 98.7477 21.8755ZM95.1039 31.1252C95.0351 31.0768 94.9688 31.0258 94.8924 30.9723C94.8694 30.957 94.844 30.9392 94.821 30.9213C94.8924 30.985 94.9637 31.0411 95.0402 31.0972C95.193 31.2093 95.3434 31.3163 95.4988 31.4208C95.3969 31.3367 95.2593 31.2373 95.1039 31.1252ZM92.9966 28.8166V28.7733C92.9762 28.9822 92.9456 29.1784 93.1163 29.3262C93.1316 29.3466 93.152 29.3619 93.1673 29.3823C93.0526 29.1886 92.9838 28.9975 92.9966 28.8166ZM91.0371 33.1968C92.0971 34.9728 93.3915 36.3565 94.8643 37.3528C93.3406 36.2724 92.0512 34.8072 91.0371 33.1968ZM92.1073 27.7133C92.3621 27.7897 92.6042 27.9299 92.78 28.1337C92.6245 27.9248 92.385 27.7897 92.1073 27.7133ZM90.4637 27.9783C90.4434 27.991 90.4281 28.0012 90.4077 28.019C90.3644 28.0522 90.3185 28.0878 90.2803 28.1261C90.1809 28.2229 90.1045 28.3299 90.0433 28.4471C90.1223 28.3274 90.2038 28.2203 90.2956 28.1261C90.3873 28.0369 90.4867 27.963 90.5988 27.8942C90.5529 27.9171 90.5096 27.9451 90.4637 27.9783ZM86.8378 27.67C87.2047 27.698 87.5666 27.8177 87.8647 28.0292C87.6201 27.7948 87.2455 27.6776 86.8378 27.67ZM85.8338 28.5541C85.9612 28.5771 86.0886 28.6051 86.211 28.651C86.0886 28.6026 85.9612 28.5745 85.8338 28.5541ZM84.9624 28.4904C85.1102 28.2789 85.2987 28.1133 85.5026 27.9859C85.2707 28.1133 85.0821 28.2866 84.9624 28.4904ZM83.6577 2.03087C83.938 2.00793 84.2183 1.9901 84.4935 1.98755C84.2132 1.9901 83.938 2.00284 83.6577 2.03087ZM78.6864 9.70577C78.8546 10.1491 79.0431 10.59 79.2342 11.0282C79.0431 10.59 78.8597 10.1491 78.6864 9.70577ZM77.076 4.11012V4.11522C77.0531 4.19421 77.0327 4.27066 77.0148 4.3522C77.0352 4.2732 77.0556 4.19166 77.0785 4.11267H77.076V4.11012ZM75.5751 37.047C76.1943 37.3069 76.8441 37.5184 77.5117 37.6229C76.9792 37.5107 76.2631 37.2993 75.5751 37.047ZM74.9585 6.20977C75.4452 5.64918 75.9344 5.11918 76.4746 4.62229C75.9268 5.10898 75.4121 5.64154 74.9585 6.20977ZM73.2971 35.6481C73.2971 35.8392 73.3812 35.9691 73.557 36.0558C73.5927 36.0762 73.6258 36.0889 73.6564 36.1067C73.4398 35.9488 73.3073 35.7933 73.2971 35.6481ZM73.1442 9.70832C73.1239 9.79751 73.1035 9.87905 73.0831 9.96313C73.0627 10.0523 73.0474 10.139 73.0321 10.223C73.0168 10.3122 72.999 10.3989 72.9888 10.488C72.9735 10.5772 72.9659 10.6639 72.9531 10.753C72.9175 11.069 72.9022 11.3901 72.9098 11.7162C72.9098 10.9773 73.0015 10.2689 73.185 9.58347C73.1978 9.54015 73.2054 9.49938 73.2181 9.45606C73.1927 9.54015 73.1672 9.62423 73.1442 9.70832Z" fill="black"/>
<path d="M115.861 16.7129C114.189 16.002 113.96 18.0558 112.905 17.592C112.349 17.327 111.802 17.0569 111.238 16.8199C109.546 16.188 108.344 18.6469 109.095 19.9796C110.112 21.8703 111.159 23.7788 110.688 25.9982C110.4 27.6265 109.577 29.0738 107.964 29.7057C108.805 27.2417 110.224 24.319 108.703 21.855C108.387 21.3428 108.107 20.8077 107.88 20.2548C106.761 17.7627 108.988 17.1563 108.637 15.1994C107.577 7.12439 103.314 10.1312 98.4062 12.9927C98.0188 12.557 97.657 12.1518 97.2774 11.7339C99.1859 10.5185 104.924 8.28378 102.432 5.42735C99.9401 3.50098 96.7321 5.18783 94.0591 5.80447C93.5393 5.98538 93.4552 5.20821 93.1621 4.92027C89.9872 -0.175947 82.9442 -0.091859 78.1563 2.53269C77.0759 3.03212 75.677 2.22183 75.2617 3.86026C75.1929 4.24502 75.0069 4.4871 74.7342 4.73681C72.6218 6.59183 71.6459 9.12466 71.4548 11.9072C69.0341 11.3186 66.1726 9.78462 63.8512 11.339C61.2878 13.3061 60.0112 16.4811 59.68 19.6127C59.6876 21.0473 58.6404 27.0353 59.4634 27.6596C63.0511 31.4359 66.8733 35.0772 71.8319 36.9424C76.7268 40.2091 82.9213 40.2167 83.0258 34.2261C85.6401 35.4823 88.2596 36.55 91.1237 37.0647C92.0231 37.1157 92.7748 37.4367 93.3915 38.0686C94.5483 39.0599 96.3983 39.8854 96.9512 40.023C108.321 43.8427 121.563 32.0755 115.919 20.4587C117.886 19.8242 117.616 17.4035 115.861 16.7129ZM99.7057 13.9049C99.7669 13.8718 99.8255 13.8438 99.8892 13.8081C99.8943 13.803 99.8968 13.803 99.9019 13.803C100.822 13.1838 101.652 12.6665 102.394 12.2869C102.463 12.2461 102.526 12.2181 102.585 12.1824C103.701 11.5734 104.848 11.1657 105.732 11.6626C105.773 11.683 105.808 11.6982 105.844 11.7263C106.512 12.1187 106.96 13.0131 107.192 14.5343C107.197 14.5547 107.2 14.57 107.205 14.5954C107.393 15.5357 107.444 16.4963 107.401 17.4595C107.386 17.8596 107.358 18.2596 107.304 18.6597C107.291 18.8992 107.281 19.1438 107.281 19.3833C107.286 20.2064 107.414 20.9836 107.546 21.748V21.7607C107.569 21.8321 107.59 21.9136 107.618 21.9926C107.862 22.8564 107.928 23.7126 107.862 24.556C107.847 25.3281 107.707 26.1307 107.327 26.9996C106.996 27.9475 106.616 28.8751 106.275 29.8179C106.142 30.1746 105.931 30.2663 105.571 30.2103C105.482 30.1975 105.401 30.1822 105.312 30.167C105.227 30.1517 105.141 30.1262 105.057 30.1058C104.922 30.0701 104.789 30.0294 104.657 29.9809C104.608 29.9657 104.56 29.9478 104.511 29.9249C104.432 29.8969 104.356 29.8612 104.28 29.8255C104.208 29.7924 104.127 29.7491 104.053 29.7083C103.984 29.6675 103.918 29.6293 103.849 29.5809C103.778 29.5376 103.704 29.4841 103.632 29.4331C103.564 29.3821 103.5 29.3261 103.434 29.27C103.365 29.2089 103.299 29.1426 103.237 29.0789C103.189 29.0229 103.138 28.9668 103.092 28.9107C103.087 28.9056 103.084 28.9031 103.079 28.8954C103.036 28.8394 102.99 28.7757 102.952 28.712C102.904 28.6432 102.86 28.5693 102.825 28.4928C102.809 28.4521 102.789 28.4164 102.769 28.3756C102.756 28.3527 102.748 28.3272 102.74 28.3043C102.725 28.2635 102.707 28.2253 102.697 28.1794C102.656 28.0826 102.628 27.9832 102.613 27.8787C102.593 27.8176 102.585 27.7539 102.577 27.6902C102.239 25.6466 102.063 23.4909 100.99 21.6665C100.97 21.6333 100.954 21.6053 100.934 21.5696C100.911 21.5365 100.898 21.5008 100.885 21.4728C100.865 21.432 100.85 21.3887 100.835 21.3403C100.75 21.1288 100.717 20.9071 100.756 20.6574C100.756 20.6523 100.756 20.6523 100.756 20.6498C100.763 20.4459 100.791 20.237 100.804 20.0306C100.809 19.9949 100.809 19.9669 100.809 19.9312C100.809 19.7273 100.804 19.526 100.804 19.3222V19.2993C100.804 19.284 100.804 19.2712 100.799 19.2559C100.799 19.2228 100.804 19.205 100.804 19.1719V19.1489C100.819 18.6648 100.903 18.1959 101.24 17.801C101.245 17.7959 101.245 17.7959 101.247 17.7933C101.252 17.7857 101.255 17.7806 101.26 17.7729C101.696 17.0493 102.391 16.4581 103.135 15.9332C103.143 15.9256 103.151 15.9205 103.158 15.9205C103.699 15.5077 104.282 15.156 104.881 14.8171C104.945 14.7891 105.006 14.7764 105.062 14.7687C105.138 14.756 105.21 14.7687 105.278 14.7917C105.301 14.8044 105.329 14.8146 105.355 14.8324C105.378 14.8452 105.403 14.8655 105.424 14.8834C105.457 14.9063 105.485 14.9343 105.513 14.9624C105.617 15.0745 105.701 15.2299 105.78 15.4134C105.814 15.4898 105.844 15.5688 105.87 15.6529C105.89 15.7141 105.91 15.7778 105.926 15.8415C105.946 15.8924 105.959 15.9485 105.969 16.0046C105.977 16.0249 105.982 16.0402 105.984 16.0606C106.005 16.1294 106.017 16.1931 106.033 16.2645C106.04 16.2976 106.048 16.3205 106.053 16.3485C106.081 16.476 106.109 16.6136 106.132 16.741C106.147 16.8199 106.165 16.9015 106.173 16.9779C106.188 17.0544 106.201 17.1308 106.216 17.2047C106.224 17.2531 106.231 17.3015 106.239 17.3449C106.259 17.4442 106.275 17.5411 106.29 17.6328C106.295 17.6608 106.298 17.6838 106.305 17.7092C106.338 17.8927 106.377 18.0456 106.412 18.1501C106.433 18.1552 106.453 18.1552 106.476 18.1577C106.524 17.3729 106.532 16.7104 106.499 16.1472C106.499 16.0963 106.494 16.0428 106.491 15.9918C106.484 15.8211 106.468 15.6606 106.448 15.5128C106.44 15.4491 106.435 15.393 106.428 15.3319C106.42 15.2809 106.407 15.2325 106.4 15.1841C106.384 15.0872 106.364 14.9955 106.338 14.9038C106.323 14.8273 106.303 14.7509 106.277 14.6795C106.27 14.6515 106.262 14.6184 106.249 14.5954C106.234 14.5521 106.216 14.5114 106.206 14.4706C106.191 14.4298 106.173 14.3941 106.158 14.3585C106.124 14.2897 106.089 14.2234 106.053 14.1623C106.04 14.1419 106.03 14.1266 106.017 14.1113C105.982 14.0502 105.941 13.9992 105.898 13.9559C105.875 13.9227 105.847 13.8998 105.819 13.8718C105.778 13.8361 105.729 13.803 105.686 13.7724C105.643 13.7444 105.594 13.7163 105.546 13.696C104.975 13.4361 104.162 13.7087 103.135 14.2769C102.947 14.384 102.751 14.5012 102.539 14.6209C102.335 14.7458 102.124 14.8757 101.902 15.0159C101.683 15.156 101.454 15.3038 101.222 15.4567C100.985 15.6096 100.745 15.765 100.498 15.9281C100.147 15.3038 99.8153 14.7127 99.4662 14.096C99.5477 14.0323 99.614 13.9559 99.7057 13.9049ZM98.7476 21.8754C98.8164 21.827 98.8801 21.776 98.9438 21.7276C99.14 21.5798 99.3286 21.4346 99.5426 21.2715C100.243 22.7392 100.778 24.2299 100.794 25.8657C100.753 25.881 100.715 25.8989 100.677 25.9142C100.032 24.5662 99.3897 23.2234 98.7451 21.8779V21.8754H98.7476ZM98.4036 21.1619C98.3552 21.1135 98.3144 21.0727 98.2838 21.0345C98.2482 20.9938 98.215 20.9581 98.1947 20.9275C98.131 20.8358 98.1182 20.7644 98.1463 20.6727C98.1539 20.6498 98.1615 20.6166 98.1794 20.5835C98.2023 20.5198 98.2431 20.4434 98.2966 20.3465C98.4648 20.0306 98.5132 19.6509 98.6278 19.2508C98.661 19.2508 98.6966 19.2559 98.7323 19.2585C98.8113 19.2636 98.903 19.2661 99.005 19.2712C99.0559 19.2763 99.1094 19.2763 99.1604 19.2789C99.3337 19.9873 98.982 20.9938 98.4036 21.1619ZM93.4399 7.2416C93.4603 7.23396 93.4807 7.22631 93.501 7.21867C96.2683 6.19433 98.7731 5.57514 100.271 5.85798C100.271 5.85798 100.276 5.85798 100.279 5.85798C101.008 5.92933 101.614 6.20197 101.655 6.93838C101.655 6.93838 101.655 6.93838 101.655 6.94347V6.95876C101.66 6.99444 101.66 7.03011 101.66 7.06578V7.07088C101.556 7.04285 101.451 7.01992 101.349 6.99444C101.14 6.94602 100.934 6.91035 100.73 6.87722C100.526 6.8441 100.322 6.82116 100.121 6.80078C100.116 6.80078 100.116 6.80078 100.116 6.80078C99.9172 6.78549 99.7159 6.77275 99.5171 6.76511C92.362 6.54852 86.6008 14.1164 79.382 14.5445C79.9808 14.0017 81.7058 12.9137 83.9456 11.6804C83.9507 11.6753 83.9533 11.6728 83.9609 11.6677C86.9804 9.90438 90.1375 8.35258 93.4399 7.2416ZM77.8353 5.06552C77.8404 4.99417 77.8429 4.92282 77.8506 4.84638C77.8658 4.64253 77.8939 4.43868 77.927 4.23483C78.4035 3.84242 78.9361 3.49843 79.5119 3.20794C79.7285 3.09073 79.9553 2.98881 80.1846 2.89198C80.4598 2.77222 80.7478 2.6652 81.0357 2.57092C81.0765 2.55818 81.1121 2.54798 81.1529 2.53524C81.5479 2.40784 81.9607 2.29827 82.3734 2.21928C82.5263 2.18615 82.6767 2.15812 82.8296 2.13519C83.1048 2.09187 83.3825 2.0562 83.6602 2.03072C83.9405 2.00269 84.2157 1.98995 84.496 1.9874C84.5878 1.9823 84.6769 1.9823 84.7636 1.9823C84.8604 1.9823 84.9547 1.9874 85.0515 1.98995C85.1203 1.98995 85.1866 1.99504 85.2503 1.99759C85.3675 2.00524 85.4821 2.01033 85.5943 2.01798C85.793 2.03327 85.9892 2.05365 86.1905 2.08168C86.3103 2.09697 86.4275 2.11735 86.5422 2.13774C86.6696 2.15812 86.797 2.18106 86.9269 2.20908C86.9983 2.22183 87.0696 2.23711 87.1435 2.2575C87.2149 2.27279 87.2837 2.29062 87.355 2.30846C87.4977 2.34413 87.6378 2.3849 87.778 2.42822C88.0659 2.51741 88.3488 2.61933 88.6265 2.73654C88.7539 2.78751 88.8788 2.84356 88.9985 2.90472C89.2916 3.04486 89.5744 3.2054 89.8471 3.38122C89.9388 3.43727 90.028 3.49843 90.1146 3.56213C90.3516 3.72521 90.5784 3.90613 90.7899 4.10233C90.8969 4.19916 91.0013 4.29854 91.1007 4.40301C91.1695 4.46671 91.2358 4.53806 91.2995 4.6145C91.3632 4.68585 91.4269 4.75719 91.488 4.83364C91.539 4.89479 91.5849 4.9534 91.6307 5.01455C91.7148 5.12157 91.7938 5.23369 91.8703 5.34581C91.9187 5.41716 91.962 5.48595 92.0053 5.5573C92.0614 5.64648 92.1174 5.73822 92.1684 5.82995C92.2092 5.89875 92.2448 5.96245 92.2754 6.0338C92.2958 6.07457 92.3162 6.11279 92.3366 6.15356C92.3773 6.22491 92.413 6.29625 92.4436 6.37015H92.4385C92.1633 6.46952 91.8855 6.5689 91.6154 6.67337C91.3428 6.77785 91.0727 6.88232 90.8001 6.99444C90.4637 7.12694 90.1273 7.26708 89.7961 7.40978C89.4954 7.54228 89.1973 7.67478 88.8992 7.80983C88.5552 7.96272 88.2112 8.1207 87.8723 8.28633C87.5894 8.42138 87.3091 8.56152 87.0289 8.70167C86.8199 8.80614 86.6161 8.91061 86.4097 9.01763C86.0376 9.20874 85.6631 9.40495 85.2936 9.6088C84.7865 9.88399 84.2769 10.1694 83.7749 10.465H83.7698C83.2653 10.758 82.7659 11.0536 82.2664 11.3619C81.767 11.6651 81.2676 11.9785 80.7758 12.2945C80.5286 12.455 80.2789 12.6156 80.0368 12.7735L80.0317 12.7685C79.8992 12.4805 79.7642 12.1926 79.6317 11.9046C79.4966 11.6116 79.359 11.3211 79.2316 11.0281C79.0405 10.5873 78.852 10.149 78.6838 9.70562C78.6226 9.55019 78.5666 9.3973 78.5156 9.24187C78.4596 9.08898 78.4086 8.93355 78.3602 8.77811C78.3092 8.62268 78.2633 8.46724 78.22 8.30926C78.1767 8.15383 78.1359 7.99839 78.1003 7.84041C78.0952 7.82512 78.0926 7.80728 78.0875 7.79199C78.0544 7.67478 78.0315 7.55502 78.0111 7.44035C77.9219 7.00463 77.8582 6.5638 77.8353 6.12043C77.8276 6.07202 77.8276 6.02361 77.8276 5.97519C77.8149 5.67451 77.8149 5.37384 77.8353 5.06552ZM72.9531 10.7529C72.9658 10.6637 72.9735 10.5771 72.9888 10.4879C73.0015 10.3987 73.0168 10.3121 73.0321 10.2229C73.0474 10.1388 73.0652 10.0522 73.083 9.96298C73.1034 9.8789 73.1238 9.79481 73.1442 9.70817C73.1671 9.62408 73.1926 9.54 73.2155 9.45591C73.2232 9.41259 73.2385 9.37182 73.2512 9.3285L73.3226 9.10172C73.3633 8.97687 73.4117 8.85456 73.4576 8.73479C73.506 8.60994 73.557 8.49018 73.6105 8.37041C73.9214 7.64165 74.3469 6.95876 74.8693 6.31154C74.882 6.2988 74.8897 6.28351 74.9049 6.27077C74.9202 6.25039 74.9381 6.23 74.9559 6.20962C75.4069 5.64139 75.9242 5.10883 76.472 4.62214C76.6275 4.482 76.788 4.34185 76.9511 4.20935C76.9918 4.17623 77.0301 4.14055 77.0708 4.10997H77.0759C77.053 4.18897 77.0326 4.27051 77.0122 4.3495C76.9918 4.42849 76.9766 4.51003 76.9613 4.58902C76.946 4.66801 76.9281 4.74955 76.9179 4.82854C76.9027 4.90753 76.8899 4.98907 76.8823 5.06806C76.8593 5.22859 76.8415 5.38403 76.8339 5.53946C76.8288 5.60826 76.8262 5.67197 76.8262 5.73057C76.8186 5.91913 76.8186 6.1026 76.8262 6.28606C76.8262 6.35741 76.8313 6.43385 76.839 6.51029C76.8339 6.53323 76.839 6.56126 76.8441 6.58929C76.8491 6.66063 76.8517 6.73198 76.8644 6.80587C76.8695 6.89506 76.8797 6.9766 76.8925 7.06578C76.9358 7.40978 76.9995 7.74613 77.081 8.08248C77.1371 8.30671 77.1982 8.53095 77.2619 8.75518C77.2951 8.87239 77.3307 8.98196 77.3664 9.09917C77.4378 9.31831 77.5142 9.54255 77.5932 9.76423C77.792 10.3197 78.0213 10.8676 78.2481 11.4129L78.2532 11.418C78.2583 11.4409 78.2608 11.4664 78.2684 11.4944C78.2812 11.5352 78.3016 11.5836 78.3194 11.6294C78.3525 11.7135 78.3984 11.8053 78.4519 11.9046C78.4723 11.948 78.4952 11.9887 78.5156 12.0295C78.5207 12.0422 78.5284 12.0499 78.5284 12.0575C78.564 12.1212 78.5972 12.1849 78.6328 12.2486C78.6532 12.2843 78.6736 12.32 78.6889 12.3608C78.75 12.4678 78.8061 12.5799 78.852 12.6844C78.8647 12.7073 78.8723 12.7277 78.88 12.7481C78.908 12.8118 78.931 12.8729 78.9513 12.9315C79.0431 13.1863 79.0558 13.3902 78.8953 13.4641C78.8596 13.4768 78.8239 13.4921 78.7883 13.5125C78.6609 13.5737 78.5334 13.6552 78.4009 13.7367C78.3321 13.7775 78.2659 13.8157 78.192 13.8539C78.1436 13.882 78.0926 13.9049 78.0442 13.9253C77.8811 13.989 77.7079 14.0145 77.5244 13.9533C77.1651 13.8208 76.8033 13.6934 76.4414 13.5609C76.1739 13.4615 75.9012 13.3622 75.6286 13.2653C75.356 13.166 75.0884 13.0691 74.8158 12.9723C74.2756 12.7761 73.7354 12.5799 73.1926 12.3913C72.9378 12.2996 72.9174 12.1467 72.9123 11.9352C72.9072 11.8639 72.9072 11.7874 72.9072 11.7161C72.8996 11.3899 72.9149 11.0689 72.9531 10.7529ZM113.588 21.8397C113.593 21.8397 113.593 21.8397 113.593 21.8397C113.83 21.8805 114.108 21.8168 114.36 21.6359C114.396 21.6129 114.431 21.5798 114.464 21.5518C114.5 21.5238 114.533 21.4906 114.561 21.455C114.569 21.4499 114.576 21.4422 114.584 21.432C114.625 21.3913 114.663 21.3403 114.704 21.2893C115.58 22.966 115.945 24.8057 115.815 26.6455C115.81 26.6964 115.81 26.7499 115.807 26.8009C115.731 28.0444 115.448 29.2675 114.992 30.437C114.951 30.5364 114.915 30.6358 114.875 30.7326C114.867 30.753 114.859 30.7734 114.847 30.7938C114.095 32.6488 112.938 34.221 111.503 35.4849C111.44 35.5409 111.371 35.6021 111.305 35.6556C109.888 36.8991 108.209 37.8546 106.366 38.3923C106.359 38.3973 106.346 38.3999 106.333 38.3999C105.834 38.5681 105.317 38.7082 104.794 38.828C103.293 39.2051 101.831 39.3401 100.432 39.2484C98.3527 39.2255 96.4849 38.5095 94.8821 37.3654C94.877 37.3654 94.8694 37.3603 94.8668 37.3577C93.394 36.3614 92.0996 34.9778 91.0396 33.2018C92.6755 33.877 94.319 34.2541 96.0543 33.7649C96.1103 33.7496 96.1613 33.7318 96.2148 33.7139C96.3677 33.663 96.5027 33.6094 96.6199 33.5534C96.7371 33.5024 96.8365 33.4489 96.9155 33.3929C96.9716 33.3572 97.02 33.3215 97.0633 33.2858C97.3844 33.0055 97.3003 32.7253 97.02 32.4424C96.9028 32.3176 96.7397 32.1901 96.5562 32.0704C96.4492 31.9939 96.3294 31.9226 96.2071 31.8513C96.1281 31.8003 96.0441 31.7519 95.9625 31.6984C95.8784 31.6474 95.7943 31.599 95.7103 31.5506C95.6415 31.5098 95.5701 31.4716 95.5013 31.4257C95.3459 31.3212 95.193 31.2142 95.0427 31.1021C94.9662 31.046 94.8949 30.99 94.8235 30.9263C94.8006 30.911 94.7751 30.8906 94.7471 30.8702C94.6987 30.8346 94.6502 30.7989 94.5993 30.7581C94.5483 30.7224 94.4999 30.6817 94.4464 30.6409C94.4337 30.6333 94.426 30.6256 94.4133 30.618C93.9266 30.2408 93.4323 29.8102 93.1774 29.3974C93.1723 29.3923 93.1698 29.3898 93.1698 29.3847C93.1545 29.3643 93.1341 29.349 93.1188 29.3286C92.9481 29.1808 92.9787 28.9846 92.9991 28.7757C92.9991 28.7757 92.9991 28.7706 92.9991 28.768C92.9991 28.5489 92.9379 28.3603 92.836 28.2075C92.8232 28.1794 92.808 28.159 92.785 28.1361C92.6092 27.9323 92.3697 27.7921 92.1123 27.7157C92.0767 27.7029 92.0359 27.6927 92.0002 27.6825C91.9951 27.6825 91.9951 27.6825 91.9951 27.6825C91.7556 27.6392 91.4957 27.6341 91.2485 27.6749C91.1288 27.6902 91.0115 27.7233 90.8994 27.7641C90.8841 27.7692 90.8663 27.7768 90.851 27.7845C90.8077 27.7972 90.7669 27.8176 90.7236 27.8354C90.6828 27.8507 90.6446 27.8711 90.6038 27.8966C90.4917 27.9654 90.3924 28.0418 90.3006 28.1285C90.2089 28.2202 90.1299 28.3272 90.0484 28.4495C90.5758 28.2864 91.116 28.1973 91.432 28.7324C92.3187 30.4039 93.8476 31.4996 95.1879 32.7125C94.8668 32.7686 94.5483 32.7966 94.2324 32.7966C94.0846 32.7966 93.9393 32.789 93.7992 32.7762C93.0424 32.7202 92.2983 32.5087 91.6078 32.18C91.5365 32.1443 91.46 32.1112 91.3836 32.0729C91.3148 32.0322 91.2434 31.9965 91.1721 31.9557C91.1007 31.9124 91.0243 31.8665 90.9529 31.8232C90.8841 31.7825 90.8128 31.7391 90.7414 31.6907C90.6726 31.6423 90.6089 31.5939 90.5376 31.5455C90.4025 31.4487 90.2726 31.3493 90.1426 31.2423C90.0178 31.1378 89.8904 31.0257 89.7706 30.911C89.7095 30.8549 89.6509 30.7938 89.5948 30.7403C89.052 30.1797 88.6061 29.5401 88.2902 28.8445C88.2341 28.7273 88.1857 28.605 88.1373 28.4852C88.1322 28.4648 88.1245 28.4495 88.122 28.4342C88.1143 28.4062 88.1067 28.3858 88.0991 28.3629C88.0506 28.2304 87.9717 28.1234 87.8723 28.0342C87.5716 27.8227 87.2123 27.7029 86.8454 27.6749C86.8225 27.6749 86.7893 27.6698 86.7562 27.6698C86.3689 27.6698 85.9612 27.7615 85.6248 27.9246C85.5815 27.9399 85.5458 27.9603 85.5076 27.9883C85.3038 28.1157 85.1152 28.2813 84.9674 28.4928C85.1866 28.5056 85.3828 28.5132 85.5713 28.5285C85.6631 28.5362 85.7522 28.5489 85.8389 28.5565C85.9663 28.5769 86.0937 28.605 86.216 28.6534C86.4963 28.7527 86.7511 28.9286 87.0008 29.2649C88.1322 30.753 88.9807 32.4169 89.9413 34.0248C89.9184 34.0299 89.8573 34.0401 89.7579 34.0605C89.9261 34.3688 90.0866 34.6695 90.2446 34.965C90.2242 34.9982 90.2038 35.0262 90.1834 35.0542C89.6967 34.7586 89.2075 34.4631 88.7208 34.17C88.7004 34.1853 88.68 34.193 88.6647 34.2108C88.7335 34.3662 88.81 34.5268 88.9017 34.7306C88.1373 34.6593 87.7015 34.0426 86.983 33.7343C87.1155 34.0095 87.2021 34.1904 87.3142 34.4299C86.3995 34.2184 85.7675 33.6018 84.9547 33.1457C84.9751 33.3699 84.9827 33.5101 84.998 33.7012C84.1622 33.2298 83.6424 32.473 82.9417 31.8563C83.0385 32.1774 83.1328 32.4959 83.2347 32.8374C83.1506 32.8323 83.0742 32.794 82.9952 32.7253C82.6563 32.4322 82.3276 31.6143 82.0116 30.7224C81.9708 30.6103 81.9326 30.4957 81.8868 30.3733C81.7746 30.0574 81.6625 29.7363 81.5504 29.4382C81.5147 29.3388 81.4791 29.242 81.4434 29.1452C81.3109 28.8165 81.1835 28.5209 81.051 28.2864C81.0026 28.1973 80.9542 28.1183 80.9032 28.0495C80.8803 28.0138 80.8548 27.9807 80.8268 27.9526C80.7987 27.9577 80.7656 27.9679 80.7427 27.9756C81.0917 31.1429 83.4666 37.7246 78.2557 37.7068C78.1207 37.7297 77.8633 37.6992 77.5397 37.6304C77.532 37.6304 77.5244 37.6304 77.5193 37.6253C76.8517 37.5208 76.2045 37.3093 75.5827 37.0494C75.5674 37.0418 75.5496 37.0341 75.5343 37.0265C74.7903 36.7462 74.0793 36.4175 73.6615 36.1117C73.6283 36.0913 73.5978 36.0786 73.5621 36.0607C73.3863 35.9715 73.3022 35.8441 73.3022 35.653C73.2971 35.625 73.2971 35.597 73.3073 35.574C73.3277 35.3778 73.2665 35.1893 73.1544 35.0262C73.1111 34.9701 73.0627 34.9192 73.0142 34.8708C72.9939 34.8427 72.9658 34.8198 72.9378 34.7943C72.79 34.6746 72.6218 34.5828 72.4409 34.5344C72.3976 34.5191 72.3492 34.514 72.3008 34.5064C72.2778 34.5013 72.2524 34.4987 72.232 34.5013C72.1632 34.4936 72.0918 34.4936 72.0281 34.5064C71.9797 34.514 71.9364 34.5217 71.8931 34.5395C71.809 34.5675 71.73 34.616 71.6561 34.6797C71.6357 34.6924 71.6153 34.7153 71.5949 34.7306C71.3631 34.9905 71.172 34.9472 70.8942 34.8223C66.988 33.1661 63.9761 30.2867 61.1604 27.201C60.8292 26.8722 60.6737 26.5053 60.7018 26.0619C61.1146 21.8066 60.8139 17.0314 63.6143 13.4972C63.6627 13.4361 63.706 13.38 63.7544 13.3265C63.8054 13.2704 63.8538 13.2195 63.9073 13.166C65.6298 11.4307 68.4073 12.478 70.5094 13.0309C73.2181 13.9278 76.0236 14.5751 78.6277 15.7497C80.6433 15.9307 82.5391 15.286 84.4196 14.5216C84.7508 14.3891 85.0872 14.2489 85.4159 14.1088C85.528 14.0603 85.635 14.017 85.7472 13.9737C85.9714 13.8769 86.1905 13.7851 86.4148 13.6985C86.746 13.5584 87.0824 13.431 87.4187 13.3061C87.6378 13.222 87.8621 13.1456 88.0863 13.0691C88.7616 12.8449 89.4419 12.664 90.135 12.5544C91.8269 12.3557 93.9215 12.0779 95.6338 12.6309C95.8224 12.692 96.0058 12.7634 96.1817 12.8474C96.625 13.0564 97.0302 13.3316 97.3844 13.7036C97.4557 13.775 97.5245 13.8514 97.5933 13.9304C96.941 13.9151 96.2607 13.831 95.7689 14.3177C95.5879 14.5343 95.6007 14.8171 95.774 15.0006C95.8147 15.049 95.8708 15.0847 95.9294 15.1178C95.9931 15.1407 96.0644 15.1662 96.146 15.1688C96.89 15.0516 97.4532 15.1458 97.8813 15.3879C97.9602 15.4363 98.0341 15.4847 98.0978 15.5357C98.1692 15.5867 98.2329 15.6427 98.294 15.7064C98.3832 15.7982 98.4648 15.8975 98.5387 16.0071C98.7476 16.3103 98.8954 16.6798 99.0075 17.0824C99.0279 17.1716 99.0508 17.2531 99.0712 17.3423C99.1477 17.7016 99.2037 18.0864 99.2419 18.4788C97.685 18.4176 97.3054 18.6469 96.9818 18.3667C96.9384 18.3233 96.8977 18.2775 96.8493 18.2189C96.8059 18.1577 96.7601 18.0915 96.7091 18.0023C96.5613 17.7551 96.3651 17.3831 96.0619 16.8352C96.0186 16.8403 95.9727 16.848 95.9294 16.848C95.6899 18.8355 97.02 20.5861 97.8379 22.2831C96.7779 22.3519 95.6032 22.278 95.1267 23.468C96.5741 22.9533 98.3577 22.6093 98.8291 24.6044C97.2264 24.4413 96.1485 25.1574 95.5548 26.6353C96.7015 25.8352 98.7349 24.4923 99.693 26.3066C99.8815 26.699 100.113 27.0659 100.353 27.4914C99.5732 27.6876 98.9897 28.08 98.6304 28.8623C100.042 28.182 101.242 28.1947 102.045 29.7491C100.694 30.3198 100.269 31.4436 100.284 32.8323C101.028 31.6474 102.083 30.009 103.66 31.1123C102.626 32.1851 102.488 33.4158 102.876 34.7281C103.36 33.4973 103.676 31.3799 105.447 31.6449C105.327 32.7176 105.115 33.6935 105.842 34.6363C105.885 33.2527 105.885 31.8997 107.526 31.3161C107.47 32.2513 107.707 33.0361 108.374 33.7037C108.227 33.0208 108.171 32.5087 108.229 32.0806C108.244 31.9685 108.272 31.8614 108.308 31.7519C108.323 31.7009 108.344 31.6474 108.369 31.5964C108.413 31.4971 108.466 31.4053 108.53 31.3161C108.594 31.2193 108.662 31.1327 108.749 31.0486C108.828 30.9594 108.93 30.8779 109.029 30.7887C109.185 30.6638 109.366 30.5339 109.569 30.3963C109.704 30.3071 109.852 30.2154 110.013 30.1236C110.362 30.5797 110.841 30.7912 111.46 30.832C110.321 29.744 110.451 28.8241 111.817 28.3833C111.358 28.1387 111.613 27.8431 111.712 27.5551C112.484 25.3841 112.296 23.2845 111.272 21.2358C110.984 20.3567 109.967 19.4929 110.311 18.5246C110.316 18.517 110.319 18.5093 110.324 18.5043C110.522 18.1195 110.831 18.1552 111.152 18.308C111.165 18.3131 111.175 18.3208 111.193 18.3284C111.679 18.5272 112.273 18.9884 112.913 19.0878C113.404 19.1107 113.866 18.9043 114.304 18.5832C114.347 18.5476 114.383 18.5068 114.421 18.466C114.584 18.2545 114.77 18.1093 114.956 18.0379C114.961 18.0379 114.961 18.0379 114.964 18.0328C114.971 18.0278 114.979 18.0252 114.987 18.0201C115.191 17.8672 115.458 17.88 115.675 17.9793C115.682 17.9793 115.69 17.9844 115.695 17.987C115.935 18.0762 116.1 18.2545 116.082 18.466C116.098 18.6215 116.006 18.7896 115.754 18.917C115.494 19.0929 115.226 19.2534 114.954 19.4165C114.566 19.6611 114.182 19.9134 113.794 20.1631C113.606 20.3032 113.43 20.4434 113.262 20.5988C113.257 20.5988 113.257 20.6039 113.257 20.6064C113.249 20.6141 113.241 20.6217 113.234 20.6294C113.226 20.6345 113.221 20.6447 113.218 20.6523C113.101 20.8511 113.05 21.032 113.048 21.1849C113.048 21.511 113.277 21.7709 113.588 21.8397Z" fill="black"/>
<path d="M95.1828 32.7077C94.8618 32.7638 94.5433 32.7918 94.2273 32.7918C94.0795 32.7918 93.9343 32.7842 93.7941 32.7714C93.0373 32.7154 92.2933 32.5039 91.6027 32.1752C91.5314 32.1395 91.455 32.1064 91.3785 32.0681C91.3097 32.0274 91.2384 31.9917 91.167 31.9509C91.0957 31.9076 91.0192 31.8618 90.9479 31.8184C90.8791 31.7777 90.8077 31.7343 90.7364 31.6859C90.6676 31.6375 90.6039 31.5891 90.5325 31.5407C90.3975 31.4439 90.2675 31.3445 90.1376 31.2375C90.0127 31.133 89.8853 31.0209 89.7656 30.9062C89.7044 30.8502 89.6458 30.789 89.5897 30.7355C89.047 30.1749 88.6011 29.5353 88.2851 28.8397C88.2291 28.7225 88.1806 28.6002 88.1322 28.4804C88.1271 28.46 88.1195 28.4447 88.1169 28.4294C88.1093 28.4014 88.1016 28.381 88.094 28.3581C88.0711 28.2893 88.0507 28.223 88.0252 28.1543L90.2803 28.1262H90.2956C90.2038 28.218 90.1248 28.325 90.0433 28.4473C90.5708 28.2842 91.111 28.195 91.4269 28.7301C92.3162 30.4017 93.8451 31.4974 95.1828 32.7077Z" fill="white"/>
<path d="M100.794 25.8661C100.753 25.8814 100.715 25.8992 100.677 25.9145C100.032 24.5665 99.3898 23.2237 98.7451 21.8783V21.8732C98.8139 21.8248 98.8776 21.7738 98.9413 21.7254C99.1375 21.5776 99.3261 21.4324 99.5401 21.2693C100.243 22.7395 100.779 24.2302 100.794 25.8661Z" fill="white"/>
<path d="M99.902 13.8059C100.595 13.4415 101.474 12.8071 102.394 12.2898C101.655 12.6695 100.822 13.1842 99.902 13.8059ZM100.799 19.3226C100.799 19.5264 100.804 19.7277 100.804 19.9316C100.822 19.7226 100.827 19.5188 100.799 19.3226ZM103.153 15.9209C103.734 15.5132 104.346 15.1564 104.876 14.8175C104.277 15.1564 103.694 15.5081 103.153 15.9209Z" fill="#4DA4DC"/>
<path d="M107.618 21.9901C107.59 21.9111 107.569 21.8296 107.546 21.7582V21.7455C107.327 20.9658 107.266 20.1784 107.281 19.3808C107.281 19.1413 107.294 18.8967 107.304 18.6572C107.327 18.2571 107.36 17.8571 107.401 17.457C107.444 16.4938 107.393 15.5332 107.205 14.5929C107.2 14.57 107.197 14.5522 107.192 14.5318C106.96 13.0131 106.512 12.1162 105.844 11.7238C105.808 11.6957 105.773 11.6804 105.732 11.6601C104.968 11.2829 103.925 11.5123 102.585 12.1799C102.524 12.2155 102.46 12.2436 102.394 12.2843C101.474 12.7991 100.595 13.4361 99.9019 13.8005C99.8968 13.8005 99.8943 13.8005 99.8892 13.8056C99.7541 13.9024 99.6089 13.9967 99.4662 14.0935C99.8153 14.7101 100.147 15.3013 100.498 15.9256C100.745 15.7625 100.985 15.6045 101.222 15.4542C101.454 15.3013 101.68 15.1535 101.902 15.0134C102.121 14.8732 102.333 14.7407 102.539 14.6184C102.751 14.4936 102.947 14.3789 103.135 14.2744C104.162 13.7062 104.975 13.4335 105.546 13.6934C105.594 13.7138 105.643 13.7419 105.686 13.7699C105.729 13.803 105.778 13.8336 105.819 13.8693C105.847 13.8973 105.875 13.9202 105.898 13.9534C105.941 13.9967 105.982 14.0502 106.017 14.1088C106.03 14.1241 106.04 14.1419 106.053 14.1598C106.089 14.2209 106.124 14.2872 106.158 14.356C106.173 14.3916 106.191 14.4273 106.206 14.4681C106.219 14.5088 106.234 14.5471 106.249 14.5929C106.262 14.6159 106.27 14.649 106.277 14.677C106.3 14.7484 106.321 14.8248 106.338 14.9013C106.361 14.993 106.382 15.0847 106.4 15.1815C106.407 15.23 106.42 15.2784 106.428 15.3293C106.435 15.3905 106.44 15.4465 106.448 15.5103C106.468 15.658 106.484 15.8186 106.491 15.9893C106.496 16.0403 106.499 16.0938 106.499 16.1447C106.532 16.7079 106.522 17.3729 106.476 18.1552C106.453 18.1501 106.433 18.1501 106.412 18.1475C106.377 18.0431 106.336 17.8927 106.305 17.7067C106.298 17.6838 106.293 17.6583 106.29 17.6303C106.275 17.5385 106.257 17.4417 106.239 17.3423C106.231 17.299 106.224 17.2506 106.216 17.2022C106.201 17.1258 106.188 17.0493 106.173 16.9754C106.165 16.899 106.15 16.82 106.132 16.7384C106.109 16.611 106.081 16.4734 106.053 16.346C106.048 16.318 106.04 16.2951 106.033 16.2619C106.017 16.1906 106.005 16.1269 105.984 16.0581C105.979 16.0377 105.977 16.0224 105.969 16.002C105.956 15.946 105.946 15.8899 105.926 15.839C105.91 15.7753 105.89 15.7116 105.87 15.6504C105.842 15.5663 105.808 15.4873 105.78 15.4109C105.701 15.2274 105.617 15.072 105.513 14.9599C105.485 14.9318 105.457 14.9038 105.424 14.8809C105.403 14.8605 105.38 14.8401 105.355 14.8299C105.332 14.8146 105.304 14.8019 105.278 14.7891C105.21 14.7662 105.138 14.7535 105.062 14.7662C105.006 14.7738 104.945 14.7866 104.881 14.8146C104.348 15.1535 103.737 15.5103 103.158 15.9179C103.151 15.9179 103.143 15.923 103.135 15.9307C102.435 16.4556 101.795 17.0544 101.26 17.7704C101.255 17.7781 101.252 17.7832 101.247 17.7908C101.242 17.7959 101.242 17.7959 101.24 17.7985C100.903 18.1934 100.819 18.6623 100.804 19.1464V19.3222C100.832 19.5184 100.827 19.7223 100.809 19.9312C100.809 19.9669 100.809 19.9949 100.804 20.0306C100.791 20.2395 100.763 20.4459 100.756 20.6498C100.756 20.6549 100.756 20.6549 100.756 20.6574C100.72 20.9097 100.75 21.1288 100.835 21.3403C100.85 21.3887 100.868 21.4321 100.885 21.4728C100.901 21.506 100.919 21.5365 100.934 21.5697C100.954 21.6053 100.97 21.6334 100.99 21.6665C102.063 23.4909 102.239 25.6466 102.577 27.6902C102.585 27.7539 102.593 27.8176 102.613 27.8788C102.628 27.9833 102.656 28.0826 102.697 28.1795C102.71 28.2228 102.725 28.2635 102.741 28.3043C102.748 28.3272 102.756 28.3527 102.769 28.3757C102.789 28.4164 102.809 28.4521 102.825 28.4929C102.86 28.5693 102.904 28.6458 102.952 28.712C102.993 28.7757 103.036 28.8394 103.079 28.8955C103.085 28.9031 103.087 28.9082 103.092 28.9108C103.135 28.9668 103.189 29.0229 103.237 29.0789C103.299 29.1426 103.365 29.2114 103.434 29.27C103.502 29.3261 103.566 29.3822 103.632 29.4331C103.704 29.4841 103.778 29.5376 103.849 29.5809C103.918 29.6293 103.984 29.6701 104.053 29.7083C104.129 29.7491 104.208 29.7924 104.28 29.8255C104.356 29.8612 104.432 29.8969 104.511 29.9249C104.56 29.9478 104.608 29.9657 104.657 29.981C104.789 30.0294 104.922 30.0702 105.057 30.1058C105.141 30.1262 105.227 30.1491 105.312 30.167C105.401 30.1823 105.482 30.2001 105.571 30.2103C105.931 30.2664 106.142 30.1746 106.275 29.8179C106.614 28.8751 106.996 27.945 107.327 26.9997C107.707 26.1308 107.847 25.3281 107.862 24.556C107.928 23.7101 107.862 22.8539 107.618 21.9901ZM105.013 29.2981C104.889 29.0891 105.133 28.526 105.51 28.1616C105.673 28.3604 105.434 28.9133 105.013 29.2981ZM106.728 25.6543C106.708 25.69 106.695 25.7307 106.685 25.7715C106.573 26.0467 106.504 26.3601 106.41 26.6557C106.298 26.936 106.163 27.1959 105.979 27.4125C105.811 26.8213 106.626 25.5243 106.787 24.8338C106.82 24.8414 106.856 24.8491 106.884 24.8567C106.833 25.1217 106.812 25.3969 106.728 25.6543Z" fill="#4DA4DC"/>
<path d="M115.693 17.9874C115.904 18.0868 116.065 18.2753 116.08 18.4664C116.095 18.2549 115.932 18.0766 115.693 17.9874ZM115.591 28.2232C115.445 28.9978 115.247 29.7393 114.992 30.4349C115.448 29.2679 115.731 28.0422 115.807 26.7988C115.766 27.2753 115.695 27.7492 115.591 28.2232ZM114.951 18.0358C114.763 18.1072 114.579 18.2524 114.416 18.4639C114.38 18.5047 114.345 18.5429 114.299 18.5811C114.518 18.4282 114.729 18.2448 114.943 18.046C114.949 18.0409 114.956 18.0384 114.959 18.0333C114.956 18.0307 114.956 18.0307 114.951 18.0358ZM113.792 20.1686C114.179 19.9163 114.564 19.6641 114.951 19.422C114.559 19.659 114.161 19.8959 113.792 20.1686ZM113.236 20.6272C113.236 20.6323 113.231 20.6323 113.231 20.6349C113.239 20.6272 113.246 20.6196 113.254 20.6119C113.249 20.6145 113.244 20.6196 113.236 20.6272ZM113.045 21.1904C113.025 21.5548 113.264 21.7866 113.588 21.8376C113.277 21.7713 113.048 21.5114 113.045 21.1904ZM111.188 18.3237C111.435 18.4486 111.684 18.627 111.883 18.7187C112.24 18.9582 112.584 19.0703 112.907 19.0831C112.268 18.9837 111.677 18.525 111.188 18.3237ZM108.525 31.3089C108.588 31.2121 108.66 31.128 108.744 31.0414C108.657 31.1255 108.588 31.2121 108.525 31.3089ZM95.1039 31.1255C95.0351 31.077 94.9688 31.0261 94.8924 30.9726C94.7955 30.9038 94.6961 30.8299 94.5968 30.7534C94.8898 30.993 95.1879 31.2121 95.5014 31.421C95.3969 31.3369 95.2593 31.2376 95.1039 31.1255ZM92.9966 28.8169V28.7735C92.9762 28.9825 92.9456 29.1787 93.1163 29.3265C93.1316 29.3469 93.152 29.3622 93.1673 29.3825C93.0526 29.1889 92.9838 28.9978 92.9966 28.8169ZM92.1073 27.7135C92.3621 27.79 92.6041 27.9301 92.78 28.134C92.6245 27.925 92.385 27.79 92.1073 27.7135ZM91.0371 33.1971C92.0971 34.9731 93.3915 36.3567 94.8643 37.353C93.3406 36.2726 92.0512 34.8075 91.0371 33.1971ZM90.4637 27.9785C90.4434 27.9913 90.4281 28.0015 90.4077 28.0193C90.3644 28.0524 90.3185 28.0881 90.2803 28.1263H90.2956C90.3873 28.0371 90.4867 27.9632 90.5988 27.8944C90.5529 27.9174 90.5096 27.9454 90.4637 27.9785ZM88.9298 15.2966C88.9858 15.2405 89.0342 15.1692 89.0572 15.0876C89.0241 15.1692 88.9807 15.2354 88.9298 15.2966ZM86.3664 15.8241C86.0453 15.9005 85.7344 16.0075 85.4414 16.1451C86.2339 15.8215 87.0085 15.7374 87.6379 15.661C87.1741 15.6814 86.6925 15.6763 86.3664 15.8241ZM86.8378 27.6702C87.2047 27.6982 87.5665 27.818 87.8647 28.0295C87.62 27.7951 87.2455 27.6779 86.8378 27.6702ZM85.8338 28.5544C85.9612 28.5773 86.0886 28.6054 86.2109 28.6512C86.0886 28.6028 85.9612 28.5748 85.8338 28.5544ZM84.9624 28.4907C85.1102 28.2792 85.2987 28.1136 85.5026 27.9862C85.2707 28.1136 85.0821 28.2869 84.9624 28.4907ZM75.5751 37.0473C76.1943 37.3072 76.8441 37.5187 77.5117 37.6231C76.9791 37.511 76.2631 37.2995 75.5751 37.0473ZM73.2971 35.6483C73.2971 35.8395 73.3812 35.9694 73.557 36.056C73.5927 36.0764 73.6258 36.0892 73.6564 36.107C73.4398 35.949 73.3073 35.7936 73.2971 35.6483Z" fill="#4DA4DC"/>
<path d="M113.231 20.6349C113.231 20.6298 113.236 20.6298 113.236 20.6272C113.244 20.6196 113.249 20.6145 113.257 20.6119C113.257 20.6068 113.257 20.6043 113.262 20.6043C113.351 20.4871 113.473 20.3775 113.634 20.273C113.685 20.2399 113.741 20.2017 113.794 20.1686C114.161 19.8959 114.561 19.6615 114.954 19.422C115.219 19.2512 115.486 19.0856 115.754 18.9225C115.973 18.7773 116.075 18.6193 116.082 18.4715C116.067 18.2804 115.907 18.0919 115.695 17.9925C115.69 17.9874 115.682 17.9848 115.675 17.9848C115.479 17.9237 115.231 17.9237 114.987 18.0256C114.979 18.0307 114.971 18.0333 114.964 18.0383C114.959 18.0434 114.951 18.046 114.949 18.0511C114.737 18.2498 114.526 18.4359 114.304 18.5862C113.832 19.0703 113.361 19.1697 112.913 19.0907C112.589 19.078 112.245 18.9659 111.888 18.7263C111.69 18.6346 111.44 18.4537 111.193 18.3314C111.177 18.3237 111.165 18.3161 111.152 18.311C110.821 18.1836 110.535 18.1836 110.324 18.5072C110.319 18.5123 110.316 18.5199 110.311 18.5276C109.967 19.4959 110.984 20.3597 111.272 21.2388C112.296 23.2875 112.485 25.3871 111.712 27.5581C111.613 27.846 111.356 28.1416 111.817 28.3862C110.454 28.827 110.321 29.7469 111.46 30.835C110.841 30.7942 110.359 30.5827 110.013 30.1266C109.852 30.2183 109.705 30.31 109.569 30.3992C109.366 30.5343 109.185 30.6668 109.029 30.7916C108.93 30.8808 108.831 30.9624 108.749 31.0515C108.665 31.1407 108.594 31.2223 108.53 31.3191C108.466 31.4083 108.413 31.5 108.369 31.5994C108.346 31.6504 108.326 31.7039 108.308 31.7548C108.272 31.8618 108.244 31.9714 108.229 32.0835C108.168 32.5116 108.224 33.0238 108.374 33.7067C107.707 33.0391 107.47 32.2543 107.526 31.3191C105.887 31.9026 105.887 33.2557 105.842 34.6393C105.113 33.6965 105.327 32.7206 105.447 31.6478C103.676 31.3828 103.36 33.5003 102.876 34.731C102.488 33.4187 102.623 32.188 103.66 31.1152C102.086 30.0119 101.028 31.6504 100.284 32.8352C100.269 31.4465 100.692 30.3228 102.045 29.752C101.242 28.1951 100.042 28.1849 98.6304 28.8653C98.9897 28.0805 99.5732 27.6906 100.353 27.4944C100.113 27.0714 99.8816 26.7019 99.693 26.3095C98.7324 24.4927 96.7015 25.8381 95.5549 26.6382C96.1511 25.1578 97.2264 24.4417 98.8292 24.6074C98.3578 22.6122 96.5741 22.9562 95.1268 23.4709C95.6033 22.2835 96.778 22.3548 97.838 22.286C97.0226 20.5916 95.6899 18.8385 95.9294 16.8509C95.9728 16.8509 96.0186 16.8433 96.0619 16.8382C96.3652 17.386 96.5614 17.7581 96.7092 18.0052C96.7601 18.0944 96.806 18.1607 96.8493 18.2218C96.8977 18.283 96.9385 18.3263 96.9818 18.3696C97.3054 18.6499 97.6851 18.4206 99.242 18.4817C99.2012 18.0893 99.1452 17.7071 99.0713 17.3453C99.0509 17.2561 99.0279 17.1745 99.0076 17.0854C98.8954 16.6802 98.7477 16.3133 98.5387 16.0101C98.4674 15.903 98.3833 15.8011 98.2941 15.7094C98.2329 15.6457 98.1692 15.5896 98.0979 15.5387C98.0291 15.4877 97.9577 15.4393 97.8813 15.3909C97.4532 15.1462 96.8901 15.0545 96.146 15.1717C96.067 15.1666 95.9931 15.1488 95.9294 15.1208C95.8683 15.0876 95.8122 15.052 95.774 15.0035C95.6033 14.8201 95.5905 14.5347 95.7689 14.3207C96.2607 13.834 96.941 13.9155 97.5934 13.9333C97.5246 13.8544 97.4583 13.7779 97.3844 13.7066C97.0277 13.3345 96.6251 13.0593 96.1817 12.8504C96.0008 12.7714 95.8224 12.6975 95.6339 12.6338C93.9215 12.0809 91.827 12.3586 90.135 12.5574C89.442 12.6695 88.7642 12.8504 88.0864 13.0721C87.8621 13.1485 87.6379 13.225 87.4188 13.3091C87.0824 13.4339 86.7461 13.5613 86.4148 13.7015C86.1906 13.7906 85.9714 13.8824 85.7472 13.9767C85.6351 14.02 85.5281 14.0658 85.4159 14.1117C85.0872 14.2519 84.7509 14.392 84.4196 14.5245C82.5391 15.2889 80.6433 15.9311 78.6278 15.7527C76.0236 14.578 73.2156 13.9282 70.5095 13.0339C68.4048 12.4809 65.6299 11.4336 63.9073 13.1689C63.8564 13.2199 63.808 13.2734 63.7545 13.3294C63.706 13.3855 63.6627 13.4416 63.6143 13.5002C60.8139 17.0344 61.1146 21.8096 60.7018 26.0649C60.6738 26.5083 60.8292 26.8777 61.1605 27.2039C63.9761 30.2922 66.988 33.1716 70.8943 34.8253C71.1695 34.9502 71.3631 34.9935 71.595 34.7336C71.6154 34.7183 71.6358 34.6928 71.6561 34.6826C71.7275 34.6189 71.809 34.5705 71.8931 34.5425C71.9364 34.5272 71.9823 34.5195 72.0282 34.5093C72.0919 34.4966 72.1632 34.4966 72.232 34.5042C72.2524 34.4991 72.2753 34.5042 72.3008 34.5093C72.3492 34.517 72.3977 34.5221 72.441 34.5374C72.6219 34.5858 72.7901 34.6775 72.9378 34.7973C72.9659 34.8202 72.9939 34.8457 73.0143 34.8737C73.0653 34.9221 73.1137 34.9731 73.1544 35.0291C73.2666 35.1922 73.3252 35.3808 73.3073 35.577C73.3022 35.605 73.3022 35.633 73.3022 35.656C73.315 35.7987 73.4475 35.9567 73.6615 36.1146C74.2782 36.4383 74.8973 36.7619 75.5344 37.0294C75.5497 37.0371 75.5675 37.0447 75.5828 37.0523C76.2708 37.3046 76.9868 37.5161 77.5194 37.6282C77.5244 37.6333 77.5321 37.6333 77.5397 37.6333C77.7767 37.6741 78.0111 37.7021 78.2558 37.7098C83.4666 37.7301 81.0918 31.1458 80.7427 27.9785C80.7656 27.9709 80.7988 27.9581 80.8268 27.9556C80.8548 27.9836 80.8778 28.0167 80.9032 28.0524C80.9542 28.1212 81.0026 28.2002 81.051 28.2894C81.1835 28.5264 81.3109 28.822 81.4434 29.1481C81.4791 29.2449 81.5148 29.3392 81.5505 29.4411C81.6626 29.7418 81.7747 30.0603 81.8868 30.3763C81.9301 30.4961 81.9709 30.6133 82.0117 30.7254C82.3276 31.6172 82.6563 32.4377 82.9952 32.7282C83.0742 32.797 83.1507 32.8352 83.2348 32.8403C83.1354 32.5014 83.0386 32.1804 82.9417 31.8593C83.6425 32.4759 84.1623 33.2302 84.9981 33.7041C84.9828 33.513 84.9751 33.3729 84.9547 33.1486C85.7676 33.6048 86.3995 34.2214 87.3143 34.4329C87.2022 34.1934 87.1155 34.0124 86.983 33.7373C87.7041 34.0456 88.1399 34.6622 88.9018 34.7336C88.81 34.5297 88.7336 34.3692 88.6648 34.2138C88.6801 34.1985 88.7005 34.1908 88.7208 34.173C89.2075 34.466 89.6968 34.7616 90.1835 35.0572C90.2038 35.0291 90.2242 35.0011 90.2446 34.968C90.0841 34.6724 89.9236 34.3717 89.7579 34.0634C89.8573 34.043 89.9185 34.0303 89.9414 34.0277C88.9808 32.4199 88.1348 30.756 87.0009 29.2679C86.7537 28.9315 86.4963 28.7557 86.2161 28.6563C86.0963 28.613 85.9689 28.585 85.8389 28.5595C85.7497 28.5519 85.6631 28.5391 85.5714 28.5315C85.3828 28.5162 85.1866 28.5085 84.9675 28.4958C85.0872 28.2919 85.2758 28.1187 85.5077 27.9913C85.5434 27.9632 85.579 27.9429 85.6249 27.9276C85.9689 27.739 86.3638 27.6524 86.7563 27.6728C86.7894 27.6728 86.82 27.6778 86.8454 27.6778C87.2531 27.6855 87.6303 27.8027 87.8723 28.0371C87.9284 28.0728 87.9793 28.1161 88.0329 28.162L90.2879 28.134C90.3287 28.0932 90.372 28.0575 90.4153 28.0269C90.4357 28.0117 90.451 27.9989 90.4714 27.9862C90.5147 27.953 90.5606 27.925 90.6064 27.9021C90.6472 27.8791 90.6854 27.8588 90.7262 27.8409C90.7695 27.8205 90.8103 27.8002 90.8536 27.79C90.8689 27.7823 90.8867 27.7747 90.902 27.7696C91.0141 27.7288 91.1288 27.6982 91.2511 27.6804C91.4983 27.632 91.7582 27.6371 91.9977 27.688C91.9977 27.688 91.9977 27.688 92.0028 27.688C92.0385 27.6957 92.0793 27.7084 92.1149 27.7212C92.3901 27.7976 92.6296 27.9327 92.7876 28.1416C92.8106 28.1645 92.8284 28.1849 92.8386 28.213C92.8717 28.2359 92.8895 28.269 92.9074 28.297C93.0195 28.4448 93.0144 28.6079 93.0042 28.7735C93.0042 28.7786 93.0042 28.7812 93.0042 28.7812V28.8245C92.9915 29.0054 93.0603 29.1965 93.1749 29.3876C93.1749 29.3927 93.18 29.3953 93.1826 29.4004C93.5597 29.8488 93.9776 30.2489 94.4184 30.6209C94.4312 30.6286 94.4388 30.6362 94.4515 30.6439C94.5025 30.6846 94.5509 30.7228 94.6044 30.7611C94.7038 30.8375 94.8032 30.9139 94.9 30.9802C94.9765 31.0312 95.0427 31.0847 95.1115 31.1331C95.2669 31.2452 95.4045 31.3446 95.5065 31.4287C95.5753 31.472 95.6466 31.5128 95.7154 31.5535C95.7995 31.6019 95.8836 31.6504 95.9677 31.7013C96.0467 31.7523 96.1307 31.8007 96.2123 31.8542C96.332 31.9255 96.4518 31.9994 96.5614 32.0733C96.7448 32.1931 96.9105 32.3205 97.0251 32.4454C97.3054 32.7282 97.3895 33.0085 97.0685 33.2888C97.0251 33.3245 96.9767 33.3601 96.9207 33.3958C96.8417 33.4519 96.7397 33.5028 96.6251 33.5563C96.5079 33.6124 96.3728 33.6634 96.2199 33.7169C96.169 33.7373 96.1155 33.7525 96.0594 33.7678C94.3241 34.2545 92.6806 33.8799 91.0447 33.2047C92.0614 34.8177 93.3482 36.2803 94.872 37.3607C94.8771 37.3658 94.8847 37.3683 94.8873 37.3683C96.49 38.5124 98.3578 39.2284 100.437 39.2514C101.836 39.3431 103.301 39.208 104.799 38.8309C105.324 38.7112 105.839 38.571 106.338 38.4028C106.351 38.4028 106.361 38.3977 106.372 38.3952C108.216 37.8601 109.896 36.9046 111.31 35.6585C111.379 35.6025 111.445 35.5413 111.509 35.4878C112.948 34.1755 114.1 32.5651 114.852 30.7967C114.864 30.7764 114.872 30.756 114.88 30.7356C114.921 30.6388 114.956 30.5394 114.997 30.44C115.252 29.7444 115.453 29.0054 115.596 28.2282C115.7 27.7568 115.772 27.2803 115.812 26.8038C115.817 26.7529 115.817 26.6994 115.82 26.6484C115.909 24.8596 115.565 23.0326 114.709 21.2923C114.668 21.3432 114.63 21.3968 114.589 21.435C114.582 21.4477 114.574 21.4554 114.566 21.4579C114.538 21.4936 114.505 21.5267 114.469 21.5547C114.436 21.5828 114.401 21.6159 114.365 21.6388C114.097 21.8376 113.825 21.8911 113.598 21.8427C113.598 21.8427 113.598 21.8427 113.593 21.8427C113.269 21.7917 113.03 21.5598 113.05 21.1955C113.037 21.0273 113.091 20.8438 113.221 20.6629C113.221 20.6502 113.223 20.64 113.231 20.6349ZM70.6955 33.0518C69.531 33.3398 68.0123 31.6453 67.0441 31.0363C66.8555 30.9038 66.7485 30.7279 66.7918 30.4961C66.9396 30.4833 67.0848 30.468 67.1868 30.6005C68.2391 31.5535 69.5055 32.1753 70.6981 32.9117C70.7006 32.9601 70.6955 33.0059 70.6955 33.0518ZM77.7436 21.6388C76.6887 22.1383 75.6286 18.3874 72.4435 17.4192C70.7235 16.8025 65.3649 14.1525 64.6539 16.8841C63.6831 19.608 63.2856 22.467 62.9467 25.3259C62.9187 25.5145 62.9875 25.7591 63.0945 25.9146C63.8691 27.0383 64.6896 28.134 65.4693 29.2551C65.449 29.2832 65.4209 29.3061 65.4005 29.3316C64.5928 28.6716 62.1542 26.5312 62.1007 25.568C62.5161 22.9995 62.7938 14.629 66.1089 14.5296C69.0673 14.5857 71.8829 15.8164 74.6782 16.6853C76.574 17.2765 77.606 18.6168 78.1003 20.4616C78.2481 20.9661 78.1156 21.5038 77.7436 21.6388ZM82.9137 16.8356C84.1419 15.2686 85.709 14.3283 87.8417 14.2009C88.2367 14.2519 89.2381 14.4888 89.0572 15.0876C89.0343 15.1666 88.9858 15.2405 88.9298 15.2966C88.917 15.317 88.8967 15.3246 88.8814 15.3399C88.6062 15.5947 88.1424 15.6431 87.6608 15.661H87.6379C87.0111 15.7374 86.2339 15.8215 85.4414 16.1451C85.4287 16.1451 85.4134 16.1502 85.4058 16.1604C84.7305 16.4687 84.1266 16.9172 83.5788 17.4395C83.1379 18.0791 82.2665 17.5924 82.9137 16.8356ZM90.0178 20.1991C90.7211 22.258 88.8992 24.4672 86.7384 23.9474C85.551 23.7308 84.728 23.0326 84.3381 21.8885C84.1674 21.1445 83.3851 21.4554 82.8296 21.2694C82.8169 21.2337 82.8067 21.1929 82.7939 21.1572C82.9213 21.0681 83.0768 20.9814 83.2577 20.8922C83.3494 20.8438 83.4463 20.8005 83.5405 20.7521C83.673 20.6884 83.8208 20.6272 83.9686 20.5635C84.2081 20.4667 84.4655 20.3673 84.7356 20.2756C84.7993 20.2552 84.863 20.2323 84.9242 20.2119C85.5077 20.0208 86.132 19.8475 86.7563 19.7252C87.3831 19.6054 88.0074 19.5264 88.5629 19.529C88.731 19.529 88.8916 19.5366 89.0419 19.5519C89.2305 19.5672 89.4088 19.5952 89.5745 19.6411C89.8777 19.7176 90.135 19.8399 90.3312 20.0208C90.1962 20.0947 90.1198 20.1431 90.0178 20.1991Z" fill="#4DA4DC"/>
<path d="M101.658 7.06592V7.07102C101.553 7.04299 101.449 7.02006 101.347 6.99457C101.138 6.94616 100.931 6.91049 100.728 6.87736C100.524 6.84424 100.32 6.8213 100.119 6.80092C100.113 6.80092 100.113 6.80092 100.113 6.80092C99.9096 6.78053 99.7083 6.77289 99.5146 6.76524C92.3595 6.54865 86.5983 14.1165 79.3795 14.5446C79.9783 14.0019 81.7033 12.9138 83.9431 11.6805C83.9482 11.6755 83.9508 11.6729 83.9584 11.6678C86.983 9.90452 90.1376 8.35272 93.4399 7.24174C93.4603 7.2341 93.4807 7.22645 93.5011 7.21881C96.2683 6.19447 98.7731 5.57528 100.271 5.85812C100.271 5.85812 100.277 5.85812 100.279 5.85812C101.008 5.92946 101.614 6.20211 101.655 6.93852C101.655 6.93852 101.655 6.93852 101.655 6.94361V6.9589C101.658 6.99457 101.658 7.03025 101.658 7.06592Z" fill="#4DA4DC"/>
<path d="M78.8953 13.4643C78.8596 13.4771 78.8239 13.4924 78.7883 13.5127C78.6609 13.5739 78.5334 13.6554 78.4009 13.737C78.3321 13.7777 78.2659 13.816 78.192 13.8542C78.1436 13.8822 78.0926 13.9051 78.0442 13.9255C77.876 13.9892 77.7079 14.0096 77.5244 13.9485C77.1651 13.8211 76.8033 13.6886 76.4415 13.5612C76.1739 13.4618 75.9013 13.3624 75.6286 13.2656C75.356 13.1662 75.0884 13.0694 74.8158 12.9725C74.2756 12.7763 73.7354 12.5801 73.1926 12.3916C72.9378 12.2998 72.9174 12.147 72.9123 11.9355C72.9072 11.8641 72.9072 11.7877 72.9072 11.7163C72.8919 10.8805 73.0142 10.0855 73.2512 9.32874L73.3226 9.10196C73.3633 8.9771 73.4117 8.85479 73.4576 8.73503C73.506 8.61018 73.5544 8.49042 73.6105 8.37065C73.9494 7.62406 74.3902 6.91823 74.9075 6.27101C74.9228 6.25063 74.9406 6.23024 74.9585 6.20986C75.4095 5.64163 75.9267 5.10907 76.4746 4.62238C76.63 4.48224 76.7905 4.34209 76.9536 4.20959C76.9944 4.17646 77.0326 4.14589 77.0734 4.11276V4.10767H77.0785C77.0555 4.18666 77.0352 4.2682 77.0148 4.34719C76.9944 4.42618 76.9791 4.50772 76.9638 4.58671C76.9485 4.6657 76.9307 4.74724 76.9205 4.82623C76.9052 4.90522 76.8925 4.98676 76.8848 5.06576C76.8619 5.22629 76.8441 5.38172 76.8364 5.53716C76.8313 5.60595 76.8288 5.66966 76.8288 5.72826C76.8211 5.91682 76.8211 6.10029 76.8288 6.28375C76.8288 6.3551 76.8339 6.43154 76.8415 6.50799C76.8364 6.53092 76.8415 6.55895 76.8466 6.58698C76.8517 6.65832 76.8542 6.72967 76.867 6.80357C76.8721 6.89275 76.8823 6.97429 76.895 7.06347C76.9383 7.40747 77.002 7.74382 77.0836 8.08017C77.1345 8.3044 77.1957 8.52864 77.2645 8.75287C77.2976 8.87008 77.3333 8.97965 77.369 9.09687C77.4403 9.316 77.5168 9.54024 77.5957 9.76192C77.7945 10.3174 78.0238 10.8653 78.2506 11.4105C78.2557 11.4335 78.2634 11.4615 78.271 11.4895C78.2837 11.5303 78.299 11.5787 78.322 11.6246C78.3551 11.7087 78.401 11.8004 78.4545 11.8998C78.4748 11.9431 78.4978 11.9839 78.5182 12.0246C78.5233 12.0374 78.5309 12.045 78.5309 12.0527C78.5666 12.1164 78.5997 12.1801 78.6354 12.2438C78.6558 12.2795 78.6761 12.3151 78.6914 12.3559C78.7526 12.4629 78.8086 12.575 78.8545 12.6795C78.8673 12.7024 78.8749 12.7228 78.8825 12.7432C78.9106 12.8069 78.9335 12.8681 78.9539 12.9267C79.0431 13.1891 79.0558 13.393 78.8953 13.4643Z" fill="#4DA4DC"/>
<path d="M92.4436 6.37051C92.1684 6.46989 91.8907 6.56926 91.6206 6.67374C91.3479 6.77821 91.0778 6.88268 90.8052 6.9948C90.4688 7.1273 90.1325 7.26745 89.8012 7.41014C89.5005 7.53755 89.2024 7.67005 88.9043 7.81019C88.5603 7.96308 88.2163 8.12106 87.8774 8.28669C87.5971 8.42174 87.3143 8.55934 87.034 8.70203C86.825 8.80651 86.6212 8.91098 86.4148 9.018C86.0427 9.20911 85.6682 9.40531 85.2987 9.60916C84.7916 9.88436 84.282 10.1697 83.78 10.4653C83.78 10.4653 83.78 10.4602 83.7749 10.4653C83.2704 10.7584 82.771 11.0539 82.2715 11.3623C81.7721 11.6655 81.2727 11.9789 80.7809 12.2949C80.5337 12.4503 80.284 12.6108 80.0369 12.7714C79.9043 12.4834 79.7693 12.1955 79.6368 11.9076C79.5017 11.6145 79.3641 11.324 79.2367 11.031C79.0456 10.5902 78.8571 10.1519 78.6889 9.70854C78.6277 9.5531 78.5717 9.40021 78.5207 9.24478C78.4647 9.09189 78.4137 8.93646 78.3653 8.78102C78.3143 8.62559 78.2685 8.47015 78.2251 8.31217C78.1818 8.15674 78.1411 8.0013 78.1054 7.84332C78.1003 7.82803 78.0977 7.81019 78.0926 7.79491C78.0646 7.67769 78.0417 7.56303 78.0162 7.44327C77.927 7.00754 77.8633 6.56672 77.8404 6.12334C77.8327 6.07493 77.8327 6.02652 77.8327 5.9781C77.8174 5.67488 77.8174 5.3742 77.8378 5.06588C77.8429 4.99453 77.8455 4.92319 77.8531 4.84674C77.8684 4.64289 77.8964 4.43904 77.9296 4.2352C78.4061 3.84279 78.9386 3.49879 79.5145 3.20831C79.7311 3.09109 79.9579 2.98917 80.1872 2.89234C80.4624 2.77258 80.7503 2.66556 81.0383 2.57128C81.079 2.55854 81.1147 2.54835 81.1555 2.53561C81.5504 2.4082 81.9632 2.29863 82.376 2.21964C82.5289 2.18651 82.6792 2.15849 82.8321 2.13555C83.1073 2.09223 83.3851 2.05656 83.6628 2.03108C83.9431 2.00305 84.2183 1.99031 84.4986 1.98776C84.5903 1.98267 84.6795 1.98267 84.7661 1.98267C84.863 1.98267 84.9573 1.98776 85.0541 1.99031C85.1229 1.99031 85.1891 1.99541 85.2528 1.99795C85.37 2.0056 85.4847 2.0107 85.5968 2.01834C85.7956 2.03363 85.9918 2.05401 86.1931 2.08204C86.3128 2.09733 86.4301 2.11772 86.5447 2.1381C86.6721 2.15849 86.7995 2.18142 86.9295 2.20945C87.0008 2.22219 87.0722 2.23748 87.1461 2.25786C87.2174 2.27315 87.2862 2.29099 87.3576 2.30882C87.5003 2.3445 87.6404 2.38527 87.7806 2.42859C88.0685 2.51777 88.3513 2.61969 88.6291 2.73691C88.7565 2.78787 88.8813 2.84393 89.0011 2.90508C89.2941 3.04523 89.577 3.20576 89.8496 3.38158C89.9414 3.43764 90.0305 3.49879 90.1172 3.56249C90.3541 3.72557 90.5809 3.90649 90.7924 4.10269C90.8994 4.19952 91.0039 4.2989 91.1033 4.40337C91.1721 4.47217 91.2383 4.54352 91.302 4.61486C91.3657 4.68621 91.4294 4.75756 91.4906 4.834C91.5416 4.89516 91.5874 4.95376 91.6333 5.01492C91.7174 5.12194 91.7964 5.23405 91.8728 5.34617C91.9212 5.41752 91.9646 5.48632 92.0079 5.55766C92.0639 5.64685 92.12 5.73858 92.171 5.83031C92.2066 5.89911 92.2423 5.96536 92.278 6.03416C92.2984 6.07493 92.3187 6.11315 92.3391 6.15392C92.3773 6.22527 92.413 6.29916 92.4436 6.37051Z" fill="#4DA4DC"/>
<path d="M98.4036 21.1621C98.3552 21.1136 98.3144 21.0729 98.2839 21.0347C98.2482 20.9939 98.2151 20.9582 98.1947 20.9276C98.1335 20.8359 98.1233 20.7646 98.1463 20.6728C98.1539 20.6499 98.1615 20.6168 98.1794 20.5836C98.2023 20.5199 98.2431 20.4435 98.2966 20.3467C98.4648 20.0307 98.5132 19.651 98.6279 19.251C98.661 19.251 98.6967 19.2561 98.7323 19.2586C98.8113 19.2637 98.9031 19.2663 99.005 19.2714C99.0559 19.2765 99.1094 19.2765 99.1604 19.279C99.3337 19.9874 98.982 20.9939 98.4036 21.1621Z" fill="white"/>
<path d="M77.7436 21.6386C76.6886 22.1381 75.6286 18.3872 72.4435 17.419C70.7235 16.8049 65.3674 14.1523 64.6565 16.8839C63.6856 19.6103 63.2856 22.4668 62.9467 25.3257C62.9212 25.5169 62.9874 25.7589 63.0945 25.9144C63.8691 27.0381 64.6896 28.1338 65.4719 29.2549C65.4489 29.2804 65.4234 29.3059 65.4005 29.3288C64.5928 28.6689 62.1517 26.5285 62.1007 25.5627C62.5186 22.9968 62.7938 14.6288 66.1089 14.5269C69.0698 14.5829 71.8855 15.8162 74.6782 16.6826C76.574 17.2712 77.6085 18.6115 78.1054 20.4563C78.2455 20.9685 78.1156 21.501 77.7436 21.6386Z" fill="black"/>
<path d="M90.3312 20.018C90.1376 19.8396 89.8802 19.7173 89.5744 19.6383C89.4114 19.5924 89.233 19.567 89.0444 19.5491C88.8915 19.5338 88.731 19.5262 88.5628 19.5262C88.0048 19.5236 87.3831 19.6001 86.7537 19.7224C86.1319 19.8447 85.5051 20.0154 84.9241 20.2091C84.8604 20.2269 84.7967 20.2498 84.733 20.2728C84.4604 20.3671 84.203 20.4639 83.966 20.5607C83.8183 20.6244 83.673 20.6881 83.538 20.7518C83.4411 20.7977 83.3443 20.841 83.2551 20.8894C83.0768 20.9786 82.9188 21.0678 82.7888 21.1544C82.799 21.1926 82.8143 21.2283 82.827 21.2665C83.3825 21.4577 84.1648 21.1442 84.3355 21.8883C84.7228 23.0324 85.5459 23.7306 86.7333 23.9472C88.8941 24.4644 90.7134 22.2552 90.0102 20.2014C90.1197 20.1428 90.1962 20.097 90.3312 20.018ZM88.4686 22.8668C87.6939 23.3815 86.3842 23.3687 85.872 22.6884C87.0722 22.4132 87.4952 21.7583 87.2939 20.655C87.778 20.6626 88.9552 20.125 89.2406 20.5174C89.5668 21.2997 89.2101 22.3724 88.4686 22.8668Z" fill="black"/>
<path d="M88.4686 22.8669C87.694 23.3816 86.3843 23.3714 85.8746 22.6886C87.0722 22.4134 87.4952 21.7585 87.2965 20.6577C87.7781 20.6654 88.9553 20.1302 89.2407 20.5176C89.5668 21.3024 89.2101 22.3726 88.4686 22.8669Z" fill="white"/>
<path d="M89.0572 15.0877C89.0318 15.1692 88.9859 15.2406 88.9273 15.2966C88.9171 15.3145 88.8967 15.3272 88.8814 15.3425C88.6393 15.5387 88.2062 15.5948 87.6609 15.6636H87.6379C87.0086 15.7375 86.2339 15.8241 85.4415 16.1477C85.4313 16.1477 85.416 16.1503 85.4032 16.163C84.7892 16.4127 84.1598 16.8026 83.5788 17.4447C83.1405 18.0817 82.264 17.5925 82.9112 16.8383C84.1394 15.2737 85.709 14.3309 87.8392 14.2061C88.2393 14.2545 89.2356 14.4889 89.0572 15.0877Z" fill="black"/>
<path d="M70.7006 32.9116C70.7006 32.96 70.698 33.0059 70.698 33.0543C69.5336 33.3422 68.0174 31.6477 67.0491 31.0362C66.858 30.9062 66.751 30.7304 66.7969 30.496C66.9447 30.4858 67.0874 30.4705 67.1918 30.6005C68.2417 31.5535 69.5081 32.1752 70.7006 32.9116Z" fill="black"/>
<path d="M106.881 24.8515C106.833 25.1191 106.81 25.3943 106.728 25.6517C106.711 25.6899 106.695 25.7255 106.683 25.7663C106.57 26.0415 106.504 26.3549 106.407 26.6531C106.295 26.9334 106.158 27.1882 105.974 27.4048C105.806 26.8161 106.621 25.5192 106.782 24.8286C106.82 24.8388 106.853 24.8464 106.881 24.8515Z" fill="black"/>
<path d="M105.013 29.2959C104.891 29.0869 105.136 28.5238 105.508 28.1594C105.671 28.3607 105.434 28.9137 105.013 29.2959Z" fill="black"/>
</svg>
