<svg width="102" height="102" viewBox="0 0 102 102" fill="none" xmlns="http://www.w3.org/2000/svg">
<g clip-path="url(#clip0_1_806)">
<path d="M85 25.5H75.7138C76.1813 24.1613 76.5 22.7375 76.5 21.25C76.5 14.2162 70.7837 8.5 63.75 8.5C59.3088 8.5 55.3988 10.7738 53.125 14.2162L51 17.1063L48.875 14.2162C46.6012 10.7738 42.6912 8.5 38.25 8.5C31.2162 8.5 25.5 14.2162 25.5 21.25C25.5 22.7375 25.7975 24.1613 26.2862 25.5H17C12.3038 25.5 8.5425 29.3037 8.5425 34L8.5 80.75C8.5 85.4463 12.3038 89.25 17 89.25H85C89.6963 89.25 93.5 85.4463 93.5 80.75V34C93.5 29.3037 89.6963 25.5 85 25.5ZM63.75 17C66.0875 17 68 18.9125 68 21.25C68 23.5875 66.0875 25.5 63.75 25.5C61.4125 25.5 59.5 23.5875 59.5 21.25C59.5 18.9125 61.4125 17 63.75 17ZM38.25 17C40.5875 17 42.5 18.9125 42.5 21.25C42.5 23.5875 40.5875 25.5 38.25 25.5C35.9125 25.5 34 23.5875 34 21.25C34 18.9125 35.9125 17 38.25 17ZM85 80.75H17V72.25H85V80.75ZM85 59.5H17V34H38.59L29.75 46.0488L36.6562 51L46.75 37.2513L51 31.4713L55.25 37.2513L65.3438 51L72.25 46.0488L63.41 34H85V59.5Z" fill="#36A9F3"/>
</g>
<defs>
<clipPath id="clip0_1_806">
<rect width="102" height="102" fill="white"/>
</clipPath>
</defs>
</svg>
