<svg width="50" height="51" viewBox="0 0 50 51" fill="none" xmlns="http://www.w3.org/2000/svg">
<g clip-path="url(#clip0_1_777)">
<path fill-rule="evenodd" clip-rule="evenodd" d="M24.8969 51.7938C38.6471 51.7938 49.7938 40.6471 49.7938 26.8969C49.7938 13.1467 38.6471 2 24.8969 2C11.1467 2 0 13.1467 0 26.8969C0 40.6471 11.1467 51.7938 24.8969 51.7938Z" fill="white"/>
<path fill-rule="evenodd" clip-rule="evenodd" d="M12.4485 20.0936V34.1916C12.4485 34.9586 13.0099 35.5802 13.7833 35.5802H35.7857C36.5583 35.5802 37.1205 34.9514 37.1205 34.1916V20.0936C37.1205 19.2519 36.6178 18.5981 35.7857 18.5981H13.7833C12.9191 18.5981 12.4485 19.268 12.4485 20.0936ZM14.4772 21.3215C14.4772 20.9818 14.6828 20.7875 15.0113 20.7875C15.2145 20.7875 23.2096 25.8536 23.6939 26.1507L24.9451 26.929C25.3419 26.6631 25.7402 26.4359 26.1514 26.1604C26.9907 25.6239 34.4582 20.7875 34.6638 20.7875C34.993 20.7875 35.1978 20.9818 35.1978 21.3215C35.1978 21.6813 34.5047 22.0387 34.0534 22.3142C31.2175 24.0425 28.3825 25.9267 25.5748 27.7192C25.4109 27.8301 25.0937 28.067 24.856 28.0309C24.5909 27.9899 16.4553 22.7632 14.9751 21.8926C14.7527 21.7617 14.4772 21.642 14.4772 21.3215Z" fill="#0E0E11"/>
</g>
<defs>
<clipPath id="clip0_1_777">
<rect width="49.7938" height="49.7551" fill="white" transform="translate(0 0.300293)"/>
</clipPath>
</defs>
</svg>
