<svg width="50" height="51" viewBox="0 0 50 51" fill="none" xmlns="http://www.w3.org/2000/svg">
<g clip-path="url(#clip0_1_789)">
<path d="M25.0731 3.09692C11.6354 3.09692 0.742065 13.8953 0.742065 27.2158C0.742065 40.5363 11.6354 51.3347 25.0731 51.3347C38.5108 51.3347 49.4042 40.5363 49.4042 27.2158C49.4042 13.8953 38.5108 3.09692 25.0731 3.09692ZM36.351 19.4997C35.9848 23.3135 34.4005 32.5684 33.5941 36.84C33.2531 38.6474 32.5814 39.2535 31.9314 39.3127C30.5186 39.4416 29.4455 38.3871 28.0769 37.4978C25.9355 36.1063 24.7257 35.2401 22.647 33.8822C20.2448 32.3131 21.8021 31.4509 23.1711 30.0407C23.5294 29.6718 29.7549 24.0587 29.8754 23.5494C29.8904 23.4857 29.9048 23.248 29.7622 23.1231C29.6195 22.9982 29.4099 23.0405 29.2584 23.0745C29.0436 23.1228 25.6226 25.3643 18.9954 29.7988C18.0244 30.4597 17.1449 30.7817 16.3568 30.7649C15.4881 30.7463 13.817 30.278 12.5746 29.8776C11.0509 29.3867 9.83982 29.1271 9.94529 28.2933C10.0002 27.8589 10.6036 27.4147 11.7554 26.9609C18.8484 23.8975 23.5782 21.8779 25.9447 20.902C32.7017 18.116 34.1057 17.632 35.0209 17.6159C35.2222 17.6126 35.6723 17.662 35.9637 17.8965C36.1576 18.0635 36.2812 18.2966 36.3101 18.5496C36.3595 18.8638 36.3732 19.1825 36.351 19.4997Z" fill="white"/>
</g>
<defs>
<clipPath id="clip0_1_789">
<rect width="48.6621" height="49.7551" fill="white" transform="translate(0.742004 0.494873)"/>
</clipPath>
</defs>
</svg>
