<svg width="22" height="490" viewBox="0 0 22 490" fill="none" xmlns="http://www.w3.org/2000/svg">
<path d="M10.5 444C9.11799 444 8 444.041 8 444.092V459.908C8 459.959 9.11799 460 10.5 460C11.8779 460 13 459.959 13 459.908V444.092C13 444.041 11.882 444 10.5 444V444Z" fill="#36A9F3"/>
<path d="M10.5 26.0002C9.11799 26.0002 8 26.0414 8 26.0925V41.9077C8 41.9586 9.11799 42 10.5 42C11.8779 42 13 41.9587 13 41.9077V26.0923C13 26.0414 11.882 26 10.5 26V26.0002Z" fill="#36A9F3"/>
<path d="M10.948 20.8193C16.6972 20.8193 21.3578 16.1586 21.3578 10.4094C21.3578 4.66017 16.6972 -0.000488281 10.948 -0.000488281C5.19875 -0.000488281 0.538086 4.66017 0.538086 10.4094C0.538086 16.1586 5.19875 20.8193 10.948 20.8193Z" fill="#36A9F3"/>
<path d="M10.948 489.194C16.6972 489.194 21.3579 484.534 21.3579 478.784C21.3579 473.035 16.6972 468.375 10.948 468.375C5.19881 468.375 0.538147 473.035 0.538147 478.784C0.538147 484.534 5.19881 489.194 10.948 489.194Z" fill="#36A9F3"/>
</svg>
