<svg width="166" height="125" viewBox="0 0 166 125" fill="none" xmlns="http://www.w3.org/2000/svg">
<g opacity="0.2">
<path opacity="0.02" d="M0.427704 117.891V5.58806C0.427704 0.0639461 37.3492 1.08693 82.8965 1.08693C128.444 1.08693 165.365 0.0639461 165.365 5.58806V117.891C165.365 123.415 128.444 124.307 82.8965 124.307C37.3492 124.307 0.427704 123.415 0.427704 117.891Z" fill="#14143D"/>
<path opacity="0.02" d="M0.604065 117.796V5.63196C0.604065 0.111943 37.4478 1.13902 82.8969 1.13902C128.346 1.13902 165.19 0.111943 165.19 5.63196V117.796C165.19 123.316 128.346 124.208 82.8969 124.208C37.4478 124.208 0.604065 123.316 0.604065 117.796Z" fill="#14143D"/>
<path opacity="0.03" d="M0.778442 117.703V5.68183C0.778442 0.16591 37.5444 1.19298 82.8953 1.19298C128.25 1.19298 165.012 0.161818 165.012 5.68183V117.703C165.012 123.218 128.246 124.106 82.8953 124.106C37.5404 124.106 0.778442 123.218 0.778442 117.703Z" fill="#14143D"/>
<path opacity="0.04" d="M0.954788 117.609V5.72704C0.954788 0.215206 37.6431 1.24637 82.8957 1.24637C128.153 1.24637 164.841 0.215206 164.841 5.72704V117.609C164.841 123.125 128.153 124.008 82.8957 124.008C37.639 124.008 0.954788 123.125 0.954788 117.609Z" fill="#14143D"/>
<path opacity="0.05" d="M1.13113 117.514V5.7713C1.13113 0.259468 37.7376 1.29473 82.9002 1.29473C128.059 1.29473 164.669 0.259468 164.669 5.7713V117.514C164.669 123.026 128.059 123.905 82.9002 123.905C37.7417 123.905 1.13113 123.022 1.13113 117.514Z" fill="#14143D"/>
<path opacity="0.06" d="M1.30157 117.42V5.82059C1.30157 0.31285 37.8303 1.3522 82.8947 1.3522C127.959 1.3522 164.488 0.31285 164.488 5.82059V117.42C164.488 122.928 127.959 123.807 82.8947 123.807C37.8303 123.807 1.30157 122.928 1.30157 117.42Z" fill="#14143D"/>
<path opacity="0.07" d="M1.47891 117.326V5.8659C1.47891 0.362252 37.9299 1.4016 82.8961 1.4016C127.862 1.4016 164.313 0.362252 164.313 5.8659V117.326C164.313 122.83 127.862 123.705 82.8961 123.705C37.9299 123.705 1.47891 122.83 1.47891 117.326Z" fill="#14143D"/>
<path opacity="0.07" d="M1.65428 117.232V5.91471C1.65428 0.415152 38.0275 1.4586 82.8955 1.4586C127.764 1.4586 164.137 0.415152 164.137 5.91471V117.232C164.137 122.731 127.764 123.607 82.8955 123.607C38.0275 123.607 1.65428 122.731 1.65428 117.232Z" fill="#14143D"/>
<path opacity="0.08" d="M1.83063 117.138V5.95971C1.83063 0.464249 38.1261 1.5077 82.8959 1.5077C127.67 1.5077 163.961 0.460158 163.961 5.95971V117.138C163.961 122.633 127.666 123.505 82.8959 123.505C38.122 123.505 1.83063 122.633 1.83063 117.138Z" fill="#14143D"/>
<path opacity="0.09" d="M2.006 117.044V6.00903C2.006 0.513561 38.2237 1.56519 82.8994 1.56519C127.575 1.56519 163.793 0.517653 163.793 6.00903V117.044C163.793 122.539 127.575 123.407 82.8994 123.407C38.2237 123.407 2.006 122.539 2.006 117.044Z" fill="#14143D"/>
<path opacity="0.1" d="M2.18137 116.95V6.05433C2.18137 0.562961 38.3172 1.61459 82.8988 1.61459C127.476 1.61459 163.616 0.562961 163.616 6.05433V116.95C163.616 122.441 127.476 123.305 82.8988 123.305C38.3213 123.305 2.18137 122.437 2.18137 116.95Z" fill="#14143D"/>
<path opacity="0.11" d="M2.35378 116.855V6.09876C2.35378 0.611483 38.4119 1.66721 82.8953 1.66721C127.379 1.66721 163.437 0.611483 163.437 6.09876V116.855C163.437 122.342 127.379 123.206 82.8953 123.206C38.4119 123.206 2.35378 122.342 2.35378 116.855Z" fill="#14143D"/>
<path opacity="0.12" d="M2.52914 116.762V6.14848C2.52914 0.665289 38.5095 1.721 82.8947 1.721C127.28 1.721 163.26 0.665289 163.26 6.14848V116.762C163.26 122.245 127.28 123.104 82.8947 123.104C38.5095 123.104 2.52914 122.245 2.52914 116.762Z" fill="#14143D"/>
<path opacity="0.12" d="M2.70648 116.667V6.19267C2.70648 0.713572 38.6091 1.77338 82.8961 1.77338C127.183 1.77338 163.086 0.713572 163.086 6.19267V116.667C163.086 122.146 127.183 123.005 82.8961 123.005C38.6091 123.005 2.70648 122.15 2.70648 116.667Z" fill="#14143D"/>
<path opacity="0.13" d="M2.88184 116.573V6.24209C2.88184 0.767083 38.7067 1.8269 82.8955 1.8269C127.088 1.8269 162.913 0.762991 162.913 6.24209V116.573C162.913 122.048 127.088 122.903 82.8955 122.903C38.7026 122.903 2.88184 122.048 2.88184 116.573Z" fill="#14143D"/>
<path opacity="0.14" d="M3.0582 116.479V6.28703C3.0582 0.812022 38.8012 1.88002 82.9 1.88002C126.995 1.88002 162.742 0.816114 162.742 6.28703V116.479C162.742 121.954 126.995 122.805 82.9 122.805C38.8053 122.805 3.0582 121.954 3.0582 116.479Z" fill="#14143D"/>
<path opacity="0.15" d="M3.22961 116.384V6.33185C3.22961 0.860938 38.8949 1.92893 82.8954 1.92893C126.892 1.92893 162.561 0.860938 162.561 6.33185V116.384C162.561 121.855 126.892 122.702 82.8954 122.702C38.8949 122.702 3.22961 121.851 3.22961 116.384Z" fill="#14143D"/>
<path opacity="0.16" d="M3.40498 116.29V6.38119C3.40498 0.914365 38.9925 1.98646 82.8949 1.98646C126.797 1.98646 162.385 0.914365 162.385 6.38119V116.29C162.385 121.757 126.797 122.604 82.8949 122.604C38.9925 122.604 3.40498 121.757 3.40498 116.29Z" fill="#14143D"/>
<path opacity="0.17" d="M3.58133 116.197V6.42699C3.58133 0.964263 39.0911 2.03635 82.8953 2.03635C126.699 2.03635 162.209 0.964263 162.209 6.42699V116.197C162.209 121.66 126.699 122.503 82.8953 122.503C39.0911 122.503 3.58133 121.66 3.58133 116.197Z" fill="#14143D"/>
<path opacity="0.17" d="M3.75769 116.103V6.47585C3.75769 1.01721 39.1897 2.09339 82.8957 2.09339C126.606 2.09339 162.038 1.01721 162.038 6.47585V116.103C162.038 121.561 126.606 122.404 82.8957 122.404C39.1856 122.404 3.75769 121.561 3.75769 116.103Z" fill="#14143D"/>
<path opacity="0.18" d="M3.93404 116.008V6.52017C3.93404 1.06562 39.2883 2.14179 82.9002 2.14179C126.512 2.14179 161.866 1.06153 161.866 6.52017V116.008C161.866 121.467 126.512 122.301 82.9002 122.301C39.2883 122.301 3.93404 121.463 3.93404 116.008Z" fill="#14143D"/>
<path opacity="0.19" d="M4.10841 115.914V6.56512C4.10841 1.11057 39.3809 2.19494 82.8986 2.19494C126.412 2.19494 161.689 1.11467 161.689 6.56512V115.914C161.689 121.368 126.412 122.203 82.8986 122.203C39.385 122.203 4.10841 121.368 4.10841 115.914Z" fill="#14143D"/>
<path opacity="0.2" d="M4.28082 115.82V6.61484C4.28082 1.16438 39.4755 2.24874 82.895 2.24874C126.315 2.24874 161.509 1.16438 161.509 6.61484V115.82C161.509 121.271 126.315 122.101 82.895 122.101C39.4755 122.101 4.28082 121.271 4.28082 115.82Z" fill="#14143D"/>
<path opacity="0.21" d="M4.45718 115.726V6.65932C4.45718 1.21295 39.5742 2.3014 82.8954 2.3014C126.217 2.3014 161.334 1.21295 161.334 6.65932V115.726C161.334 121.172 126.217 122.003 82.8954 122.003C39.5742 122.003 4.45718 121.172 4.45718 115.726Z" fill="#14143D"/>
<path opacity="0.21" d="M4.63156 115.632V6.70903C4.63156 1.26676 39.6708 2.35521 82.8939 2.35521C126.117 2.35521 161.156 1.26676 161.156 6.70903V115.632C161.156 121.074 126.117 121.901 82.8939 121.901C39.6708 121.901 4.63156 121.074 4.63156 115.632Z" fill="#14143D"/>
<path opacity="0.22" d="M4.8089 115.538V6.75351C4.8089 1.31533 39.7704 2.40788 82.8994 2.40788C126.028 2.40788 160.99 1.31533 160.99 6.75351V115.538C160.99 120.976 126.028 121.802 82.8994 121.802C39.7704 121.802 4.8089 120.98 4.8089 115.538Z" fill="#14143D"/>
<path opacity="0.23" d="M4.98427 115.443V6.79858C4.98427 1.3604 39.868 2.45704 82.8988 2.45704C125.93 2.45704 160.813 1.3604 160.813 6.79858V115.443C160.813 120.882 125.93 121.7 82.8988 121.7C39.868 121.7 4.98427 120.878 4.98427 115.443Z" fill="#14143D"/>
<path opacity="0.24" d="M5.15668 115.35V6.84795C5.15668 1.41386 39.9586 2.5146 82.8952 2.5146C125.828 2.5146 160.634 1.41796 160.634 6.84795V115.35C160.634 120.784 125.828 121.602 82.8952 121.602C39.9627 121.602 5.15668 120.784 5.15668 115.35Z" fill="#14143D"/>
<path opacity="0.25" d="M5.33302 115.255V6.89254C5.33302 1.46255 40.0572 2.56328 82.8956 2.56328C125.734 2.56328 160.458 1.46255 160.458 6.89254V115.255C160.458 120.685 125.734 121.499 82.8956 121.499C40.0572 121.499 5.33302 120.685 5.33302 115.255Z" fill="#14143D"/>
<path opacity="0.26" d="M5.50839 115.161V6.94144C5.50839 1.51554 40.1548 2.62036 82.895 2.62036C125.635 2.62036 160.282 1.51554 160.282 6.94144V115.161C160.282 120.587 125.635 121.401 82.895 121.401C40.1548 121.401 5.50839 120.587 5.50839 115.161Z" fill="#14143D"/>
<path opacity="0.26" d="M5.68474 115.067V6.98725C5.68474 1.56544 40.2534 2.67026 82.8954 2.67026C125.537 2.67026 160.11 1.56544 160.11 6.98725V115.067C160.11 120.489 125.542 121.299 82.8954 121.299C40.2534 121.299 5.68474 120.489 5.68474 115.067Z" fill="#14143D"/>
<path opacity="0.27" d="M5.8611 114.973V7.03615C5.8611 1.61843 40.352 2.72735 82.8999 2.72735C125.448 2.72735 159.939 1.61843 159.939 7.03615V114.973C159.939 120.391 125.448 121.201 82.8999 121.201C40.352 121.201 5.8611 120.395 5.8611 114.973Z" fill="#14143D"/>
<path opacity="0.28" d="M6.03252 114.879V7.08124C6.03252 1.66352 40.4457 2.77652 82.8954 2.77652C125.345 2.77652 159.758 1.66352 159.758 7.08124V114.879C159.758 120.297 125.345 121.099 82.8954 121.099C40.4457 121.099 6.03252 120.293 6.03252 114.879Z" fill="#14143D"/>
<path opacity="0.29" d="M6.20886 114.784V7.12526C6.20886 1.71164 40.5402 2.82873 82.8958 2.82873C125.247 2.82873 159.583 1.71573 159.583 7.12526V114.784C159.583 120.198 125.247 121 82.8958 121C40.5402 121 6.20886 120.198 6.20886 114.784Z" fill="#14143D"/>
<path opacity="0.3" d="M6.38522 114.691V7.17548C6.38522 1.76594 40.6388 2.88304 82.8962 2.88304C125.154 2.88304 159.407 1.76594 159.407 7.17548V114.691C159.407 120.101 125.154 120.898 82.8962 120.898C40.6388 120.898 6.38522 120.101 6.38522 114.691Z" fill="#14143D"/>
<path opacity="0.31" d="M6.56058 114.597V7.22048C6.56058 1.81504 40.7364 2.93623 82.8956 2.93623C125.055 2.93623 159.231 1.81504 159.231 7.22048V114.597C159.231 120.002 125.055 120.8 82.8956 120.8C40.7364 120.8 6.56058 120.002 6.56058 114.597Z" fill="#14143D"/>
<path opacity="0.31" d="M6.73595 114.502V7.26923C6.73595 1.86788 40.834 2.98907 82.8991 2.98907C124.964 2.98907 159.062 1.86788 159.062 7.26923V114.502C159.062 119.904 124.964 120.698 82.8991 120.698C40.834 120.698 6.73595 119.904 6.73595 114.502Z" fill="#14143D"/>
<path opacity="0.32" d="M6.91132 114.408V7.314C6.91132 1.91674 40.9316 3.04203 82.8985 3.04203C124.865 3.04203 158.886 1.91674 158.886 7.314V114.408C158.886 119.805 124.865 120.599 82.8985 120.599C40.9316 120.599 6.91132 119.809 6.91132 114.408Z" fill="#14143D"/>
<path opacity="0.33" d="M7.08472 114.314V7.35911C7.08472 1.96185 41.0273 3.09122 82.896 3.09122C124.765 3.09122 158.707 1.96185 158.707 7.35911V114.314C158.707 119.711 124.765 120.497 82.896 120.497C41.0273 120.497 7.08472 119.707 7.08472 114.314Z" fill="#14143D"/>
<path opacity="0.34" d="M7.25909 114.22V7.40834C7.25909 2.01518 41.1198 3.14455 82.8944 3.14455C124.669 3.14455 158.53 2.01518 158.53 7.40834V114.22C158.53 119.613 124.665 120.399 82.8944 120.399C41.1198 120.399 7.25909 119.613 7.25909 114.22Z" fill="#14143D"/>
<path opacity="0.35" d="M7.43446 114.126V7.45338C7.43446 2.0643 41.2175 3.19776 82.8938 3.19776C124.57 3.19776 158.353 2.0643 158.353 7.45338V114.126C158.353 119.515 124.57 120.301 82.8938 120.301C41.2175 120.301 7.43446 119.519 7.43446 114.126Z" fill="#14143D"/>
<path opacity="0.36" d="M7.6118 114.032V7.50239C7.6118 2.11741 41.3171 3.25088 82.8952 3.25088C124.473 3.25088 158.183 2.11332 158.183 7.50239V114.032C158.183 119.417 124.477 120.198 82.8952 120.198C41.3171 120.198 7.6118 119.417 7.6118 114.032Z" fill="#14143D"/>
<path opacity="0.36" d="M7.78815 113.938V7.54813C7.78815 2.16724 41.4157 3.3048 82.8997 3.3048C124.384 3.3048 158.011 2.16724 158.011 7.54813V113.938C158.011 119.319 124.384 120.101 82.8997 120.101C41.4157 120.101 7.78815 119.323 7.78815 113.938Z" fill="#14143D"/>
<path opacity="0.37" d="M7.95956 113.844V7.59252C7.95956 2.21163 41.5093 3.35328 82.8951 3.35328C124.281 3.35328 157.831 2.21163 157.831 7.59252V113.844C157.831 119.225 124.281 119.998 82.8951 119.998C41.5093 119.998 7.95956 119.225 7.95956 113.844Z" fill="#14143D"/>
<path opacity="0.38" d="M8.13593 113.75V7.64172C8.13593 2.26492 41.6079 3.41066 82.8955 3.41066C124.183 3.41066 157.655 2.26492 157.655 7.64172V113.75C157.655 119.126 124.183 119.9 82.8955 119.9C41.6079 119.9 8.13593 119.126 8.13593 113.75Z" fill="#14143D"/>
<path opacity="0.39" d="M8.31227 113.656V7.68681C8.31227 2.3141 41.7024 3.45984 82.8959 3.45984C124.089 3.45984 157.48 2.3141 157.48 7.68681V113.656C157.48 119.028 124.085 119.798 82.8959 119.798C41.7024 119.798 8.31227 119.028 8.31227 113.656Z" fill="#14143D"/>
<path opacity="0.4" d="M8.48862 113.561V7.73577C8.48862 2.36715 41.801 3.51699 82.8963 3.51699C123.992 3.51699 157.308 2.36715 157.308 7.73577V113.561C157.308 118.93 123.996 119.699 82.8963 119.699C41.801 119.699 8.48862 118.934 8.48862 113.561Z" fill="#14143D"/>
<path opacity="0.4" d="M8.66399 113.467V7.7809C8.66399 2.41637 41.8987 3.56621 82.8998 3.56621C123.897 3.56621 157.136 2.41228 157.136 7.7809V113.467C157.136 118.832 123.901 119.597 82.8998 119.597C41.9028 119.597 8.66399 118.832 8.66399 113.467Z" fill="#14143D"/>
<path opacity="0.41" d="M8.84035 113.373V7.82567C8.84035 2.46524 41.9973 3.61917 82.9002 3.61917C123.803 3.61917 156.96 2.46524 156.96 7.82567V113.373C156.96 118.733 123.803 119.499 82.9002 119.499C41.9973 119.499 8.84035 118.738 8.84035 113.373Z" fill="#14143D"/>
<path opacity="0.42" d="M9.01176 113.279V7.87472C9.01176 2.51429 42.0909 3.6723 82.8957 3.6723C123.7 3.6723 156.78 2.51429 156.78 7.87472V113.279C156.78 118.639 123.7 119.396 82.8957 119.396C42.0909 119.396 9.01176 118.639 9.01176 113.279Z" fill="#14143D"/>
<path opacity="0.43" d="M9.18811 113.186V7.92077C9.18811 2.56443 42.1895 3.72654 82.8961 3.72654C123.603 3.72654 156.604 2.56443 156.604 7.92077V113.186C156.604 118.542 123.603 119.299 82.8961 119.299C42.1855 119.299 9.18811 118.542 9.18811 113.186Z" fill="#14143D"/>
<path opacity="0.44" d="M9.36348 113.091V7.96904C9.36348 2.61679 42.2831 3.77889 82.8955 3.77889C123.508 3.77889 156.428 2.61679 156.428 7.96904V113.091C156.428 118.443 123.504 119.196 82.8955 119.196C42.2831 119.196 9.36348 118.443 9.36348 113.091Z" fill="#14143D"/>
<path opacity="0.45" d="M9.53885 112.997V8.01436C9.53885 2.6662 42.3807 3.8324 82.8949 3.8324C123.409 3.8324 156.255 2.6662 156.255 8.01436V112.997C156.255 118.345 123.413 119.098 82.8949 119.098C42.3807 119.098 9.53885 118.349 9.53885 112.997Z" fill="#14143D"/>
<path opacity="0.45" d="M9.71619 112.902V8.06292C9.71619 2.71886 42.4803 3.88506 82.9004 3.88506C123.321 3.88506 156.085 2.71477 156.085 8.06292V112.902C156.085 118.246 123.321 118.995 82.9004 118.995C42.4803 118.995 9.71619 118.246 9.71619 112.902Z" fill="#14143D"/>
<path opacity="0.46" d="M9.88663 112.808V8.1082C9.88663 2.76822 42.573 3.93852 82.8949 3.93852C123.217 3.93852 155.903 2.76822 155.903 8.1082V112.808C155.903 118.148 123.217 118.897 82.8949 118.897C42.573 118.897 9.88663 118.153 9.88663 112.808Z" fill="#14143D"/>
<path opacity="0.47" d="M10.063 112.715V8.15384C10.063 2.81387 42.6716 3.98826 82.8953 3.98826C123.119 3.98826 155.728 2.81387 155.728 8.15384V112.715C155.728 118.055 123.119 118.796 82.8953 118.796C42.6716 118.796 10.063 118.055 10.063 112.715Z" fill="#14143D"/>
<path opacity="0.48" d="M10.2393 112.62V8.20186C10.2393 2.86598 42.7702 4.04446 82.8957 4.04446C123.025 4.04446 155.552 2.86598 155.552 8.20186V112.624C155.552 117.96 123.021 118.7 82.8957 118.7C42.7661 118.7 10.2393 117.96 10.2393 112.624V112.62Z" fill="#14143D"/>
<path opacity="0.49" d="M10.4147 112.527V8.24769C10.4147 2.91591 42.8637 4.09439 82.8951 4.09439C122.926 4.09439 155.38 2.91591 155.38 8.24769V112.527C155.38 117.858 122.926 118.595 82.8951 118.595C42.8637 118.595 10.4147 117.858 10.4147 112.527Z" fill="#14143D"/>
<path opacity="0.5" d="M10.591 112.432V8.29671C10.591 2.96901 42.9623 4.15158 82.8996 4.15158C122.833 4.15158 155.208 2.96901 155.208 8.29671V112.436C155.208 117.764 122.837 118.501 82.8996 118.501C42.9664 118.501 10.591 117.768 10.591 112.436V112.432Z" fill="#14143D"/>
<path opacity="0.5" d="M10.7674 112.338V8.34188C10.7674 3.01827 43.0609 4.20084 82.9 4.20084C122.739 4.20084 155.033 3.01418 155.033 8.34188V112.338C155.033 117.662 122.739 118.394 82.9 118.394C43.0609 118.394 10.7674 117.662 10.7674 112.338Z" fill="#14143D"/>
<path opacity="0.51" d="M10.9398 112.244V8.38626C10.9398 3.06265 43.1556 4.2534 82.8964 4.2534C122.637 4.2534 154.853 3.06674 154.853 8.38626V112.244C154.853 117.567 122.637 118.296 82.8964 118.296C43.1556 118.296 10.9398 117.567 10.9398 112.244Z" fill="#14143D"/>
<path opacity="0.52" d="M11.1152 112.15V8.43551C11.1152 3.11599 43.2532 4.30675 82.8959 4.30675C122.538 4.30675 154.677 3.11599 154.677 8.43551V112.154C154.677 117.473 122.538 118.198 82.8959 118.198C43.2532 118.198 11.1152 117.473 11.1152 112.154V112.15Z" fill="#14143D"/>
<path opacity="0.53" d="M11.2905 112.056V8.48063C11.2905 3.16521 43.3508 4.36005 82.8953 4.36005C122.444 4.36005 154.5 3.16521 154.5 8.48063V112.056C154.5 117.371 122.44 118.095 82.8953 118.095C43.3467 118.095 11.2905 117.371 11.2905 112.056Z" fill="#14143D"/>
<path opacity="0.54" d="M11.4669 111.961V8.52939C11.4669 3.21806 43.4453 4.4129 82.8957 4.4129C122.346 4.4129 154.329 3.21806 154.329 8.52939V111.965C154.329 117.277 122.346 117.997 82.8957 117.997C43.4453 117.997 11.4669 117.277 11.4669 111.965V111.961Z" fill="#14143D"/>
<path opacity="0.55" d="M11.6423 111.867V8.57402C11.6423 3.26679 43.543 4.46573 82.8992 4.46573C122.251 4.46573 154.156 3.26679 154.156 8.57402V111.867C154.156 117.174 122.255 117.894 82.8992 117.894C43.5471 117.894 11.6423 117.178 11.6423 111.867Z" fill="#14143D"/>
<path opacity="0.55" d="M11.8147 111.774V8.62019C11.8147 3.31705 43.6376 4.51599 82.8956 4.51599C122.154 4.51599 153.977 3.31296 153.977 8.62019V111.774C153.977 117.077 122.154 117.793 82.8956 117.793C43.6376 117.793 11.8147 117.077 11.8147 111.774Z" fill="#14143D"/>
<path opacity="0.56" d="M11.991 111.68V8.66924C11.991 3.36609 43.7362 4.57321 82.896 4.57321C122.056 4.57321 153.801 3.37019 153.801 8.66924V111.684C153.801 116.987 122.056 117.699 82.896 117.699C43.7362 117.699 11.991 116.987 11.991 111.684V111.68Z" fill="#14143D"/>
<path opacity="0.57" d="M12.1664 111.585V8.71336C12.1664 3.41431 43.8338 4.62143 82.8954 4.62143C121.961 4.62143 153.625 3.41431 153.625 8.71336V111.585C153.625 116.884 121.957 117.592 82.8954 117.592C43.8298 117.592 12.1664 116.884 12.1664 111.585Z" fill="#14143D"/>
<path opacity="0.58" d="M12.3418 111.49V8.76241C12.3418 3.46745 43.9315 4.67866 82.8949 4.67866C121.862 4.67866 153.452 3.46745 153.452 8.76241V111.494C153.452 116.789 121.862 117.497 82.8949 117.497C43.9274 117.497 12.3418 116.789 12.3418 111.494V111.49Z" fill="#14143D"/>
<path opacity="0.59" d="M12.5191 111.397V8.80777C12.5191 3.5169 44.027 4.72811 82.9003 4.72811C121.77 4.72811 153.282 3.5169 153.282 8.80777V111.397C153.282 116.687 121.77 117.391 82.9003 117.391C44.0311 117.391 12.5191 116.687 12.5191 111.397Z" fill="#14143D"/>
<path opacity="0.6" d="M12.6895 111.303V8.85291C12.6895 3.56614 44.1196 4.78144 82.8948 4.78144C121.67 4.78144 153.1 3.56614 153.1 8.85291V111.303C153.1 116.589 121.67 117.293 82.8948 117.293C44.1196 117.293 12.6895 116.594 12.6895 111.303Z" fill="#14143D"/>
<path opacity="0.6" d="M12.8659 111.209V8.90252C12.8659 3.61574 44.2183 4.83514 82.8952 4.83514C121.572 4.83514 152.925 3.61574 152.925 8.90252V111.213C152.925 116.496 121.572 117.196 82.8952 117.196C44.2183 117.196 12.8659 116.496 12.8659 111.213V111.209Z" fill="#14143D"/>
<path opacity="0.61" d="M13.0422 111.114V8.9467C13.0422 3.66402 44.3169 4.88751 82.8956 4.88751C121.474 4.88751 152.749 3.66811 152.749 8.9467V111.114C152.749 116.397 121.474 117.092 82.8956 117.092C44.3169 117.092 13.0422 116.397 13.0422 111.114Z" fill="#14143D"/>
<path opacity="0.62" d="M13.2186 111.02V8.99596C13.2186 3.71737 44.4155 4.94086 82.896 4.94086C121.381 4.94086 152.573 3.71737 152.573 8.99596V111.024C152.573 116.303 121.377 116.994 82.896 116.994C44.4114 116.994 13.2186 116.303 13.2186 111.024V111.02Z" fill="#14143D"/>
<path opacity="0.63" d="M13.3939 110.926V9.04113C13.3939 3.76663 44.5131 4.99421 82.8995 4.99421C121.286 4.99421 152.405 3.76663 152.405 9.04113V110.926C152.405 116.201 121.286 116.892 82.8995 116.892C44.5131 116.892 13.3939 116.201 13.3939 110.926Z" fill="#14143D"/>
<path opacity="0.64" d="M13.5703 110.833V9.09088C13.5703 3.82047 44.6076 5.04805 82.8999 5.04805C121.188 5.04805 152.23 3.82047 152.23 9.09088V110.837C152.23 116.107 121.188 116.795 82.8999 116.795C44.6117 116.795 13.5703 116.107 13.5703 110.837V110.833Z" fill="#14143D"/>
<path opacity="0.64" d="M13.7427 110.738V9.13483C13.7427 3.86852 44.7023 5.10019 82.8964 5.10019C121.09 5.10019 152.05 3.86852 152.05 9.13483V110.738C152.05 116.004 121.09 116.691 82.8964 116.691C44.7023 116.691 13.7427 116.008 13.7427 110.738Z" fill="#14143D"/>
<path opacity="0.65" d="M13.9171 110.645V9.18104C13.9171 3.91473 44.7989 5.15049 82.8948 5.15049C120.991 5.15049 151.872 3.91473 151.872 9.18104V110.645C151.872 115.911 120.991 116.59 82.8948 116.59C44.7989 116.59 13.9171 115.907 13.9171 110.645Z" fill="#14143D"/>
<path opacity="0.66" d="M14.0944 110.549V9.22916C14.0944 3.96693 44.8985 5.20679 82.8962 5.20679C120.894 5.20679 151.698 3.97102 151.698 9.22916V110.554C151.698 115.816 120.894 116.495 82.8962 116.495C44.8985 116.495 14.0944 115.816 14.0944 110.554V110.549Z" fill="#14143D"/>
<path opacity="0.67" d="M14.2698 110.456V9.27452C14.2698 4.01638 44.9961 5.25624 82.8956 5.25624C120.799 5.25624 151.525 4.01638 151.525 9.27452V110.456C151.525 115.714 120.799 116.389 82.8956 116.389C44.992 116.389 14.2698 115.714 14.2698 110.456Z" fill="#14143D"/>
<path opacity="0.68" d="M14.4461 110.361V9.32312C14.4461 4.06908 45.0906 5.31303 82.9001 5.31303C120.705 5.31303 151.354 4.06908 151.354 9.32312V110.365C151.354 115.619 120.705 116.294 82.9001 116.294C45.0947 116.294 14.4461 115.619 14.4461 110.365V110.361Z" fill="#14143D"/>
<path opacity="0.69" d="M14.6176 110.267V9.36848C14.6176 4.11853 45.1843 5.36248 82.8955 5.36248C120.603 5.36248 151.174 4.11853 151.174 9.36848V110.267C151.174 115.517 120.607 116.188 82.8955 116.188C45.1884 116.188 14.6176 115.517 14.6176 110.267Z" fill="#14143D"/>
<path opacity="0.69" d="M14.7929 110.173V9.41368C14.7929 4.16783 45.2819 5.41586 82.895 5.41586C120.508 5.41586 150.997 4.16783 150.997 9.41368V110.173C150.997 115.419 120.508 116.09 82.895 116.09C45.2819 116.09 14.7929 115.423 14.7929 110.173Z" fill="#14143D"/>
<path opacity="0.7" d="M14.9693 110.079V9.46259C14.9693 4.21674 45.3805 5.46887 82.8954 5.46887C120.41 5.46887 150.821 4.21674 150.821 9.46259V110.083C150.821 115.329 120.41 115.992 82.8954 115.992C45.3805 115.992 14.9693 115.325 14.9693 110.083V110.079Z" fill="#14143D"/>
<path opacity="0.71" d="M15.1456 109.985V9.50731C15.1456 4.26555 45.4791 5.52178 82.8958 5.52178C120.316 5.52178 150.65 4.26964 150.65 9.50731V109.985C150.65 115.226 120.316 115.889 82.8958 115.889C45.475 115.889 15.1456 115.226 15.1456 109.985Z" fill="#14143D"/>
<path opacity="0.72" d="M15.321 109.891V9.55659C15.321 4.31892 45.5768 5.57514 82.8993 5.57514C120.222 5.57514 150.478 4.31892 150.478 9.55659V109.895C150.478 115.133 120.222 115.791 82.8993 115.791C45.5768 115.791 15.321 115.133 15.321 109.895V109.891Z" fill="#14143D"/>
<path opacity="0.73" d="M15.4964 109.796V9.60132C15.4964 4.36773 45.6703 5.62805 82.8987 5.62805C120.123 5.62805 150.301 4.36773 150.301 9.60132V109.796C150.301 115.03 120.123 115.689 82.8987 115.689C45.6744 115.689 15.4964 115.03 15.4964 109.796Z" fill="#14143D"/>
<path opacity="0.74" d="M15.6688 109.703V9.64668C15.6688 4.41719 45.7649 5.6775 82.8951 5.6775C120.025 5.6775 150.121 4.41719 150.121 9.64668V109.703C150.121 114.932 120.025 115.587 82.8951 115.587C45.7649 115.587 15.6688 114.932 15.6688 109.703Z" fill="#14143D"/>
<path opacity="0.74" d="M15.8451 109.608V9.69572C15.8451 4.46623 45.8635 5.73472 82.8955 5.73472C119.928 5.73472 149.946 4.47032 149.946 9.69572V109.613C149.946 114.838 119.928 115.493 82.8955 115.493C45.8635 115.493 15.8451 114.842 15.8451 109.613V109.608Z" fill="#14143D"/>
<path opacity="0.75" d="M16.0205 109.514V9.74059C16.0205 4.51519 45.9612 5.78369 82.8949 5.78369C119.829 5.78369 149.769 4.51519 149.769 9.74059V109.514C149.769 114.74 119.829 115.386 82.8949 115.386C45.9612 115.386 16.0205 114.735 16.0205 109.514Z" fill="#14143D"/>
<path opacity="0.76" d="M16.1968 109.42V9.78973C16.1968 4.56842 46.0598 5.84102 82.8954 5.84102C119.735 5.84102 149.598 4.57252 149.598 9.78973V109.424C149.598 114.645 119.735 115.292 82.8954 115.292C46.0557 115.292 16.1968 114.645 16.1968 109.424V109.42Z" fill="#14143D"/>
<path opacity="0.77" d="M16.3732 109.327V9.83534C16.3732 4.61813 46.1584 5.89072 82.8998 5.89072C119.641 5.89072 149.426 4.61813 149.426 9.83534V109.327C149.426 114.544 119.641 115.186 82.8998 115.186C46.1584 115.186 16.3732 114.544 16.3732 109.327Z" fill="#14143D"/>
<path opacity="0.78" d="M16.5446 109.232V9.8801C16.5446 4.66697 46.248 5.94366 82.8953 5.94366C119.539 5.94366 149.246 4.66697 149.246 9.8801V109.232C149.246 114.445 119.539 115.088 82.8953 115.088C46.252 115.088 16.5446 114.445 16.5446 109.232Z" fill="#14143D"/>
<path opacity="0.79" d="M16.72 109.138V9.92937C16.72 4.72034 46.3456 5.99703 82.8947 5.99703C119.444 5.99703 149.069 4.72034 149.069 9.92937V109.142C149.069 114.351 119.444 114.99 82.8947 114.99C46.3456 114.99 16.72 114.351 16.72 109.142V109.138Z" fill="#14143D"/>
<path opacity="0.79" d="M16.8963 109.044V9.97417C16.8963 4.76514 46.4442 6.04592 82.8951 6.04592C119.346 6.04592 148.894 4.76514 148.894 9.97417V109.044C148.894 114.253 119.346 114.887 82.8951 114.887C46.4442 114.887 16.8963 114.253 16.8963 109.044Z" fill="#14143D"/>
<path opacity="0.8" d="M17.0727 108.95V10.0233C17.0727 4.81839 46.5428 6.10326 82.8955 6.10326C119.248 6.10326 148.722 4.81839 148.722 10.0233V108.954C148.722 114.159 119.252 114.789 82.8955 114.789C46.5428 114.789 17.0727 114.155 17.0727 108.954V108.95Z" fill="#14143D"/>
<path opacity="0.81" d="M17.248 108.856V10.0682C17.248 4.86737 46.6404 6.15223 82.899 6.15223C119.158 6.15223 148.55 4.86737 148.55 10.0682V108.856C148.55 114.057 119.158 114.687 82.899 114.687C46.6404 114.687 17.248 114.057 17.248 108.856Z" fill="#14143D"/>
<path opacity="0.82" d="M17.4244 108.762V10.1179C17.4244 4.92112 46.739 6.21007 82.8994 6.21007C119.06 6.21007 148.374 4.92112 148.374 10.1179V108.766C148.374 113.963 119.06 114.593 82.8994 114.593C46.739 114.593 17.4244 113.967 17.4244 108.766V108.762Z" fill="#14143D"/>
<path opacity="0.83" d="M17.5958 108.667V10.162C17.5958 4.96929 46.8286 6.25824 82.8949 6.25824C118.957 6.25824 148.194 4.9652 148.194 10.162V108.671C148.194 113.864 118.957 114.49 82.8949 114.49C46.8327 114.49 17.5958 113.864 17.5958 108.671V108.667Z" fill="#14143D"/>
<path opacity="0.83" d="M17.7722 108.573V10.2073C17.7722 5.01872 46.9272 6.31177 82.8953 6.31177C118.863 6.31177 148.018 5.01872 148.018 10.2073V108.573C148.018 113.762 118.863 114.388 82.8953 114.388C46.9272 114.388 17.7722 113.766 17.7722 108.573Z" fill="#14143D"/>
<path opacity="0.84" d="M17.9475 108.479V10.2565C17.9475 5.06793 47.0248 6.36507 82.8947 6.36507C118.765 6.36507 147.842 5.06793 147.842 10.2565V108.483C147.842 113.672 118.765 114.29 82.8947 114.29C47.0248 114.29 17.9475 113.672 17.9475 108.483V108.479Z" fill="#14143D"/>
<path opacity="0.85" d="M18.1229 108.385V10.3013C18.1229 5.11681 47.1224 6.41805 82.8982 6.41805C118.674 6.41805 147.673 5.11681 147.673 10.3013V108.385C147.673 113.569 118.674 114.187 82.8982 114.187C47.1224 114.187 18.1229 113.569 18.1229 108.385Z" fill="#14143D"/>
<path opacity="0.86" d="M18.2993 108.291V10.3511C18.2993 5.17068 47.221 6.47191 82.8986 6.47191C118.576 6.47191 147.498 5.17068 147.498 10.3511V108.296C147.498 113.476 118.576 114.09 82.8986 114.09C47.221 114.09 18.2993 113.476 18.2993 108.296V108.291Z" fill="#14143D"/>
<path opacity="0.87" d="M18.4727 108.197V10.3954C18.4727 5.21907 47.3167 6.5244 82.896 6.5244C118.475 6.5244 147.319 5.21907 147.319 10.3954V108.201C147.319 113.377 118.475 113.991 82.896 113.991C47.3167 113.991 18.4727 113.381 18.4727 108.201V108.197Z" fill="#14143D"/>
<path opacity="0.88" d="M18.648 108.103V10.4409C18.648 5.26873 47.4102 6.57406 82.8954 6.57406C118.381 6.57406 147.143 5.26464 147.143 10.4409V108.103C147.143 113.275 118.377 113.885 82.8954 113.885C47.4102 113.885 18.648 113.275 18.648 108.103Z" fill="#14143D"/>
<path opacity="0.88" d="M18.8234 108.008V10.4892C18.8234 5.31696 47.5078 6.63047 82.8949 6.63047C118.282 6.63047 146.966 5.32105 146.966 10.4892V108.012C146.966 113.18 118.282 113.79 82.8949 113.79C47.5078 113.79 18.8234 113.184 18.8234 108.012V108.008Z" fill="#14143D"/>
<path opacity="0.89" d="M19.0007 107.915V10.535C19.0007 5.36692 47.6074 6.68043 82.8962 6.68043C118.185 6.68043 146.796 5.36692 146.796 10.535V107.915C146.796 113.083 118.189 113.684 82.8962 113.684C47.6074 113.684 19.0007 113.083 19.0007 107.915Z" fill="#14143D"/>
<path opacity="0.9" d="M19.1761 107.82V10.5838C19.1761 5.41973 47.705 6.73734 82.8998 6.73734C118.094 6.73734 146.623 5.41973 146.623 10.5838V107.824C146.623 112.988 118.094 113.59 82.8998 113.59C47.705 113.59 19.1761 112.988 19.1761 107.824V107.82Z" fill="#14143D"/>
<path opacity="0.91" d="M19.3475 107.726V10.6286C19.3475 5.46872 47.7987 6.78632 82.8952 6.78632C117.992 6.78632 146.443 5.46872 146.443 10.6286V107.726C146.443 112.886 117.992 113.483 82.8952 113.483C47.7987 113.483 19.3475 112.886 19.3475 107.726Z" fill="#14143D"/>
<path opacity="0.92" d="M19.5239 107.632V10.674C19.5239 5.51812 47.8973 6.83982 82.8956 6.83982C117.894 6.83982 146.267 5.51812 146.267 10.674V107.632C146.267 112.788 117.894 113.386 82.8956 113.386C47.8973 113.386 19.5239 112.792 19.5239 107.632Z" fill="#14143D"/>
<path opacity="0.93" d="M19.7002 107.538V10.7227C19.7002 5.57097 47.9918 6.89267 82.896 6.89267C117.8 6.89267 146.092 5.56688 146.092 10.7227V107.542C146.092 112.694 117.796 113.287 82.896 113.287C47.9918 113.287 19.7002 112.694 19.7002 107.542V107.538Z" fill="#14143D"/>
<path opacity="0.93" d="M19.8756 107.444V10.768C19.8756 5.61629 48.0895 6.94617 82.8954 6.94617C117.701 6.94617 145.915 5.62038 145.915 10.768V107.444C145.915 112.596 117.701 113.185 82.8954 113.185C48.0895 113.185 19.8756 112.596 19.8756 107.444Z" fill="#14143D"/>
<path opacity="0.94" d="M20.0519 107.35V10.8173C20.0519 5.66968 48.1881 6.99956 82.8999 6.99956C117.608 6.99956 145.748 5.66968 145.748 10.8173V107.354C145.748 112.502 117.612 113.087 82.8999 113.087C48.1922 113.087 20.0519 112.502 20.0519 107.354V107.35Z" fill="#14143D"/>
<path opacity="0.95" d="M20.2273 107.256V10.8619C20.2273 5.71836 48.2857 7.05234 82.8993 7.05234C117.513 7.05234 145.571 5.71836 145.571 10.8619V107.256C145.571 112.399 117.513 112.984 82.8993 112.984C48.2857 112.984 20.2273 112.399 20.2273 107.256Z" fill="#14143D"/>
<path opacity="0.96" d="M20.3977 107.165V10.9068C20.3977 5.76735 48.3784 7.10133 82.8938 7.10133C117.409 7.10133 145.39 5.76735 145.39 10.9068V107.161C145.39 112.301 117.409 112.882 82.8938 112.882C48.3784 112.882 20.3977 112.301 20.3977 107.161V107.165Z" fill="#14143D"/>
<path opacity="0.97" d="M20.5751 107.071V10.9556C20.5751 5.8202 48.478 7.15826 82.8952 7.15826C117.312 7.15826 145.215 5.8202 145.215 10.9556V107.071C145.215 112.206 117.312 112.787 82.8952 112.787C48.478 112.787 20.5751 112.21 20.5751 107.071Z" fill="#14143D"/>
<path opacity="0.98" d="M20.7504 106.978V11.0014C20.7504 5.87015 48.5715 7.20821 82.8946 7.20821C117.218 7.20821 145.039 5.86605 145.039 11.0014V106.974C145.039 112.105 117.214 112.682 82.8946 112.682C48.5715 112.682 20.7504 112.105 20.7504 106.974V106.978Z" fill="#14143D"/>
<path opacity="0.98" d="M20.9268 106.884V11.0507C20.9268 5.9194 48.6701 7.26564 82.895 7.26564C117.12 7.26564 144.867 5.92349 144.867 11.0507V106.884C144.867 112.015 117.124 112.588 82.895 112.588C48.6701 112.588 20.9268 112.015 20.9268 106.884Z" fill="#14143D"/>
<path opacity="0.99" d="M21.1031 106.789V11.0951C21.1031 5.9679 48.7687 7.31415 82.8995 7.31415C117.03 7.31415 144.696 5.9679 144.696 11.0951V106.785C144.696 111.912 117.03 112.481 82.8995 112.481C48.7687 112.481 21.1031 111.912 21.1031 106.785V106.789Z" fill="#14143D"/>
<path d="M21.2755 106.695V11.1404C21.2755 6.01735 48.8634 7.36769 82.896 7.36769C116.929 7.36769 144.516 6.01735 144.516 11.1404V106.691C144.516 111.814 116.929 112.383 82.896 112.383C48.8634 112.383 21.2755 111.814 21.2755 106.691V106.695Z" fill="#14143D"/>
</g>
<path d="M159.861 104.265V11.6438C159.861 5.34095 154.751 0.231445 148.449 0.231445L17.3471 0.231445C11.0442 0.231445 5.93472 5.34095 5.93472 11.6438V104.265C5.93472 110.568 11.0442 115.677 17.3471 115.677L148.449 115.677C154.751 115.677 159.861 110.568 159.861 104.265Z" fill="#1A2C49"/>
</svg>
