<svg width="131" height="91" viewBox="0 0 131 91" fill="none" xmlns="http://www.w3.org/2000/svg">
<path d="M130.571 41.1202C130.652 38.4818 128.971 36.0332 126.432 35.0303C125.71 34.7231 124.996 34.5695 124.327 34.5695C122.511 34.5695 121.364 35.6628 120.596 36.3947C120.397 36.5844 120.117 36.8555 119.954 36.9549L119.267 36.6205C118.31 36.1597 117.325 35.6899 116.313 35.2652L116.241 35.2381C115.653 35.0213 115.057 34.9129 114.47 34.9129C113.376 34.9129 112.346 35.2833 111.461 35.97C111.705 35.1116 111.804 34.1358 111.614 33.0154C111.19 29.7988 109.907 20.1942 102.344 20.1942C98.2781 20.1942 93.5074 23.0042 88.4566 25.9768C88.2759 26.0853 88.0952 26.1937 87.9145 26.3021C87.8513 26.2298 87.788 26.1666 87.7338 26.0943C88.032 25.9316 88.3482 25.76 88.6735 25.5793C92.8478 23.3204 98.5582 20.2213 99.3262 15.9656C99.6515 14.1675 99.0913 12.4237 97.6547 10.7702L97.5463 10.6437L97.4198 10.5443C95.4049 8.99024 93.0918 8.23127 90.345 8.23127C87.3272 8.23127 84.3274 9.13481 81.4271 10.0112C80.2886 10.3546 79.2134 10.6799 78.1743 10.9419C78.1653 10.9148 78.1472 10.8967 78.1382 10.8696C77.9665 10.5263 77.7587 10.1016 77.4425 9.73115C73.4488 3.46057 66.6271 0 58.206 0C52.8661 0 47.2913 1.43663 42.5206 4.03883C42.0055 4.25568 41.3279 4.28279 40.6051 4.30989C38.9606 4.37314 36.2048 4.47253 35.3013 8.03249L35.2832 8.09573L35.2742 8.15898C35.2199 8.47522 35.1115 8.70111 34.6598 9.1077C30.4673 12.7942 27.9374 17.7727 27.1242 23.9168C26.6092 23.7631 26.0761 23.5915 25.534 23.4198C22.7872 22.5524 19.9501 21.6579 17.0768 21.6579C14.7728 21.6579 12.785 22.2362 11.0231 23.4198L10.9779 23.4469L10.9327 23.4831C5.51149 27.6484 2.04189 34.4882 1.16546 42.7375L1.15642 42.8279V42.9182C1.16546 43.7676 0.948608 45.674 0.731758 47.6889C-0.271173 56.7695 -0.361527 60.3656 1.21064 61.748C8.53836 69.4553 17.3027 78.0118 28.6602 82.3398C33.449 85.4931 38.807 87.3092 43.388 87.3092C50.0471 87.3092 54.3841 83.668 55.378 77.4426C59.9951 79.5659 65.3711 81.6892 71.3435 82.7644L71.4429 82.7825L71.5423 82.7915C73.1416 82.8819 74.3704 83.424 75.4004 84.4812L75.4547 84.5354L75.5089 84.5806C78.1653 86.8665 82.3306 88.773 83.9118 89.1976C87.2368 90.309 90.7336 90.8692 94.2935 90.8692C106.708 90.8692 119.042 83.9932 125.71 73.3405C131.194 64.5852 132.016 54.7817 128.086 45.5566C129.604 44.5356 130.507 42.9453 130.571 41.1202Z" fill="white"/>
<path d="M125.366 39.4756C125.827 39.6925 126.18 40.1081 126.216 40.5237C126.252 40.0629 125.891 39.6744 125.366 39.4756ZM125.15 61.8744C124.833 63.5731 124.4 65.1904 123.839 66.7174C124.833 64.1604 125.457 61.4859 125.628 58.7662C125.538 59.7963 125.376 60.8444 125.15 61.8744ZM122.575 40.5147C122.493 40.6051 122.421 40.6864 122.322 40.7677C122.8 40.4334 123.27 40.0358 123.731 39.5931C123.74 39.5931 123.74 39.584 123.749 39.575C123.343 39.7377 122.936 40.0539 122.575 40.5147ZM121.21 44.2463C122.06 43.6952 122.9 43.144 123.749 42.6109C122.891 43.135 122.014 43.65 121.21 44.2463ZM119.999 45.2493C119.999 45.2583 119.99 45.2583 119.99 45.2673C120.008 45.2493 120.027 45.2312 120.045 45.2131C120.018 45.2312 120.018 45.2402 119.999 45.2493ZM119.575 46.4871C119.53 47.2822 120.054 47.7882 120.767 47.9057C120.081 47.7611 119.584 47.1919 119.575 46.4871ZM115.518 40.2165C116.06 40.4876 116.602 40.8852 117.045 41.0839C117.822 41.608 118.581 41.8519 119.286 41.879C117.876 41.6532 116.584 40.6502 115.518 40.2165ZM109.69 68.6329C109.826 68.4251 109.988 68.2354 110.169 68.0456C109.979 68.2263 109.826 68.4161 109.69 68.6329ZM97.9349 34.9489C99.1999 34.0544 100.546 33.2773 101.703 32.5364C100.393 33.2773 99.1186 34.0544 97.9349 34.9489ZM92.7757 42.4031C92.7757 42.8458 92.7848 43.2886 92.7848 43.7313C92.8299 43.2795 92.839 42.8278 92.7757 42.4031ZM90.815 30.3227C92.333 29.5276 94.2575 28.1362 96.2634 27.0067C94.6551 27.838 92.8299 28.9674 90.815 30.3227ZM88.2851 47.987C88.4297 47.8786 88.5742 47.7701 88.7098 47.6617C88.5742 47.7611 88.4387 47.8786 88.2851 47.987ZM80.3159 68.2263C80.1713 68.1179 80.0177 68.0095 79.8551 67.892C79.8009 67.8559 79.7466 67.8197 79.7015 67.7746C79.8551 67.9191 80.0177 68.0366 80.1803 68.1631C80.5147 68.407 80.849 68.642 81.1833 68.8678C80.9574 68.6871 80.6592 68.4703 80.3159 68.2263ZM75.7078 63.1755V63.0761C75.6626 63.5279 75.5904 63.9616 75.9698 64.2869C76.006 64.3321 76.0512 64.3682 76.0873 64.4134C75.8253 63.9887 75.6807 63.5731 75.7078 63.1755ZM71.416 72.7621C73.7381 76.6473 76.5662 79.6742 79.7918 81.8517C76.4578 79.4935 73.6387 76.2859 71.416 72.7621ZM73.7652 60.7631C74.3254 60.9257 74.8494 61.2329 75.238 61.6847C74.8946 61.2239 74.3615 60.9257 73.7652 60.7631ZM70.1691 61.3413C70.1239 61.3684 70.0878 61.3955 70.0426 61.4317C69.9432 61.504 69.8529 61.5763 69.7625 61.6666C69.5457 61.8744 69.374 62.1093 69.2475 62.3623C69.4192 62.1003 69.5999 61.8654 69.7987 61.6666C69.9974 61.4769 70.2143 61.3052 70.4673 61.1606C70.3588 61.2058 70.2595 61.2691 70.1691 61.3413ZM62.227 60.6637C63.0311 60.7269 63.8172 60.989 64.4768 61.4498C63.9437 60.9347 63.1215 60.6818 62.227 60.6637ZM60.0314 62.5973C60.3115 62.6515 60.5916 62.7147 60.8536 62.8051C60.5916 62.7057 60.3115 62.6424 60.0314 62.5973ZM58.1249 62.4617C58.4502 62.0009 58.8568 61.6395 59.3085 61.3594C58.7935 61.6395 58.3869 62.01 58.1249 62.4617ZM55.2697 4.56277C55.8841 4.50856 56.4985 4.47241 57.0949 4.46338C56.4895 4.47241 55.8841 4.49952 55.2697 4.56277ZM44.3911 21.3506C44.7615 22.3264 45.1681 23.2842 45.5928 24.2509C45.1681 23.2842 44.7705 22.3264 44.3911 21.3506ZM40.8672 9.10758C40.813 9.28829 40.7679 9.45996 40.7317 9.63164C40.7769 9.45996 40.8221 9.28829 40.8672 9.10758ZM37.5874 81.1831C38.9427 81.7523 40.3613 82.2132 41.825 82.439C40.6504 82.2041 39.0873 81.7343 37.5874 81.1831ZM36.2321 13.7066C37.2983 12.4778 38.3644 11.3213 39.5481 10.228C38.3554 11.2942 37.226 12.4597 36.2321 13.7066ZM32.5908 78.1201C32.5908 78.5357 32.7715 78.8158 33.16 79.0146C33.2414 79.0598 33.3046 79.0869 33.3769 79.1321C32.907 78.7797 32.6179 78.4363 32.5908 78.1201ZM32.2655 21.3596C32.2203 21.5494 32.1752 21.7391 32.13 21.9198C32.0848 22.1096 32.0487 22.3083 32.0125 22.489C31.9764 22.6788 31.9403 22.8776 31.9131 23.0673C31.877 23.257 31.8589 23.4558 31.8318 23.6456C31.7505 24.3413 31.7144 25.037 31.7324 25.7508C31.7324 24.1335 31.9312 22.5794 32.3378 21.0885C32.3649 20.9892 32.383 20.9078 32.4101 20.8085C32.3649 20.9982 32.3107 21.1789 32.2655 21.3596Z" fill="black"/>
<path d="M125.737 36.6839C122.078 35.1298 121.581 39.6204 119.268 38.6084C118.048 38.0302 116.855 37.4338 115.617 36.9188C111.913 35.5364 109.283 40.9215 110.928 43.8309C113.151 47.9691 115.446 52.1435 114.406 57.0046C113.774 60.5645 111.976 63.7359 108.443 65.1184C110.277 59.7242 113.385 53.3271 110.06 47.942C109.365 46.8216 108.759 45.647 108.253 44.4453C105.805 38.997 110.675 37.6597 109.907 33.386C107.585 15.7127 98.2601 22.2995 87.517 28.552C86.6677 27.5943 85.8816 26.7178 85.0504 25.7962C89.2247 23.1398 101.784 18.2426 96.3266 11.9991C90.8782 7.77959 83.8577 11.4751 78.0027 12.8214C76.8643 13.2189 76.6836 11.5203 76.0421 10.8878C69.1119 -0.270964 53.7065 -0.0902555 43.2254 5.65627C40.8581 6.74956 37.7951 4.96958 36.8916 8.56568C36.747 9.40597 36.3314 9.93906 35.7351 10.4812C31.118 14.5381 28.9766 20.0858 28.5609 26.1757C23.2662 24.8927 17.0046 21.5315 11.9267 24.9288C6.31573 29.2387 3.52379 36.187 2.80095 43.0358C2.80999 46.1711 0.524028 59.2724 2.32208 60.6368C10.1739 68.8952 18.5407 76.8734 29.3922 80.9484C40.1082 88.0954 53.6613 88.1135 53.8872 75.0031C59.6066 77.7499 65.3441 80.09 71.6057 81.2195C73.5754 81.3369 75.2198 82.0327 76.5661 83.4151C79.096 85.5836 83.1439 87.3907 84.3546 87.6979C109.238 96.0556 138.215 70.3047 125.863 44.8881C130.173 43.4966 129.577 38.2018 125.737 36.6839ZM90.3903 30.5398C90.5258 30.4675 90.6523 30.4043 90.7969 30.332C90.8059 30.323 90.815 30.323 90.824 30.323C92.8389 28.9677 94.655 27.8382 96.2724 27.007C96.4169 26.9166 96.5615 26.8624 96.688 26.7811C99.1275 25.4529 101.639 24.5584 103.573 25.6426C103.663 25.6878 103.736 25.7239 103.817 25.7781C105.281 26.6365 106.257 28.5972 106.762 31.9222C106.772 31.9674 106.781 32.0036 106.79 32.0578C107.205 34.1178 107.314 36.2141 107.214 38.3283C107.178 39.2048 107.115 40.0812 107.006 40.9577C106.979 41.4817 106.952 42.0148 106.952 42.5389C106.961 44.3459 107.241 46.0356 107.53 47.7071V47.7342C107.585 47.8878 107.63 48.0685 107.684 48.2402C108.217 50.1286 108.371 51.9989 108.217 53.8512C108.181 55.5408 107.874 57.3027 107.043 59.2002C106.32 61.2783 105.488 63.3022 104.739 65.3713C104.449 66.1484 103.989 66.3472 103.203 66.2297C103.013 66.2026 102.823 66.1665 102.633 66.1303C102.453 66.0942 102.254 66.04 102.073 65.9948C101.775 65.9135 101.486 65.8322 101.197 65.7237C101.088 65.6876 100.989 65.6514 100.88 65.5972C100.709 65.534 100.537 65.4617 100.374 65.3804C100.221 65.3081 100.04 65.2178 99.8775 65.1274C99.7329 65.037 99.5793 64.9557 99.4348 64.8473C99.2812 64.7479 99.1185 64.6395 98.9649 64.522C98.8203 64.4046 98.6758 64.2871 98.5312 64.1606C98.3867 64.0251 98.233 63.8805 98.1066 63.745C97.9981 63.6185 97.8897 63.501 97.7903 63.3745C97.7813 63.3655 97.7722 63.3564 97.7632 63.3384C97.6638 63.2119 97.5735 63.0764 97.4831 62.9318C97.3747 62.7872 97.2843 62.6156 97.203 62.4529C97.1669 62.3626 97.1217 62.2903 97.0765 62.1999C97.0494 62.1457 97.0313 62.0915 97.0133 62.0463C96.9771 61.956 96.941 61.8746 96.9139 61.7753C96.8235 61.5674 96.7693 61.3506 96.7332 61.1157C96.688 60.9801 96.6699 60.8446 96.6518 60.7C95.9109 56.2275 95.5224 51.511 93.1732 47.5174C93.128 47.4451 93.0919 47.3818 93.0467 47.3096C92.9925 47.2373 92.9654 47.165 92.9383 47.1017C92.8931 47.0114 92.857 46.921 92.8208 46.8126C92.6401 46.3518 92.5678 45.8639 92.6492 45.3127C92.6492 45.3037 92.6492 45.3037 92.6492 45.2947C92.6672 44.8519 92.7305 44.3911 92.7576 43.9393C92.7666 43.858 92.7666 43.8038 92.7666 43.7225C92.7666 43.2798 92.7576 42.837 92.7576 42.3943V42.3401C92.7576 42.3039 92.7576 42.2768 92.7485 42.2407C92.7485 42.1684 92.7576 42.1232 92.7576 42.06V42.0148C92.7937 40.9577 92.9744 39.9276 93.7153 39.0693C93.7244 39.0602 93.7244 39.0602 93.7334 39.0512C93.7424 39.0331 93.7515 39.0241 93.7605 39.006C94.7183 37.4248 96.2362 36.1237 97.8626 34.9762C97.8807 34.9581 97.8987 34.9491 97.9168 34.9491C99.1004 34.0456 100.374 33.2775 101.685 32.5366C101.82 32.4734 101.956 32.4463 102.082 32.4282C102.245 32.4011 102.407 32.4282 102.552 32.4824C102.606 32.5095 102.669 32.5366 102.715 32.5728C102.769 32.5999 102.823 32.6451 102.859 32.6902C102.931 32.7445 102.995 32.8077 103.049 32.8619C103.275 33.1059 103.465 33.4492 103.636 33.8468C103.709 34.0094 103.772 34.1901 103.826 34.3708C103.871 34.5064 103.916 34.6419 103.952 34.7865C103.998 34.9039 104.025 35.0214 104.052 35.1479C104.07 35.1931 104.079 35.2292 104.088 35.2744C104.133 35.4189 104.16 35.5635 104.196 35.7171C104.214 35.7894 104.233 35.8436 104.242 35.8978C104.305 36.1779 104.368 36.4761 104.413 36.7562C104.449 36.9279 104.486 37.1086 104.504 37.2712C104.54 37.4338 104.567 37.6055 104.603 37.7682C104.621 37.8766 104.639 37.976 104.657 38.0754C104.702 38.2922 104.739 38.5 104.775 38.7078C104.784 38.7711 104.793 38.8253 104.811 38.8705C104.883 39.2771 104.964 39.6023 105.046 39.8373C105.091 39.8463 105.136 39.8463 105.19 39.8553C105.299 38.1386 105.317 36.6839 105.245 35.4551C105.245 35.3376 105.235 35.2292 105.226 35.1117C105.208 34.7323 105.172 34.3889 105.127 34.0636C105.109 33.9191 105.1 33.8016 105.082 33.6661C105.064 33.5486 105.037 33.4492 105.019 33.3408C104.983 33.133 104.937 32.9252 104.883 32.7264C104.847 32.5637 104.802 32.3921 104.748 32.2385C104.73 32.1752 104.711 32.1029 104.684 32.0578C104.648 31.9584 104.612 31.8771 104.585 31.7867C104.549 31.6963 104.513 31.6241 104.477 31.5427C104.404 31.3982 104.332 31.2446 104.251 31.1181C104.224 31.0729 104.196 31.0368 104.169 31.0006C104.088 30.8651 104.007 30.7567 103.907 30.6573C103.853 30.585 103.79 30.5308 103.736 30.4766C103.645 30.3952 103.546 30.332 103.446 30.2597C103.347 30.1965 103.248 30.1332 103.139 30.0971C101.883 29.5278 100.112 30.1242 97.8626 31.362C97.447 31.597 97.0223 31.85 96.5615 32.112C96.1188 32.383 95.6489 32.6722 95.17 32.9794C94.6912 33.2866 94.1942 33.6119 93.6792 33.9462C93.1642 34.2805 92.6401 34.6238 92.098 34.9762C91.33 33.6119 90.5981 32.3198 89.8391 30.9645C90.0379 30.8199 90.1915 30.6573 90.3903 30.5398ZM88.285 47.9872C88.4296 47.8788 88.5742 47.7704 88.7097 47.6619C89.1344 47.3367 89.55 47.0204 90.0198 46.668C91.5559 49.8756 92.7214 53.1464 92.7576 56.7245C92.6672 56.7606 92.5859 56.7967 92.5046 56.8329C91.1041 53.8783 89.6946 50.9328 88.285 47.9872ZM87.5351 46.4241C87.4267 46.3157 87.3454 46.2343 87.2731 46.144C87.1918 46.0536 87.1285 45.9813 87.0833 45.9091C86.9388 45.7103 86.9207 45.5476 86.9749 45.3489C86.993 45.2947 87.011 45.2224 87.0472 45.1591C87.1014 45.0236 87.1827 44.8519 87.3002 44.6441C87.6706 43.9484 87.77 43.1171 88.023 42.2497C88.0953 42.2497 88.1676 42.2588 88.2489 42.2678C88.4206 42.2768 88.6284 42.2859 88.8452 42.2949C88.9627 42.3039 89.0711 42.3039 89.1886 42.313C89.5771 43.858 88.8091 46.0627 87.5351 46.4241ZM76.6745 15.9657C76.7197 15.9476 76.7649 15.9295 76.8101 15.9115C82.8638 13.6707 88.3483 12.3154 91.6282 12.9388C91.6282 12.9388 91.6372 12.9388 91.6462 12.9388C93.2365 13.0924 94.5737 13.6888 94.655 15.3061C94.655 15.3061 94.655 15.3061 94.655 15.3151V15.3513C94.6641 15.4326 94.664 15.5049 94.664 15.5862V15.5952C94.4382 15.532 94.2123 15.4778 93.9774 15.4326C93.5256 15.3242 93.0648 15.2519 92.622 15.1796C92.1793 15.1073 91.7275 15.0531 91.2938 15.017C91.2848 15.017 91.2848 15.017 91.2848 15.017C90.8511 14.9808 90.4084 14.9537 89.9747 14.9356C74.3163 14.4658 61.7119 31.0187 45.9089 31.9584C47.2191 30.7657 50.9959 28.3894 55.8931 25.6878C55.9021 25.6788 55.9111 25.6697 55.9292 25.6607C62.5431 21.7935 69.4462 18.3962 76.6745 15.9657ZM42.5297 11.204C42.5387 11.0504 42.5478 10.8878 42.5658 10.7251C42.602 10.2824 42.6652 9.83063 42.7285 9.3879C43.7675 8.52953 44.9331 7.77959 46.1981 7.13808C46.6679 6.88509 47.1739 6.6592 47.6708 6.44235C48.2762 6.18033 48.9087 5.9454 49.5321 5.74662C49.6135 5.71048 49.6948 5.69241 49.7851 5.66531C50.6525 5.38521 51.5561 5.15029 52.4506 4.96958C52.7849 4.8973 53.1192 4.83405 53.4445 4.78887C54.0499 4.68948 54.6552 4.6172 55.2606 4.56299C55.875 4.49974 56.4804 4.47263 57.0858 4.4636C57.2845 4.45456 57.4833 4.45456 57.6731 4.45456C57.8809 4.45456 58.0887 4.4636 58.3055 4.47263C58.4501 4.47263 58.6037 4.48167 58.7392 4.4907C58.9922 4.50877 59.2452 4.51781 59.4892 4.53588C59.9229 4.57202 60.3566 4.6172 60.7903 4.67141C61.0523 4.70755 61.3053 4.75273 61.5583 4.79791C61.8384 4.84308 62.1185 4.8973 62.3986 4.95151C62.5522 4.97861 62.7148 5.01476 62.8684 5.05993C63.022 5.09607 63.1756 5.13222 63.3292 5.17739C63.6455 5.25871 63.9527 5.34003 64.2599 5.43942C64.8923 5.62916 65.5158 5.85505 66.1121 6.11708C66.3922 6.23454 66.6633 6.352 66.9253 6.48753C67.5668 6.79473 68.1812 7.14711 68.7776 7.5266C68.9764 7.6531 69.1751 7.77959 69.3649 7.92416C69.8799 8.28558 70.3769 8.6741 70.8467 9.1078C71.0816 9.31562 71.3075 9.53247 71.5334 9.76739C71.6779 9.91195 71.8316 10.0656 71.9671 10.2282C72.1026 10.3818 72.2472 10.5444 72.3827 10.7071C72.5002 10.8426 72.5905 10.9691 72.699 11.1046C72.8797 11.3395 73.0604 11.5835 73.223 11.8275C73.3314 11.9811 73.4218 12.1347 73.5212 12.2883C73.6477 12.478 73.7651 12.6858 73.8826 12.8846C73.9729 13.0292 74.0452 13.1737 74.1175 13.3273C74.1627 13.4177 74.2079 13.499 74.253 13.5894C74.3434 13.743 74.4157 13.9056 74.488 14.0592H74.4789C73.8736 14.2761 73.2682 14.4929 72.6718 14.7278C72.0755 14.9537 71.4792 15.1796 70.8828 15.4236C70.151 15.7127 69.4101 16.0199 68.6872 16.3361C68.0276 16.6253 67.3771 16.9144 66.7265 17.2126C65.9766 17.5469 65.2176 17.8993 64.4767 18.2516C63.8533 18.5498 63.2389 18.857 62.6335 19.1642C62.1817 19.3901 61.7299 19.616 61.2782 19.8599C60.465 20.2756 59.6428 20.7093 58.8386 21.152C57.7273 21.7574 56.6159 22.3808 55.5136 23.0223H55.5046C54.4022 23.6639 53.3089 24.3054 52.2157 24.983C51.1224 25.6517 50.0291 26.3293 48.9539 27.025C48.4117 27.3774 47.8696 27.7208 47.3365 28.0731L47.3275 28.0641C47.0384 27.4316 46.7402 26.8082 46.4511 26.1757C46.1529 25.5342 45.8547 24.9017 45.5746 24.2602C45.159 23.2934 44.7434 22.3357 44.3729 21.3598C44.2374 21.0165 44.1199 20.6822 44.0025 20.3479C43.876 20.0136 43.7675 19.6702 43.6591 19.3359C43.5417 18.9925 43.4513 18.6492 43.3519 18.3149C43.2525 17.9806 43.1712 17.6282 43.0899 17.2939C43.0808 17.2577 43.0718 17.2216 43.0628 17.1855C42.9905 16.9325 42.9363 16.6704 42.9001 16.4175C42.7104 15.4597 42.5658 14.5019 42.5116 13.5261C42.4935 13.4177 42.4935 13.3183 42.4935 13.2099C42.4845 12.5322 42.4845 11.8726 42.5297 11.204ZM31.8408 23.6458C31.8679 23.456 31.886 23.2573 31.9221 23.0675C31.9492 22.8778 31.9854 22.679 32.0215 22.4893C32.0576 22.3085 32.0938 22.1098 32.139 21.92C32.1841 21.7393 32.2293 21.5496 32.2745 21.3598C32.3287 21.1791 32.3829 20.9894 32.4281 20.8087C32.4462 20.7093 32.4823 20.628 32.5094 20.5286L32.663 20.0316C32.7534 19.7606 32.8528 19.4895 32.9612 19.2275C33.0696 18.9564 33.178 18.6944 33.2955 18.4324C33.9822 16.8421 34.9038 15.3422 36.0513 13.9237C36.0784 13.8966 36.0965 13.8604 36.1326 13.8333C36.1688 13.7881 36.2049 13.743 36.2501 13.6978C37.2349 12.4509 38.3644 11.2944 39.5661 10.2192C39.9094 9.91195 40.2618 9.60475 40.6142 9.31562C40.7045 9.24333 40.7859 9.17105 40.8762 9.09876H40.8852C40.831 9.27044 40.7859 9.45115 40.7407 9.62282C40.6955 9.79449 40.6594 9.9752 40.6232 10.1469C40.5871 10.3185 40.5509 10.4993 40.5238 10.6709C40.4877 10.8426 40.4606 11.0233 40.4425 11.195C40.3883 11.5474 40.3522 11.8907 40.3341 12.225C40.325 12.3696 40.316 12.5142 40.316 12.6406C40.2979 13.0563 40.2979 13.4538 40.316 13.8604C40.316 14.014 40.3251 14.1857 40.3431 14.3483C40.3341 14.4026 40.3431 14.4658 40.3522 14.52C40.3612 14.6736 40.3702 14.8363 40.3973 14.9899C40.4064 15.1796 40.4335 15.3693 40.4606 15.5591C40.56 16.309 40.6955 17.0499 40.8762 17.7818C41.0027 18.2697 41.1292 18.7576 41.2738 19.2546C41.3461 19.5076 41.4183 19.7515 41.4997 20.0045C41.6533 20.4834 41.8249 20.9803 41.9966 21.4592C42.4303 22.679 42.9363 23.8717 43.4332 25.0644L43.4423 25.0734C43.4513 25.1276 43.4603 25.1818 43.4784 25.236C43.5055 25.3264 43.5507 25.4258 43.5959 25.5342C43.6682 25.7149 43.7675 25.9227 43.885 26.1396C43.9302 26.239 43.9844 26.3203 44.0205 26.4106C44.0296 26.4377 44.0476 26.4558 44.0476 26.4739C44.129 26.6184 44.1922 26.754 44.2735 26.8895C44.3187 26.9708 44.3639 27.0431 44.4 27.1335C44.5356 27.3684 44.653 27.6123 44.7614 27.8382C44.7885 27.8924 44.8066 27.9376 44.8247 27.9738C44.8879 28.1183 44.9421 28.2448 44.9783 28.3804C45.1771 28.9405 45.2042 29.3833 44.8518 29.5459C44.7705 29.573 44.6982 29.6092 44.6169 29.6543C44.3368 29.7899 44.0567 29.9706 43.7675 30.1423C43.623 30.2326 43.4694 30.3139 43.3158 30.3952C43.2073 30.4585 43.0989 30.5127 42.9905 30.5489C42.6291 30.6934 42.2586 30.7386 41.852 30.6121C41.066 30.323 40.2799 30.0429 39.4848 29.7537C38.8975 29.5369 38.3011 29.32 37.7048 29.1032C37.1084 28.8863 36.5211 28.6785 35.9248 28.4617C34.7412 28.037 33.5575 27.6033 32.3739 27.1967C31.8137 26.9979 31.7685 26.6636 31.7595 26.2028C31.7504 26.0492 31.7504 25.8775 31.7504 25.7239C31.7324 25.0372 31.7595 24.3415 31.8408 23.6458ZM120.767 47.9059C120.776 47.9059 120.776 47.9059 120.767 47.9059C121.291 47.9962 121.906 47.8517 122.457 47.4632C122.538 47.4089 122.611 47.3367 122.683 47.2824C122.764 47.2192 122.827 47.1469 122.891 47.0746C122.909 47.0656 122.927 47.0475 122.945 47.0204C123.035 46.9301 123.117 46.8216 123.207 46.7042C125.122 50.3726 125.918 54.3933 125.637 58.4231C125.628 58.5406 125.628 58.649 125.619 58.7665C125.457 61.4861 124.833 64.1696 123.83 66.7176C123.74 66.9345 123.668 67.1513 123.577 67.3682C123.559 67.4134 123.541 67.4585 123.514 67.5037C121.87 71.5606 119.34 75.0031 116.195 77.7679C116.06 77.8944 115.906 78.0209 115.762 78.1474C112.663 80.8671 108.985 82.9633 104.955 84.1379C104.937 84.1469 104.91 84.156 104.883 84.156C103.79 84.5264 102.66 84.8336 101.513 85.0957C98.233 85.9179 95.0255 86.2161 91.9625 86.0173C87.4086 85.9631 83.3246 84.3999 79.8189 81.8971C79.8098 81.8971 79.7918 81.8881 79.7827 81.8791C76.5661 79.7015 73.729 76.6747 71.4069 72.7894C74.9849 74.2712 78.581 75.0935 82.3849 74.0273C82.5114 73.9911 82.6198 73.955 82.7373 73.9098C83.0716 73.7924 83.3698 73.6839 83.6228 73.5574C83.8758 73.44 84.0926 73.3316 84.2733 73.2051C84.3998 73.1237 84.4992 73.0515 84.5986 72.9701C85.2943 72.3557 85.1136 71.7413 84.4992 71.1269C84.2462 70.8559 83.8848 70.5758 83.4872 70.3137C83.2523 70.1511 82.9903 69.9884 82.7283 69.8348C82.5566 69.7174 82.3669 69.618 82.1952 69.5005C82.0145 69.3831 81.8247 69.2837 81.644 69.1753C81.4995 69.0849 81.3368 69.0036 81.1922 68.9042C80.8489 68.6783 80.5146 68.4434 80.1893 68.1994C80.0267 68.0729 79.864 67.9555 79.7104 67.8109C79.6562 67.7748 79.602 67.7296 79.5478 67.6844C79.4394 67.6031 79.34 67.5308 79.2225 67.4405C79.1051 67.3591 79.0057 67.2778 78.8882 67.1875C78.8611 67.1694 78.843 67.1513 78.8159 67.1333C77.7497 66.311 76.6745 65.3623 76.1143 64.4678C76.1053 64.4588 76.0963 64.4497 76.0963 64.4407C76.0601 64.3955 76.0149 64.3594 75.9788 64.3142C75.5993 63.9889 75.6716 63.5643 75.7168 63.1035C75.7168 63.1035 75.7168 63.0944 75.7168 63.0854C75.7168 62.6065 75.5813 62.1909 75.3554 61.8566C75.3283 61.7933 75.2921 61.7481 75.2379 61.703C74.8494 61.2602 74.3253 60.953 73.7651 60.7814C73.6838 60.7542 73.6025 60.7271 73.5212 60.7091C73.5121 60.7091 73.5121 60.7091 73.5121 60.7091C72.9881 60.6097 72.4189 60.6006 71.8767 60.691C71.6147 60.7271 71.3617 60.7994 71.1178 60.8807C71.0816 60.8898 71.0455 60.9079 71.0093 60.9259C70.9099 60.953 70.8286 60.9982 70.7292 61.0434C70.6389 61.0795 70.5576 61.1247 70.4672 61.1789C70.2232 61.3235 70.0064 61.4952 69.7986 61.6849C69.5998 61.8837 69.4191 62.1186 69.2474 62.3806C70.404 62.0192 71.5876 61.8295 72.2743 63.0041C74.2169 66.6634 77.56 69.0578 80.4875 71.7142C79.7918 71.8407 79.087 71.8949 78.4003 71.8949C78.075 71.8949 77.7588 71.8768 77.4516 71.8497C75.7981 71.7232 74.1717 71.2624 72.6538 70.5486C72.5002 70.4673 72.3285 70.4041 72.1659 70.3137C72.0213 70.2234 71.8587 70.1511 71.7051 70.0607C71.5515 69.9613 71.3798 69.871 71.2262 69.7716C71.0816 69.6812 70.919 69.5909 70.7654 69.4825C70.6208 69.374 70.4762 69.2747 70.3226 69.1662C70.0245 68.9584 69.7444 68.7416 69.4552 68.4976C69.1842 68.2717 68.9041 68.0278 68.6421 67.7748C68.5065 67.6483 68.38 67.5218 68.2535 67.3953C67.0609 66.1665 66.0941 64.766 65.3983 63.248C65.2718 62.995 65.1724 62.724 65.064 62.4619C65.055 62.4168 65.0369 62.3806 65.0279 62.3445C65.0098 62.2812 64.9917 62.2361 64.9737 62.1909C64.8652 61.9018 64.6936 61.6668 64.4767 61.4771C63.8171 61.0163 63.0311 60.7542 62.2269 60.691C62.1727 60.691 62.1004 60.682 62.0372 60.682C61.1878 60.682 60.2933 60.8807 59.5615 61.2422C59.4621 61.2783 59.3898 61.3235 59.3085 61.3867C58.8657 61.6668 58.4501 62.0282 58.1248 62.4891C58.6037 62.5162 59.0374 62.5342 59.444 62.5704C59.6428 62.5884 59.8416 62.6155 60.0313 62.6336C60.3114 62.6788 60.5915 62.742 60.8535 62.8414C61.4679 63.0583 62.0281 63.4468 62.5702 64.1787C65.046 67.4314 66.8982 71.0727 69.0035 74.5965C68.9493 74.6055 68.8228 74.6327 68.5969 74.6778C68.9673 75.3555 69.3107 76.006 69.663 76.6566C69.6179 76.7289 69.5727 76.7921 69.5275 76.8463C68.4613 76.1958 67.3952 75.5543 66.3199 74.9128C66.2748 74.9489 66.2296 74.967 66.1935 75.0031C66.338 75.3465 66.5097 75.6988 66.7085 76.1416C65.0369 75.988 64.0792 74.6327 62.507 73.964C62.7961 74.5694 62.9859 74.9579 63.2298 75.491C61.224 75.0302 59.8415 73.6839 58.0706 72.681C58.1158 73.1689 58.1339 73.4761 58.17 73.9008C56.3448 72.8708 55.2064 71.2173 53.6704 69.862C53.8782 70.5577 54.086 71.2624 54.3119 72.0033C54.1312 71.9943 53.9595 71.904 53.7878 71.7594C53.0469 71.1179 52.3241 69.3289 51.6374 67.3772C51.547 67.1333 51.4657 66.8803 51.3663 66.6182C51.1224 65.9225 50.8784 65.2268 50.6345 64.5672C50.5531 64.3503 50.4809 64.1425 50.3995 63.9257C50.1104 63.2119 49.8303 62.5613 49.5412 62.0463C49.4328 61.8566 49.3334 61.6759 49.2159 61.5313C49.1617 61.45 49.1075 61.3867 49.0533 61.3235C48.99 61.3325 48.9177 61.3596 48.8726 61.3777C49.6315 68.3079 54.8359 82.7103 43.4332 82.6742C43.1351 82.7284 42.5749 82.6561 41.8701 82.5115C41.852 82.5115 41.834 82.5115 41.8249 82.5025C40.3612 82.2766 38.9426 81.8068 37.5873 81.2466C37.5512 81.2285 37.515 81.2104 37.4789 81.1924C35.8525 80.578 34.2894 79.8642 33.3858 79.1865C33.3136 79.1413 33.2413 79.1142 33.169 79.069C32.7805 78.8793 32.5998 78.5992 32.5998 78.1745C32.5907 78.1113 32.5907 78.048 32.6088 78.0029C32.654 77.5782 32.5184 77.1626 32.2745 76.8012C32.1751 76.6747 32.0757 76.5662 31.9673 76.4578C31.9221 76.3946 31.8589 76.3403 31.8046 76.2952C31.4794 76.0331 31.1089 75.8344 30.7204 75.7259C30.621 75.6898 30.5216 75.6808 30.4132 75.6627C30.359 75.6537 30.3048 75.6446 30.2686 75.6537C30.1241 75.6356 29.9614 75.6356 29.8259 75.6627C29.7175 75.6808 29.6271 75.6988 29.5277 75.735C29.347 75.7982 29.1663 75.8976 29.0127 76.0422C28.9675 76.0693 28.9223 76.1235 28.8772 76.1596C28.3712 76.7289 27.9465 76.6295 27.3412 76.3584C18.7846 72.681 12.1978 66.3833 6.03563 59.6248C5.3128 58.911 4.96945 58.0978 5.0327 57.1311C5.93624 47.8155 5.27666 37.3706 11.4027 29.6363C11.5111 29.5007 11.6015 29.3833 11.7099 29.2568C11.8273 29.1303 11.9267 29.0219 12.0442 28.9044C15.812 25.1095 21.8928 27.3955 26.4918 28.6062C32.4191 30.5669 38.5631 31.9855 44.2555 34.5606C48.6647 34.9581 52.812 33.5486 56.9231 31.8771C57.6459 31.5879 58.3869 31.2807 59.1007 30.9735C59.3446 30.8651 59.5795 30.7747 59.8235 30.6753C60.3114 30.4675 60.7993 30.2597 61.2872 30.07C62.0101 29.7628 62.751 29.4827 63.4828 29.2116C63.9617 29.0309 64.4586 28.8592 64.9466 28.6966C66.4284 28.2087 67.9102 27.8111 69.4281 27.5672C73.1326 27.1335 77.7136 26.5281 81.4633 27.7298C81.8789 27.8653 82.2765 28.0189 82.665 28.1996C83.6408 28.6514 84.5173 29.2568 85.3034 30.07C85.457 30.2236 85.6106 30.3952 85.7551 30.5669C84.3275 30.5308 82.8367 30.3501 81.7615 31.4163C81.3639 31.8861 81.391 32.5095 81.7705 32.9161C81.8609 33.0246 81.9783 33.0968 82.1139 33.1691C82.2494 33.2233 82.412 33.2775 82.5837 33.2866C84.2101 33.0336 85.4479 33.2324 86.3786 33.7655C86.5502 33.8739 86.7129 33.9733 86.8484 34.0907C87.002 34.2082 87.1466 34.3257 87.2731 34.4702C87.4628 34.669 87.6526 34.8859 87.8062 35.1298C88.2579 35.7984 88.5832 36.6026 88.8272 37.4881C88.8723 37.6778 88.9266 37.8675 88.9627 38.0573C89.1253 38.8434 89.2518 39.6837 89.3422 40.542C85.9358 40.4065 85.1046 40.9125 84.3998 40.2981C84.3004 40.1987 84.2191 40.1083 84.1107 39.9728C84.0113 39.8373 83.9209 39.6927 83.8035 39.503C83.4782 38.9608 83.0535 38.1476 82.3849 36.9459C82.2855 36.955 82.1952 36.973 82.0958 36.973C81.5717 41.3191 84.4811 45.1591 86.2701 48.8636C83.9481 49.0082 81.382 48.8546 80.3339 51.4568C83.5053 50.3274 87.4086 49.5774 88.4386 53.9416C84.9329 53.5801 82.5747 55.1523 81.2736 58.387C83.7854 56.6341 88.2308 53.6976 90.327 57.6732C90.7427 58.5315 91.2487 59.3357 91.7727 60.2663C90.065 60.691 88.791 61.5494 88.005 63.2661C91.0951 61.7752 93.7153 61.8024 95.4772 65.2087C92.5227 66.4646 91.592 68.9223 91.6282 71.9582C93.2545 69.365 95.5676 65.7779 99.0101 68.1994C96.7422 70.5486 96.444 73.2412 97.2934 76.1145C98.3505 73.4219 99.0462 68.7867 102.922 69.365C102.66 71.7142 102.2 73.8466 103.79 75.9066C103.889 72.8798 103.889 69.9162 107.476 68.6422C107.35 70.6932 107.874 72.4009 109.329 73.8646C109.003 72.3648 108.886 71.2444 109.012 70.3137C109.048 70.0698 109.112 69.8348 109.184 69.5999C109.22 69.4825 109.265 69.374 109.319 69.2566C109.419 69.0397 109.527 68.841 109.672 68.6422C109.807 68.4344 109.961 68.2356 110.151 68.0549C110.322 67.8651 110.548 67.6754 110.765 67.4856C111.109 67.2146 111.497 66.9254 111.949 66.6273C112.247 66.4375 112.572 66.2297 112.925 66.0309C113.684 67.0248 114.732 67.4947 116.096 67.576C113.602 65.1997 113.891 63.1848 116.873 62.218C115.87 61.6849 116.43 61.0343 116.647 60.4109C118.337 55.6583 117.921 51.0683 115.68 46.5867C115.048 44.6622 112.825 42.7738 113.584 40.6504C113.593 40.6324 113.602 40.6143 113.611 40.6053C114.045 39.765 114.723 39.8463 115.418 40.1806C115.446 40.1896 115.473 40.2077 115.509 40.2258C116.575 40.6595 117.876 41.6715 119.268 41.8883C120.343 41.9425 121.355 41.4817 122.312 40.786C122.412 40.7047 122.484 40.6233 122.565 40.533C122.927 40.0722 123.324 39.7559 123.74 39.5933C123.749 39.5933 123.749 39.5933 123.758 39.5843C123.776 39.5752 123.794 39.5662 123.812 39.5572C124.255 39.2229 124.842 39.25 125.321 39.4668C125.339 39.4668 125.357 39.4758 125.366 39.4849C125.89 39.6746 126.252 40.0722 126.216 40.533C126.252 40.8763 126.053 41.2378 125.502 41.5178C124.933 41.9064 124.345 42.2497 123.749 42.6111C122.9 43.1442 122.059 43.6954 121.21 44.2465C120.794 44.5537 120.415 44.861 120.045 45.2043C120.036 45.2043 120.036 45.2133 120.036 45.2224C120.017 45.2404 119.999 45.2585 119.981 45.2766C119.963 45.2856 119.954 45.3127 119.945 45.3308C119.692 45.7645 119.575 46.1621 119.566 46.4964C119.584 47.1921 120.081 47.7613 120.767 47.9059Z" fill="black"/>
<path d="M80.4875 71.6958C79.7918 71.8223 79.087 71.8765 78.4003 71.8765C78.075 71.8765 77.7588 71.8585 77.4516 71.8314C75.7981 71.7049 74.1717 71.244 72.6538 70.5302C72.5002 70.4489 72.3285 70.3857 72.1659 70.2953C72.0213 70.205 71.8587 70.1327 71.7051 70.0423C71.5515 69.9429 71.3798 69.8526 71.2262 69.7532C71.0816 69.6628 70.919 69.5725 70.7654 69.4641C70.6208 69.3556 70.4762 69.2563 70.3226 69.1478C70.0245 68.94 69.7444 68.7232 69.4552 68.4792C69.1842 68.2533 68.9041 68.0094 68.642 67.7564C68.5065 67.6299 68.38 67.5034 68.2535 67.3769C67.0609 66.1481 66.0941 64.7476 65.3983 63.2296C65.2718 62.9766 65.1724 62.7056 65.064 62.4436C65.055 62.3984 65.0369 62.3622 65.0279 62.3261C65.0098 62.2628 64.9917 62.2177 64.9737 62.1725C64.9195 62.0279 64.8743 61.8743 64.8291 61.7298L69.7624 61.6665H69.7986C69.5998 61.8653 69.4191 62.1002 69.2474 62.3622C70.404 62.0008 71.5876 61.8111 72.2743 62.9857C74.2169 66.645 77.56 69.0394 80.4875 71.6958Z" fill="white"/>
<path d="M92.7666 56.7154C92.6762 56.7515 92.5949 56.7876 92.5136 56.8238C91.1041 53.8782 89.6946 50.9327 88.285 47.9962V47.9871C88.4296 47.8787 88.5742 47.7703 88.7097 47.6619C89.1344 47.3366 89.55 47.0204 90.0198 46.668C91.5649 49.8755 92.7305 53.1373 92.7666 56.7154Z" fill="white"/>
<path d="M90.815 30.3233C92.333 29.5282 94.2575 28.1368 96.2634 27.0073C94.6551 27.8386 92.8299 28.968 90.815 30.3233ZM92.7757 42.4037C92.7757 42.8464 92.7848 43.2892 92.7848 43.7319C92.8299 43.2801 92.839 42.8283 92.7757 42.4037ZM97.9349 34.9495C99.1999 34.055 100.546 33.2779 101.703 32.537C100.393 33.2779 99.1186 34.055 97.9349 34.9495Z" fill="#4CA3DB"/>
<path d="M107.702 48.2399C107.639 48.0682 107.594 47.8875 107.549 47.7339V47.7068C107.07 45.9991 106.934 44.2734 106.97 42.5386C106.97 42.0145 106.997 41.4814 107.025 40.9574C107.079 40.0809 107.151 39.2045 107.232 38.3281C107.332 36.2228 107.214 34.1176 106.808 32.0575C106.799 32.0033 106.79 31.9671 106.781 31.922C106.275 28.5969 105.29 26.6362 103.835 25.7779C103.754 25.7146 103.681 25.6785 103.591 25.6423C101.92 24.8201 99.6336 25.3171 96.7061 26.7808C96.5706 26.8621 96.4351 26.9163 96.2905 27.0067C94.2756 28.1361 92.3511 29.5276 90.8422 30.3227C90.8331 30.3227 90.8241 30.3227 90.815 30.3317C90.5169 30.5395 90.2006 30.7473 89.8844 30.9642C90.6434 32.3105 91.3752 33.6116 92.1433 34.9759C92.6854 34.6145 93.2094 34.2802 93.7245 33.9459C94.2304 33.6116 94.7274 33.2863 95.2153 32.9791C95.6942 32.6719 96.164 32.3828 96.6067 32.1117C97.0676 31.8406 97.5013 31.5876 97.9078 31.3618C100.158 30.1149 101.938 29.5276 103.185 30.0968C103.293 30.142 103.392 30.2052 103.492 30.2594C103.591 30.3317 103.691 30.404 103.781 30.4763C103.844 30.5395 103.907 30.5937 103.953 30.657C104.052 30.7564 104.133 30.8648 104.215 31.0003C104.242 31.0365 104.269 31.0726 104.296 31.1178C104.377 31.2533 104.449 31.3979 104.522 31.5425C104.558 31.6238 104.594 31.6961 104.63 31.7864C104.657 31.8768 104.693 31.9581 104.73 32.0575C104.757 32.1117 104.775 32.184 104.793 32.2382C104.847 32.3918 104.892 32.5635 104.928 32.7261C104.983 32.9249 105.028 33.1327 105.064 33.3405C105.082 33.4489 105.109 33.5483 105.127 33.6658C105.145 33.8013 105.154 33.9188 105.172 34.0633C105.218 34.3886 105.254 34.741 105.272 35.1115C105.281 35.2289 105.29 35.3373 105.29 35.4548C105.362 36.6927 105.344 38.1383 105.236 39.8551C105.181 39.846 105.136 39.846 105.091 39.837C105.01 39.6111 104.928 39.2768 104.856 38.8702C104.838 38.816 104.829 38.7618 104.82 38.7076C104.784 38.5088 104.748 38.2919 104.702 38.0751C104.684 37.9757 104.666 37.8763 104.648 37.7679C104.612 37.6052 104.585 37.4336 104.549 37.2709C104.531 37.1083 104.495 36.9276 104.459 36.7559C104.404 36.4758 104.341 36.1776 104.287 35.8975C104.278 35.8343 104.26 35.7801 104.242 35.7168C104.206 35.5632 104.178 35.4187 104.133 35.2741C104.124 35.2289 104.115 35.1928 104.097 35.1476C104.07 35.0211 104.043 34.9036 103.998 34.7862C103.962 34.6416 103.916 34.5061 103.871 34.3706C103.808 34.1898 103.736 34.0091 103.681 33.8465C103.51 33.4399 103.32 33.1056 103.094 32.8616C103.031 32.7984 102.968 32.7351 102.904 32.69C102.859 32.6448 102.805 32.5996 102.76 32.5725C102.706 32.5364 102.642 32.5093 102.597 32.4822C102.453 32.4279 102.29 32.4008 102.127 32.4279C102.001 32.446 101.874 32.4731 101.73 32.5364C100.564 33.2773 99.227 34.0633 97.9621 34.9488C97.944 34.9488 97.9259 34.9579 97.9078 34.9759C96.3718 36.1234 94.9804 37.4336 93.8058 39.0057C93.7967 39.0238 93.7877 39.0328 93.7787 39.0509C93.7696 39.0599 93.7696 39.0599 93.7606 39.069C93.0287 39.9364 92.839 40.9574 92.8028 42.0145V42.403C92.8661 42.8277 92.857 43.2795 92.8119 43.7312C92.8119 43.8126 92.8119 43.8668 92.8028 43.9481C92.7757 44.3999 92.7125 44.8607 92.6944 45.3034C92.6944 45.3124 92.6944 45.3124 92.6944 45.3215C92.6131 45.8726 92.6854 46.3515 92.8661 46.8214C92.9022 46.9298 92.9384 47.0201 92.9835 47.1105C93.0197 47.1828 93.0558 47.2551 93.092 47.3183C93.1371 47.3996 93.1733 47.4629 93.2185 47.5261C95.5677 51.5198 95.9472 56.2363 96.6971 60.7088C96.7152 60.8443 96.7332 60.9889 96.7784 61.1244C96.8146 61.3503 96.8778 61.5672 96.9591 61.784C96.9862 61.8834 97.0224 61.9647 97.0585 62.0551C97.0766 62.1093 97.0947 62.1635 97.1218 62.2087C97.1669 62.299 97.2121 62.3713 97.2483 62.4617C97.3296 62.6243 97.4199 62.796 97.5284 62.9405C97.6187 63.0761 97.7091 63.2206 97.8085 63.3471C97.8175 63.3652 97.8265 63.3742 97.8356 63.3833C97.935 63.5098 98.0434 63.6272 98.1518 63.7537C98.2873 63.8983 98.4319 64.0429 98.5765 64.1694C98.721 64.2959 98.8656 64.4133 99.0102 64.5308C99.1638 64.6482 99.3264 64.7567 99.48 64.8561C99.6246 64.9645 99.7782 65.0458 99.9227 65.1361C100.085 65.2265 100.266 65.3169 100.42 65.3891C100.582 65.4705 100.754 65.5427 100.926 65.606C101.034 65.6602 101.133 65.6963 101.242 65.7325C101.531 65.8409 101.82 65.9222 102.118 66.0036C102.299 66.0487 102.498 66.1029 102.679 66.1391C102.868 66.1752 103.058 66.2114 103.248 66.2385C104.034 66.365 104.504 66.1572 104.784 65.3801C105.525 63.311 106.356 61.2871 107.088 59.2089C107.919 57.3115 108.226 55.5496 108.262 53.86C108.38 51.9987 108.235 50.1283 107.702 48.2399ZM102.001 64.2236C101.73 63.7718 102.263 62.534 103.085 61.7388C103.447 62.1816 102.923 63.3833 102.001 64.2236ZM105.76 56.2543C105.714 56.3357 105.687 56.417 105.66 56.5073C105.416 57.1127 105.263 57.7904 105.055 58.4409C104.811 59.0553 104.513 59.6245 104.106 60.0944C103.736 58.8023 105.525 55.9652 105.877 54.4472C105.949 54.4653 106.022 54.4834 106.085 54.5015C105.986 55.0888 105.94 55.6941 105.76 56.2543Z" fill="#4CA3DB"/>
<path d="M125.366 39.4759C125.827 39.6928 126.18 40.1084 126.216 40.524C126.252 40.0632 125.891 39.6747 125.366 39.4759ZM125.15 61.8747C124.833 63.5734 124.4 65.1907 123.839 66.7177C124.833 64.1607 125.457 61.4862 125.628 58.7665C125.538 59.7966 125.375 60.8447 125.15 61.8747ZM123.749 39.5843C123.333 39.738 122.936 40.0542 122.575 40.524C122.493 40.6144 122.421 40.6957 122.322 40.777C122.8 40.4427 123.27 40.0452 123.731 39.6024C123.74 39.5934 123.758 39.5843 123.767 39.5753C123.758 39.5753 123.758 39.5753 123.749 39.5843ZM121.21 44.2466C122.059 43.6955 122.9 43.1443 123.749 42.6112C122.891 43.1353 122.014 43.6503 121.21 44.2466ZM119.999 45.2496C119.999 45.2586 119.99 45.2586 119.99 45.2676C120.008 45.2496 120.027 45.2315 120.045 45.2134C120.017 45.2315 120.017 45.2405 119.999 45.2496ZM119.575 46.4874C119.53 47.2825 120.054 47.7885 120.767 47.906C120.081 47.7614 119.584 47.1922 119.575 46.4874ZM115.518 40.2168C116.06 40.4879 116.602 40.8854 117.045 41.0842C117.822 41.6083 118.581 41.8522 119.286 41.8793C117.876 41.6535 116.584 40.6505 115.518 40.2168ZM109.69 68.6332C109.826 68.4254 109.988 68.2357 110.169 68.0459C109.979 68.2266 109.826 68.4164 109.69 68.6332ZM80.3159 68.2266C80.1713 68.1182 80.0177 68.0098 79.8551 67.8923C79.6472 67.7477 79.4304 67.5761 79.2045 67.4134C79.846 67.9375 80.4966 68.4164 81.1833 68.8772C80.9574 68.6874 80.6592 68.4706 80.3159 68.2266ZM75.7078 63.1758V63.0764C75.6626 63.5282 75.5903 63.9619 75.9698 64.2872C76.006 64.3324 76.0512 64.3685 76.0873 64.4137C75.8253 63.989 75.6807 63.5734 75.7078 63.1758ZM73.7652 60.7634C74.3254 60.926 74.8494 61.2332 75.238 61.685C74.8946 61.2242 74.3615 60.926 73.7652 60.7634ZM71.416 72.7624C73.7381 76.6476 76.5662 79.6745 79.7918 81.852C76.4577 79.4938 73.6387 76.2862 71.416 72.7624ZM70.1691 61.3416C70.1239 61.3687 70.0878 61.3958 70.0426 61.432C69.9432 61.5043 69.8529 61.5766 69.7625 61.6669H69.7986C69.9974 61.4772 70.2143 61.3055 70.4673 61.1609C70.3588 61.2061 70.2595 61.2694 70.1691 61.3416ZM66.8079 33.5848C66.9344 33.4583 67.0338 33.3047 67.088 33.1331C67.0157 33.3047 66.9163 33.4583 66.8079 33.5848ZM61.1969 34.7414C60.5012 34.904 59.8145 35.148 59.173 35.4371C60.9078 34.7323 62.6064 34.5426 63.9798 34.3799C62.9588 34.4251 61.9107 34.4161 61.1969 34.7414ZM62.227 60.664C63.0311 60.7272 63.8172 60.9893 64.4768 61.4501C63.9437 60.935 63.1215 60.682 62.227 60.664ZM60.0314 62.5976C60.3115 62.6518 60.5915 62.715 60.8536 62.8054C60.5915 62.706 60.3115 62.6427 60.0314 62.5976ZM58.1249 62.462C58.4502 62.0012 58.8568 61.6398 59.3085 61.3597C58.7935 61.6398 58.3869 62.0103 58.1249 62.462ZM37.5874 81.1834C38.9427 81.7526 40.3613 82.2135 41.825 82.4393C40.6504 82.2044 39.0873 81.7346 37.5874 81.1834ZM32.5908 78.1204C32.5908 78.536 32.7715 78.8161 33.16 79.0149C33.2413 79.0601 33.3046 79.0872 33.3769 79.1324C32.907 78.78 32.6179 78.4366 32.5908 78.1204Z" fill="#4CA3DB"/>
<path d="M119.99 45.2678C119.99 45.2588 119.999 45.2588 119.999 45.2497C120.017 45.2317 120.026 45.2226 120.045 45.2136C120.045 45.2046 120.045 45.1955 120.054 45.1955C120.243 44.9425 120.514 44.6986 120.867 44.4727C120.984 44.4004 121.102 44.3191 121.219 44.2468C122.023 43.6505 122.9 43.1355 123.758 42.6114C124.336 42.2319 124.924 41.8795 125.511 41.5181C125.99 41.2019 126.207 40.8495 126.225 40.5333C126.189 40.1176 125.836 39.702 125.375 39.4851C125.366 39.4761 125.348 39.4671 125.33 39.4671C124.906 39.3315 124.354 39.3315 123.821 39.5574C123.803 39.5665 123.785 39.5755 123.767 39.5845C123.758 39.5936 123.74 39.6026 123.731 39.6116C123.27 40.0453 122.8 40.4519 122.321 40.7862C121.291 41.8434 120.252 42.0602 119.277 41.8886C118.572 41.8615 117.813 41.6175 117.036 41.0934C116.602 40.8947 116.06 40.4971 115.509 40.226C115.473 40.208 115.446 40.1899 115.418 40.1809C114.696 39.9008 114.072 39.9008 113.611 40.6055C113.602 40.6146 113.593 40.6326 113.584 40.6507C112.834 42.765 115.057 44.6624 115.68 46.587C117.921 51.0686 118.328 55.6585 116.647 60.4112C116.43 61.0437 115.87 61.6852 116.873 62.2183C113.891 63.185 113.602 65.1909 116.096 67.5763C114.741 67.4859 113.693 67.0251 112.925 66.0312C112.572 66.23 112.247 66.4378 111.949 66.6275C111.506 66.9257 111.109 67.2148 110.765 67.4859C110.548 67.6757 110.331 67.8654 110.151 68.0551C109.97 68.2449 109.807 68.4346 109.672 68.6424C109.527 68.8322 109.419 69.04 109.32 69.2568C109.265 69.3743 109.22 69.4827 109.184 69.6002C109.103 69.8351 109.048 70.07 109.012 70.314C108.877 71.2537 109.003 72.3741 109.329 73.8649C107.865 72.4012 107.35 70.6844 107.476 68.6424C103.889 69.9164 103.889 72.8801 103.79 75.9069C102.2 73.8378 102.66 71.7054 102.922 69.3653C99.0462 68.787 98.3505 73.4131 97.2934 76.1147C96.444 73.2415 96.7422 70.5489 99.0101 68.1997C95.5586 65.7873 93.2545 69.3743 91.6282 71.9584C91.592 68.9225 92.5227 66.4649 95.4772 65.209C93.7153 61.8026 91.0951 61.7755 88.005 63.2664C88.791 61.5496 90.0741 60.6913 91.7727 60.2666C91.2487 59.336 90.7427 58.5318 90.3271 57.6734C88.2308 53.6979 83.7854 56.6434 81.2736 58.3872C82.5747 55.1526 84.9329 53.5804 88.4387 53.9418C87.4086 49.5777 83.5053 50.3276 80.3339 51.4571C81.373 48.8549 83.9481 49.0175 86.2702 48.8639C84.4811 45.1504 81.5717 41.3193 82.0958 36.9733C82.1952 36.9733 82.2855 36.9552 82.3849 36.9462C83.0536 38.1479 83.4782 38.9611 83.8035 39.5032C83.921 39.693 84.0113 39.8466 84.1107 39.9731C84.2191 40.1086 84.3004 40.1989 84.3998 40.2983C85.1046 40.9127 85.9358 40.4158 89.3422 40.5423C89.2518 39.6839 89.1344 38.8436 88.9627 38.0575C88.9175 37.8678 88.8633 37.6781 88.8272 37.4883C88.5832 36.6028 88.2579 35.7987 87.8062 35.1301C87.6526 34.8952 87.4628 34.6783 87.2731 34.4705C87.1376 34.335 87.002 34.2085 86.8484 34.091C86.7039 33.9735 86.5412 33.8741 86.3786 33.7657C85.4389 33.2326 84.2101 33.0339 82.5837 33.2868C82.412 33.2778 82.2494 33.2326 82.1139 33.1694C81.9783 33.0971 81.8609 33.0248 81.7705 32.9164C81.391 32.5098 81.3639 31.8954 81.7615 31.4165C82.8367 30.3503 84.3275 30.531 85.7551 30.5672C85.6106 30.3955 85.457 30.2238 85.3034 30.0702C84.5263 29.257 83.6408 28.6517 82.665 28.1999C82.2675 28.0282 81.879 27.8656 81.4633 27.7301C77.7136 26.5193 73.1327 27.1247 69.4281 27.5674C67.9102 27.8114 66.4284 28.2089 64.9466 28.6969C64.4587 28.8595 63.9707 29.0312 63.4828 29.2119C62.751 29.4829 62.0101 29.763 61.2872 30.0702C60.7993 30.26 60.3114 30.4678 59.8235 30.6756C59.5795 30.775 59.3446 30.8654 59.1007 30.9738C58.3869 31.281 57.646 31.5882 56.9231 31.8773C52.812 33.5489 48.6647 34.9584 44.2555 34.5608C38.5541 31.9857 32.4191 30.5672 26.4918 28.6065C21.8928 27.3958 15.812 25.1098 12.0442 28.9047C11.9267 29.0221 11.8274 29.1306 11.7099 29.2571C11.6015 29.3835 11.5111 29.501 11.4027 29.6365C5.27668 37.3709 5.93626 47.8248 5.03272 57.1313C4.96947 58.1071 5.31282 58.9113 6.03565 59.6251C12.1978 66.3836 18.7846 72.6813 27.3412 76.3045C27.9465 76.5755 28.3622 76.6749 28.8772 76.1057C28.9224 76.0696 28.9675 76.0153 29.0127 75.9882C29.1663 75.8527 29.347 75.7443 29.5277 75.681C29.6271 75.6449 29.7175 75.6268 29.8259 75.6087C29.9614 75.5816 30.1241 75.5816 30.2686 75.5997C30.3138 75.5907 30.368 75.5997 30.4132 75.6087C30.5216 75.6268 30.621 75.6359 30.7204 75.672C31.118 75.7804 31.4794 75.9792 31.8047 76.2412C31.8679 76.2954 31.9312 76.3496 31.9673 76.4039C32.0848 76.5123 32.1842 76.6207 32.2745 76.7472C32.5185 77.1086 32.654 77.5152 32.6088 77.9489C32.5998 78.0122 32.5998 78.0754 32.5998 78.1206C32.6269 78.4368 32.916 78.7802 33.3859 79.1235C34.7321 79.8283 36.0874 80.5421 37.4789 81.1294C37.515 81.1475 37.5512 81.1655 37.5873 81.1836C39.0962 81.7348 40.6594 82.1956 41.8249 82.4395C41.834 82.4486 41.852 82.4486 41.8701 82.4486C42.3851 82.5389 42.9002 82.5931 43.4332 82.6112C54.8359 82.6564 49.6406 68.2539 48.8726 61.3147C48.9268 61.2966 48.9991 61.2695 49.0533 61.2605C49.1165 61.3238 49.1707 61.396 49.2159 61.4683C49.3334 61.6129 49.4328 61.7936 49.5412 61.9833C49.8303 62.4984 50.1104 63.1489 50.3996 63.8627C50.4809 64.0705 50.5532 64.2783 50.6345 64.5042C50.8784 65.1638 51.1224 65.8595 51.3663 66.5553C51.4657 66.8173 51.5471 67.0703 51.6374 67.3142C52.3331 69.2659 53.0469 71.0639 53.7878 71.6964C53.9595 71.841 54.1312 71.9313 54.3119 71.9404C54.095 71.1995 53.8872 70.4947 53.6704 69.799C55.2064 71.1452 56.3358 72.7987 58.17 73.8378C58.1339 73.4222 58.1158 73.115 58.0706 72.618C59.8506 73.6119 61.233 74.9672 63.2298 75.428C62.9859 74.904 62.7961 74.5064 62.507 73.9011C64.0792 74.5787 65.0369 75.925 66.7085 76.0786C66.5097 75.6358 66.338 75.2835 66.1935 74.9401C66.2296 74.904 66.2748 74.8859 66.32 74.8498C67.3861 75.4913 68.4523 76.1328 69.5275 76.7834C69.5727 76.7201 69.6179 76.6569 69.6631 76.5936C69.3107 75.9431 68.9673 75.2925 68.5969 74.6149C68.8137 74.5697 68.9493 74.5426 69.0035 74.5335C66.9073 71.0188 65.046 67.3775 62.5703 64.1157C62.0281 63.3838 61.4679 62.9953 60.8535 62.7785C60.5915 62.6791 60.3114 62.6249 60.0313 62.5706C59.8416 62.5526 59.6428 62.5255 59.444 62.5074C59.0284 62.4712 58.6037 62.4532 58.1248 62.4261C58.3869 61.9833 58.8025 61.6039 59.3085 61.3238C59.3898 61.2605 59.4621 61.2153 59.5615 61.1792C60.3114 60.7636 61.1788 60.5738 62.0372 60.619C62.1095 60.619 62.1727 60.628 62.2269 60.628C63.1214 60.6461 63.9436 60.8991 64.4767 61.4141C64.6032 61.4954 64.7117 61.5858 64.8291 61.6852L69.7625 61.6219C69.8528 61.5316 69.9432 61.4593 70.0425 61.387C70.0877 61.3509 70.1239 61.3237 70.169 61.2966C70.2684 61.2244 70.3588 61.1611 70.4672 61.1159C70.5576 61.0617 70.6389 61.0165 70.7292 60.9804C70.8286 60.9352 70.9099 60.89 71.0093 60.8629C71.0455 60.8449 71.0816 60.8268 71.1178 60.8178C71.3617 60.7274 71.6147 60.6642 71.8767 60.628C72.4189 60.5196 72.9881 60.5286 73.5121 60.6461C73.5121 60.6461 73.5122 60.6461 73.5212 60.6461C73.6025 60.6642 73.6838 60.6913 73.7651 60.7184C74.3705 60.881 74.8946 61.1792 75.2379 61.64C75.2921 61.6942 75.3283 61.7394 75.3554 61.7936C75.4277 61.8478 75.4728 61.9201 75.4999 61.9743C75.7439 62.2996 75.7349 62.661 75.7078 63.0134C75.7078 63.0224 75.7078 63.0314 75.7078 63.0314V63.1308C75.6806 63.5284 75.8343 63.944 76.0872 64.3687C76.0872 64.3777 76.0963 64.3868 76.1053 64.3958C76.9275 65.3716 77.8492 66.2481 78.8069 67.0612C78.834 67.0793 78.8521 67.0974 78.8792 67.1155C78.9967 67.2058 79.096 67.2871 79.2135 67.3684C79.4303 67.5311 79.6472 67.7028 79.864 67.8473C80.0267 67.9648 80.1803 68.0732 80.3249 68.1816C80.6682 68.4256 80.9664 68.6424 81.1923 68.8322C81.3368 68.9316 81.4995 69.0129 81.644 69.1032C81.8247 69.2117 82.0145 69.3111 82.1952 69.4285C82.3669 69.546 82.5566 69.6454 82.7283 69.7628C82.9903 69.9164 83.2523 70.0791 83.4873 70.2417C83.8938 70.5037 84.2462 70.7838 84.4992 71.0549C85.1136 71.6783 85.2943 72.2927 84.5986 72.8981C84.4992 72.9794 84.3998 73.0517 84.2733 73.133C84.1017 73.2595 83.8758 73.368 83.6228 73.4854C83.3698 73.6119 83.0716 73.7203 82.7373 73.8378C82.6199 73.883 82.5114 73.9191 82.3849 73.9553C78.59 75.0214 74.994 74.1992 71.4069 72.7174C73.6296 76.2412 76.4487 79.4488 79.7827 81.807C79.7918 81.8161 79.8098 81.8251 79.8189 81.8251C83.3246 84.3279 87.4177 85.8911 91.9625 85.9453C95.0255 86.144 98.233 85.8459 101.513 85.0237C102.66 84.7616 103.79 84.4544 104.883 84.084C104.91 84.084 104.937 84.0749 104.955 84.0659C108.994 82.8913 112.663 80.8041 115.762 78.0754C115.906 77.9489 116.06 77.8224 116.195 77.6959C119.349 74.8227 121.87 71.2988 123.514 67.4317C123.541 67.3865 123.559 67.3413 123.577 67.2962C123.668 67.0883 123.74 66.8715 123.83 66.6456C124.391 65.1186 124.824 63.5013 125.141 61.8026C125.366 60.7726 125.529 59.7245 125.61 58.6854C125.619 58.5679 125.619 58.4595 125.628 58.3421C125.818 54.4297 125.068 50.427 123.198 46.6231C123.108 46.7406 123.026 46.849 122.936 46.9394C122.918 46.9665 122.9 46.9845 122.882 46.9936C122.818 47.0749 122.746 47.1381 122.674 47.2014C122.602 47.2646 122.529 47.3369 122.448 47.3821C121.861 47.8158 121.264 47.9333 120.767 47.8248C120.767 47.8248 120.767 47.8248 120.758 47.8248C120.054 47.7074 119.52 47.2014 119.566 46.4063C119.539 46.0358 119.656 45.6383 119.945 45.2407C119.963 45.304 119.972 45.2768 119.99 45.2678ZM26.9075 72.4464C24.3595 73.0788 21.0344 69.3653 18.9202 68.0371C18.5045 67.7479 18.2696 67.3594 18.369 66.8534C18.6943 66.8263 19.0105 66.7902 19.2364 67.0793C21.5404 69.1665 24.3143 70.5308 26.9165 72.1391C26.9165 72.2476 26.9075 72.3379 26.9075 72.4464ZM42.3219 47.4725C40.0088 48.5657 37.6958 40.3616 30.7294 38.2383C26.9707 36.892 15.2427 31.0912 13.6796 37.0637C11.5563 43.027 10.6889 49.2795 9.93895 55.5411C9.8757 55.9567 10.0293 56.4898 10.2642 56.8241C11.9629 59.2817 13.7519 61.6852 15.4596 64.1338C15.4144 64.197 15.3512 64.2512 15.315 64.2964C13.5441 62.8507 8.21319 58.1704 8.09573 56.0651C9.0083 50.4451 9.61368 32.1303 16.8691 31.9135C23.3475 32.04 29.5097 34.7325 35.6266 36.63C39.7739 37.922 42.0328 40.8585 43.117 44.8883C43.4332 45.9997 43.1441 47.1743 42.3219 47.4725ZM53.6433 36.9552C56.3268 33.5218 59.7602 31.4707 64.4225 31.1906C65.2899 31.3081 67.4765 31.8231 67.0789 33.1332C67.0247 33.3049 66.9253 33.4676 66.7988 33.585C66.7717 33.6302 66.7265 33.6483 66.6904 33.6844C66.085 34.2446 65.0731 34.353 64.025 34.3801H63.9707C62.5974 34.5428 60.8987 34.7325 59.1639 35.4373C59.1368 35.4373 59.1007 35.4463 59.0826 35.4734C57.6008 36.1511 56.2816 37.1269 55.0799 38.2744C54.1312 39.6839 52.2247 38.6087 53.6433 36.9552ZM69.1842 44.3191C70.7202 48.8278 66.7356 53.6527 62.0101 52.5233C59.4079 52.0534 57.6098 50.5174 56.7605 48.0146C56.381 46.3882 54.6733 47.0659 53.4626 46.6593C53.4354 46.5779 53.4083 46.4966 53.3812 46.4153C53.6613 46.2256 54.0047 46.0268 54.3932 45.837C54.592 45.7286 54.8088 45.6383 55.0166 45.5298C55.3058 45.3943 55.6311 45.2588 55.9563 45.1142C56.4804 44.9064 57.0406 44.6895 57.6369 44.4817C57.7815 44.4366 57.917 44.3823 58.0525 44.3462C59.3265 43.9306 60.6999 43.5511 62.0643 43.28C63.4377 43.018 64.802 42.8463 66.0218 42.8554C66.3922 42.8554 66.7356 42.8734 67.0699 42.9096C67.4855 42.9457 67.874 43.009 68.2355 43.0993C68.9041 43.2619 69.4643 43.533 69.8889 43.9306C69.5817 44.0932 69.4101 44.1926 69.1842 44.3191Z" fill="#4CA3DB"/>
<path d="M94.664 15.5769C94.4381 15.5227 94.2122 15.4684 93.9773 15.4233C93.5256 15.3148 93.0648 15.2426 92.622 15.1703C92.1793 15.098 91.7275 15.0438 91.2938 15.0076C91.2848 15.0076 91.2848 15.0076 91.2848 15.0076C90.842 14.9625 90.3993 14.9444 89.9746 14.9263C74.3163 14.4565 61.7119 31.0094 45.9089 31.949C47.219 30.7564 50.9958 28.3801 55.893 25.6785C55.9021 25.6694 55.9111 25.6604 55.9292 25.6514C62.5431 21.7932 69.4462 18.3959 76.6745 15.9654C76.7197 15.9473 76.7649 15.9292 76.81 15.9112C82.8638 13.6704 88.3483 12.3151 91.6281 12.9385C91.6281 12.9385 91.6371 12.9385 91.6462 12.9385C93.2364 13.0921 94.5737 13.6885 94.655 15.3058C94.655 15.3058 94.655 15.3058 94.655 15.3148V15.351C94.664 15.4233 94.664 15.4955 94.664 15.5769Z" fill="#4CA3DB"/>
<path d="M44.8428 29.5824C44.7615 29.6095 44.6892 29.6457 44.6079 29.6908C44.3278 29.8264 44.0477 30.0071 43.7585 30.1788C43.614 30.2691 43.4604 30.3504 43.3068 30.4317C43.1983 30.495 43.0899 30.5492 42.9815 30.5853C42.611 30.7299 42.2496 30.7661 41.843 30.6396C41.0569 30.3595 40.2709 30.0703 39.4757 29.7902C38.8884 29.5734 38.2921 29.3565 37.6958 29.1397C37.0994 28.9228 36.5121 28.715 35.9158 28.4982C34.7321 28.0735 33.5485 27.6398 32.3649 27.2332C31.8047 27.0344 31.7595 26.7001 31.7505 26.2393C31.7414 26.0857 31.7414 25.914 31.7414 25.7604C31.7053 23.9353 31.9763 22.1914 32.4914 20.538L32.645 20.041C32.7353 19.7699 32.8347 19.4989 32.9431 19.2369C33.0516 18.9658 33.1509 18.7038 33.2774 18.4417C34.0183 16.8063 34.9851 15.2613 36.1146 13.8427C36.1507 13.7975 36.1868 13.7524 36.232 13.7072C37.2169 12.4603 38.3463 11.3038 39.548 10.2285C39.8914 9.92134 40.2437 9.61414 40.5961 9.325C40.6865 9.25272 40.7678 9.18947 40.8582 9.11719V9.10815H40.8672C40.813 9.27983 40.7678 9.46054 40.7226 9.63221C40.6774 9.80388 40.6413 9.98459 40.6052 10.1563C40.569 10.3279 40.5329 10.5086 40.5058 10.6803C40.4696 10.852 40.4425 11.0327 40.4245 11.2044C40.3702 11.5568 40.3341 11.9001 40.316 12.2344C40.307 12.379 40.298 12.5235 40.298 12.65C40.2799 13.0657 40.2799 13.4632 40.298 13.8698C40.298 14.0234 40.307 14.1951 40.3251 14.3577C40.316 14.4119 40.3251 14.4752 40.3341 14.5294C40.3431 14.683 40.3522 14.8456 40.3793 14.9992C40.3883 15.189 40.4154 15.3787 40.4425 15.5685C40.5419 16.3184 40.6775 17.0593 40.8582 17.7912C40.9756 18.2791 41.1021 18.767 41.2557 19.264C41.328 19.517 41.4003 19.7609 41.4816 20.0139C41.6352 20.4928 41.8069 20.9897 41.9785 21.4686C42.4122 22.6884 42.9182 23.8811 43.4152 25.0737C43.4242 25.128 43.4423 25.1912 43.4604 25.2454C43.4875 25.3358 43.5236 25.4352 43.5778 25.5436C43.6501 25.7243 43.7495 25.9321 43.867 26.149C43.9121 26.2483 43.9663 26.3297 44.0025 26.42C44.0115 26.4471 44.0296 26.4652 44.0296 26.4833C44.1109 26.6278 44.1742 26.7634 44.2555 26.8989C44.3007 26.9802 44.3458 27.0525 44.382 27.1429C44.5175 27.3778 44.635 27.6217 44.7434 27.8476C44.7705 27.9018 44.7886 27.947 44.8066 27.9831C44.8699 28.1277 44.9241 28.2542 44.9602 28.3897C45.1681 28.977 45.1952 29.4198 44.8428 29.5824Z" fill="#4CA3DB"/>
<path d="M74.497 14.059C73.8916 14.2758 73.2863 14.4927 72.6899 14.7276C72.0936 14.9535 71.4973 15.1794 70.9009 15.4233C70.1691 15.7125 69.4281 16.0197 68.7053 16.3359C68.0457 16.616 67.3952 16.9052 66.7446 17.2124C65.9947 17.5467 65.2357 17.899 64.4948 18.2514C63.8804 18.5496 63.257 18.8478 62.6516 19.164C62.1998 19.3899 61.748 19.6158 61.2963 19.8597C60.4831 20.2754 59.6609 20.7091 58.8567 21.1518C57.7453 21.7572 56.634 22.3806 55.5317 23.0221C55.5317 23.0221 55.5317 23.0131 55.5226 23.0221C54.4203 23.6636 53.327 24.3052 52.2337 24.9828C51.1405 25.6514 50.0472 26.3291 48.972 27.0248C48.4298 27.3682 47.8877 27.7205 47.3456 28.0639C47.0565 27.4314 46.7583 26.808 46.4691 26.1755C46.171 25.534 45.8728 24.9015 45.5927 24.26C45.1771 23.2932 44.7615 22.3354 44.391 21.3596C44.2555 21.0163 44.138 20.682 44.0206 20.3476C43.8941 20.0133 43.7856 19.67 43.6772 19.3357C43.5597 18.9923 43.4694 18.649 43.37 18.3147C43.2706 17.9804 43.1893 17.628 43.108 17.2937C43.0989 17.2575 43.0899 17.2214 43.0809 17.1853C43.0176 16.9323 42.9634 16.6793 42.9182 16.4172C42.7285 15.4595 42.5839 14.5017 42.5297 13.5259C42.5116 13.4175 42.5116 13.3181 42.5116 13.2097C42.4755 12.541 42.4755 11.8905 42.5207 11.2128C42.5297 11.0592 42.5387 10.8966 42.5568 10.734C42.593 10.2912 42.6562 9.83945 42.7194 9.39672C43.7585 8.53835 44.9241 7.78841 46.1891 7.1469C46.6589 6.89391 47.1649 6.66802 47.6618 6.45117C48.2672 6.18915 48.8997 5.95423 49.5231 5.75545C49.6135 5.71027 49.6948 5.6922 49.7851 5.66509C50.6525 5.38499 51.5561 5.15007 52.4506 4.96936C52.7849 4.89708 53.1192 4.83383 53.4445 4.78866C54.0499 4.68927 54.6552 4.61698 55.2606 4.56277C55.875 4.49952 56.4804 4.47242 57.0858 4.46338C57.2845 4.45435 57.4833 4.45435 57.6731 4.45435C57.8809 4.45435 58.0887 4.46338 58.3055 4.47242C58.4501 4.47242 58.6037 4.48145 58.7392 4.49049C58.9922 4.50856 59.2452 4.51759 59.4892 4.53566C59.9229 4.57181 60.3566 4.61698 60.7903 4.6712C61.0523 4.70734 61.3053 4.75251 61.5583 4.79769C61.8384 4.84287 62.1185 4.89708 62.3986 4.95129C62.5522 4.9784 62.7148 5.01454 62.8684 5.05972C63.022 5.09586 63.1756 5.132 63.3292 5.17718C63.6455 5.2585 63.9527 5.33982 64.2599 5.43921C64.8924 5.62895 65.5158 5.85484 66.1121 6.11686C66.3922 6.23432 66.6633 6.35178 66.9253 6.48731C67.5668 6.79452 68.1813 7.1469 68.7776 7.52639C68.9764 7.65288 69.1751 7.77938 69.3649 7.92395C69.8799 8.28536 70.3769 8.67389 70.8467 9.10759C71.0816 9.3154 71.3075 9.53225 71.5334 9.76717C71.678 9.91174 71.8316 10.0744 71.9671 10.228C72.1026 10.3816 72.2472 10.5442 72.3827 10.7069C72.5002 10.8424 72.5905 10.9689 72.699 11.1044C72.8797 11.3393 73.0604 11.5833 73.223 11.8272C73.3314 11.9808 73.4218 12.1345 73.5212 12.2881C73.6477 12.4778 73.7651 12.6856 73.8826 12.8844C73.9639 13.029 74.0362 13.1826 74.1175 13.3271C74.1627 13.4175 74.2079 13.4988 74.2531 13.5892C74.3525 13.7428 74.4247 13.8964 74.497 14.059Z" fill="#4CA3DB"/>
<path d="M87.5351 46.4241C87.4267 46.3157 87.3454 46.2344 87.2731 46.144C87.1918 46.0537 87.1285 45.9814 87.0834 45.9091C86.9478 45.7103 86.9298 45.5477 86.9749 45.3489C86.993 45.2947 87.0111 45.2224 87.0472 45.1592C87.1014 45.0236 87.1827 44.852 87.3002 44.6441C87.6707 43.9484 87.77 43.1172 88.023 42.2498C88.0953 42.2498 88.1676 42.2588 88.2489 42.2678C88.4206 42.2769 88.6284 42.2859 88.8453 42.2949C88.9627 42.304 89.0711 42.304 89.1886 42.313C89.5771 43.8581 88.8091 46.0627 87.5351 46.4241Z" fill="white"/>
<path d="M42.3219 47.4721C40.0179 48.5654 37.6958 40.3612 30.7205 38.2379C26.9527 36.8916 15.2337 31.0909 13.6797 37.0633C11.5563 43.0267 10.6799 49.2792 9.93899 55.5407C9.88478 55.9563 10.0293 56.4894 10.2643 56.8328C11.9629 59.2904 13.7519 61.6938 15.4596 64.1424C15.4145 64.1966 15.3512 64.2599 15.306 64.3051C13.5351 62.8594 8.19516 58.179 8.08673 56.0648C8.99931 50.4538 9.60468 32.139 16.8601 31.9131C23.3385 32.0396 29.5007 34.7321 35.6176 36.6296C39.7649 37.9216 42.0328 40.8491 43.117 44.8879C43.4242 45.9993 43.1441 47.1649 42.3219 47.4721Z" fill="black"/>
<path d="M69.8709 43.9213C69.4463 43.5327 68.8861 43.2617 68.2174 43.09C67.856 42.9906 67.4675 42.9364 67.0609 42.8912C66.7266 42.8551 66.3742 42.846 66.0128 42.846C64.793 42.837 63.4287 43.0087 62.0553 43.2797C60.6909 43.5508 59.3266 43.9213 58.0526 44.3459C57.9171 44.3911 57.7725 44.4363 57.637 44.4815C57.0406 44.6893 56.4804 44.8971 55.9564 45.1049C55.6311 45.2404 55.3149 45.385 55.0167 45.5205C54.8089 45.6199 54.592 45.7193 54.3933 45.8187C54.0047 46.0175 53.6614 46.2072 53.3723 46.397C53.3994 46.4783 53.4265 46.5596 53.4536 46.6409C54.6643 47.0565 56.381 46.3699 56.7515 48.0053C57.6008 50.5081 59.3989 52.0351 62.0011 52.5139C66.7266 53.6434 70.7112 48.8094 69.1752 44.3188C69.4101 44.1923 69.5818 44.0929 69.8709 43.9213ZM65.796 50.1557C64.0973 51.2761 61.2331 51.258 60.1127 49.7672C62.7329 49.1618 63.6636 47.7252 63.2299 45.3217C64.287 45.3398 66.8621 44.1652 67.4946 45.0236C68.1994 46.7222 67.4223 49.0714 65.796 50.1557Z" fill="black"/>
<path d="M65.7959 50.1557C64.0972 51.2851 61.233 51.258 60.1216 49.7671C62.7419 49.1618 63.6726 47.7342 63.2389 45.3217C64.296 45.3398 66.8711 44.1652 67.4945 45.0145C68.1993 46.7312 67.4223 49.0714 65.7959 50.1557Z" fill="white"/>
<path d="M67.088 33.133C67.0338 33.3138 66.9344 33.4674 66.7989 33.5939C66.7718 33.639 66.7356 33.6571 66.6995 33.6932C66.1664 34.1269 65.2267 34.2444 64.025 34.398H63.9798C62.6064 34.5606 60.9078 34.7504 59.173 35.4551C59.1459 35.4551 59.1188 35.4642 59.0917 35.4913C57.7454 36.0334 56.372 36.8918 55.098 38.2923C54.1402 39.6837 52.2247 38.6175 53.6433 36.9641C56.3359 33.5396 59.7603 31.4796 64.4226 31.1995C65.29 31.3079 67.4765 31.8229 67.088 33.133Z" fill="black"/>
<path d="M26.9165 72.1387C26.9165 72.2472 26.9074 72.3466 26.9074 72.4459C24.3595 73.0694 21.0435 69.3649 18.9201 68.0276C18.5045 67.7385 18.2696 67.359 18.369 66.844C18.6943 66.8169 19.0015 66.7898 19.2364 67.0699C21.5314 69.1661 24.3052 70.5214 26.9165 72.1387Z" fill="black"/>
<path d="M106.094 54.5015C105.985 55.0888 105.94 55.6941 105.76 56.2543C105.714 56.3357 105.687 56.417 105.66 56.5073C105.416 57.1127 105.272 57.7994 105.055 58.45C104.811 59.0644 104.513 59.6246 104.106 60.0944C103.736 58.8023 105.525 55.9742 105.877 54.4563C105.949 54.4653 106.031 54.4834 106.094 54.5015Z" fill="black"/>
<path d="M102.001 64.224C101.73 63.7632 102.272 62.5344 103.085 61.7393C103.446 62.182 102.922 63.3837 102.001 64.224Z" fill="black"/>
</svg>
