<svg width="22" height="490" viewBox="0 0 22 490" fill="none" xmlns="http://www.w3.org/2000/svg">
<path d="M10.4473 444.001C9.06525 444.001 7.94727 444.042 7.94727 444.093V459.908C7.94727 459.959 9.06525 460 10.4473 460C11.8252 460 12.9473 459.959 12.9473 459.908V444.093C12.9473 444.042 11.8293 444 10.4473 444V444.001Z" fill="#36A9F3"/>
<path d="M10.4473 26.0006C9.06525 26.0006 7.94727 26.0419 7.94727 26.093V41.9082C7.94727 41.959 9.06525 42.0005 10.4473 42.0005C11.8252 42.0005 12.9473 41.9592 12.9473 41.9082V26.0928C12.9473 26.0419 11.8293 26.0005 10.4473 26.0005V26.0006Z" fill="#36A9F3"/>
<path d="M10.8952 20.8198C16.6444 20.8198 21.3051 16.1591 21.3051 10.4099C21.3051 4.66066 16.6444 0 10.8952 0C5.14601 0 0.485352 4.66066 0.485352 10.4099C0.485352 16.1591 5.14601 20.8198 10.8952 20.8198Z" fill="#36A9F3"/>
<path d="M10.8953 489.195C16.6445 489.195 21.3052 484.534 21.3052 478.785C21.3052 473.036 16.6445 468.375 10.8953 468.375C5.14606 468.375 0.485397 473.036 0.485397 478.785C0.485397 484.534 5.14606 489.195 10.8953 489.195Z" fill="#36A9F3"/>
</svg>
