<svg width="166" height="125" viewBox="0 0 166 125" fill="none" xmlns="http://www.w3.org/2000/svg">
<g opacity="0.2">
<path opacity="0.02" d="M0.480438 117.891V5.58757C0.480438 0.0634578 37.402 1.08644 82.9493 1.08644C128.497 1.08644 165.418 0.0634578 165.418 5.58757V117.891C165.418 123.415 128.497 124.307 82.9493 124.307C37.402 124.307 0.480438 123.415 0.480438 117.891Z" fill="#14143D"/>
<path opacity="0.02" d="M0.656769 117.795V5.63147C0.656769 0.111455 37.5005 1.13853 82.9496 1.13853C128.399 1.13853 165.242 0.111455 165.242 5.63147V117.795C165.242 123.315 128.399 124.207 82.9496 124.207C37.5005 124.207 0.656769 123.315 0.656769 117.795Z" fill="#14143D"/>
<path opacity="0.03" d="M0.831146 117.702V5.68135C0.831146 0.165421 37.5972 1.1925 82.948 1.1925C128.303 1.1925 165.065 0.161329 165.065 5.68135V117.702C165.065 123.218 128.299 124.106 82.948 124.106C37.5931 124.106 0.831146 123.218 0.831146 117.702Z" fill="#14143D"/>
<path opacity="0.04" d="M1.00751 117.608V5.72655C1.00751 0.214718 37.6958 1.24588 82.9485 1.24588C128.205 1.24588 164.893 0.214718 164.893 5.72655V117.608C164.893 123.124 128.205 124.008 82.9485 124.008C37.6917 124.008 1.00751 123.124 1.00751 117.608Z" fill="#14143D"/>
<path opacity="0.05" d="M1.18387 117.513V5.77081C1.18387 0.25898 37.7903 1.29424 82.953 1.29424C128.112 1.29424 164.722 0.25898 164.722 5.77081V117.513C164.722 123.025 128.112 123.905 82.953 123.905C37.7944 123.905 1.18387 123.021 1.18387 117.513Z" fill="#14143D"/>
<path opacity="0.06" d="M1.35431 117.419V5.8201C1.35431 0.312362 37.883 1.35171 82.9474 1.35171C128.012 1.35171 164.541 0.312362 164.541 5.8201V117.419C164.541 122.927 128.012 123.807 82.9474 123.807C37.883 123.807 1.35431 122.927 1.35431 117.419Z" fill="#14143D"/>
<path opacity="0.07" d="M1.53165 117.326V5.86541C1.53165 0.361764 37.9826 1.40111 82.9488 1.40111C127.915 1.40111 164.366 0.361764 164.366 5.86541V117.326C164.366 122.829 127.915 123.705 82.9488 123.705C37.9826 123.705 1.53165 122.829 1.53165 117.326Z" fill="#14143D"/>
<path opacity="0.07" d="M1.707 117.231V5.91422C1.707 0.414664 38.0802 1.45811 82.9482 1.45811C127.816 1.45811 164.189 0.414664 164.189 5.91422V117.231C164.189 122.731 127.816 123.606 82.9482 123.606C38.0802 123.606 1.707 122.731 1.707 117.231Z" fill="#14143D"/>
<path opacity="0.08" d="M1.88336 117.137V5.95923C1.88336 0.463761 38.1788 1.50721 82.9486 1.50721C127.723 1.50721 164.014 0.459669 164.014 5.95923V117.137C164.014 122.632 127.718 123.504 82.9486 123.504C38.1747 123.504 1.88336 122.632 1.88336 117.137Z" fill="#14143D"/>
<path opacity="0.09" d="M2.05872 117.043V6.00854C2.05872 0.513073 38.2764 1.5647 82.9521 1.5647C127.628 1.5647 163.846 0.517165 163.846 6.00854V117.043C163.846 122.539 127.628 123.406 82.9521 123.406C38.2764 123.406 2.05872 122.539 2.05872 117.043Z" fill="#14143D"/>
<path opacity="0.1" d="M2.23407 116.949V6.05385C2.23407 0.562473 38.3699 1.6141 82.9515 1.6141C127.529 1.6141 163.669 0.562473 163.669 6.05385V116.949C163.669 122.441 127.529 123.304 82.9515 123.304C38.374 123.304 2.23407 122.437 2.23407 116.949Z" fill="#14143D"/>
<path opacity="0.11" d="M2.40649 116.855V6.09828C2.40649 0.610995 38.4646 1.66672 82.948 1.66672C127.431 1.66672 163.49 0.610995 163.49 6.09828V116.855C163.49 122.342 127.431 123.205 82.948 123.205C38.4646 123.205 2.40649 122.342 2.40649 116.855Z" fill="#14143D"/>
<path opacity="0.12" d="M2.58185 116.761V6.14799C2.58185 0.6648 38.5622 1.72052 82.9474 1.72052C127.333 1.72052 163.313 0.6648 163.313 6.14799V116.761C163.313 122.244 127.333 123.104 82.9474 123.104C38.5622 123.104 2.58185 122.244 2.58185 116.761Z" fill="#14143D"/>
<path opacity="0.12" d="M2.75919 116.666V6.19218C2.75919 0.713084 38.6618 1.77289 82.9488 1.77289C127.236 1.77289 163.138 0.713084 163.138 6.19218V116.666C163.138 122.145 127.236 123.005 82.9488 123.005C38.6618 123.005 2.75919 122.149 2.75919 116.666Z" fill="#14143D"/>
<path opacity="0.13" d="M2.93457 116.572V6.2416C2.93457 0.766595 38.7594 1.82641 82.9482 1.82641C127.141 1.82641 162.966 0.762503 162.966 6.2416V116.572C162.966 122.047 127.141 122.903 82.9482 122.903C38.7553 122.903 2.93457 122.047 2.93457 116.572Z" fill="#14143D"/>
<path opacity="0.14" d="M3.1109 116.478V6.28654C3.1109 0.811534 38.8539 1.87953 82.9527 1.87953C127.047 1.87953 162.794 0.815626 162.794 6.28654V116.478C162.794 121.953 127.047 122.804 82.9527 122.804C38.858 122.804 3.1109 121.953 3.1109 116.478Z" fill="#14143D"/>
<path opacity="0.15" d="M3.28235 116.384V6.33136C3.28235 0.86045 38.9476 1.92845 82.9482 1.92845C126.945 1.92845 162.614 0.86045 162.614 6.33136V116.384C162.614 121.855 126.945 122.702 82.9482 122.702C38.9476 122.702 3.28235 121.851 3.28235 116.384Z" fill="#14143D"/>
<path opacity="0.16" d="M3.4577 116.29V6.3807C3.4577 0.913877 39.0452 1.98597 82.9476 1.98597C126.85 1.98597 162.437 0.913877 162.437 6.3807V116.29C162.437 121.757 126.85 122.604 82.9476 122.604C39.0452 122.604 3.4577 121.757 3.4577 116.29Z" fill="#14143D"/>
<path opacity="0.17" d="M3.63406 116.197V6.4265C3.63406 0.963775 39.1439 2.03586 82.948 2.03586C126.752 2.03586 162.262 0.963775 162.262 6.4265V116.197C162.262 121.659 126.752 122.502 82.948 122.502C39.1439 122.502 3.63406 121.659 3.63406 116.197Z" fill="#14143D"/>
<path opacity="0.17" d="M3.81039 116.102V6.47536C3.81039 1.01673 39.2424 2.0929 82.9484 2.0929C126.658 2.0929 162.09 1.01673 162.09 6.47536V116.102C162.09 121.561 126.658 122.404 82.9484 122.404C39.2383 122.404 3.81039 121.561 3.81039 116.102Z" fill="#14143D"/>
<path opacity="0.18" d="M3.98676 116.008V6.51968C3.98676 1.06513 39.3411 2.14131 82.9529 2.14131C126.565 2.14131 161.919 1.06104 161.919 6.51968V116.008C161.919 121.466 126.565 122.301 82.9529 122.301C39.3411 122.301 3.98676 121.462 3.98676 116.008Z" fill="#14143D"/>
<path opacity="0.19" d="M4.16113 115.913V6.56463C4.16113 1.11009 39.4336 2.19445 82.9513 2.19445C126.465 2.19445 161.741 1.11418 161.741 6.56463V115.913C161.741 121.368 126.465 122.203 82.9513 122.203C39.4377 122.203 4.16113 121.368 4.16113 115.913Z" fill="#14143D"/>
<path opacity="0.2" d="M4.33356 115.82V6.61435C4.33356 1.16389 39.5283 2.24826 82.9478 2.24826C126.367 2.24826 161.562 1.16389 161.562 6.61435V115.82C161.562 121.27 126.367 122.101 82.9478 122.101C39.5283 122.101 4.33356 121.27 4.33356 115.82Z" fill="#14143D"/>
<path opacity="0.21" d="M4.50989 115.725V6.65883C4.50989 1.21247 39.6269 2.30092 82.9481 2.30092C126.269 2.30092 161.386 1.21247 161.386 6.65883V115.725C161.386 121.172 126.269 122.002 82.9481 122.002C39.6269 122.002 4.50989 121.172 4.50989 115.725Z" fill="#14143D"/>
<path opacity="0.21" d="M4.68427 115.632V6.70854C4.68427 1.26627 39.7235 2.35472 82.9466 2.35472C126.17 2.35472 161.209 1.26627 161.209 6.70854V115.632C161.209 121.074 126.17 121.901 82.9466 121.901C39.7235 121.901 4.68427 121.074 4.68427 115.632Z" fill="#14143D"/>
<path opacity="0.22" d="M4.8616 115.537V6.75302C4.8616 1.31484 39.8231 2.40739 82.9521 2.40739C126.081 2.40739 161.042 1.31484 161.042 6.75302V115.537C161.042 120.975 126.081 121.802 82.9521 121.802C39.8231 121.802 4.8616 120.979 4.8616 115.537Z" fill="#14143D"/>
<path opacity="0.23" d="M5.03699 115.443V6.79809C5.03699 1.35991 39.9207 2.45655 82.9515 2.45655C125.982 2.45655 160.866 1.35991 160.866 6.79809V115.443C160.866 120.881 125.982 121.7 82.9515 121.7C39.9207 121.7 5.03699 120.877 5.03699 115.443Z" fill="#14143D"/>
<path opacity="0.24" d="M5.20938 115.349V6.84746C5.20938 1.41338 40.0113 2.51411 82.9479 2.51411C125.88 2.51411 160.686 1.41747 160.686 6.84746V115.349C160.686 120.783 125.88 121.602 82.9479 121.602C40.0154 121.602 5.20938 120.783 5.20938 115.349Z" fill="#14143D"/>
<path opacity="0.25" d="M5.38574 115.255V6.89206C5.38574 1.46206 40.1099 2.56279 82.9483 2.56279C125.787 2.56279 160.511 1.46206 160.511 6.89206V115.255C160.511 120.685 125.787 121.499 82.9483 121.499C40.1099 121.499 5.38574 120.685 5.38574 115.255Z" fill="#14143D"/>
<path opacity="0.26" d="M5.5611 115.16V6.94095C5.5611 1.51505 40.2075 2.61987 82.9477 2.61987C125.688 2.61987 160.334 1.51505 160.334 6.94095V115.16C160.334 120.586 125.688 121.401 82.9477 121.401C40.2075 121.401 5.5611 120.586 5.5611 115.16Z" fill="#14143D"/>
<path opacity="0.26" d="M5.73746 115.067V6.98676C5.73746 1.56495 40.3061 2.66977 82.9481 2.66977C125.59 2.66977 160.163 1.56495 160.163 6.98676V115.067C160.163 120.489 125.594 121.299 82.9481 121.299C40.3061 121.299 5.73746 120.489 5.73746 115.067Z" fill="#14143D"/>
<path opacity="0.27" d="M5.91382 114.973V7.03566C5.91382 1.61794 40.4047 2.72686 82.9526 2.72686C125.501 2.72686 159.991 1.61794 159.991 7.03566V114.973C159.991 120.39 125.501 121.201 82.9526 121.201C40.4047 121.201 5.91382 120.394 5.91382 114.973Z" fill="#14143D"/>
<path opacity="0.28" d="M6.08524 114.879V7.08075C6.08524 1.66303 40.4984 2.77603 82.9481 2.77603C125.398 2.77603 159.811 1.66303 159.811 7.08075V114.879C159.811 120.296 125.398 121.098 82.9481 121.098C40.4984 121.098 6.08524 120.292 6.08524 114.879Z" fill="#14143D"/>
<path opacity="0.29" d="M6.2616 114.784V7.12478C6.2616 1.71115 40.5929 2.82825 82.9485 2.82825C125.3 2.82825 159.635 1.71524 159.635 7.12478V114.784C159.635 120.197 125.3 120.999 82.9485 120.999C40.5929 120.999 6.2616 120.197 6.2616 114.784Z" fill="#14143D"/>
<path opacity="0.3" d="M6.43793 114.691V7.17499C6.43793 1.76545 40.6915 2.88255 82.9489 2.88255C125.206 2.88255 159.46 1.76545 159.46 7.17499V114.691C159.46 120.1 125.206 120.898 82.9489 120.898C40.6915 120.898 6.43793 120.1 6.43793 114.691Z" fill="#14143D"/>
<path opacity="0.31" d="M6.61331 114.596V7.22C6.61331 1.81455 40.7891 2.93574 82.9483 2.93574C125.107 2.93574 159.283 1.81455 159.283 7.22V114.596C159.283 120.002 125.107 120.8 82.9483 120.8C40.7891 120.8 6.61331 120.002 6.61331 114.596Z" fill="#14143D"/>
<path opacity="0.31" d="M6.78867 114.502V7.26874C6.78867 1.86739 40.8867 2.98858 82.9518 2.98858C125.017 2.98858 159.115 1.86739 159.115 7.26874V114.502C159.115 119.903 125.017 120.697 82.9518 120.697C40.8867 120.697 6.78867 119.903 6.78867 114.502Z" fill="#14143D"/>
<path opacity="0.32" d="M6.96405 114.408V7.31351C6.96405 1.91625 40.9844 3.04154 82.9512 3.04154C124.918 3.04154 158.938 1.91625 158.938 7.31351V114.408C158.938 119.805 124.918 120.599 82.9512 120.599C40.9844 120.599 6.96405 119.809 6.96405 114.408Z" fill="#14143D"/>
<path opacity="0.33" d="M7.13742 114.314V7.35862C7.13742 1.96136 41.08 3.09074 82.9487 3.09074C124.817 3.09074 158.76 1.96136 158.76 7.35862V114.314C158.76 119.711 124.817 120.496 82.9487 120.496C41.08 120.496 7.13742 119.707 7.13742 114.314Z" fill="#14143D"/>
<path opacity="0.34" d="M7.3118 114.22V7.40786C7.3118 2.01469 41.1725 3.14406 82.9471 3.14406C124.722 3.14406 158.582 2.01469 158.582 7.40786V114.22C158.582 119.613 124.718 120.398 82.9471 120.398C41.1725 120.398 7.3118 119.613 7.3118 114.22Z" fill="#14143D"/>
<path opacity="0.35" d="M7.48718 114.125V7.45289C7.48718 2.06381 41.2702 3.19728 82.9465 3.19728C124.623 3.19728 158.406 2.06381 158.406 7.45289V114.125C158.406 119.515 124.623 120.3 82.9465 120.3C41.2702 120.3 7.48718 119.519 7.48718 114.125Z" fill="#14143D"/>
<path opacity="0.36" d="M7.66452 114.031V7.50191C7.66452 2.11692 41.3698 3.25039 82.9479 3.25039C124.526 3.25039 158.235 2.11283 158.235 7.50191V114.031C158.235 119.416 124.53 120.198 82.9479 120.198C41.3698 120.198 7.66452 119.416 7.66452 114.031Z" fill="#14143D"/>
<path opacity="0.36" d="M7.84085 113.938V7.54765C7.84085 2.16675 41.4684 3.30431 82.9524 3.30431C124.436 3.30431 158.064 2.16675 158.064 7.54765V113.938C158.064 119.319 124.436 120.1 82.9524 120.1C41.4684 120.1 7.84085 119.323 7.84085 113.938Z" fill="#14143D"/>
<path opacity="0.37" d="M8.0123 113.843V7.59203C8.0123 2.21114 41.562 3.35279 82.9479 3.35279C124.334 3.35279 157.883 2.21114 157.883 7.59203V113.843C157.883 119.224 124.334 119.997 82.9479 119.997C41.562 119.997 8.0123 119.224 8.0123 113.843Z" fill="#14143D"/>
<path opacity="0.38" d="M8.18863 113.749V7.64123C8.18863 2.26443 41.6606 3.41017 82.9482 3.41017C124.236 3.41017 157.708 2.26443 157.708 7.64123V113.749C157.708 119.126 124.236 119.899 82.9482 119.899C41.6606 119.899 8.18863 119.126 8.18863 113.749Z" fill="#14143D"/>
<path opacity="0.39" d="M8.36499 113.655V7.68632C8.36499 2.31361 41.7552 3.45935 82.9486 3.45935C124.142 3.45935 157.532 2.31361 157.532 7.68632V113.655C157.532 119.028 124.138 119.797 82.9486 119.797C41.7552 119.797 8.36499 119.028 8.36499 113.655Z" fill="#14143D"/>
<path opacity="0.4" d="M8.54135 113.561V7.73528C8.54135 2.36666 41.8538 3.5165 82.9491 3.5165C124.044 3.5165 157.361 2.36666 157.361 7.73528V113.561C157.361 118.929 124.048 119.699 82.9491 119.699C41.8538 119.699 8.54135 118.934 8.54135 113.561Z" fill="#14143D"/>
<path opacity="0.4" d="M8.71671 113.467V7.78041C8.71671 2.41589 41.9514 3.56572 82.9525 3.56572C123.95 3.56572 157.188 2.41179 157.188 7.78041V113.467C157.188 118.831 123.954 119.597 82.9525 119.597C41.9555 119.597 8.71671 118.831 8.71671 113.467Z" fill="#14143D"/>
<path opacity="0.41" d="M8.89307 113.373V7.82519C8.89307 2.46475 42.05 3.61868 82.953 3.61868C123.856 3.61868 157.013 2.46475 157.013 7.82519V113.373C157.013 118.733 123.856 119.498 82.953 119.498C42.05 119.498 8.89307 118.737 8.89307 113.373Z" fill="#14143D"/>
<path opacity="0.42" d="M9.06448 113.278V7.87423C9.06448 2.5138 42.1437 3.67182 82.9484 3.67182C123.753 3.67182 156.832 2.5138 156.832 7.87423V113.278C156.832 118.639 123.753 119.396 82.9484 119.396C42.1437 119.396 9.06448 118.639 9.06448 113.278Z" fill="#14143D"/>
<path opacity="0.43" d="M9.24084 113.185V7.92028C9.24084 2.56394 42.2423 3.72605 82.9488 3.72605C123.655 3.72605 156.657 2.56394 156.657 7.92028V113.185C156.657 118.542 123.655 119.299 82.9488 119.299C42.2382 119.299 9.24084 118.542 9.24084 113.185Z" fill="#14143D"/>
<path opacity="0.44" d="M9.4162 113.09V7.96855C9.4162 2.6163 42.3358 3.77841 82.9482 3.77841C123.561 3.77841 156.48 2.6163 156.48 7.96855V113.09C156.48 118.443 123.557 119.195 82.9482 119.195C42.3358 119.195 9.4162 118.443 9.4162 113.09Z" fill="#14143D"/>
<path opacity="0.45" d="M9.59155 112.996V8.01387C9.59155 2.66571 42.4334 3.83191 82.9476 3.83191C123.462 3.83191 156.308 2.66571 156.308 8.01387V112.996C156.308 118.345 123.466 119.098 82.9476 119.098C42.4334 119.098 9.59155 118.349 9.59155 112.996Z" fill="#14143D"/>
<path opacity="0.45" d="M9.76889 112.902V8.06243C9.76889 2.71837 42.533 3.88457 82.9531 3.88457C123.373 3.88457 156.137 2.71428 156.137 8.06243V112.902C156.137 118.246 123.373 118.995 82.9531 118.995C42.533 118.995 9.76889 118.246 9.76889 112.902Z" fill="#14143D"/>
<path opacity="0.46" d="M9.93933 112.808V8.10771C9.93933 2.76774 42.6257 3.93803 82.9476 3.93803C123.27 3.93803 155.956 2.76774 155.956 8.10771V112.808C155.956 118.148 123.27 118.897 82.9476 118.897C42.6257 118.897 9.93933 118.152 9.93933 112.808Z" fill="#14143D"/>
<path opacity="0.47" d="M10.1157 112.714V8.15335C10.1157 2.81338 42.7243 3.98777 82.948 3.98777C123.172 3.98777 155.78 2.81338 155.78 8.15335V112.714C155.78 118.054 123.172 118.795 82.948 118.795C42.7243 118.795 10.1157 118.054 10.1157 112.714Z" fill="#14143D"/>
<path opacity="0.48" d="M10.2921 112.619V8.20137C10.2921 2.86549 42.8229 4.04397 82.9484 4.04397C123.078 4.04397 155.605 2.86549 155.605 8.20137V112.623C155.605 117.959 123.074 118.7 82.9484 118.7C42.8188 118.7 10.2921 117.959 10.2921 112.623V112.619Z" fill="#14143D"/>
<path opacity="0.49" d="M10.4674 112.526V8.24721C10.4674 2.91542 42.9164 4.0939 82.9478 4.0939C122.979 4.0939 155.432 2.91542 155.432 8.24721V112.526C155.432 117.858 122.979 118.594 82.9478 118.594C42.9164 118.594 10.4674 117.858 10.4674 112.526Z" fill="#14143D"/>
<path opacity="0.5" d="M10.6438 112.432V8.29622C10.6438 2.96852 43.015 4.15109 82.9523 4.15109C122.885 4.15109 155.261 2.96852 155.261 8.29622V112.436C155.261 117.764 122.89 118.5 82.9523 118.5C43.0191 118.5 10.6438 117.768 10.6438 112.436V112.432Z" fill="#14143D"/>
<path opacity="0.5" d="M10.8201 112.338V8.34139C10.8201 3.01779 43.1136 4.20035 82.9527 4.20035C122.792 4.20035 155.085 3.01369 155.085 8.34139V112.338C155.085 117.661 122.792 118.394 82.9527 118.394C43.1136 118.394 10.8201 117.661 10.8201 112.338Z" fill="#14143D"/>
<path opacity="0.51" d="M10.9925 112.243V8.38577C10.9925 3.06216 43.2083 4.25291 82.9492 4.25291C122.69 4.25291 154.906 3.06626 154.906 8.38577V112.243C154.906 117.567 122.69 118.295 82.9492 118.295C43.2083 118.295 10.9925 117.567 10.9925 112.243Z" fill="#14143D"/>
<path opacity="0.52" d="M11.1679 112.149V8.43502C11.1679 3.1155 43.3059 4.30626 82.9486 4.30626C122.591 4.30626 154.729 3.1155 154.729 8.43502V112.153C154.729 117.473 122.591 118.197 82.9486 118.197C43.3059 118.197 11.1679 117.473 11.1679 112.153V112.149Z" fill="#14143D"/>
<path opacity="0.53" d="M11.3433 112.055V8.48014C11.3433 3.16472 43.4036 4.35956 82.948 4.35956C122.497 4.35956 154.553 3.16472 154.553 8.48014V112.055C154.553 117.371 122.492 118.095 82.948 118.095C43.3995 118.095 11.3433 117.371 11.3433 112.055Z" fill="#14143D"/>
<path opacity="0.54" d="M11.5196 111.961V8.5289C11.5196 3.21757 43.498 4.41242 82.9484 4.41242C122.399 4.41242 154.381 3.21757 154.381 8.5289V111.965C154.381 117.276 122.399 117.996 82.9484 117.996C43.498 117.996 11.5196 117.276 11.5196 111.965V111.961Z" fill="#14143D"/>
<path opacity="0.55" d="M11.695 111.866V8.57353C11.695 3.2663 43.5957 4.46524 82.9519 4.46524C122.304 4.46524 154.209 3.2663 154.209 8.57353V111.866C154.209 117.173 122.308 117.894 82.9519 117.894C43.5998 117.894 11.695 117.178 11.695 111.866Z" fill="#14143D"/>
<path opacity="0.55" d="M11.8674 111.773V8.6197C11.8674 3.31656 43.6903 4.5155 82.9483 4.5155C122.206 4.5155 154.029 3.31247 154.029 8.6197V111.773C154.029 117.076 122.206 117.792 82.9483 117.792C43.6903 117.792 11.8674 117.076 11.8674 111.773Z" fill="#14143D"/>
<path opacity="0.56" d="M12.0437 111.679V8.66875C12.0437 3.36561 43.7889 4.57272 82.9487 4.57272C122.109 4.57272 153.854 3.3697 153.854 8.66875V111.683C153.854 116.986 122.109 117.698 82.9487 117.698C43.7889 117.698 12.0437 116.986 12.0437 111.683V111.679Z" fill="#14143D"/>
<path opacity="0.57" d="M12.2191 111.584V8.71288C12.2191 3.41382 43.8866 4.62094 82.9481 4.62094C122.014 4.62094 153.677 3.41382 153.677 8.71288V111.584C153.677 116.883 122.01 117.591 82.9481 117.591C43.8825 117.591 12.2191 116.883 12.2191 111.584Z" fill="#14143D"/>
<path opacity="0.58" d="M12.3945 111.49V8.76192C12.3945 3.46696 43.9842 4.67818 82.9476 4.67818C121.915 4.67818 153.505 3.46696 153.505 8.76192V111.494C153.505 116.789 121.915 117.497 82.9476 117.497C43.9801 117.497 12.3945 116.789 12.3945 111.494V111.49Z" fill="#14143D"/>
<path opacity="0.59" d="M12.5718 111.396V8.80728C12.5718 3.51641 44.0797 4.72762 82.9531 4.72762C121.822 4.72762 153.334 3.51641 153.334 8.80728V111.396C153.334 116.687 121.822 117.391 82.9531 117.391C44.0838 117.391 12.5718 116.687 12.5718 111.396Z" fill="#14143D"/>
<path opacity="0.6" d="M12.7422 111.302V8.85242C12.7422 3.56565 44.1724 4.78095 82.9475 4.78095C121.723 4.78095 153.153 3.56565 153.153 8.85242V111.302C153.153 116.589 121.723 117.293 82.9475 117.293C44.1724 117.293 12.7422 116.593 12.7422 111.302Z" fill="#14143D"/>
<path opacity="0.6" d="M12.9186 111.209V8.90203C12.9186 3.61526 44.271 4.83465 82.9479 4.83465C121.625 4.83465 152.977 3.61526 152.977 8.90203V111.213C152.977 116.495 121.625 117.195 82.9479 117.195C44.271 117.195 12.9186 116.495 12.9186 111.213V111.209Z" fill="#14143D"/>
<path opacity="0.61" d="M13.0949 111.114V8.94621C13.0949 3.66353 44.3696 4.88702 82.9483 4.88702C121.527 4.88702 152.802 3.66762 152.802 8.94621V111.114C152.802 116.396 121.527 117.092 82.9483 117.092C44.3696 117.092 13.0949 116.396 13.0949 111.114Z" fill="#14143D"/>
<path opacity="0.62" d="M13.2713 111.02V8.99547C13.2713 3.71688 44.4682 4.94037 82.9487 4.94037C121.433 4.94037 152.626 3.71688 152.626 8.99547V111.024C152.626 116.302 121.429 116.994 82.9487 116.994C44.4641 116.994 13.2713 116.302 13.2713 111.024V111.02Z" fill="#14143D"/>
<path opacity="0.63" d="M13.4467 110.926V9.04064C13.4467 3.76614 44.5658 4.99372 82.9522 4.99372C121.339 4.99372 152.458 3.76614 152.458 9.04064V110.926C152.458 116.2 121.339 116.892 82.9522 116.892C44.5658 116.892 13.4467 116.2 13.4467 110.926Z" fill="#14143D"/>
<path opacity="0.64" d="M13.623 110.832V9.09039C13.623 3.81998 44.6603 5.04756 82.9526 5.04756C121.241 5.04756 152.282 3.81998 152.282 9.09039V110.836C152.282 116.107 121.241 116.794 82.9526 116.794C44.6644 116.794 13.623 116.107 13.623 110.836V110.832Z" fill="#14143D"/>
<path opacity="0.64" d="M13.7954 110.737V9.13435C13.7954 3.86803 44.755 5.0997 82.9491 5.0997C121.143 5.0997 152.103 3.86803 152.103 9.13435V110.737C152.103 116.003 121.143 116.691 82.9491 116.691C44.755 116.691 13.7954 116.007 13.7954 110.737Z" fill="#14143D"/>
<path opacity="0.65" d="M13.9698 110.644V9.18056C13.9698 3.91424 44.8516 5.15 82.9475 5.15C121.043 5.15 151.925 3.91424 151.925 9.18056V110.644C151.925 115.91 121.043 116.59 82.9475 116.59C44.8516 116.59 13.9698 115.906 13.9698 110.644Z" fill="#14143D"/>
<path opacity="0.66" d="M14.1471 110.549V9.22867C14.1471 3.96644 44.9512 5.2063 82.9489 5.2063C120.947 5.2063 151.751 3.97053 151.751 9.22867V110.553C151.751 115.815 120.947 116.495 82.9489 116.495C44.9512 116.495 14.1471 115.815 14.1471 110.553V110.549Z" fill="#14143D"/>
<path opacity="0.67" d="M14.3225 110.455V9.27403C14.3225 4.0159 45.0488 5.25575 82.9483 5.25575C120.852 5.25575 151.578 4.0159 151.578 9.27403V110.455C151.578 115.713 120.852 116.389 82.9483 116.389C45.0447 116.389 14.3225 115.713 14.3225 110.455Z" fill="#14143D"/>
<path opacity="0.68" d="M14.4988 110.361V9.32264C14.4988 4.0686 45.1433 5.31254 82.9528 5.31254C120.758 5.31254 151.407 4.0686 151.407 9.32264V110.365C151.407 115.619 120.758 116.294 82.9528 116.294C45.1474 116.294 14.4988 115.619 14.4988 110.365V110.361Z" fill="#14143D"/>
<path opacity="0.69" d="M14.6703 110.267V9.36799C14.6703 4.11804 45.237 5.36199 82.9483 5.36199C120.655 5.36199 151.226 4.11804 151.226 9.36799V110.267C151.226 115.517 120.66 116.188 82.9483 116.188C45.2411 116.188 14.6703 115.517 14.6703 110.267Z" fill="#14143D"/>
<path opacity="0.69" d="M14.8456 110.173V9.4132C14.8456 4.16734 45.3346 5.41538 82.9477 5.41538C120.561 5.41538 151.05 4.16734 151.05 9.4132V110.173C151.05 115.419 120.561 116.09 82.9477 116.09C45.3346 116.09 14.8456 115.423 14.8456 110.173Z" fill="#14143D"/>
<path opacity="0.7" d="M15.022 110.079V9.46211C15.022 4.21625 45.4333 5.46838 82.9481 5.46838C120.463 5.46838 150.874 4.21625 150.874 9.46211V110.083C150.874 115.329 120.463 115.991 82.9481 115.991C45.4333 115.991 15.022 115.325 15.022 110.083V110.079Z" fill="#14143D"/>
<path opacity="0.71" d="M15.1983 109.984V9.50683C15.1983 4.26506 45.5318 5.52129 82.9485 5.52129C120.369 5.52129 150.703 4.26915 150.703 9.50683V109.984C150.703 115.226 120.369 115.889 82.9485 115.889C45.5277 115.889 15.1983 115.226 15.1983 109.984Z" fill="#14143D"/>
<path opacity="0.72" d="M15.3737 109.89V9.5561C15.3737 4.31843 45.6295 5.57465 82.952 5.57465C120.275 5.57465 150.53 4.31843 150.53 9.5561V109.894C150.53 115.132 120.275 115.791 82.952 115.791C45.6295 115.791 15.3737 115.132 15.3737 109.894V109.89Z" fill="#14143D"/>
<path opacity="0.73" d="M15.5491 109.796V9.60083C15.5491 4.36725 45.723 5.62756 82.9514 5.62756C120.176 5.62756 150.354 4.36725 150.354 9.60083V109.796C150.354 115.029 120.176 115.688 82.9514 115.688C45.7271 115.688 15.5491 115.029 15.5491 109.796Z" fill="#14143D"/>
<path opacity="0.74" d="M15.7215 109.702V9.64619C15.7215 4.41671 45.8177 5.67702 82.9479 5.67702C120.078 5.67702 150.174 4.41671 150.174 9.64619V109.702C150.174 114.932 120.078 115.586 82.9479 115.586C45.8177 115.586 15.7215 114.932 15.7215 109.702Z" fill="#14143D"/>
<path opacity="0.74" d="M15.8978 109.608V9.69523C15.8978 4.46574 45.9162 5.73423 82.9482 5.73423C119.98 5.73423 149.999 4.46983 149.999 9.69523V109.612C149.999 114.837 119.98 115.492 82.9482 115.492C45.9162 115.492 15.8978 114.842 15.8978 109.612V109.608Z" fill="#14143D"/>
<path opacity="0.75" d="M16.0732 109.514V9.7401C16.0732 4.51471 46.0139 5.78321 82.9477 5.78321C119.881 5.78321 149.822 4.51471 149.822 9.7401V109.514C149.822 114.739 119.881 115.386 82.9477 115.386C46.0139 115.386 16.0732 114.735 16.0732 109.514Z" fill="#14143D"/>
<path opacity="0.76" d="M16.2496 109.42V9.78924C16.2496 4.56794 46.1125 5.84053 82.9481 5.84053C119.788 5.84053 149.651 4.57203 149.651 9.78924V109.424C149.651 114.645 119.788 115.292 82.9481 115.292C46.1084 115.292 16.2496 114.645 16.2496 109.424V109.42Z" fill="#14143D"/>
<path opacity="0.77" d="M16.4259 109.326V9.83486C16.4259 4.61764 46.2111 5.89023 82.9525 5.89023C119.694 5.89023 149.479 4.61764 149.479 9.83486V109.326C149.479 114.543 119.694 115.186 82.9525 115.186C46.2111 115.186 16.4259 114.543 16.4259 109.326Z" fill="#14143D"/>
<path opacity="0.78" d="M16.5973 109.232V9.87961C16.5973 4.66649 46.3007 5.94317 82.948 5.94317C119.591 5.94317 149.299 4.66649 149.299 9.87961V109.232C149.299 114.445 119.591 115.087 82.948 115.087C46.3047 115.087 16.5973 114.445 16.5973 109.232Z" fill="#14143D"/>
<path opacity="0.79" d="M16.7727 109.138V9.92888C16.7727 4.71986 46.3983 5.99654 82.9474 5.99654C119.497 5.99654 149.122 4.71986 149.122 9.92888V109.142C149.122 114.351 119.497 114.989 82.9474 114.989C46.3983 114.989 16.7727 114.351 16.7727 109.142V109.138Z" fill="#14143D"/>
<path opacity="0.79" d="M16.949 109.043V9.97368C16.949 4.76465 46.4969 6.04543 82.9478 6.04543C119.399 6.04543 148.947 4.76465 148.947 9.97368V109.043C148.947 114.252 119.399 114.887 82.9478 114.887C46.4969 114.887 16.949 114.252 16.949 109.043Z" fill="#14143D"/>
<path opacity="0.8" d="M17.1254 108.949V10.0228C17.1254 4.8179 46.5955 6.10277 82.9482 6.10277C119.301 6.10277 148.775 4.8179 148.775 10.0228V108.953C148.775 114.158 119.305 114.789 82.9482 114.789C46.5955 114.789 17.1254 114.154 17.1254 108.953V108.949Z" fill="#14143D"/>
<path opacity="0.81" d="M17.3008 108.855V10.0677C17.3008 4.86688 46.6931 6.15175 82.9518 6.15175C119.21 6.15175 148.603 4.86688 148.603 10.0677V108.855C148.603 114.056 119.21 114.686 82.9518 114.686C46.6931 114.686 17.3008 114.056 17.3008 108.855Z" fill="#14143D"/>
<path opacity="0.82" d="M17.4771 108.762V10.1174C17.4771 4.92063 46.7917 6.20958 82.9521 6.20958C119.113 6.20958 148.427 4.92063 148.427 10.1174V108.766C148.427 113.962 119.113 114.593 82.9521 114.593C46.7917 114.593 17.4771 113.967 17.4771 108.766V108.762Z" fill="#14143D"/>
<path opacity="0.83" d="M17.6485 108.667V10.1615C17.6485 4.9688 46.8813 6.25776 82.9476 6.25776C119.01 6.25776 148.247 4.96471 148.247 10.1615V108.671C148.247 113.863 119.01 114.489 82.9476 114.489C46.8854 114.489 17.6485 113.863 17.6485 108.671V108.667Z" fill="#14143D"/>
<path opacity="0.83" d="M17.8249 108.573V10.2068C17.8249 5.01823 46.9799 6.31128 82.948 6.31128C118.916 6.31128 148.071 5.01823 148.071 10.2068V108.573C148.071 113.761 118.916 114.387 82.948 114.387C46.9799 114.387 17.8249 113.765 17.8249 108.573Z" fill="#14143D"/>
<path opacity="0.84" d="M18.0002 108.479V10.256C18.0002 5.06744 47.0775 6.36459 82.9474 6.36459C118.817 6.36459 147.895 5.06744 147.895 10.256V108.483C147.895 113.671 118.817 114.289 82.9474 114.289C47.0775 114.289 18.0002 113.671 18.0002 108.483V108.479Z" fill="#14143D"/>
<path opacity="0.85" d="M18.1756 108.384V10.3008C18.1756 5.11632 47.1752 6.41756 82.9509 6.41756C118.727 6.41756 147.726 5.11632 147.726 10.3008V108.384C147.726 113.569 118.727 114.187 82.9509 114.187C47.1752 114.187 18.1756 113.569 18.1756 108.384Z" fill="#14143D"/>
<path opacity="0.86" d="M18.352 108.291V10.3506C18.352 5.17019 47.2738 6.47142 82.9513 6.47142C118.629 6.47142 147.551 5.17019 147.551 10.3506V108.295C147.551 113.475 118.629 114.089 82.9513 114.089C47.2738 114.089 18.352 113.475 18.352 108.295V108.291Z" fill="#14143D"/>
<path opacity="0.87" d="M18.5254 108.196V10.3949C18.5254 5.21859 47.3694 6.52392 82.9487 6.52392C118.528 6.52392 147.372 5.21859 147.372 10.3949V108.2C147.372 113.377 118.528 113.99 82.9487 113.99C47.3694 113.99 18.5254 113.381 18.5254 108.2V108.196Z" fill="#14143D"/>
<path opacity="0.88" d="M18.7007 108.103V10.4404C18.7007 5.26824 47.4629 6.57357 82.9482 6.57357C118.433 6.57357 147.196 5.26415 147.196 10.4404V108.103C147.196 113.275 118.429 113.885 82.9482 113.885C47.4629 113.885 18.7007 113.275 18.7007 108.103Z" fill="#14143D"/>
<path opacity="0.88" d="M18.8761 108.008V10.4887C18.8761 5.31647 47.5605 6.62998 82.9476 6.62998C118.335 6.62998 147.019 5.32057 147.019 10.4887V108.012C147.019 113.18 118.335 113.79 82.9476 113.79C47.5605 113.79 18.8761 113.184 18.8761 108.012V108.008Z" fill="#14143D"/>
<path opacity="0.89" d="M19.0534 107.914V10.5345C19.0534 5.36643 47.6601 6.67994 82.949 6.67994C118.238 6.67994 146.849 5.36643 146.849 10.5345V107.914C146.849 113.082 118.242 113.684 82.949 113.684C47.6601 113.684 19.0534 113.082 19.0534 107.914Z" fill="#14143D"/>
<path opacity="0.9" d="M19.2288 107.82V10.5833C19.2288 5.41924 47.7578 6.73685 82.9525 6.73685C118.147 6.73685 146.676 5.41924 146.676 10.5833V107.824C146.676 112.988 118.147 113.589 82.9525 113.589C47.7578 113.589 19.2288 112.988 19.2288 107.824V107.82Z" fill="#14143D"/>
<path opacity="0.91" d="M19.4002 107.726V10.6282C19.4002 5.46823 47.8514 6.78583 82.948 6.78583C118.044 6.78583 146.496 5.46823 146.496 10.6282V107.726C146.496 112.886 118.044 113.483 82.948 113.483C47.8514 113.483 19.4002 112.886 19.4002 107.726Z" fill="#14143D"/>
<path opacity="0.92" d="M19.5766 107.632V10.6735C19.5766 5.51763 47.95 6.83933 82.9483 6.83933C117.947 6.83933 146.32 5.51763 146.32 10.6735V107.632C146.32 112.788 117.947 113.385 82.9483 113.385C47.95 113.385 19.5766 112.792 19.5766 107.632Z" fill="#14143D"/>
<path opacity="0.93" d="M19.7529 107.537V10.7222C19.7529 5.57048 48.0445 6.89218 82.9487 6.89218C117.853 6.89218 146.145 5.56639 146.145 10.7222V107.541C146.145 112.693 117.849 113.287 82.9487 113.287C48.0445 113.287 19.7529 112.693 19.7529 107.541V107.537Z" fill="#14143D"/>
<path opacity="0.93" d="M19.9283 107.444V10.7675C19.9283 5.6158 48.1422 6.94568 82.9481 6.94568C117.754 6.94568 145.968 5.6199 145.968 10.7675V107.444C145.968 112.595 117.754 113.185 82.9481 113.185C48.1422 113.185 19.9283 112.595 19.9283 107.444Z" fill="#14143D"/>
<path opacity="0.94" d="M20.1046 107.35V10.8168C20.1046 5.66919 48.2408 6.99907 82.9526 6.99907C117.66 6.99907 145.801 5.66919 145.801 10.8168V107.354C145.801 112.501 117.665 113.087 82.9526 113.087C48.2449 113.087 20.1046 112.501 20.1046 107.354V107.35Z" fill="#14143D"/>
<path opacity="0.95" d="M20.28 107.255V10.8614C20.28 5.71788 48.3384 7.05185 82.9521 7.05185C117.566 7.05185 145.624 5.71788 145.624 10.8614V107.255C145.624 112.399 117.566 112.984 82.9521 112.984C48.3384 112.984 20.28 112.399 20.28 107.255Z" fill="#14143D"/>
<path opacity="0.96" d="M20.4504 107.165V10.9063C20.4504 5.76686 48.4311 7.10084 82.9465 7.10084C117.462 7.10084 145.443 5.76686 145.443 10.9063V107.161C145.443 112.3 117.462 112.881 82.9465 112.881C48.4311 112.881 20.4504 112.3 20.4504 107.161V107.165Z" fill="#14143D"/>
<path opacity="0.97" d="M20.6278 107.07V10.9551C20.6278 5.81971 48.5307 7.15778 82.9479 7.15778C117.365 7.15778 145.268 5.81971 145.268 10.9551V107.07C145.268 112.206 117.365 112.787 82.9479 112.787C48.5307 112.787 20.6278 112.21 20.6278 107.07Z" fill="#14143D"/>
<path opacity="0.98" d="M20.8032 106.977V11.0009C20.8032 5.86966 48.6242 7.20772 82.9473 7.20772C117.27 7.20772 145.092 5.86556 145.092 11.0009V106.973C145.092 112.104 117.266 112.681 82.9473 112.681C48.6242 112.681 20.8032 112.104 20.8032 106.973V106.977Z" fill="#14143D"/>
<path opacity="0.98" d="M20.9795 106.883V11.0502C20.9795 5.91891 48.7228 7.26515 82.9477 7.26515C117.173 7.26515 144.92 5.923 144.92 11.0502V106.883C144.92 112.015 117.177 112.587 82.9477 112.587C48.7228 112.587 20.9795 112.015 20.9795 106.883Z" fill="#14143D"/>
<path opacity="0.99" d="M21.1559 106.789V11.0946C21.1559 5.96742 48.8214 7.31366 82.9522 7.31366C117.083 7.31366 144.749 5.96742 144.749 11.0946V106.784C144.749 111.912 117.083 112.48 82.9522 112.48C48.8214 112.48 21.1559 111.912 21.1559 106.784V106.789Z" fill="#14143D"/>
<path d="M21.3283 106.695V11.14C21.3283 6.01686 48.9161 7.3672 82.9487 7.3672C116.981 7.3672 144.569 6.01686 144.569 11.14V106.691C144.569 111.814 116.981 112.383 82.9487 112.383C48.9161 112.383 21.3283 111.814 21.3283 106.691V106.695Z" fill="#14143D"/>
</g>
<path d="M160 104.033V11.4124C160 5.10951 154.89 0 148.588 0L17.4862 0C11.1833 0 6.07379 5.10951 6.07379 11.4124V104.033C6.07379 110.336 11.1833 115.446 17.4862 115.446L148.588 115.446C154.89 115.446 160 110.336 160 104.033Z" fill="#1A2C49"/>
</svg>
