<svg width="258" height="490" viewBox="0 0 258 490" fill="none" xmlns="http://www.w3.org/2000/svg">
<path d="M128.447 444.001C127.065 444.001 125.947 444.042 125.947 444.093V459.908C125.947 459.959 127.065 460 128.447 460C129.825 460 130.947 459.959 130.947 459.908V444.093C130.947 444.042 129.829 444 128.447 444V444.001Z" fill="#36A9F3"/>
<path d="M128.447 26.0006C127.065 26.0006 125.947 26.0419 125.947 26.093V41.9082C125.947 41.959 127.065 42.0005 128.447 42.0005C129.825 42.0005 130.947 41.9592 130.947 41.9082V26.0928C130.947 26.0419 129.829 26.0005 128.447 26.0005V26.0006Z" fill="#36A9F3"/>
<path d="M128.895 20.8198C134.644 20.8198 139.305 16.1591 139.305 10.4099C139.305 4.66066 134.644 0 128.895 0C123.146 0 118.485 4.66066 118.485 10.4099C118.485 16.1591 123.146 20.8198 128.895 20.8198Z" fill="#36A9F3"/>
<path d="M128.895 489.195C134.644 489.195 139.305 484.534 139.305 478.785C139.305 473.036 134.644 468.375 128.895 468.375C123.146 468.375 118.485 473.036 118.485 478.785C118.485 484.534 123.146 489.195 128.895 489.195Z" fill="#36A9F3"/>
<path d="M14.199 92.9819H243.593C251.158 92.9819 257.292 99.1152 257.292 106.681V422.005C257.292 429.571 251.158 435.704 243.593 435.704H14.199C6.63325 435.704 0.5 429.571 0.5 422.005V106.681C0.5 99.1152 6.63325 92.9819 14.199 92.9819Z" fill="#1A2C49" fill-opacity="0.29" stroke="#36A9F3"/>
<g opacity="0.2">
<path opacity="0.02" d="M46.4277 168.891V56.5881C46.4277 51.0639 83.3492 52.0869 128.897 52.0869C174.444 52.0869 211.365 51.0639 211.365 56.5881V168.891C211.365 174.415 174.444 175.307 128.897 175.307C83.3492 175.307 46.4277 174.415 46.4277 168.891Z" fill="#14143D"/>
<path opacity="0.02" d="M46.6041 168.796V56.632C46.6041 51.1119 83.4478 52.139 128.897 52.139C174.346 52.139 211.19 51.1119 211.19 56.632V168.796C211.19 174.316 174.346 175.208 128.897 175.208C83.4478 175.208 46.6041 174.316 46.6041 168.796Z" fill="#14143D"/>
<path opacity="0.03" d="M46.7784 168.703V56.6818C46.7784 51.1659 83.5444 52.193 128.895 52.193C174.25 52.193 211.012 51.1618 211.012 56.6818V168.703C211.012 174.218 174.246 175.106 128.895 175.106C83.5404 175.106 46.7784 174.218 46.7784 168.703Z" fill="#14143D"/>
<path opacity="0.04" d="M46.9548 168.609V56.727C46.9548 51.2152 83.6431 52.2464 128.896 52.2464C174.153 52.2464 210.841 51.2152 210.841 56.727V168.609C210.841 174.125 174.153 175.008 128.896 175.008C83.639 175.008 46.9548 174.125 46.9548 168.609Z" fill="#14143D"/>
<path opacity="0.05" d="M47.1311 168.514V56.7713C47.1311 51.2595 83.7376 52.2947 128.9 52.2947C174.059 52.2947 210.669 51.2595 210.669 56.7713V168.514C210.669 174.026 174.059 174.905 128.9 174.905C83.7417 174.905 47.1311 174.022 47.1311 168.514Z" fill="#14143D"/>
<path opacity="0.06" d="M47.3016 168.42V56.8206C47.3016 51.3128 83.8303 52.3522 128.895 52.3522C173.959 52.3522 210.488 51.3128 210.488 56.8206V168.42C210.488 173.928 173.959 174.807 128.895 174.807C83.8303 174.807 47.3016 173.928 47.3016 168.42Z" fill="#14143D"/>
<path opacity="0.07" d="M47.4789 168.326V56.8659C47.4789 51.3623 83.9299 52.4016 128.896 52.4016C173.862 52.4016 210.313 51.3623 210.313 56.8659V168.326C210.313 173.83 173.862 174.705 128.896 174.705C83.9299 174.705 47.4789 173.83 47.4789 168.326Z" fill="#14143D"/>
<path opacity="0.07" d="M47.6543 168.232V56.9147C47.6543 51.4152 84.0275 52.4586 128.896 52.4586C173.764 52.4586 210.137 51.4152 210.137 56.9147V168.232C210.137 173.731 173.764 174.607 128.896 174.607C84.0275 174.607 47.6543 173.731 47.6543 168.232Z" fill="#14143D"/>
<path opacity="0.08" d="M47.8306 168.138V56.9597C47.8306 51.4642 84.1261 52.5077 128.896 52.5077C173.67 52.5077 209.961 51.4602 209.961 56.9597V168.138C209.961 173.633 173.666 174.505 128.896 174.505C84.122 174.505 47.8306 173.633 47.8306 168.138Z" fill="#14143D"/>
<path opacity="0.09" d="M48.006 168.044V57.009C48.006 51.5136 84.2237 52.5652 128.899 52.5652C173.575 52.5652 209.793 51.5177 209.793 57.009V168.044C209.793 173.539 173.575 174.407 128.899 174.407C84.2237 174.407 48.006 173.539 48.006 168.044Z" fill="#14143D"/>
<path opacity="0.1" d="M48.1814 167.95V57.0543C48.1814 51.563 84.3172 52.6146 128.899 52.6146C173.476 52.6146 209.616 51.563 209.616 57.0543V167.95C209.616 173.441 173.476 174.305 128.899 174.305C84.3213 174.305 48.1814 173.437 48.1814 167.95Z" fill="#14143D"/>
<path opacity="0.11" d="M48.3538 167.855V57.0988C48.3538 51.6115 84.4119 52.6672 128.895 52.6672C173.379 52.6672 209.437 51.6115 209.437 57.0988V167.855C209.437 173.342 173.379 174.206 128.895 174.206C84.4119 174.206 48.3538 173.342 48.3538 167.855Z" fill="#14143D"/>
<path opacity="0.12" d="M48.5291 167.762V57.1485C48.5291 51.6653 84.5095 52.721 128.895 52.721C173.28 52.721 209.26 51.6653 209.26 57.1485V167.762C209.26 173.245 173.28 174.104 128.895 174.104C84.5095 174.104 48.5291 173.245 48.5291 167.762Z" fill="#14143D"/>
<path opacity="0.12" d="M48.7065 167.667V57.1927C48.7065 51.7136 84.6091 52.7734 128.896 52.7734C173.183 52.7734 209.086 51.7136 209.086 57.1927V167.667C209.086 173.146 173.183 174.005 128.896 174.005C84.6091 174.005 48.7065 173.15 48.7065 167.667Z" fill="#14143D"/>
<path opacity="0.13" d="M48.8818 167.573V57.2421C48.8818 51.7671 84.7067 52.8269 128.895 52.8269C173.088 52.8269 208.913 51.763 208.913 57.2421V167.573C208.913 173.048 173.088 173.903 128.895 173.903C84.7026 173.903 48.8818 173.048 48.8818 167.573Z" fill="#14143D"/>
<path opacity="0.14" d="M49.0582 167.479V57.287C49.0582 51.812 84.8012 52.88 128.9 52.88C172.995 52.88 208.742 51.8161 208.742 57.287V167.479C208.742 172.954 172.995 173.805 128.9 173.805C84.8053 173.805 49.0582 172.954 49.0582 167.479Z" fill="#14143D"/>
<path opacity="0.15" d="M49.2296 167.384V57.3319C49.2296 51.8609 84.8949 52.9289 128.895 52.9289C172.892 52.9289 208.561 51.8609 208.561 57.3319V167.384C208.561 172.855 172.892 173.702 128.895 173.702C84.8949 173.702 49.2296 172.851 49.2296 167.384Z" fill="#14143D"/>
<path opacity="0.16" d="M49.405 167.29V57.3812C49.405 51.9144 84.9925 52.9865 128.895 52.9865C172.797 52.9865 208.385 51.9144 208.385 57.3812V167.29C208.385 172.757 172.797 173.604 128.895 173.604C84.9925 173.604 49.405 172.757 49.405 167.29Z" fill="#14143D"/>
<path opacity="0.17" d="M49.5813 167.197V57.427C49.5813 51.9643 85.0911 53.0364 128.895 53.0364C172.699 53.0364 208.209 51.9643 208.209 57.427V167.197C208.209 172.66 172.699 173.503 128.895 173.503C85.0911 173.503 49.5813 172.66 49.5813 167.197Z" fill="#14143D"/>
<path opacity="0.17" d="M49.7577 167.103V57.4759C49.7577 52.0172 85.1897 53.0934 128.896 53.0934C172.606 53.0934 208.038 52.0172 208.038 57.4759V167.103C208.038 172.561 172.606 173.404 128.896 173.404C85.1856 173.404 49.7577 172.561 49.7577 167.103Z" fill="#14143D"/>
<path opacity="0.18" d="M49.934 167.008V57.5202C49.934 52.0656 85.2883 53.1418 128.9 53.1418C172.512 53.1418 207.866 52.0615 207.866 57.5202V167.008C207.866 172.467 172.512 173.301 128.9 173.301C85.2883 173.301 49.934 172.463 49.934 167.008Z" fill="#14143D"/>
<path opacity="0.19" d="M50.1084 166.914V57.5651C50.1084 52.1106 85.3809 53.1949 128.899 53.1949C172.412 53.1949 207.689 52.1147 207.689 57.5651V166.914C207.689 172.368 172.412 173.203 128.899 173.203C85.385 173.203 50.1084 172.368 50.1084 166.914Z" fill="#14143D"/>
<path opacity="0.2" d="M50.2808 166.82V57.6148C50.2808 52.1644 85.4755 53.2487 128.895 53.2487C172.315 53.2487 207.509 52.1644 207.509 57.6148V166.82C207.509 172.271 172.315 173.101 128.895 173.101C85.4755 173.101 50.2808 172.271 50.2808 166.82Z" fill="#14143D"/>
<path opacity="0.21" d="M50.4572 166.726V57.6593C50.4572 52.213 85.5742 53.3014 128.895 53.3014C172.217 53.3014 207.334 52.213 207.334 57.6593V166.726C207.334 172.172 172.217 173.003 128.895 173.003C85.5742 173.003 50.4572 172.172 50.4572 166.726Z" fill="#14143D"/>
<path opacity="0.21" d="M50.6316 166.632V57.709C50.6316 52.2668 85.6708 53.3552 128.894 53.3552C172.117 53.3552 207.156 52.2668 207.156 57.709V166.632C207.156 172.074 172.117 172.901 128.894 172.901C85.6708 172.901 50.6316 172.074 50.6316 166.632Z" fill="#14143D"/>
<path opacity="0.22" d="M50.8089 166.538V57.7535C50.8089 52.3153 85.7704 53.4079 128.899 53.4079C172.028 53.4079 206.99 52.3153 206.99 57.7535V166.538C206.99 171.976 172.028 172.802 128.899 172.802C85.7704 172.802 50.8089 171.98 50.8089 166.538Z" fill="#14143D"/>
<path opacity="0.23" d="M50.9843 166.443V57.7986C50.9843 52.3604 85.868 53.457 128.899 53.457C171.93 53.457 206.813 52.3604 206.813 57.7986V166.443C206.813 171.882 171.93 172.7 128.899 172.7C85.868 172.7 50.9843 171.878 50.9843 166.443Z" fill="#14143D"/>
<path opacity="0.24" d="M51.1567 166.35V57.848C51.1567 52.4139 85.9586 53.5146 128.895 53.5146C171.828 53.5146 206.634 52.418 206.634 57.848V166.35C206.634 171.784 171.828 172.602 128.895 172.602C85.9627 172.602 51.1567 171.784 51.1567 166.35Z" fill="#14143D"/>
<path opacity="0.25" d="M51.333 166.255V57.8925C51.333 52.4625 86.0572 53.5633 128.896 53.5633C171.734 53.5633 206.458 52.4625 206.458 57.8925V166.255C206.458 171.685 171.734 172.499 128.896 172.499C86.0572 172.499 51.333 171.685 51.333 166.255Z" fill="#14143D"/>
<path opacity="0.26" d="M51.5084 166.161V57.9414C51.5084 52.5155 86.1548 53.6204 128.895 53.6204C171.635 53.6204 206.282 52.5155 206.282 57.9414V166.161C206.282 171.587 171.635 172.401 128.895 172.401C86.1548 172.401 51.5084 171.587 51.5084 166.161Z" fill="#14143D"/>
<path opacity="0.26" d="M51.6847 166.067V57.9873C51.6847 52.5654 86.2534 53.6703 128.895 53.6703C171.537 53.6703 206.11 52.5654 206.11 57.9873V166.067C206.11 171.489 171.542 172.299 128.895 172.299C86.2534 172.299 51.6847 171.489 51.6847 166.067Z" fill="#14143D"/>
<path opacity="0.27" d="M51.8611 165.973V58.0361C51.8611 52.6184 86.352 53.7273 128.9 53.7273C171.448 53.7273 205.939 52.6184 205.939 58.0361V165.973C205.939 171.391 171.448 172.201 128.9 172.201C86.352 172.201 51.8611 171.395 51.8611 165.973Z" fill="#14143D"/>
<path opacity="0.28" d="M52.0325 165.879V58.0812C52.0325 52.6635 86.4457 53.7765 128.895 53.7765C171.345 53.7765 205.758 52.6635 205.758 58.0812V165.879C205.758 171.297 171.345 172.099 128.895 172.099C86.4457 172.099 52.0325 171.293 52.0325 165.879Z" fill="#14143D"/>
<path opacity="0.29" d="M52.2089 165.784V58.1253C52.2089 52.7116 86.5402 53.8287 128.896 53.8287C171.247 53.8287 205.583 52.7157 205.583 58.1253V165.784C205.583 171.198 171.247 172 128.896 172C86.5402 172 52.2089 171.198 52.2089 165.784Z" fill="#14143D"/>
<path opacity="0.3" d="M52.3852 165.691V58.1755C52.3852 52.7659 86.6388 53.883 128.896 53.883C171.154 53.883 205.407 52.7659 205.407 58.1755V165.691C205.407 171.101 171.154 171.898 128.896 171.898C86.6388 171.898 52.3852 171.101 52.3852 165.691Z" fill="#14143D"/>
<path opacity="0.31" d="M52.5606 165.597V58.2205C52.5606 52.815 86.7364 53.9362 128.896 53.9362C171.055 53.9362 205.231 52.815 205.231 58.2205V165.597C205.231 171.002 171.055 171.8 128.896 171.8C86.7364 171.8 52.5606 171.002 52.5606 165.597Z" fill="#14143D"/>
<path opacity="0.31" d="M52.7359 165.502V58.2692C52.7359 52.8679 86.834 53.9891 128.899 53.9891C170.964 53.9891 205.062 52.8679 205.062 58.2692V165.502C205.062 170.904 170.964 171.698 128.899 171.698C86.834 171.698 52.7359 170.904 52.7359 165.502Z" fill="#14143D"/>
<path opacity="0.32" d="M52.9113 165.408V58.314C52.9113 52.9167 86.9316 54.042 128.899 54.042C170.865 54.042 204.886 52.9167 204.886 58.314V165.408C204.886 170.805 170.865 171.599 128.899 171.599C86.9316 171.599 52.9113 170.809 52.9113 165.408Z" fill="#14143D"/>
<path opacity="0.33" d="M53.0847 165.314V58.3591C53.0847 52.9618 87.0273 54.0912 128.896 54.0912C170.765 54.0912 204.707 52.9618 204.707 58.3591V165.314C204.707 170.711 170.765 171.497 128.896 171.497C87.0273 171.497 53.0847 170.707 53.0847 165.314Z" fill="#14143D"/>
<path opacity="0.34" d="M53.2591 165.22V58.4083C53.2591 53.0152 87.1198 54.1446 128.894 54.1446C170.669 54.1446 204.53 53.0152 204.53 58.4083V165.22C204.53 170.613 170.665 171.399 128.894 171.399C87.1198 171.399 53.2591 170.613 53.2591 165.22Z" fill="#14143D"/>
<path opacity="0.35" d="M53.4345 165.126V58.4534C53.4345 53.0643 87.2175 54.1978 128.894 54.1978C170.57 54.1978 204.353 53.0643 204.353 58.4534V165.126C204.353 170.515 170.57 171.301 128.894 171.301C87.2175 171.301 53.4345 170.519 53.4345 165.126Z" fill="#14143D"/>
<path opacity="0.36" d="M53.6118 165.032V58.5024C53.6118 53.1174 87.3171 54.2509 128.895 54.2509C170.473 54.2509 204.183 53.1133 204.183 58.5024V165.032C204.183 170.417 170.477 171.198 128.895 171.198C87.3171 171.198 53.6118 170.417 53.6118 165.032Z" fill="#14143D"/>
<path opacity="0.36" d="M53.7881 164.938V58.5481C53.7881 53.1672 87.4157 54.3048 128.9 54.3048C170.384 54.3048 204.011 53.1672 204.011 58.5481V164.938C204.011 170.319 170.384 171.101 128.9 171.101C87.4157 171.101 53.7881 170.323 53.7881 164.938Z" fill="#14143D"/>
<path opacity="0.37" d="M53.9596 164.844V58.5925C53.9596 53.2116 87.5093 54.3533 128.895 54.3533C170.281 54.3533 203.831 53.2116 203.831 58.5925V164.844C203.831 170.225 170.281 170.998 128.895 170.998C87.5093 170.998 53.9596 170.225 53.9596 164.844Z" fill="#14143D"/>
<path opacity="0.38" d="M54.1359 164.75V58.6417C54.1359 53.2649 87.6079 54.4107 128.896 54.4107C170.183 54.4107 203.655 53.2649 203.655 58.6417V164.75C203.655 170.126 170.183 170.9 128.896 170.9C87.6079 170.9 54.1359 170.126 54.1359 164.75Z" fill="#14143D"/>
<path opacity="0.39" d="M54.3123 164.656V58.6868C54.3123 53.3141 87.7024 54.4598 128.896 54.4598C170.089 54.4598 203.48 53.3141 203.48 58.6868V164.656C203.48 170.028 170.085 170.798 128.896 170.798C87.7024 170.798 54.3123 170.028 54.3123 164.656Z" fill="#14143D"/>
<path opacity="0.4" d="M54.4886 164.561V58.7358C54.4886 53.3672 87.801 54.517 128.896 54.517C169.992 54.517 203.308 53.3672 203.308 58.7358V164.561C203.308 169.93 169.996 170.699 128.896 170.699C87.801 170.699 54.4886 169.934 54.4886 164.561Z" fill="#14143D"/>
<path opacity="0.4" d="M54.664 164.467V58.7809C54.664 53.4164 87.8987 54.5662 128.9 54.5662C169.897 54.5662 203.136 53.4123 203.136 58.7809V164.467C203.136 169.832 169.901 170.597 128.9 170.597C87.9028 170.597 54.664 169.832 54.664 164.467Z" fill="#14143D"/>
<path opacity="0.41" d="M54.8403 164.373V58.8257C54.8403 53.4652 87.9973 54.6192 128.9 54.6192C169.803 54.6192 202.96 53.4652 202.96 58.8257V164.373C202.96 169.733 169.803 170.499 128.9 170.499C87.9973 170.499 54.8403 169.738 54.8403 164.373Z" fill="#14143D"/>
<path opacity="0.42" d="M55.0118 164.279V58.8747C55.0118 53.5143 88.0909 54.6723 128.896 54.6723C169.7 54.6723 202.78 53.5143 202.78 58.8747V164.279C202.78 169.639 169.7 170.396 128.896 170.396C88.0909 170.396 55.0118 169.639 55.0118 164.279Z" fill="#14143D"/>
<path opacity="0.43" d="M55.1881 164.186V58.9208C55.1881 53.5644 88.1895 54.7265 128.896 54.7265C169.603 54.7265 202.604 53.5644 202.604 58.9208V164.186C202.604 169.542 169.603 170.299 128.896 170.299C88.1855 170.299 55.1881 169.542 55.1881 164.186Z" fill="#14143D"/>
<path opacity="0.44" d="M55.3635 164.091V58.969C55.3635 53.6168 88.2831 54.7789 128.896 54.7789C169.508 54.7789 202.428 53.6168 202.428 58.969V164.091C202.428 169.443 169.504 170.196 128.896 170.196C88.2831 170.196 55.3635 169.443 55.3635 164.091Z" fill="#14143D"/>
<path opacity="0.45" d="M55.5388 163.997V59.0144C55.5388 53.6662 88.3807 54.8324 128.895 54.8324C169.409 54.8324 202.255 53.6662 202.255 59.0144V163.997C202.255 169.345 169.413 170.098 128.895 170.098C88.3807 170.098 55.5388 169.349 55.5388 163.997Z" fill="#14143D"/>
<path opacity="0.45" d="M55.7162 163.902V59.0629C55.7162 53.7189 88.4803 54.8851 128.9 54.8851C169.321 54.8851 202.085 53.7148 202.085 59.0629V163.902C202.085 169.246 169.321 169.995 128.9 169.995C88.4803 169.995 55.7162 169.246 55.7162 163.902Z" fill="#14143D"/>
<path opacity="0.46" d="M55.8866 163.808V59.1082C55.8866 53.7682 88.573 54.9385 128.895 54.9385C169.217 54.9385 201.903 53.7682 201.903 59.1082V163.808C201.903 169.148 169.217 169.897 128.895 169.897C88.573 169.897 55.8866 169.153 55.8866 163.808Z" fill="#14143D"/>
<path opacity="0.47" d="M56.063 163.715V59.1538C56.063 53.8139 88.6716 54.9883 128.895 54.9883C169.119 54.9883 201.728 53.8139 201.728 59.1538V163.715C201.728 169.055 169.119 169.796 128.895 169.796C88.6716 169.796 56.063 169.055 56.063 163.715Z" fill="#14143D"/>
<path opacity="0.48" d="M56.2393 163.62V59.2019C56.2393 53.866 88.7702 55.0445 128.896 55.0445C169.025 55.0445 201.552 53.866 201.552 59.2019V163.624C201.552 168.96 169.021 169.7 128.896 169.7C88.7661 169.7 56.2393 168.96 56.2393 163.624V163.62Z" fill="#14143D"/>
<path opacity="0.49" d="M56.4147 163.527V59.2477C56.4147 53.9159 88.8637 55.0944 128.895 55.0944C168.926 55.0944 201.38 53.9159 201.38 59.2477V163.527C201.38 168.858 168.926 169.595 128.895 169.595C88.8637 169.595 56.4147 168.858 56.4147 163.527Z" fill="#14143D"/>
<path opacity="0.5" d="M56.591 163.432V59.2967C56.591 53.969 88.9623 55.1516 128.9 55.1516C168.833 55.1516 201.208 53.969 201.208 59.2967V163.436C201.208 168.764 168.837 169.501 128.9 169.501C88.9664 169.501 56.591 168.768 56.591 163.436V163.432Z" fill="#14143D"/>
<path opacity="0.5" d="M56.7674 163.338V59.3419C56.7674 54.0183 89.0609 55.2008 128.9 55.2008C168.739 55.2008 201.033 54.0142 201.033 59.3419V163.338C201.033 168.662 168.739 169.394 128.9 169.394C89.0609 169.394 56.7674 168.662 56.7674 163.338Z" fill="#14143D"/>
<path opacity="0.51" d="M56.9398 163.244V59.3863C56.9398 54.0627 89.1556 55.2534 128.896 55.2534C168.637 55.2534 200.853 54.0667 200.853 59.3863V163.244C200.853 168.567 168.637 169.296 128.896 169.296C89.1556 169.296 56.9398 168.567 56.9398 163.244Z" fill="#14143D"/>
<path opacity="0.52" d="M57.1152 163.15V59.4355C57.1152 54.116 89.2532 55.3067 128.896 55.3067C168.538 55.3067 200.677 54.116 200.677 59.4355V163.154C200.677 168.473 168.538 169.198 128.896 169.198C89.2532 169.198 57.1152 168.473 57.1152 163.154V163.15Z" fill="#14143D"/>
<path opacity="0.53" d="M57.2905 163.056V59.4806C57.2905 54.1652 89.3508 55.36 128.895 55.36C168.444 55.36 200.5 54.1652 200.5 59.4806V163.056C200.5 168.371 168.44 169.095 128.895 169.095C89.3467 169.095 57.2905 168.371 57.2905 163.056Z" fill="#14143D"/>
<path opacity="0.54" d="M57.4669 162.961V59.5294C57.4669 54.2181 89.4453 55.4129 128.896 55.4129C168.346 55.4129 200.329 54.2181 200.329 59.5294V162.965C200.329 168.277 168.346 168.997 128.896 168.997C89.4453 168.997 57.4669 168.277 57.4669 162.965V162.961Z" fill="#14143D"/>
<path opacity="0.55" d="M57.6423 162.867V59.574C57.6423 54.2668 89.543 55.4657 128.899 55.4657C168.251 55.4657 200.156 54.2668 200.156 59.574V162.867C200.156 168.174 168.255 168.894 128.899 168.894C89.5471 168.894 57.6423 168.178 57.6423 162.867Z" fill="#14143D"/>
<path opacity="0.55" d="M57.8147 162.774V59.6202C57.8147 54.317 89.6376 55.516 128.896 55.516C168.154 55.516 199.977 54.313 199.977 59.6202V162.774C199.977 168.077 168.154 168.793 128.896 168.793C89.6376 168.793 57.8147 168.077 57.8147 162.774Z" fill="#14143D"/>
<path opacity="0.56" d="M57.991 162.68V59.6692C57.991 54.3661 89.7362 55.5732 128.896 55.5732C168.056 55.5732 199.801 54.3702 199.801 59.6692V162.684C199.801 167.987 168.056 168.699 128.896 168.699C89.7362 168.699 57.991 167.987 57.991 162.684V162.68Z" fill="#14143D"/>
<path opacity="0.57" d="M58.1664 162.585V59.7134C58.1664 54.4143 89.8338 55.6214 128.895 55.6214C167.961 55.6214 199.625 54.4143 199.625 59.7134V162.585C199.625 167.884 167.957 168.592 128.895 168.592C89.8298 168.592 58.1664 167.884 58.1664 162.585Z" fill="#14143D"/>
<path opacity="0.58" d="M58.3418 162.49V59.7624C58.3418 54.4675 89.9315 55.6787 128.895 55.6787C167.862 55.6787 199.452 54.4675 199.452 59.7624V162.494C199.452 167.789 167.862 168.497 128.895 168.497C89.9274 168.497 58.3418 167.789 58.3418 162.494V162.49Z" fill="#14143D"/>
<path opacity="0.59" d="M58.5191 162.397V59.8078C58.5191 54.5169 90.027 55.7281 128.9 55.7281C167.77 55.7281 199.282 54.5169 199.282 59.8078V162.397C199.282 167.687 167.77 168.391 128.9 168.391C90.0311 168.391 58.5191 167.687 58.5191 162.397Z" fill="#14143D"/>
<path opacity="0.6" d="M58.6895 162.303V59.8529C58.6895 54.5661 90.1196 55.7814 128.895 55.7814C167.67 55.7814 199.1 54.5661 199.1 59.8529V162.303C199.1 167.589 167.67 168.293 128.895 168.293C90.1196 168.293 58.6895 167.594 58.6895 162.303Z" fill="#14143D"/>
<path opacity="0.6" d="M58.8659 162.209V59.9025C58.8659 54.6157 90.2183 55.8351 128.895 55.8351C167.572 55.8351 198.925 54.6157 198.925 59.9025V162.213C198.925 167.496 167.572 168.196 128.895 168.196C90.2183 168.196 58.8659 167.496 58.8659 162.213V162.209Z" fill="#14143D"/>
<path opacity="0.61" d="M59.0422 162.114V59.9467C59.0422 54.664 90.3169 55.8875 128.896 55.8875C167.474 55.8875 198.749 54.6681 198.749 59.9467V162.114C198.749 167.397 167.474 168.092 128.896 168.092C90.3169 168.092 59.0422 167.397 59.0422 162.114Z" fill="#14143D"/>
<path opacity="0.62" d="M59.2186 162.02V59.996C59.2186 54.7174 90.4155 55.9409 128.896 55.9409C167.381 55.9409 198.573 54.7174 198.573 59.996V162.024C198.573 167.303 167.377 167.994 128.896 167.994C90.4114 167.994 59.2186 167.303 59.2186 162.024V162.02Z" fill="#14143D"/>
<path opacity="0.63" d="M59.3939 161.926V60.0411C59.3939 54.7666 90.5131 55.9942 128.9 55.9942C167.286 55.9942 198.405 54.7666 198.405 60.0411V161.926C198.405 167.201 167.286 167.892 128.9 167.892C90.5131 167.892 59.3939 167.201 59.3939 161.926Z" fill="#14143D"/>
<path opacity="0.64" d="M59.5703 161.833V60.0909C59.5703 54.8205 90.6076 56.0481 128.9 56.0481C167.188 56.0481 198.23 54.8205 198.23 60.0909V161.837C198.23 167.107 167.188 167.795 128.9 167.795C90.6117 167.795 59.5703 167.107 59.5703 161.837V161.833Z" fill="#14143D"/>
<path opacity="0.64" d="M59.7427 161.738V60.1348C59.7427 54.8685 90.7023 56.1002 128.896 56.1002C167.09 56.1002 198.05 54.8685 198.05 60.1348V161.738C198.05 167.004 167.09 167.691 128.896 167.691C90.7023 167.691 59.7427 167.008 59.7427 161.738Z" fill="#14143D"/>
<path opacity="0.65" d="M59.9171 161.645V60.181C59.9171 54.9147 90.7989 56.1505 128.895 56.1505C166.991 56.1505 197.872 54.9147 197.872 60.181V161.645C197.872 166.911 166.991 167.59 128.895 167.59C90.7989 167.59 59.9171 166.907 59.9171 161.645Z" fill="#14143D"/>
<path opacity="0.66" d="M60.0944 161.549V60.2292C60.0944 54.9669 90.8985 56.2068 128.896 56.2068C166.894 56.2068 197.698 54.971 197.698 60.2292V161.554C197.698 166.816 166.894 167.495 128.896 167.495C90.8985 167.495 60.0944 166.816 60.0944 161.554V161.549Z" fill="#14143D"/>
<path opacity="0.67" d="M60.2698 161.456V60.2745C60.2698 55.0164 90.9961 56.2562 128.896 56.2562C166.799 56.2562 197.525 55.0164 197.525 60.2745V161.456C197.525 166.714 166.799 167.389 128.896 167.389C90.992 167.389 60.2698 166.714 60.2698 161.456Z" fill="#14143D"/>
<path opacity="0.68" d="M60.4461 161.361V60.3231C60.4461 55.0691 91.0906 56.313 128.9 56.313C166.705 56.313 197.354 55.0691 197.354 60.3231V161.365C197.354 166.619 166.705 167.294 128.9 167.294C91.0947 167.294 60.4461 166.619 60.4461 161.365V161.361Z" fill="#14143D"/>
<path opacity="0.69" d="M60.6176 161.267V60.3685C60.6176 55.1185 91.1843 56.3625 128.896 56.3625C166.603 56.3625 197.174 55.1185 197.174 60.3685V161.267C197.174 166.517 166.607 167.188 128.896 167.188C91.1884 167.188 60.6176 166.517 60.6176 161.267Z" fill="#14143D"/>
<path opacity="0.69" d="M60.7929 161.173V60.4137C60.7929 55.1678 91.2819 56.4159 128.895 56.4159C166.508 56.4159 196.997 55.1678 196.997 60.4137V161.173C196.997 166.419 166.508 167.09 128.895 167.09C91.2819 167.09 60.7929 166.423 60.7929 161.173Z" fill="#14143D"/>
<path opacity="0.7" d="M60.9693 161.079V60.4626C60.9693 55.2167 91.3805 56.4689 128.895 56.4689C166.41 56.4689 196.821 55.2167 196.821 60.4626V161.083C196.821 166.329 166.41 166.992 128.895 166.992C91.3805 166.992 60.9693 166.325 60.9693 161.083V161.079Z" fill="#14143D"/>
<path opacity="0.71" d="M61.1456 160.985V60.5073C61.1456 55.2655 91.4791 56.5218 128.896 56.5218C166.316 56.5218 196.65 55.2696 196.65 60.5073V160.985C196.65 166.226 166.316 166.889 128.896 166.889C91.475 166.889 61.1456 166.226 61.1456 160.985Z" fill="#14143D"/>
<path opacity="0.72" d="M61.321 160.891V60.5566C61.321 55.3189 91.5768 56.5751 128.899 56.5751C166.222 56.5751 196.478 55.3189 196.478 60.5566V160.895C196.478 166.133 166.222 166.791 128.899 166.791C91.5768 166.791 61.321 166.133 61.321 160.895V160.891Z" fill="#14143D"/>
<path opacity="0.73" d="M61.4964 160.796V60.6013C61.4964 55.3677 91.6703 56.628 128.899 56.628C166.123 56.628 196.301 55.3677 196.301 60.6013V160.796C196.301 166.03 166.123 166.689 128.899 166.689C91.6744 166.689 61.4964 166.03 61.4964 160.796Z" fill="#14143D"/>
<path opacity="0.74" d="M61.6688 160.703V60.6467C61.6688 55.4172 91.7649 56.6775 128.895 56.6775C166.025 56.6775 196.121 55.4172 196.121 60.6467V160.703C196.121 165.932 166.025 166.587 128.895 166.587C91.7649 166.587 61.6688 165.932 61.6688 160.703Z" fill="#14143D"/>
<path opacity="0.74" d="M61.8451 160.608V60.6957C61.8451 55.4662 91.8635 56.7347 128.896 56.7347C165.928 56.7347 195.946 55.4703 195.946 60.6957V160.613C195.946 165.838 165.928 166.493 128.896 166.493C91.8635 166.493 61.8451 165.842 61.8451 160.613V160.608Z" fill="#14143D"/>
<path opacity="0.75" d="M62.0205 160.514V60.7406C62.0205 55.5152 91.9612 56.7837 128.895 56.7837C165.829 56.7837 195.769 55.5152 195.769 60.7406V160.514C195.769 165.74 165.829 166.386 128.895 166.386C91.9612 166.386 62.0205 165.735 62.0205 160.514Z" fill="#14143D"/>
<path opacity="0.76" d="M62.1968 160.42V60.7897C62.1968 55.5684 92.0598 56.841 128.895 56.841C165.735 56.841 195.598 55.5725 195.598 60.7897V160.424C195.598 165.645 165.735 166.292 128.895 166.292C92.0557 166.292 62.1968 165.645 62.1968 160.424V160.42Z" fill="#14143D"/>
<path opacity="0.77" d="M62.3732 160.327V60.8353C62.3732 55.6181 92.1584 56.8907 128.9 56.8907C165.641 56.8907 195.426 55.6181 195.426 60.8353V160.327C195.426 165.544 165.641 166.186 128.9 166.186C92.1584 166.186 62.3732 165.544 62.3732 160.327Z" fill="#14143D"/>
<path opacity="0.78" d="M62.5446 160.232V60.8801C62.5446 55.667 92.248 56.9437 128.895 56.9437C165.539 56.9437 195.246 55.667 195.246 60.8801V160.232C195.246 165.445 165.539 166.088 128.895 166.088C92.252 166.088 62.5446 165.445 62.5446 160.232Z" fill="#14143D"/>
<path opacity="0.79" d="M62.72 160.138V60.9294C62.72 55.7203 92.3456 56.997 128.895 56.997C165.444 56.997 195.069 55.7203 195.069 60.9294V160.142C195.069 165.351 165.444 165.99 128.895 165.99C92.3456 165.99 62.72 165.351 62.72 160.142V160.138Z" fill="#14143D"/>
<path opacity="0.79" d="M62.8963 160.044V60.9742C62.8963 55.7651 92.4442 57.0459 128.895 57.0459C165.346 57.0459 194.894 55.7651 194.894 60.9742V160.044C194.894 165.253 165.346 165.887 128.895 165.887C92.4442 165.887 62.8963 165.253 62.8963 160.044Z" fill="#14143D"/>
<path opacity="0.8" d="M63.0727 159.95V61.0233C63.0727 55.8184 92.5428 57.1033 128.896 57.1033C165.248 57.1033 194.722 55.8184 194.722 61.0233V159.954C194.722 165.159 165.252 165.789 128.896 165.789C92.5428 165.789 63.0727 165.155 63.0727 159.954V159.95Z" fill="#14143D"/>
<path opacity="0.81" d="M63.248 159.856V61.0682C63.248 55.8674 92.6404 57.1522 128.899 57.1522C165.158 57.1522 194.55 55.8674 194.55 61.0682V159.856C194.55 165.057 165.158 165.687 128.899 165.687C92.6404 165.687 63.248 165.057 63.248 159.856Z" fill="#14143D"/>
<path opacity="0.82" d="M63.4244 159.762V61.1179C63.4244 55.9211 92.739 57.2101 128.899 57.2101C165.06 57.2101 194.374 55.9211 194.374 61.1179V159.766C194.374 164.963 165.06 165.593 128.899 165.593C92.739 165.593 63.4244 164.967 63.4244 159.766V159.762Z" fill="#14143D"/>
<path opacity="0.83" d="M63.5958 159.667V61.162C63.5958 55.9693 92.8286 57.2582 128.895 57.2582C164.957 57.2582 194.194 55.9652 194.194 61.162V159.671C194.194 164.864 164.957 165.49 128.895 165.49C92.8327 165.49 63.5958 164.864 63.5958 159.671V159.667Z" fill="#14143D"/>
<path opacity="0.83" d="M63.7722 159.573V61.2073C63.7722 56.0187 92.9272 57.3118 128.895 57.3118C164.863 57.3118 194.018 56.0187 194.018 61.2073V159.573C194.018 164.762 164.863 165.388 128.895 165.388C92.9272 165.388 63.7722 164.766 63.7722 159.573Z" fill="#14143D"/>
<path opacity="0.84" d="M63.9475 159.479V61.2565C63.9475 56.0679 93.0248 57.3651 128.895 57.3651C164.765 57.3651 193.842 56.0679 193.842 61.2565V159.483C193.842 164.672 164.765 165.29 128.895 165.29C93.0248 165.29 63.9475 164.672 63.9475 159.483V159.479Z" fill="#14143D"/>
<path opacity="0.85" d="M64.1229 159.385V61.3013C64.1229 56.1168 93.1224 57.418 128.898 57.418C164.674 57.418 193.673 56.1168 193.673 61.3013V159.385C193.673 164.569 164.674 165.187 128.898 165.187C93.1224 165.187 64.1229 164.569 64.1229 159.385Z" fill="#14143D"/>
<path opacity="0.86" d="M64.2993 159.291V61.3511C64.2993 56.1707 93.221 57.4719 128.899 57.4719C164.576 57.4719 193.498 56.1707 193.498 61.3511V159.296C193.498 164.476 164.576 165.09 128.899 165.09C93.221 165.09 64.2993 164.476 64.2993 159.296V159.291Z" fill="#14143D"/>
<path opacity="0.87" d="M64.4727 159.197V61.3954C64.4727 56.2191 93.3167 57.5244 128.896 57.5244C164.475 57.5244 193.319 56.2191 193.319 61.3954V159.201C193.319 164.377 164.475 164.991 128.896 164.991C93.3167 164.991 64.4727 164.381 64.4727 159.201V159.197Z" fill="#14143D"/>
<path opacity="0.88" d="M64.648 159.103V61.4409C64.648 56.2687 93.4102 57.5741 128.895 57.5741C164.381 57.5741 193.143 56.2646 193.143 61.4409V159.103C193.143 164.275 164.377 164.885 128.895 164.885C93.4102 164.885 64.648 164.275 64.648 159.103Z" fill="#14143D"/>
<path opacity="0.88" d="M64.8234 159.008V61.4892C64.8234 56.317 93.5078 57.6305 128.895 57.6305C164.282 57.6305 192.966 56.3211 192.966 61.4892V159.012C192.966 164.18 164.282 164.79 128.895 164.79C93.5078 164.79 64.8234 164.184 64.8234 159.012V159.008Z" fill="#14143D"/>
<path opacity="0.89" d="M65.0007 158.915V61.535C65.0007 56.3669 93.6074 57.6804 128.896 57.6804C164.185 57.6804 192.796 56.3669 192.796 61.535V158.915C192.796 164.083 164.189 164.684 128.896 164.684C93.6074 164.684 65.0007 164.083 65.0007 158.915Z" fill="#14143D"/>
<path opacity="0.9" d="M65.1761 158.82V61.5838C65.1761 56.4197 93.705 57.7373 128.9 57.7373C164.094 57.7373 192.623 56.4197 192.623 61.5838V158.824C192.623 163.988 164.094 164.59 128.9 164.59C93.705 164.59 65.1761 163.988 65.1761 158.824V158.82Z" fill="#14143D"/>
<path opacity="0.91" d="M65.3475 158.726V61.6286C65.3475 56.4687 93.7987 57.7863 128.895 57.7863C163.992 57.7863 192.443 56.4687 192.443 61.6286V158.726C192.443 163.886 163.992 164.483 128.895 164.483C93.7987 164.483 65.3475 163.886 65.3475 158.726Z" fill="#14143D"/>
<path opacity="0.92" d="M65.5239 158.632V61.674C65.5239 56.5181 93.8973 57.8398 128.896 57.8398C163.894 57.8398 192.267 56.5181 192.267 61.674V158.632C192.267 163.788 163.894 164.386 128.896 164.386C93.8973 164.386 65.5239 163.792 65.5239 158.632Z" fill="#14143D"/>
<path opacity="0.93" d="M65.7002 158.538V61.7227C65.7002 56.571 93.9918 57.8927 128.896 57.8927C163.8 57.8927 192.092 56.5669 192.092 61.7227V158.542C192.092 163.694 163.796 164.287 128.896 164.287C93.9918 164.287 65.7002 163.694 65.7002 158.542V158.538Z" fill="#14143D"/>
<path opacity="0.93" d="M65.8756 158.444V61.768C65.8756 56.6163 94.0895 57.9462 128.895 57.9462C163.701 57.9462 191.915 56.6204 191.915 61.768V158.444C191.915 163.596 163.701 164.185 128.895 164.185C94.0895 164.185 65.8756 163.596 65.8756 158.444Z" fill="#14143D"/>
<path opacity="0.94" d="M66.0519 158.35V61.8173C66.0519 56.6697 94.1881 57.9996 128.9 57.9996C163.608 57.9996 191.748 56.6697 191.748 61.8173V158.354C191.748 163.502 163.612 164.087 128.9 164.087C94.1922 164.087 66.0519 163.502 66.0519 158.354V158.35Z" fill="#14143D"/>
<path opacity="0.95" d="M66.2273 158.256V61.8619C66.2273 56.7184 94.2857 58.0523 128.899 58.0523C163.513 58.0523 191.571 56.7184 191.571 61.8619V158.256C191.571 163.399 163.513 163.984 128.899 163.984C94.2857 163.984 66.2273 163.399 66.2273 158.256Z" fill="#14143D"/>
<path opacity="0.96" d="M66.3977 158.165V61.9068C66.3977 56.7674 94.3784 58.1013 128.894 58.1013C163.409 58.1013 191.39 56.7674 191.39 61.9068V158.161C191.39 163.301 163.409 163.882 128.894 163.882C94.3784 163.882 66.3977 163.301 66.3977 158.161V158.165Z" fill="#14143D"/>
<path opacity="0.97" d="M66.5751 158.071V61.9556C66.5751 56.8202 94.478 58.1583 128.895 58.1583C163.312 58.1583 191.215 56.8202 191.215 61.9556V158.071C191.215 163.206 163.312 163.787 128.895 163.787C94.478 163.787 66.5751 163.21 66.5751 158.071Z" fill="#14143D"/>
<path opacity="0.98" d="M66.7504 157.978V62.0014C66.7504 56.8701 94.5715 58.2082 128.895 58.2082C163.218 58.2082 191.039 56.8661 191.039 62.0014V157.974C191.039 163.105 163.214 163.682 128.895 163.682C94.5715 163.682 66.7504 163.105 66.7504 157.974V157.978Z" fill="#14143D"/>
<path opacity="0.98" d="M66.9268 157.884V62.0507C66.9268 56.9194 94.6701 58.2656 128.895 58.2656C163.12 58.2656 190.867 56.9235 190.867 62.0507V157.884C190.867 163.015 163.124 163.588 128.895 163.588C94.6701 163.588 66.9268 163.015 66.9268 157.884Z" fill="#14143D"/>
<path opacity="0.99" d="M67.1031 157.789V62.0951C67.1031 56.9679 94.7687 58.3141 128.9 58.3141C163.03 58.3141 190.696 56.9679 190.696 62.0951V157.785C190.696 162.912 163.03 163.481 128.9 163.481C94.7687 163.481 67.1031 162.912 67.1031 157.785V157.789Z" fill="#14143D"/>
<path d="M67.2755 157.695V62.1404C67.2755 57.0173 94.8634 58.3677 128.896 58.3677C162.929 58.3677 190.516 57.0173 190.516 62.1404V157.691C190.516 162.814 162.929 163.383 128.896 163.383C94.8634 163.383 67.2755 162.814 67.2755 157.691V157.695Z" fill="#14143D"/>
</g>
<path d="M205.861 155.265V62.6438C205.861 56.341 200.751 51.2314 194.449 51.2314L63.3471 51.2314C57.0442 51.2314 51.9347 56.341 51.9347 62.6438V155.265C51.9347 161.568 57.0442 166.677 63.3471 166.677H194.449C200.751 166.677 205.861 161.568 205.861 155.265Z" fill="#1A2C49"/>
<path d="M257.792 408.772H0V413.412H257.792V408.772Z" fill="#36A9F3"/>
</svg>
