<svg width="464" height="448" viewBox="0 0 464 448" fill="none" xmlns="http://www.w3.org/2000/svg">
<path d="M349.456 39.3299C348.936 38.7719 348.202 38.4534 347.44 38.4534C347.389 38.4534 347.338 38.4534 347.287 38.4585C344.393 38.6139 333.996 39.5898 321.781 45.5626C314.779 48.9873 308.355 53.4847 302.688 58.9325C302.611 59.0039 302.54 59.0803 302.464 59.1517L288.594 62.0896L267.751 80.7851L267.679 80.8539C267.063 81.4706 266.854 82.3981 267.149 83.2186C267.445 84.0391 268.197 84.6226 269.065 84.7041L282.147 85.9298L278.705 89.2347L281.732 92.1981L276.478 97.4523L291.346 111.956L296.236 106.396L299.961 110.043L302.563 107.217L303.284 119.068C303.34 119.983 303.931 120.785 304.79 121.109C305.055 121.208 305.33 121.259 305.613 121.259C306.23 121.259 306.834 121.01 307.269 120.571L307.282 120.559L325.626 100.135L329.239 86.075C333.795 81.2361 337.691 75.9463 340.853 70.2971C345.769 61.5112 348.908 51.8386 350.185 41.5493C350.276 40.7416 350.014 39.9313 349.456 39.3299ZM307.422 113.73L306.777 103.109C309.422 101.794 315.887 98.2575 323.119 91.9586L321.572 97.9747L307.422 113.73ZM282.823 97.4166L284.92 95.3195L293.043 103.275L291.096 105.489L282.823 97.4166ZM297.161 64.834C292.898 69.8741 289.15 75.5564 285.967 81.8095L274.488 80.7342L290.686 66.2048L297.161 64.834ZM285.111 89.2678L287.297 87.1707L301.561 101.718L299.793 103.639L285.111 89.2678ZM325.542 83.4861L325.31 83.4275L325.203 83.8403C324.423 84.6455 323.623 85.4405 322.805 86.2177C315.334 93.3091 308.243 97.3504 305.096 98.9557L290.052 83.611C294.042 75.8189 298.952 68.9772 304.663 63.2465L304.933 63.1879L304.897 63.0146C305.19 62.7241 305.483 62.4336 305.779 62.1482C311.112 57.0214 317.156 52.789 323.74 49.5682C325.096 48.9057 326.426 48.3095 327.723 47.7718C328.095 49.1682 328.714 50.9544 329.726 52.7534C331.497 55.8952 334.771 59.5848 340.596 60.6245C339.536 63.17 338.333 65.6519 336.988 68.0599C333.9 73.5969 330.057 78.7696 325.542 83.4861ZM331.925 46.1869C337.852 44.1637 342.731 43.3814 345.465 43.0833C344.775 47.652 343.687 52.0858 342.217 56.3538C338.456 55.9181 335.576 54.0045 333.655 50.641C332.722 49.0102 332.203 47.3488 331.925 46.1869Z" fill="white"/>
<path d="M318.72 58.7642C313.418 58.7642 309.106 63.0781 309.106 68.3782C309.106 73.6808 313.42 77.9922 318.72 77.9922C324.021 77.9922 328.334 73.6782 328.334 68.3782C328.334 63.0756 324.023 58.7642 318.72 58.7642ZM318.72 73.533C315.879 73.533 313.566 71.2193 313.566 68.3782C313.566 65.537 315.879 63.2234 318.72 63.2234C321.562 63.2234 323.875 65.537 323.875 68.3782C323.875 71.2193 321.564 73.533 318.72 73.533Z" fill="white"/>
<path d="M281.992 106.506C281.569 106.075 281.003 105.838 280.402 105.838C279.813 105.838 279.26 106.065 278.84 106.478L252.666 132.178C251.789 133.039 251.777 134.453 252.638 135.333C253.061 135.763 253.626 136 254.228 136C254.816 136 255.372 135.773 255.79 135.361L281.961 109.66C282.841 108.796 282.853 107.382 281.992 106.506Z" fill="white"/>
<path d="M261.273 120.204C261.87 120.204 262.428 119.972 262.851 119.552L277.744 104.658C278.613 103.789 278.613 102.375 277.744 101.504C277.324 101.083 276.763 100.851 276.167 100.851C275.571 100.851 275.013 101.083 274.59 101.504L259.696 116.397C258.827 117.266 258.827 118.68 259.696 119.552C260.119 119.972 260.68 120.204 261.273 120.204Z" fill="white"/>
<path d="M285.386 110.07C284.79 110.07 284.229 110.302 283.809 110.723L269.787 124.747C268.918 125.616 268.918 127.031 269.787 127.902C270.207 128.322 270.768 128.554 271.364 128.554C271.96 128.554 272.518 128.322 272.941 127.902L286.966 113.877C287.386 113.457 287.618 112.896 287.618 112.3C287.618 111.704 287.386 111.146 286.966 110.723C286.543 110.302 285.982 110.07 285.386 110.07Z" fill="white"/>
<path d="M304.285 103.407L285.57 84.3192L286.026 83.3891C290.579 74.1114 296.363 66.0696 303.215 59.4827C308.826 54.0909 315.184 49.6368 322.115 46.2479C334.203 40.3362 344.469 39.373 347.328 39.2202C347.919 39.187 348.49 39.4189 348.895 39.8521C349.3 40.2853 349.489 40.8713 349.418 41.4625C348.154 51.6524 345.048 61.2307 340.178 69.93C336.285 76.8863 331.267 83.2948 325.264 88.9797C315.038 98.6599 305.608 102.834 305.21 103.007L304.285 103.407ZM289.119 83.7535L304.94 99.8881C307.516 98.6115 315.25 94.4428 323.333 86.7704C329.104 81.292 333.922 75.123 337.658 68.4342C342.14 60.4051 345.068 51.5938 346.365 42.2269C342.632 42.548 333.742 43.8271 323.406 48.8826C316.751 52.1391 310.64 56.4148 305.251 61.5977C298.871 67.7259 293.448 75.1765 289.119 83.7535Z" fill="#4DA4DC"/>
<path d="M299.928 108.949L279.801 89.2423L286.329 82.979L288.357 85.0939L284.013 89.2626L299.818 104.74L303.271 100.987L305.429 102.971L299.928 108.949Z" fill="#4DA4DC"/>
<path d="M291.3 110.853L277.563 97.4498L283.88 91.1331L285.952 93.2047L281.735 97.4243L291.137 106.6L294.916 102.301L297.118 104.238L291.3 110.853Z" fill="#4DA4DC"/>
<path d="M287.132 85.6314L269.134 83.9446C268.558 83.8911 268.061 83.5037 267.865 82.961C267.669 82.4182 267.807 81.8042 268.217 81.3965L268.273 81.3429L288.951 62.7978L303.416 59.7324L304.023 62.599L290.324 65.5013L272.674 81.3328L287.404 82.7138L287.132 85.6314Z" fill="#4DA4DC"/>
<path d="M305.605 120.5C305.419 120.5 305.231 120.467 305.052 120.398C304.474 120.179 304.079 119.641 304.041 119.025L303.019 102.227L305.944 102.049L306.767 115.597L322.265 98.3416L325.858 84.355L328.696 85.0837L324.925 99.766L306.719 120.034C306.421 120.339 306.016 120.5 305.605 120.5Z" fill="#4DA4DC"/>
<path d="M318.72 77.228C313.841 77.228 309.871 73.258 309.871 68.3784C309.871 63.4988 313.841 59.5288 318.72 59.5288C323.6 59.5288 327.57 63.4988 327.57 68.3784C327.57 73.258 323.6 77.228 318.72 77.228ZM318.72 62.4591C315.456 62.4591 312.801 65.1143 312.801 68.3784C312.801 71.6425 315.456 74.2977 318.72 74.2977C321.985 74.2977 324.64 71.6425 324.64 68.3784C324.64 65.1143 321.985 62.4591 318.72 62.4591Z" fill="#4DA4DC"/>
<path d="M343.491 60.1455C336.193 59.985 332.34 55.8341 330.393 52.3789C328.337 48.73 327.968 45.1448 327.955 44.9919L330.872 44.7065C330.875 44.7371 331.214 47.9044 332.995 51.0208C335.286 55.0264 338.838 57.1107 343.557 57.2152L343.491 60.1455Z" fill="black"/>
<path d="M254.23 135.233C253.851 135.233 253.471 135.088 253.186 134.795C252.617 134.216 252.628 133.289 253.203 132.723L279.375 107.023C279.953 106.455 280.881 106.465 281.447 107.041C282.015 107.619 282.005 108.547 281.429 109.112L255.257 134.813C254.972 135.093 254.6 135.233 254.23 135.233Z" fill="#4DA4DC"/>
<path d="M261.273 119.44C260.899 119.44 260.524 119.297 260.236 119.012C259.663 118.438 259.663 117.511 260.236 116.94L275.13 102.046C275.703 101.473 276.631 101.473 277.202 102.046C277.775 102.62 277.775 103.547 277.202 104.118L262.308 119.012C262.025 119.297 261.65 119.44 261.273 119.44Z" fill="#4DA4DC"/>
<path d="M271.361 127.79C270.987 127.79 270.612 127.647 270.324 127.362C269.751 126.789 269.751 125.861 270.324 125.29L284.349 111.265C284.922 110.692 285.85 110.692 286.421 111.265C286.991 111.839 286.994 112.766 286.421 113.337L272.396 127.362C272.113 127.647 271.738 127.79 271.361 127.79Z" fill="#4DA4DC"/>
<path d="M370.05 40.7923C370.088 39.5871 369.318 38.4659 368.156 38.0098C367.825 37.8696 367.502 37.7983 367.193 37.7983C366.365 37.7983 365.838 38.3003 365.489 38.6315C365.399 38.7156 365.269 38.8405 365.195 38.8889L364.882 38.7334C364.444 38.5245 363.993 38.3079 363.532 38.1143L363.504 38.1041C363.236 38.0047 362.966 37.9537 362.696 37.9537C362.199 37.9537 361.725 38.1219 361.32 38.4353C361.432 38.0429 361.478 37.597 361.389 37.0848C361.195 35.6146 360.606 31.2267 357.154 31.2267C355.296 31.2267 353.115 32.511 350.806 33.8691C350.722 33.9175 350.641 33.9659 350.557 34.0169C350.529 33.9863 350.501 33.9532 350.472 33.9226C350.61 33.8487 350.753 33.7697 350.903 33.6882C352.809 32.6562 355.421 31.2394 355.77 29.2952C355.918 28.4722 355.66 27.6746 355.006 26.9229L354.957 26.8669L354.899 26.821C353.979 26.1101 352.924 25.7636 351.668 25.7636C350.289 25.7636 348.918 26.1789 347.593 26.579C347.076 26.7369 346.582 26.8847 346.108 27.0019C346.102 26.9917 346.097 26.979 346.092 26.9688C346.013 26.8108 345.919 26.6172 345.774 26.449C343.949 23.5798 340.833 22 336.983 22C334.542 22 331.996 22.6549 329.812 23.8448C329.578 23.9468 329.267 23.9569 328.938 23.9697C328.187 23.9977 326.928 24.0436 326.515 25.6693L326.508 25.6973L326.502 25.7253C326.477 25.8706 326.426 25.9751 326.222 26.1611C324.303 27.8454 323.149 30.1183 322.777 32.9288C322.54 32.8575 322.298 32.7811 322.051 32.7046C320.797 32.3097 319.498 31.8994 318.185 31.8994C317.13 31.8994 316.226 32.1619 315.418 32.7046L315.398 32.7174L315.377 32.7326C312.898 34.6361 311.311 37.7626 310.911 41.5338L310.905 41.5771V41.6204C310.908 42.0103 310.811 42.8792 310.709 43.8016C310.251 47.9449 310.212 49.5884 310.931 50.2203C314.279 53.7418 318.282 57.6532 323.473 59.6279C325.662 61.0702 328.11 61.8983 330.205 61.8983C333.247 61.8983 335.232 60.2344 335.683 57.3882C337.796 58.359 340.249 59.3298 342.979 59.8216L343.024 59.8292L343.07 59.8318C343.802 59.8751 344.362 60.1197 344.834 60.6064L344.856 60.6319L344.882 60.6548C346.097 61.697 348.001 62.5685 348.719 62.7621C350.241 63.2692 351.836 63.5266 353.464 63.5266H353.467C359.141 63.5266 364.775 60.3822 367.823 55.5178C370.327 51.5173 370.704 47.0352 368.911 42.8206C369.606 42.3518 370.024 41.6255 370.05 40.7923Z" fill="white"/>
<path d="M367.693 39.9871C367.904 40.0865 368.065 40.2751 368.08 40.4662C368.095 40.2547 367.932 40.0763 367.693 39.9871ZM367.591 50.2229C367.445 50.9975 367.247 51.739 366.992 52.4347C367.448 51.2676 367.731 50.042 367.807 48.7985C367.766 49.275 367.695 49.7489 367.591 50.2229ZM366.416 40.4636C366.38 40.5044 366.345 40.5426 366.299 40.5808C366.518 40.428 366.729 40.2445 366.943 40.0457C366.949 40.0457 366.949 40.0406 366.951 40.0381C366.765 40.1069 366.579 40.2521 366.416 40.4636ZM365.792 42.1683C366.179 41.9161 366.564 41.6638 366.951 41.4217C366.559 41.6587 366.161 41.8957 365.792 42.1683ZM365.236 42.627C365.236 42.6321 365.231 42.6321 365.231 42.6346C365.239 42.627 365.246 42.6193 365.254 42.6117C365.249 42.6142 365.244 42.6193 365.236 42.627ZM365.045 43.1901C365.025 43.5545 365.264 43.7864 365.588 43.8373C365.277 43.7711 365.048 43.5112 365.045 43.1901ZM363.188 40.3235C363.435 40.4483 363.684 40.6267 363.883 40.7184C364.24 40.958 364.584 41.0701 364.908 41.0828C364.268 40.9834 363.677 40.5248 363.188 40.3235ZM360.525 53.3087C360.588 53.2118 360.66 53.1277 360.744 53.0411C360.657 53.1252 360.588 53.2118 360.525 53.3087ZM355.153 37.9206C355.734 37.5129 356.346 37.1562 356.876 36.8173C356.277 37.1562 355.694 37.5078 355.153 37.9206ZM352.799 41.3223C352.799 41.5262 352.804 41.7275 352.804 41.9313C352.822 41.7224 352.827 41.5185 352.799 41.3223ZM351.902 35.8057C352.595 35.4413 353.474 34.8068 354.394 34.2896C353.655 34.6692 352.822 35.1839 351.902 35.8057ZM350.748 43.8755V43.8806C350.816 43.8297 350.88 43.7762 350.944 43.7278C350.88 43.7762 350.814 43.8271 350.748 43.8755ZM347.104 53.1252C347.035 53.0768 346.969 53.0258 346.892 52.9723C346.869 52.957 346.844 52.9392 346.821 52.9213C346.892 52.985 346.964 53.0411 347.04 53.0972C347.193 53.2093 347.343 53.3163 347.499 53.4208C347.397 53.3367 347.259 53.2373 347.104 53.1252ZM344.997 50.8166V50.7733C344.976 50.9822 344.946 51.1784 345.116 51.3262C345.132 51.3466 345.152 51.3619 345.167 51.3823C345.053 51.1886 344.984 50.9975 344.997 50.8166ZM343.037 55.1968C344.097 56.9728 345.392 58.3565 346.864 59.3528C345.341 58.2724 344.051 56.8072 343.037 55.1968ZM344.107 49.7133C344.362 49.7897 344.604 49.9299 344.78 50.1337C344.625 49.9248 344.385 49.7897 344.107 49.7133ZM342.464 49.9783C342.443 49.991 342.428 50.0012 342.408 50.019C342.364 50.0522 342.319 50.0878 342.28 50.1261C342.181 50.2229 342.104 50.3299 342.043 50.4471C342.122 50.3274 342.204 50.2203 342.296 50.1261C342.387 50.0369 342.487 49.963 342.599 49.8942C342.553 49.9171 342.51 49.9451 342.464 49.9783ZM338.838 49.67C339.205 49.698 339.567 49.8177 339.865 50.0292C339.62 49.7948 339.245 49.6776 338.838 49.67ZM337.834 50.5541C337.961 50.5771 338.089 50.6051 338.211 50.651C338.089 50.6026 337.961 50.5745 337.834 50.5541ZM336.962 50.4904C337.11 50.2789 337.299 50.1133 337.503 49.9859C337.271 50.1133 337.082 50.2866 336.962 50.4904ZM335.658 24.0309C335.938 24.0079 336.218 23.9901 336.494 23.9875C336.213 23.9901 335.938 24.0028 335.658 24.0309ZM330.686 31.7058C330.855 32.1491 331.043 32.59 331.234 33.0282C331.043 32.59 330.86 32.1491 330.686 31.7058ZM329.076 26.1101V26.1152C329.053 26.1942 329.033 26.2707 329.015 26.3522C329.035 26.2732 329.056 26.1917 329.079 26.1127H329.076V26.1101ZM327.575 59.047C328.194 59.3069 328.844 59.5184 329.512 59.6229C328.979 59.5107 328.263 59.2993 327.575 59.047ZM326.959 28.2098C327.445 27.6492 327.934 27.1192 328.475 26.6223C327.927 27.109 327.412 27.6415 326.959 28.2098ZM325.297 57.6481C325.297 57.8392 325.381 57.9691 325.557 58.0558C325.593 58.0762 325.626 58.0889 325.656 58.1067C325.44 57.9488 325.307 57.7933 325.297 57.6481ZM325.144 31.7083C325.124 31.7975 325.103 31.879 325.083 31.9631C325.063 32.0523 325.047 32.139 325.032 32.223C325.017 32.3122 324.999 32.3989 324.989 32.488C324.974 32.5772 324.966 32.6639 324.953 32.753C324.917 33.069 324.902 33.3901 324.91 33.7162C324.91 32.9773 325.002 32.2689 325.185 31.5835C325.198 31.5401 325.205 31.4994 325.218 31.4561C325.193 31.5401 325.167 31.6242 325.144 31.7083Z" fill="black"/>
<path d="M367.861 38.7129C366.189 38.002 365.96 40.0558 364.905 39.592C364.349 39.327 363.802 39.0569 363.238 38.8199C361.546 38.188 360.344 40.6469 361.095 41.9796C362.112 43.8703 363.159 45.7788 362.688 47.9982C362.4 49.6265 361.577 51.0738 359.964 51.7057C360.805 49.2417 362.224 46.319 360.703 43.855C360.387 43.3428 360.107 42.8077 359.88 42.2548C358.761 39.7627 360.988 39.1563 360.637 37.1994C359.577 29.1244 355.314 32.1312 350.406 34.9927C350.019 34.557 349.657 34.1518 349.277 33.7339C351.186 32.5185 356.924 30.2838 354.432 27.4273C351.94 25.501 348.732 27.1878 346.059 27.8045C345.539 27.9854 345.455 27.2082 345.162 26.9203C341.987 21.8241 334.944 21.9081 330.156 24.5327C329.076 25.0321 327.677 24.2218 327.262 25.8603C327.193 26.245 327.007 26.4871 326.734 26.7368C324.622 28.5918 323.646 31.1247 323.455 33.9072C321.034 33.3186 318.173 31.7846 315.851 33.339C313.288 35.3061 312.011 38.4811 311.68 41.6127C311.688 43.0473 310.64 49.0353 311.463 49.6596C315.051 53.4359 318.873 57.0772 323.832 58.9424C328.727 62.2091 334.921 62.2167 335.026 56.2261C337.64 57.4823 340.26 58.55 343.124 59.0647C344.023 59.1157 344.775 59.4367 345.391 60.0686C346.548 61.0599 348.398 61.8854 348.951 62.023C360.321 65.8427 373.563 54.0755 367.919 42.4587C369.886 41.8242 369.616 39.4035 367.861 38.7129ZM351.706 35.9049C351.767 35.8718 351.825 35.8438 351.889 35.8081C351.894 35.803 351.897 35.803 351.902 35.803C352.822 35.1838 353.652 34.6665 354.394 34.2869C354.463 34.2461 354.526 34.2181 354.585 34.1824C355.701 33.5734 356.848 33.1657 357.732 33.6626C357.773 33.683 357.808 33.6982 357.844 33.7263C358.512 34.1187 358.96 35.0131 359.192 36.5343C359.197 36.5547 359.2 36.57 359.205 36.5954C359.393 37.5357 359.444 38.4963 359.401 39.4595C359.386 39.8596 359.358 40.2596 359.304 40.6597C359.291 40.8992 359.281 41.1438 359.281 41.3833C359.286 42.2064 359.414 42.9836 359.546 43.748V43.7607C359.569 43.8321 359.59 43.9136 359.618 43.9926C359.862 44.8564 359.928 45.7126 359.862 46.556C359.847 47.3281 359.707 48.1307 359.327 48.9996C358.996 49.9475 358.616 50.8751 358.275 51.8179C358.142 52.1746 357.931 52.2663 357.571 52.2103C357.482 52.1975 357.401 52.1822 357.312 52.167C357.227 52.1517 357.141 52.1262 357.057 52.1058C356.922 52.0701 356.789 52.0294 356.657 51.9809C356.608 51.9657 356.56 51.9478 356.511 51.9249C356.432 51.8969 356.356 51.8612 356.28 51.8255C356.208 51.7924 356.127 51.7491 356.053 51.7083C355.984 51.6675 355.918 51.6293 355.849 51.5809C355.778 51.5376 355.704 51.4841 355.632 51.4331C355.564 51.3821 355.5 51.3261 355.434 51.27C355.365 51.2089 355.299 51.1426 355.237 51.0789C355.189 51.0229 355.138 50.9668 355.092 50.9107C355.087 50.9056 355.084 50.9031 355.079 50.8954C355.036 50.8394 354.99 50.7757 354.952 50.712C354.904 50.6432 354.86 50.5693 354.825 50.4928C354.809 50.4521 354.789 50.4164 354.769 50.3756C354.756 50.3527 354.748 50.3272 354.74 50.3043C354.725 50.2635 354.707 50.2253 354.697 50.1794C354.656 50.0826 354.628 49.9832 354.613 49.8787C354.593 49.8176 354.585 49.7539 354.577 49.6902C354.239 47.6466 354.063 45.4909 352.99 43.6665C352.97 43.6333 352.954 43.6053 352.934 43.5696C352.911 43.5365 352.898 43.5008 352.885 43.4728C352.865 43.432 352.85 43.3887 352.835 43.3403C352.75 43.1288 352.717 42.9071 352.756 42.6574C352.756 42.6523 352.756 42.6523 352.756 42.6498C352.763 42.4459 352.791 42.237 352.804 42.0306C352.809 41.9949 352.809 41.9669 352.809 41.9312C352.809 41.7273 352.804 41.526 352.804 41.3222V41.2993C352.804 41.284 352.804 41.2712 352.799 41.2559C352.799 41.2228 352.804 41.205 352.804 41.1719V41.1489C352.819 40.6648 352.903 40.1959 353.24 39.801C353.245 39.7959 353.245 39.7959 353.247 39.7933C353.252 39.7857 353.255 39.7806 353.26 39.7729C353.696 39.0493 354.391 38.4581 355.135 37.9332C355.143 37.9256 355.151 37.9205 355.158 37.9205C355.699 37.5077 356.282 37.156 356.881 36.8171C356.945 36.7891 357.006 36.7764 357.062 36.7687C357.138 36.756 357.21 36.7687 357.278 36.7917C357.301 36.8044 357.329 36.8146 357.355 36.8324C357.378 36.8452 357.403 36.8655 357.424 36.8834C357.457 36.9063 357.485 36.9343 357.513 36.9624C357.617 37.0745 357.701 37.2299 357.78 37.4134C357.814 37.4898 357.844 37.5688 357.87 37.6529C357.89 37.7141 357.91 37.7778 357.926 37.8415C357.946 37.8924 357.959 37.9485 357.969 38.0046C357.977 38.0249 357.982 38.0402 357.984 38.0606C358.005 38.1294 358.017 38.1931 358.033 38.2645C358.04 38.2976 358.048 38.3205 358.053 38.3485C358.081 38.476 358.109 38.6136 358.132 38.741C358.147 38.8199 358.165 38.9015 358.173 38.9779C358.188 39.0544 358.201 39.1308 358.216 39.2047C358.224 39.2531 358.231 39.3015 358.239 39.3449C358.259 39.4442 358.275 39.5411 358.29 39.6328C358.295 39.6608 358.298 39.6838 358.305 39.7092C358.338 39.8927 358.377 40.0456 358.412 40.1501C358.433 40.1552 358.453 40.1552 358.476 40.1577C358.524 39.3729 358.532 38.7104 358.499 38.1472C358.499 38.0963 358.494 38.0428 358.491 37.9918C358.484 37.8211 358.468 37.6606 358.448 37.5128C358.44 37.4491 358.435 37.393 358.428 37.3319C358.42 37.2809 358.407 37.2325 358.4 37.1841C358.384 37.0872 358.364 36.9955 358.338 36.9038C358.323 36.8273 358.303 36.7509 358.277 36.6795C358.27 36.6515 358.262 36.6184 358.249 36.5954C358.234 36.5521 358.216 36.5114 358.206 36.4706C358.191 36.4298 358.173 36.3941 358.158 36.3585C358.124 36.2897 358.089 36.2234 358.053 36.1623C358.04 36.1419 358.03 36.1266 358.017 36.1113C357.982 36.0502 357.941 35.9992 357.898 35.9559C357.875 35.9227 357.847 35.8998 357.819 35.8718C357.778 35.8361 357.729 35.803 357.686 35.7724C357.643 35.7444 357.594 35.7163 357.546 35.696C356.975 35.4361 356.162 35.7087 355.135 36.2769C354.947 36.384 354.751 36.5012 354.539 36.6209C354.335 36.7458 354.124 36.8757 353.902 37.0159C353.683 37.156 353.454 37.3038 353.222 37.4567C352.985 37.6096 352.745 37.765 352.498 37.9281C352.147 37.3038 351.815 36.7127 351.466 36.096C351.548 36.0323 351.614 35.9559 351.706 35.9049ZM350.748 43.8754C350.816 43.827 350.88 43.776 350.944 43.7276C351.14 43.5798 351.329 43.4346 351.543 43.2715C352.243 44.7392 352.778 46.2299 352.794 47.8657C352.753 47.881 352.715 47.8989 352.677 47.9142C352.032 46.5662 351.39 45.2234 350.745 43.8779V43.8754H350.748ZM350.404 43.1619C350.355 43.1135 350.314 43.0727 350.284 43.0345C350.248 42.9938 350.215 42.9581 350.195 42.9275C350.131 42.8358 350.118 42.7644 350.146 42.6727C350.154 42.6498 350.162 42.6166 350.179 42.5835C350.202 42.5198 350.243 42.4434 350.297 42.3465C350.465 42.0306 350.513 41.6509 350.628 41.2508C350.661 41.2508 350.697 41.2559 350.732 41.2585C350.811 41.2636 350.903 41.2661 351.005 41.2712C351.056 41.2763 351.109 41.2763 351.16 41.2789C351.334 41.9873 350.982 42.9938 350.404 43.1619ZM345.44 29.2416C345.46 29.234 345.481 29.2263 345.501 29.2187C348.268 28.1943 350.773 27.5751 352.271 27.858C352.271 27.858 352.276 27.858 352.279 27.858C353.008 27.9293 353.614 28.202 353.655 28.9384C353.655 28.9384 353.655 28.9384 353.655 28.9435V28.9588C353.66 28.9944 353.66 29.0301 353.66 29.0658V29.0709C353.556 29.0428 353.451 29.0199 353.349 28.9944C353.14 28.946 352.934 28.9103 352.73 28.8772C352.526 28.8441 352.322 28.8212 352.121 28.8008C352.116 28.8008 352.116 28.8008 352.116 28.8008C351.917 28.7855 351.716 28.7727 351.517 28.7651C344.362 28.5485 338.601 36.1164 331.382 36.5445C331.981 36.0017 333.706 34.9137 335.946 33.6804C335.951 33.6753 335.953 33.6728 335.961 33.6677C338.98 31.9044 342.138 30.3526 345.44 29.2416ZM329.835 27.0655C329.84 26.9942 329.843 26.9228 329.851 26.8464C329.866 26.6425 329.894 26.4387 329.927 26.2348C330.403 25.8424 330.936 25.4984 331.512 25.2079C331.729 25.0907 331.955 24.9888 332.185 24.892C332.46 24.7722 332.748 24.6652 333.036 24.5709C333.076 24.5582 333.112 24.548 333.153 24.5352C333.548 24.4078 333.961 24.2983 334.373 24.2193C334.526 24.1862 334.677 24.1581 334.83 24.1352C335.105 24.0919 335.383 24.0562 335.66 24.0307C335.941 24.0027 336.216 23.9899 336.496 23.9874C336.588 23.9823 336.677 23.9823 336.764 23.9823C336.86 23.9823 336.955 23.9874 337.052 23.9899C337.12 23.9899 337.187 23.995 337.25 23.9976C337.367 24.0052 337.482 24.0103 337.594 24.018C337.793 24.0333 337.989 24.0537 338.191 24.0817C338.31 24.097 338.427 24.1174 338.542 24.1377C338.67 24.1581 338.797 24.1811 338.927 24.2091C338.998 24.2218 339.07 24.2371 339.144 24.2575C339.215 24.2728 339.284 24.2906 339.355 24.3085C339.498 24.3441 339.638 24.3849 339.778 24.4282C340.066 24.5174 340.349 24.6193 340.627 24.7365C340.754 24.7875 340.879 24.8436 340.999 24.9047C341.292 25.0449 341.574 25.2054 341.847 25.3812C341.939 25.4373 342.028 25.4984 342.115 25.5621C342.352 25.7252 342.578 25.9061 342.79 26.1023C342.897 26.1992 343.001 26.2985 343.101 26.403C343.17 26.4667 343.236 26.5381 343.299 26.6145C343.363 26.6858 343.427 26.7572 343.488 26.8336C343.539 26.8948 343.585 26.9534 343.631 27.0146C343.715 27.1216 343.794 27.2337 343.87 27.3458C343.919 27.4172 343.962 27.486 344.005 27.5573C344.061 27.6465 344.117 27.7382 344.168 27.8299C344.209 27.8987 344.245 27.9625 344.275 28.0338C344.296 28.0746 344.316 28.1128 344.337 28.1536C344.377 28.2249 344.413 28.2963 344.444 28.3701H344.438C344.163 28.4695 343.886 28.5689 343.615 28.6734C343.343 28.7778 343.073 28.8823 342.8 28.9944C342.464 29.1269 342.127 29.2671 341.796 29.4098C341.495 29.5423 341.197 29.6748 340.899 29.8098C340.555 29.9627 340.211 30.1207 339.872 30.2863C339.589 30.4214 339.309 30.5615 339.029 30.7017C338.82 30.8061 338.616 30.9106 338.41 31.0176C338.038 31.2087 337.663 31.4049 337.294 31.6088C336.787 31.884 336.277 32.1694 335.775 32.465H335.77C335.265 32.758 334.766 33.0536 334.266 33.3619C333.767 33.6651 333.268 33.9785 332.776 34.2945C332.529 34.455 332.279 34.6156 332.037 34.7735L332.032 34.7685C331.899 34.4805 331.764 34.1926 331.632 33.9046C331.497 33.6116 331.359 33.3211 331.232 33.0281C331.041 32.5873 330.852 32.149 330.684 31.7056C330.623 31.5502 330.567 31.3973 330.516 31.2419C330.46 31.089 330.409 30.9335 330.36 30.7781C330.309 30.6227 330.263 30.4672 330.22 30.3093C330.177 30.1538 330.136 29.9984 330.1 29.8404C330.095 29.8251 330.093 29.8073 330.088 29.792C330.054 29.6748 330.031 29.555 330.011 29.4404C329.922 29.0046 329.858 28.5638 329.835 28.1204C329.828 28.072 329.828 28.0236 329.828 27.9752C329.815 27.6745 329.815 27.3738 329.835 27.0655ZM324.953 32.7529C324.966 32.6637 324.973 32.5771 324.989 32.4879C325.002 32.3987 325.017 32.3121 325.032 32.2229C325.047 32.1388 325.065 32.0522 325.083 31.963C325.103 31.8789 325.124 31.7948 325.144 31.7082C325.167 31.6241 325.193 31.54 325.216 31.4559C325.223 31.4126 325.238 31.3718 325.251 31.3285L325.323 31.1017C325.363 30.9769 325.412 30.8546 325.458 30.7348C325.506 30.6099 325.557 30.4902 325.611 30.3704C325.921 29.6417 326.347 28.9588 326.869 28.3115C326.882 28.2988 326.89 28.2835 326.905 28.2708C326.92 28.2504 326.938 28.23 326.956 28.2096C327.407 27.6414 327.924 27.1088 328.472 26.6221C328.627 26.482 328.788 26.3419 328.951 26.2094C328.992 26.1762 329.03 26.1406 329.071 26.11H329.076C329.053 26.189 329.033 26.2705 329.012 26.3495C328.992 26.4285 328.977 26.51 328.961 26.589C328.946 26.668 328.928 26.7496 328.918 26.8285C328.903 26.9075 328.89 26.9891 328.882 27.0681C328.859 27.2286 328.842 27.384 328.834 27.5395C328.829 27.6083 328.826 27.672 328.826 27.7306C328.819 27.9191 328.819 28.1026 328.826 28.2861C328.826 28.3574 328.831 28.4339 328.839 28.5103C328.834 28.5332 328.839 28.5613 328.844 28.5893C328.849 28.6606 328.852 28.732 328.864 28.8059C328.87 28.8951 328.88 28.9766 328.892 29.0658C328.936 29.4098 328.999 29.7461 329.081 30.0825C329.137 30.3067 329.198 30.5309 329.262 30.7552C329.295 30.8724 329.331 30.982 329.366 31.0992C329.438 31.3183 329.514 31.5425 329.593 31.7642C329.792 32.3197 330.021 32.8676 330.248 33.4129L330.253 33.418C330.258 33.4409 330.261 33.4664 330.268 33.4944C330.281 33.5352 330.302 33.5836 330.319 33.6294C330.353 33.7135 330.398 33.8053 330.452 33.9046C330.472 33.948 330.495 33.9887 330.516 34.0295C330.521 34.0422 330.528 34.0499 330.528 34.0575C330.564 34.1212 330.597 34.1849 330.633 34.2486C330.653 34.2843 330.674 34.32 330.689 34.3608C330.75 34.4678 330.806 34.5799 330.852 34.6844C330.865 34.7073 330.872 34.7277 330.88 34.7481C330.908 34.8118 330.931 34.8729 330.951 34.9315C331.043 35.1863 331.056 35.3902 330.895 35.4641C330.86 35.4768 330.824 35.4921 330.788 35.5125C330.661 35.5737 330.533 35.6552 330.401 35.7367C330.332 35.7775 330.266 35.8157 330.192 35.8539C330.144 35.882 330.093 35.9049 330.044 35.9253C329.881 35.989 329.708 36.0145 329.524 35.9533C329.165 35.8208 328.803 35.6934 328.441 35.5609C328.174 35.4615 327.901 35.3622 327.629 35.2653C327.356 35.166 327.088 35.0691 326.816 34.9723C326.276 34.7761 325.735 34.5799 325.193 34.3913C324.938 34.2996 324.917 34.1467 324.912 33.9352C324.907 33.8639 324.907 33.7874 324.907 33.7161C324.9 33.3899 324.915 33.0689 324.953 32.7529ZM365.588 43.8397C365.593 43.8397 365.593 43.8397 365.593 43.8397C365.83 43.8805 366.108 43.8168 366.36 43.6359C366.396 43.6129 366.431 43.5798 366.464 43.5518C366.5 43.5238 366.533 43.4906 366.561 43.455C366.569 43.4499 366.576 43.4422 366.584 43.432C366.625 43.3913 366.663 43.3403 366.704 43.2893C367.58 44.966 367.945 46.8057 367.815 48.6455C367.81 48.6964 367.81 48.7499 367.807 48.8009C367.731 50.0444 367.448 51.2675 366.992 52.437C366.951 52.5364 366.915 52.6358 366.875 52.7326C366.867 52.753 366.859 52.7734 366.847 52.7938C366.095 54.6488 364.938 56.221 363.503 57.4849C363.44 57.5409 363.371 57.6021 363.305 57.6556C361.888 58.8991 360.209 59.8546 358.366 60.3923C358.359 60.3973 358.346 60.3999 358.333 60.3999C357.834 60.5681 357.317 60.7082 356.794 60.828C355.293 61.2051 353.831 61.3401 352.432 61.2484C350.353 61.2255 348.485 60.5095 346.882 59.3654C346.877 59.3654 346.869 59.3603 346.867 59.3577C345.394 58.3614 344.1 56.9778 343.04 55.2018C344.675 55.877 346.319 56.2541 348.054 55.7649C348.11 55.7496 348.161 55.7318 348.215 55.7139C348.368 55.663 348.503 55.6094 348.62 55.5534C348.737 55.5024 348.837 55.4489 348.916 55.3929C348.972 55.3572 349.02 55.3215 349.063 55.2858C349.384 55.0055 349.3 54.7253 349.02 54.4424C348.903 54.3176 348.74 54.1901 348.556 54.0704C348.449 53.9939 348.329 53.9226 348.207 53.8513C348.128 53.8003 348.044 53.7519 347.963 53.6984C347.878 53.6474 347.794 53.599 347.71 53.5506C347.641 53.5098 347.57 53.4716 347.501 53.4257C347.346 53.3212 347.193 53.2142 347.043 53.1021C346.966 53.046 346.895 52.99 346.824 52.9263C346.801 52.911 346.775 52.8906 346.747 52.8702C346.699 52.8346 346.65 52.7989 346.599 52.7581C346.548 52.7224 346.5 52.6817 346.446 52.6409C346.434 52.6333 346.426 52.6256 346.413 52.618C345.927 52.2408 345.432 51.8102 345.177 51.3974C345.172 51.3923 345.17 51.3898 345.17 51.3847C345.155 51.3643 345.134 51.349 345.119 51.3286C344.948 51.1808 344.979 50.9846 344.999 50.7757C344.999 50.7757 344.999 50.7706 344.999 50.768C344.999 50.5489 344.938 50.3603 344.836 50.2075C344.823 50.1794 344.808 50.159 344.785 50.1361C344.609 49.9323 344.37 49.7921 344.112 49.7157C344.077 49.7029 344.036 49.6927 344 49.6825C343.995 49.6825 343.995 49.6825 343.995 49.6825C343.756 49.6392 343.496 49.6341 343.249 49.6749C343.129 49.6902 343.012 49.7233 342.899 49.7641C342.884 49.7692 342.866 49.7768 342.851 49.7845C342.808 49.7972 342.767 49.8176 342.724 49.8354C342.683 49.8507 342.645 49.8711 342.604 49.8966C342.492 49.9654 342.392 50.0418 342.301 50.1285C342.209 50.2202 342.13 50.3272 342.048 50.4495C342.576 50.2864 343.116 50.1973 343.432 50.7324C344.319 52.4039 345.848 53.4996 347.188 54.7125C346.867 54.7686 346.548 54.7966 346.232 54.7966C346.085 54.7966 345.939 54.789 345.799 54.7762C345.042 54.7202 344.298 54.5087 343.608 54.18C343.536 54.1443 343.46 54.1112 343.384 54.0729C343.315 54.0322 343.243 53.9965 343.172 53.9557C343.101 53.9124 343.024 53.8665 342.953 53.8232C342.884 53.7825 342.813 53.7391 342.741 53.6907C342.673 53.6423 342.609 53.5939 342.538 53.5455C342.403 53.4487 342.273 53.3493 342.143 53.2423C342.018 53.1378 341.89 53.0257 341.771 52.911C341.709 52.8549 341.651 52.7938 341.595 52.7403C341.052 52.1797 340.606 51.5401 340.29 50.8445C340.234 50.7273 340.186 50.605 340.137 50.4852C340.132 50.4648 340.125 50.4495 340.122 50.4342C340.114 50.4062 340.107 50.3858 340.099 50.3629C340.051 50.2304 339.972 50.1234 339.872 50.0342C339.572 49.8227 339.212 49.7029 338.845 49.6749C338.822 49.6749 338.789 49.6698 338.756 49.6698C338.369 49.6698 337.961 49.7615 337.625 49.9246C337.582 49.9399 337.546 49.9603 337.508 49.9883C337.304 50.1157 337.115 50.2813 336.967 50.4928C337.187 50.5056 337.383 50.5132 337.571 50.5285C337.663 50.5362 337.752 50.5489 337.839 50.5565C337.966 50.5769 338.094 50.605 338.216 50.6534C338.496 50.7527 338.751 50.9286 339.001 51.2649C340.132 52.753 340.981 54.4169 341.941 56.0248C341.918 56.0299 341.857 56.0401 341.758 56.0605C341.926 56.3688 342.087 56.6695 342.245 56.965C342.224 56.9982 342.204 57.0262 342.183 57.0542C341.697 56.7586 341.207 56.4631 340.721 56.17C340.7 56.1853 340.68 56.193 340.665 56.2108C340.734 56.3662 340.81 56.5268 340.902 56.7306C340.137 56.6593 339.702 56.0426 338.983 55.7343C339.115 56.0095 339.202 56.1904 339.314 56.4299C338.399 56.2184 337.768 55.6018 336.955 55.1457C336.975 55.3699 336.983 55.5101 336.998 55.7012C336.162 55.2298 335.642 54.473 334.942 53.8563C335.039 54.1774 335.133 54.4959 335.235 54.8374C335.151 54.8323 335.074 54.794 334.995 54.7253C334.656 54.4322 334.328 53.6143 334.012 52.7224C333.971 52.6103 333.933 52.4957 333.887 52.3733C333.775 52.0574 333.663 51.7363 333.55 51.4382C333.515 51.3388 333.479 51.242 333.443 51.1452C333.311 50.8165 333.183 50.5209 333.051 50.2864C333.003 50.1973 332.954 50.1183 332.903 50.0495C332.88 50.0138 332.855 49.9807 332.827 49.9526C332.799 49.9577 332.766 49.9679 332.743 49.9756C333.092 53.1429 335.467 59.7246 330.256 59.7068C330.121 59.7297 329.863 59.6992 329.54 59.6304C329.532 59.6304 329.524 59.6304 329.519 59.6253C328.852 59.5208 328.204 59.3093 327.583 59.0494C327.567 59.0418 327.55 59.0341 327.534 59.0265C326.79 58.7462 326.079 58.4175 325.661 58.1117C325.628 58.0913 325.598 58.0786 325.562 58.0607C325.386 57.9715 325.302 57.8441 325.302 57.653C325.297 57.625 325.297 57.597 325.307 57.574C325.328 57.3778 325.267 57.1893 325.154 57.0262C325.111 56.9701 325.063 56.9192 325.014 56.8708C324.994 56.8427 324.966 56.8198 324.938 56.7943C324.79 56.6746 324.622 56.5828 324.441 56.5344C324.398 56.5191 324.349 56.514 324.301 56.5064C324.278 56.5013 324.252 56.4987 324.232 56.5013C324.163 56.4936 324.092 56.4936 324.028 56.5064C323.98 56.514 323.936 56.5217 323.893 56.5395C323.809 56.5675 323.73 56.616 323.656 56.6797C323.636 56.6924 323.615 56.7153 323.595 56.7306C323.363 56.9905 323.172 56.9472 322.894 56.8223C318.988 55.1661 315.976 52.2867 313.16 49.201C312.829 48.8722 312.674 48.5053 312.702 48.0619C313.115 43.8066 312.814 39.0314 315.614 35.4972C315.663 35.4361 315.706 35.38 315.754 35.3265C315.805 35.2704 315.854 35.2195 315.907 35.166C317.63 33.4307 320.407 34.478 322.509 35.0309C325.218 35.9278 328.024 36.5751 330.628 37.7497C332.643 37.9307 334.539 37.286 336.42 36.5216C336.751 36.3891 337.087 36.2489 337.416 36.1088C337.528 36.0603 337.635 36.017 337.747 35.9737C337.971 35.8769 338.191 35.7851 338.415 35.6985C338.746 35.5584 339.082 35.431 339.419 35.3061C339.638 35.222 339.862 35.1456 340.086 35.0691C340.762 34.8449 341.442 34.664 342.135 34.5544C343.827 34.3557 345.921 34.0779 347.634 34.6309C347.822 34.692 348.006 34.7634 348.182 34.8474C348.625 35.0564 349.03 35.3316 349.384 35.7036C349.456 35.775 349.525 35.8514 349.593 35.9304C348.941 35.9151 348.261 35.831 347.769 36.3177C347.588 36.5343 347.601 36.8171 347.774 37.0006C347.815 37.049 347.871 37.0847 347.929 37.1178C347.993 37.1407 348.064 37.1662 348.146 37.1688C348.89 37.0516 349.453 37.1458 349.881 37.3879C349.96 37.4363 350.034 37.4847 350.098 37.5357C350.169 37.5867 350.233 37.6427 350.294 37.7064C350.383 37.7982 350.465 37.8975 350.539 38.0071C350.748 38.3103 350.895 38.6798 351.008 39.0824C351.028 39.1716 351.051 39.2531 351.071 39.3423C351.148 39.7016 351.204 40.0864 351.242 40.4788C349.685 40.4176 349.305 40.6469 348.982 40.3667C348.938 40.3233 348.898 40.2775 348.849 40.2189C348.806 40.1577 348.76 40.0915 348.709 40.0023C348.561 39.7551 348.365 39.3831 348.062 38.8352C348.019 38.8403 347.973 38.848 347.929 38.848C347.69 40.8355 349.02 42.5861 349.838 44.2831C348.778 44.3519 347.603 44.278 347.127 45.468C348.574 44.9533 350.358 44.6093 350.829 46.6044C349.226 46.4413 348.149 47.1574 347.555 48.6353C348.701 47.8352 350.735 46.4923 351.693 48.3066C351.882 48.699 352.113 49.0659 352.353 49.4914C351.573 49.6876 350.99 50.08 350.63 50.8623C352.042 50.182 353.242 50.1947 354.045 51.7491C352.694 52.3198 352.269 53.4436 352.284 54.8323C353.028 53.6474 354.083 52.009 355.66 53.1123C354.626 54.1851 354.488 55.4158 354.876 56.7281C355.36 55.4973 355.676 53.3799 357.447 53.6449C357.327 54.7176 357.115 55.6935 357.842 56.6363C357.885 55.2527 357.885 53.8997 359.526 53.3161C359.47 54.2513 359.707 55.0361 360.374 55.7037C360.227 55.0208 360.171 54.5087 360.229 54.0806C360.244 53.9685 360.272 53.8614 360.308 53.7519C360.323 53.7009 360.344 53.6474 360.369 53.5964C360.413 53.4971 360.466 53.4053 360.53 53.3161C360.594 53.2193 360.662 53.1327 360.749 53.0486C360.828 52.9594 360.93 52.8779 361.029 52.7887C361.185 52.6638 361.366 52.5339 361.569 52.3963C361.704 52.3071 361.852 52.2154 362.013 52.1236C362.362 52.5797 362.841 52.7912 363.46 52.832C362.321 51.744 362.451 50.8241 363.817 50.3833C363.358 50.1387 363.613 49.8431 363.712 49.5551C364.484 47.3841 364.296 45.2845 363.272 43.2358C362.984 42.3567 361.967 41.4929 362.311 40.5246C362.316 40.517 362.319 40.5093 362.324 40.5043C362.522 40.1195 362.831 40.1552 363.152 40.308C363.165 40.3131 363.175 40.3208 363.193 40.3284C363.679 40.5272 364.273 40.9884 364.913 41.0878C365.404 41.1107 365.866 40.9043 366.304 40.5832C366.347 40.5476 366.383 40.5068 366.421 40.466C366.584 40.2545 366.77 40.1093 366.956 40.0379C366.961 40.0379 366.961 40.0379 366.964 40.0328C366.971 40.0278 366.979 40.0252 366.987 40.0201C367.191 39.8672 367.458 39.88 367.675 39.9793C367.682 39.9793 367.69 39.9844 367.695 39.987C367.935 40.0762 368.1 40.2545 368.082 40.466C368.098 40.6215 368.006 40.7896 367.754 40.917C367.494 41.0929 367.226 41.2534 366.954 41.4165C366.566 41.6611 366.182 41.9134 365.794 42.1631C365.606 42.3032 365.43 42.4434 365.262 42.5988C365.257 42.5988 365.257 42.6039 365.257 42.6064C365.249 42.6141 365.241 42.6217 365.234 42.6294C365.226 42.6345 365.221 42.6447 365.218 42.6523C365.101 42.8511 365.05 43.032 365.048 43.1849C365.048 43.511 365.277 43.7709 365.588 43.8397Z" fill="black"/>
<path d="M347.183 54.7077C346.862 54.7638 346.543 54.7918 346.227 54.7918C346.08 54.7918 345.934 54.7842 345.794 54.7714C345.037 54.7154 344.293 54.5039 343.603 54.1752C343.531 54.1395 343.455 54.1064 343.379 54.0681C343.31 54.0274 343.238 53.9917 343.167 53.9509C343.096 53.9076 343.019 53.8618 342.948 53.8184C342.879 53.7777 342.808 53.7343 342.736 53.6859C342.668 53.6375 342.604 53.5891 342.533 53.5407C342.397 53.4439 342.268 53.3445 342.138 53.2375C342.013 53.133 341.885 53.0209 341.766 52.9062C341.704 52.8502 341.646 52.789 341.59 52.7355C341.047 52.1749 340.601 51.5353 340.285 50.8397C340.229 50.7225 340.181 50.6002 340.132 50.4804C340.127 50.46 340.119 50.4447 340.117 50.4294C340.109 50.4014 340.102 50.381 340.094 50.3581C340.071 50.2893 340.051 50.223 340.025 50.1543L342.28 50.1262H342.296C342.204 50.218 342.125 50.325 342.043 50.4473C342.571 50.2842 343.111 50.195 343.427 50.7301C344.316 52.4017 345.845 53.4974 347.183 54.7077Z" fill="white"/>
<path d="M352.794 47.8661C352.753 47.8814 352.715 47.8992 352.677 47.9145C352.032 46.5665 351.39 45.2237 350.745 43.8783V43.8732C350.814 43.8248 350.878 43.7738 350.941 43.7254C351.138 43.5776 351.326 43.4324 351.54 43.2693C352.243 44.7395 352.779 46.2302 352.794 47.8661Z" fill="white"/>
<path d="M351.902 35.8059C352.595 35.4415 353.474 34.8071 354.394 34.2898C353.655 34.6695 352.822 35.1842 351.902 35.8059ZM352.799 41.3226C352.799 41.5264 352.804 41.7277 352.804 41.9316C352.822 41.7226 352.827 41.5188 352.799 41.3226ZM355.153 37.9209C355.734 37.5132 356.346 37.1564 356.876 36.8175C356.277 37.1564 355.694 37.5081 355.153 37.9209Z" fill="#4DA4DC"/>
<path d="M359.618 43.9901C359.59 43.9111 359.569 43.8296 359.546 43.7582V43.7455C359.327 42.9658 359.266 42.1784 359.281 41.3808C359.281 41.1413 359.294 40.8967 359.304 40.6572C359.327 40.2571 359.36 39.8571 359.401 39.457C359.444 38.4938 359.393 37.5332 359.205 36.5929C359.2 36.57 359.197 36.5522 359.192 36.5318C358.96 35.0131 358.512 34.1162 357.844 33.7238C357.808 33.6957 357.773 33.6804 357.732 33.6601C356.968 33.2829 355.925 33.5123 354.585 34.1799C354.524 34.2155 354.46 34.2436 354.394 34.2843C353.474 34.7991 352.595 35.4361 351.902 35.8005C351.897 35.8005 351.894 35.8005 351.889 35.8056C351.754 35.9024 351.609 35.9967 351.466 36.0935C351.815 36.7101 352.147 37.3013 352.498 37.9256C352.745 37.7625 352.985 37.6045 353.222 37.4542C353.454 37.3013 353.68 37.1535 353.902 37.0134C354.121 36.8732 354.333 36.7407 354.539 36.6184C354.751 36.4936 354.947 36.3789 355.135 36.2744C356.162 35.7062 356.975 35.4335 357.546 35.6934C357.594 35.7138 357.643 35.7419 357.686 35.7699C357.729 35.803 357.778 35.8336 357.819 35.8693C357.847 35.8973 357.875 35.9202 357.898 35.9534C357.941 35.9967 357.982 36.0502 358.017 36.1088C358.03 36.1241 358.04 36.1419 358.053 36.1598C358.089 36.2209 358.124 36.2872 358.158 36.356C358.173 36.3916 358.191 36.4273 358.206 36.4681C358.219 36.5088 358.234 36.5471 358.249 36.5929C358.262 36.6159 358.27 36.649 358.277 36.677C358.3 36.7484 358.321 36.8248 358.338 36.9013C358.361 36.993 358.382 37.0847 358.4 37.1815C358.407 37.23 358.42 37.2784 358.428 37.3293C358.435 37.3905 358.44 37.4465 358.448 37.5103C358.468 37.658 358.484 37.8186 358.491 37.9893C358.496 38.0403 358.499 38.0938 358.499 38.1447C358.532 38.7079 358.522 39.3729 358.476 40.1552C358.453 40.1501 358.433 40.1501 358.412 40.1475C358.377 40.0431 358.336 39.8927 358.305 39.7067C358.298 39.6838 358.293 39.6583 358.29 39.6303C358.275 39.5385 358.257 39.4417 358.239 39.3423C358.231 39.299 358.224 39.2506 358.216 39.2022C358.201 39.1258 358.188 39.0493 358.173 38.9754C358.165 38.899 358.15 38.82 358.132 38.7384C358.109 38.611 358.081 38.4734 358.053 38.346C358.048 38.318 358.04 38.2951 358.033 38.2619C358.017 38.1906 358.005 38.1269 357.984 38.0581C357.979 38.0377 357.977 38.0224 357.969 38.002C357.956 37.946 357.946 37.8899 357.926 37.839C357.91 37.7753 357.89 37.7116 357.87 37.6504C357.842 37.5663 357.808 37.4873 357.78 37.4109C357.701 37.2274 357.617 37.072 357.513 36.9599C357.485 36.9318 357.457 36.9038 357.424 36.8809C357.403 36.8605 357.38 36.8401 357.355 36.8299C357.332 36.8146 357.304 36.8019 357.278 36.7891C357.21 36.7662 357.138 36.7535 357.062 36.7662C357.006 36.7738 356.945 36.7866 356.881 36.8146C356.348 37.1535 355.737 37.5103 355.158 37.9179C355.151 37.9179 355.143 37.923 355.135 37.9307C354.435 38.4556 353.795 39.0544 353.26 39.7704C353.255 39.7781 353.252 39.7832 353.247 39.7908C353.242 39.7959 353.242 39.7959 353.24 39.7985C352.903 40.1934 352.819 40.6623 352.804 41.1464V41.3222C352.832 41.5184 352.827 41.7223 352.809 41.9312C352.809 41.9669 352.809 41.9949 352.804 42.0306C352.791 42.2395 352.763 42.4459 352.756 42.6498C352.756 42.6549 352.756 42.6549 352.756 42.6574C352.72 42.9097 352.75 43.1288 352.835 43.3403C352.85 43.3887 352.868 43.4321 352.885 43.4728C352.901 43.506 352.919 43.5365 352.934 43.5697C352.954 43.6053 352.97 43.6334 352.99 43.6665C354.063 45.4909 354.239 47.6466 354.577 49.6902C354.585 49.7539 354.593 49.8176 354.613 49.8788C354.628 49.9833 354.656 50.0826 354.697 50.1795C354.71 50.2228 354.725 50.2635 354.741 50.3043C354.748 50.3272 354.756 50.3527 354.769 50.3757C354.789 50.4164 354.809 50.4521 354.825 50.4929C354.86 50.5693 354.904 50.6458 354.952 50.712C354.993 50.7757 355.036 50.8394 355.079 50.8955C355.085 50.9031 355.087 50.9082 355.092 50.9108C355.135 50.9668 355.189 51.0229 355.237 51.0789C355.299 51.1426 355.365 51.2114 355.434 51.27C355.502 51.3261 355.566 51.3822 355.632 51.4331C355.704 51.4841 355.778 51.5376 355.849 51.5809C355.918 51.6293 355.984 51.6701 356.053 51.7083C356.129 51.7491 356.208 51.7924 356.28 51.8255C356.356 51.8612 356.432 51.8969 356.511 51.9249C356.56 51.9478 356.608 51.9657 356.657 51.981C356.789 52.0294 356.922 52.0702 357.057 52.1058C357.141 52.1262 357.227 52.1491 357.312 52.167C357.401 52.1823 357.482 52.2001 357.571 52.2103C357.931 52.2664 358.142 52.1746 358.275 51.8179C358.614 50.8751 358.996 49.945 359.327 48.9997C359.707 48.1308 359.847 47.3281 359.862 46.556C359.928 45.7101 359.862 44.8539 359.618 43.9901ZM357.013 51.2981C356.889 51.0891 357.133 50.526 357.51 50.1616C357.673 50.3604 357.434 50.9133 357.013 51.2981ZM358.728 47.6543C358.708 47.69 358.695 47.7307 358.685 47.7715C358.573 48.0467 358.504 48.3601 358.41 48.6557C358.298 48.936 358.163 49.1959 357.979 49.4125C357.811 48.8213 358.626 47.5243 358.787 46.8338C358.82 46.8414 358.856 46.8491 358.884 46.8567C358.833 47.1217 358.812 47.3969 358.728 47.6543Z" fill="#4DA4DC"/>
<path d="M367.693 39.9874C367.904 40.0868 368.065 40.2753 368.08 40.4664C368.095 40.2549 367.932 40.0766 367.693 39.9874ZM367.591 50.2232C367.445 50.9978 367.247 51.7393 366.992 52.4349C367.448 51.2679 367.731 50.0422 367.807 48.7988C367.766 49.2753 367.695 49.7492 367.591 50.2232ZM366.951 40.0358C366.763 40.1072 366.579 40.2524 366.416 40.4639C366.38 40.5047 366.345 40.5429 366.299 40.5811C366.518 40.4282 366.729 40.2448 366.943 40.046C366.949 40.0409 366.956 40.0384 366.959 40.0333C366.956 40.0307 366.956 40.0307 366.951 40.0358ZM365.792 42.1686C366.179 41.9163 366.564 41.6641 366.951 41.422C366.559 41.659 366.161 41.8959 365.792 42.1686ZM365.236 42.6272C365.236 42.6323 365.231 42.6323 365.231 42.6349C365.239 42.6272 365.246 42.6196 365.254 42.6119C365.249 42.6145 365.244 42.6196 365.236 42.6272ZM365.045 43.1904C365.025 43.5548 365.264 43.7866 365.588 43.8376C365.277 43.7713 365.048 43.5114 365.045 43.1904ZM363.188 40.3237C363.435 40.4486 363.684 40.627 363.883 40.7187C364.24 40.9582 364.584 41.0703 364.907 41.0831C364.268 40.9837 363.677 40.525 363.188 40.3237ZM360.525 53.3089C360.588 53.2121 360.66 53.128 360.744 53.0414C360.657 53.1255 360.588 53.2121 360.525 53.3089ZM347.104 53.1255C347.035 53.077 346.969 53.0261 346.892 52.9726C346.796 52.9038 346.696 52.8299 346.597 52.7534C346.89 52.993 347.188 53.2121 347.501 53.421C347.397 53.3369 347.259 53.2376 347.104 53.1255ZM344.997 50.8169V50.7735C344.976 50.9825 344.946 51.1787 345.116 51.3265C345.132 51.3469 345.152 51.3622 345.167 51.3825C345.053 51.1889 344.984 50.9978 344.997 50.8169ZM344.107 49.7135C344.362 49.79 344.604 49.9301 344.78 50.134C344.625 49.925 344.385 49.79 344.107 49.7135ZM343.037 55.1971C344.097 56.9731 345.392 58.3567 346.864 59.353C345.341 58.2726 344.051 56.8075 343.037 55.1971ZM342.464 49.9785C342.443 49.9913 342.428 50.0015 342.408 50.0193C342.364 50.0524 342.318 50.0881 342.28 50.1263H342.296C342.387 50.0371 342.487 49.9632 342.599 49.8944C342.553 49.9174 342.51 49.9454 342.464 49.9785ZM340.93 37.2966C340.986 37.2405 341.034 37.1692 341.057 37.0876C341.024 37.1692 340.981 37.2354 340.93 37.2966ZM338.366 37.8241C338.045 37.9005 337.734 38.0075 337.441 38.1451C338.234 37.8215 339.009 37.7374 339.638 37.661C339.174 37.6814 338.693 37.6763 338.366 37.8241ZM338.838 49.6702C339.205 49.6982 339.567 49.818 339.865 50.0295C339.62 49.7951 339.245 49.6779 338.838 49.6702ZM337.834 50.5544C337.961 50.5773 338.089 50.6054 338.211 50.6512C338.089 50.6028 337.961 50.5748 337.834 50.5544ZM336.962 50.4907C337.11 50.2792 337.299 50.1136 337.503 49.9862C337.271 50.1136 337.082 50.2869 336.962 50.4907ZM327.575 59.0473C328.194 59.3072 328.844 59.5187 329.512 59.6231C328.979 59.511 328.263 59.2995 327.575 59.0473ZM325.297 57.6483C325.297 57.8395 325.381 57.9694 325.557 58.056C325.593 58.0764 325.626 58.0892 325.656 58.107C325.44 57.949 325.307 57.7936 325.297 57.6483Z" fill="#4DA4DC"/>
<path d="M365.231 42.6349C365.231 42.6298 365.236 42.6298 365.236 42.6272C365.244 42.6196 365.249 42.6145 365.257 42.6119C365.257 42.6068 365.257 42.6043 365.262 42.6043C365.351 42.4871 365.473 42.3775 365.634 42.273C365.685 42.2399 365.741 42.2017 365.794 42.1686C366.161 41.8959 366.561 41.6615 366.954 41.422C367.219 41.2512 367.486 41.0856 367.754 40.9225C367.973 40.7773 368.075 40.6193 368.082 40.4715C368.067 40.2804 367.907 40.0919 367.695 39.9925C367.69 39.9874 367.682 39.9848 367.675 39.9848C367.479 39.9237 367.231 39.9237 366.987 40.0256C366.979 40.0307 366.971 40.0333 366.964 40.0383C366.959 40.0434 366.951 40.046 366.949 40.0511C366.737 40.2498 366.526 40.4359 366.304 40.5862C365.832 41.0703 365.361 41.1697 364.913 41.0907C364.589 41.078 364.245 40.9659 363.888 40.7263C363.69 40.6346 363.44 40.4537 363.193 40.3314C363.177 40.3237 363.165 40.3161 363.152 40.311C362.821 40.1836 362.535 40.1836 362.324 40.5072C362.319 40.5123 362.316 40.5199 362.311 40.5276C361.967 41.4959 362.984 42.3597 363.272 43.2388C364.296 45.2875 364.485 47.3871 363.712 49.5581C363.613 49.846 363.356 50.1416 363.817 50.3862C362.454 50.827 362.321 51.7469 363.46 52.835C362.841 52.7942 362.359 52.5827 362.013 52.1266C361.852 52.2183 361.705 52.31 361.569 52.3992C361.366 52.5343 361.185 52.6668 361.029 52.7916C360.93 52.8808 360.831 52.9624 360.749 53.0515C360.665 53.1407 360.594 53.2223 360.53 53.3191C360.466 53.4083 360.413 53.5 360.369 53.5994C360.346 53.6504 360.326 53.7039 360.308 53.7548C360.272 53.8618 360.244 53.9714 360.229 54.0835C360.168 54.5116 360.224 55.0238 360.374 55.7067C359.707 55.0391 359.47 54.2543 359.526 53.3191C357.887 53.9026 357.887 55.2557 357.842 56.6393C357.113 55.6965 357.327 54.7206 357.447 53.6478C355.676 53.3828 355.36 55.5003 354.876 56.731C354.488 55.4187 354.623 54.188 355.66 53.1152C354.086 52.0119 353.028 53.6504 352.284 54.8352C352.269 53.4465 352.692 52.3228 354.045 51.752C353.242 50.1951 352.042 50.1849 350.63 50.8653C350.99 50.0805 351.573 49.6906 352.353 49.4944C352.113 49.0714 351.882 48.7019 351.693 48.3095C350.732 46.4927 348.702 47.8381 347.555 48.6382C348.151 47.1578 349.226 46.4417 350.829 46.6074C350.358 44.6122 348.574 44.9562 347.127 45.4709C347.603 44.2835 348.778 44.3548 349.838 44.286C349.023 42.5916 347.69 40.8385 347.929 38.8509C347.973 38.8509 348.019 38.8433 348.062 38.8382C348.365 39.386 348.561 39.7581 348.709 40.0052C348.76 40.0944 348.806 40.1607 348.849 40.2218C348.898 40.283 348.938 40.3263 348.982 40.3696C349.305 40.6499 349.685 40.4206 351.242 40.4817C351.201 40.0893 351.145 39.7071 351.071 39.3453C351.051 39.2561 351.028 39.1745 351.008 39.0854C350.895 38.6802 350.748 38.3133 350.539 38.0101C350.467 37.903 350.383 37.8011 350.294 37.7094C350.233 37.6457 350.169 37.5896 350.098 37.5387C350.029 37.4877 349.958 37.4393 349.881 37.3909C349.453 37.1462 348.89 37.0545 348.146 37.1717C348.067 37.1666 347.993 37.1488 347.929 37.1208C347.868 37.0876 347.812 37.052 347.774 37.0035C347.603 36.8201 347.591 36.5347 347.769 36.3207C348.261 35.834 348.941 35.9155 349.593 35.9333C349.525 35.8544 349.458 35.7779 349.384 35.7066C349.028 35.3345 348.625 35.0593 348.182 34.8504C348.001 34.7714 347.822 34.6975 347.634 34.6338C345.922 34.0809 343.827 34.3586 342.135 34.5574C341.442 34.6695 340.764 34.8504 340.086 35.0721C339.862 35.1485 339.638 35.225 339.419 35.3091C339.082 35.4339 338.746 35.5613 338.415 35.7015C338.191 35.7906 337.971 35.8824 337.747 35.9767C337.635 36.02 337.528 36.0658 337.416 36.1117C337.087 36.2519 336.751 36.392 336.42 36.5245C334.539 37.2889 332.643 37.9311 330.628 37.7527C328.024 36.578 325.216 35.9282 322.509 35.0339C320.405 34.4809 317.63 33.4336 315.907 35.1689C315.856 35.2199 315.808 35.2734 315.754 35.3294C315.706 35.3855 315.663 35.4416 315.614 35.5002C312.814 39.0344 313.115 43.8096 312.702 48.0649C312.674 48.5083 312.829 48.8777 313.16 49.2039C315.976 52.2922 318.988 55.1716 322.894 56.8253C323.169 56.9502 323.363 56.9935 323.595 56.7336C323.615 56.7183 323.636 56.6928 323.656 56.6826C323.727 56.6189 323.809 56.5705 323.893 56.5425C323.936 56.5272 323.982 56.5195 324.028 56.5093C324.092 56.4966 324.163 56.4966 324.232 56.5042C324.252 56.4991 324.275 56.5042 324.301 56.5093C324.349 56.517 324.398 56.5221 324.441 56.5374C324.622 56.5858 324.79 56.6775 324.938 56.7973C324.966 56.8202 324.994 56.8457 325.014 56.8737C325.065 56.9221 325.114 56.9731 325.154 57.0291C325.267 57.1922 325.325 57.3808 325.307 57.577C325.302 57.605 325.302 57.633 325.302 57.656C325.315 57.7987 325.447 57.9567 325.662 58.1146C326.278 58.4383 326.897 58.7619 327.534 59.0294C327.55 59.0371 327.567 59.0447 327.583 59.0523C328.271 59.3046 328.987 59.5161 329.519 59.6282C329.524 59.6333 329.532 59.6333 329.54 59.6333C329.777 59.6741 330.011 59.7021 330.256 59.7098C335.467 59.7301 333.092 53.1458 332.743 49.9785C332.766 49.9709 332.799 49.9581 332.827 49.9556C332.855 49.9836 332.878 50.0167 332.903 50.0524C332.954 50.1212 333.003 50.2002 333.051 50.2894C333.184 50.5264 333.311 50.822 333.443 51.1481C333.479 51.2449 333.515 51.3392 333.55 51.4411C333.663 51.7418 333.775 52.0603 333.887 52.3763C333.93 52.4961 333.971 52.6133 334.012 52.7254C334.328 53.6172 334.656 54.4377 334.995 54.7282C335.074 54.797 335.151 54.8352 335.235 54.8403C335.135 54.5014 335.039 54.1804 334.942 53.8593C335.642 54.4759 336.162 55.2302 336.998 55.7041C336.983 55.513 336.975 55.3729 336.955 55.1486C337.768 55.6048 338.4 56.2214 339.314 56.4329C339.202 56.1934 339.116 56.0124 338.983 55.7373C339.704 56.0456 340.14 56.6622 340.902 56.7336C340.81 56.5297 340.734 56.3692 340.665 56.2138C340.68 56.1985 340.7 56.1908 340.721 56.173C341.208 56.466 341.697 56.7616 342.183 57.0572C342.204 57.0291 342.224 57.0011 342.245 56.968C342.084 56.6724 341.924 56.3717 341.758 56.0634C341.857 56.043 341.918 56.0303 341.941 56.0277C340.981 54.4199 340.135 52.756 339.001 51.2679C338.754 50.9315 338.496 50.7557 338.216 50.6563C338.096 50.613 337.969 50.585 337.839 50.5595C337.75 50.5519 337.663 50.5391 337.571 50.5315C337.383 50.5162 337.187 50.5085 336.967 50.4958C337.087 50.2919 337.276 50.1187 337.508 49.9913C337.543 49.9632 337.579 49.9429 337.625 49.9276C337.969 49.739 338.364 49.6524 338.756 49.6728C338.789 49.6728 338.82 49.6778 338.845 49.6778C339.253 49.6855 339.63 49.8027 339.872 50.0371C339.928 50.0728 339.979 50.1161 340.033 50.162L342.288 50.134C342.329 50.0932 342.372 50.0575 342.415 50.0269C342.436 50.0117 342.451 49.9989 342.471 49.9862C342.515 49.953 342.561 49.925 342.606 49.9021C342.647 49.8791 342.685 49.8588 342.726 49.8409C342.77 49.8205 342.81 49.8002 342.854 49.79C342.869 49.7823 342.887 49.7747 342.902 49.7696C343.014 49.7288 343.129 49.6982 343.251 49.6804C343.498 49.632 343.758 49.6371 343.998 49.688C343.998 49.688 343.998 49.688 344.003 49.688C344.038 49.6957 344.079 49.7084 344.115 49.7212C344.39 49.7976 344.63 49.9327 344.788 50.1416C344.811 50.1645 344.828 50.1849 344.839 50.213C344.872 50.2359 344.89 50.269 344.907 50.297C345.02 50.4448 345.014 50.6079 345.004 50.7735C345.004 50.7786 345.004 50.7812 345.004 50.7812V50.8245C344.991 51.0054 345.06 51.1965 345.175 51.3876C345.175 51.3927 345.18 51.3953 345.183 51.4004C345.56 51.8488 345.978 52.2489 346.418 52.6209C346.431 52.6286 346.439 52.6362 346.452 52.6439C346.503 52.6846 346.551 52.7228 346.604 52.7611C346.704 52.8375 346.803 52.9139 346.9 52.9802C346.976 53.0312 347.043 53.0847 347.112 53.1331C347.267 53.2452 347.405 53.3446 347.506 53.4287C347.575 53.472 347.647 53.5128 347.715 53.5535C347.799 53.6019 347.884 53.6504 347.968 53.7013C348.047 53.7523 348.131 53.8007 348.212 53.8542C348.332 53.9255 348.452 53.9994 348.561 54.0733C348.745 54.1931 348.91 54.3205 349.025 54.4454C349.305 54.7282 349.39 55.0085 349.068 55.2888C349.025 55.3245 348.977 55.3601 348.921 55.3958C348.842 55.4519 348.74 55.5028 348.625 55.5563C348.508 55.6124 348.373 55.6634 348.22 55.7169C348.169 55.7373 348.115 55.7525 348.059 55.7678C346.324 56.2545 344.681 55.8799 343.045 55.2047C344.061 56.8177 345.348 58.2803 346.872 59.3607C346.877 59.3658 346.885 59.3683 346.887 59.3683C348.49 60.5124 350.358 61.2284 352.437 61.2514C353.836 61.3431 355.301 61.208 356.799 60.8309C357.324 60.7112 357.839 60.571 358.338 60.4028C358.351 60.4028 358.361 60.3977 358.372 60.3952C360.216 59.8601 361.896 58.9046 363.31 57.6585C363.379 57.6025 363.445 57.5413 363.509 57.4878C364.948 56.1755 366.1 54.5651 366.852 52.7967C366.864 52.7764 366.872 52.756 366.88 52.7356C366.921 52.6388 366.956 52.5394 366.997 52.44C367.252 51.7444 367.453 51.0054 367.596 50.2282C367.7 49.7568 367.772 49.2803 367.812 48.8038C367.817 48.7529 367.817 48.6994 367.82 48.6484C367.909 46.8596 367.565 45.0326 366.709 43.2923C366.668 43.3432 366.63 43.3968 366.589 43.435C366.582 43.4477 366.574 43.4554 366.566 43.4579C366.538 43.4936 366.505 43.5267 366.469 43.5547C366.436 43.5828 366.401 43.6159 366.365 43.6388C366.097 43.8376 365.825 43.8911 365.598 43.8427C365.598 43.8427 365.598 43.8427 365.593 43.8427C365.269 43.7917 365.03 43.5598 365.05 43.1955C365.037 43.0273 365.091 42.8438 365.221 42.6629C365.221 42.6502 365.223 42.64 365.231 42.6349ZM322.696 55.0518C321.531 55.3398 320.012 53.6453 319.044 53.0363C318.856 52.9038 318.748 52.7279 318.792 52.4961C318.94 52.4833 319.085 52.468 319.187 52.6005C320.239 53.5535 321.506 54.1753 322.698 54.9117C322.701 54.9601 322.696 55.0059 322.696 55.0518ZM329.744 43.6388C328.689 44.1383 327.629 40.3874 324.444 39.4192C322.724 38.8025 317.365 36.1525 316.654 38.8841C315.683 41.608 315.286 44.467 314.947 47.3259C314.919 47.5145 314.987 47.7591 315.094 47.9146C315.869 49.0383 316.69 50.134 317.469 51.2551C317.449 51.2832 317.421 51.3061 317.401 51.3316C316.593 50.6716 314.154 48.5312 314.101 47.568C314.516 44.9995 314.794 36.629 318.109 36.5296C321.067 36.5857 323.883 37.8164 326.678 38.6853C328.574 39.2765 329.606 40.6168 330.1 42.4616C330.248 42.9661 330.116 43.5038 329.744 43.6388ZM334.914 38.8356C336.142 37.2686 337.709 36.3283 339.842 36.2009C340.237 36.2519 341.238 36.4888 341.057 37.0876C341.034 37.1666 340.986 37.2405 340.93 37.2966C340.917 37.317 340.897 37.3246 340.881 37.3399C340.606 37.5947 340.142 37.6431 339.661 37.661H339.638C339.011 37.7374 338.234 37.8215 337.441 38.1451C337.429 38.1451 337.413 38.1502 337.406 38.1604C336.731 38.4687 336.127 38.9172 335.579 39.4395C335.138 40.0791 334.266 39.5924 334.914 38.8356ZM342.018 42.1991C342.721 44.258 340.899 46.4672 338.738 45.9474C337.551 45.7308 336.728 45.0326 336.338 43.8885C336.167 43.1445 335.385 43.4554 334.83 43.2694C334.817 43.2337 334.807 43.1929 334.794 43.1572C334.921 43.0681 335.077 42.9814 335.258 42.8922C335.349 42.8438 335.446 42.8005 335.541 42.7521C335.673 42.6884 335.821 42.6272 335.969 42.5635C336.208 42.4667 336.466 42.3673 336.736 42.2756C336.799 42.2552 336.863 42.2323 336.924 42.2119C337.508 42.0208 338.132 41.8475 338.756 41.7252C339.383 41.6054 340.007 41.5264 340.563 41.529C340.731 41.529 340.892 41.5366 341.042 41.5519C341.23 41.5672 341.409 41.5952 341.574 41.6411C341.878 41.7176 342.135 41.8399 342.331 42.0208C342.196 42.0947 342.12 42.1431 342.018 42.1991Z" fill="#4DA4DC"/>
<path d="M353.658 29.0659V29.071C353.553 29.043 353.449 29.0201 353.347 28.9946C353.138 28.9462 352.931 28.9105 352.728 28.8774C352.524 28.8442 352.32 28.8213 352.119 28.8009C352.113 28.8009 352.113 28.8009 352.113 28.8009C351.91 28.7805 351.708 28.7729 351.515 28.7652C344.36 28.5487 338.598 36.1165 331.379 36.5446C331.978 36.0019 333.703 34.9138 335.943 33.6805C335.948 33.6755 335.951 33.6729 335.958 33.6678C338.983 31.9045 342.138 30.3527 345.44 29.2417C345.46 29.2341 345.481 29.2265 345.501 29.2188C348.268 28.1945 350.773 27.5753 352.271 27.8581C352.271 27.8581 352.277 27.8581 352.279 27.8581C353.008 27.9295 353.614 28.2021 353.655 28.9385C353.655 28.9385 353.655 28.9385 353.655 28.9436V28.9589C353.658 28.9946 353.658 29.0302 353.658 29.0659Z" fill="#4DA4DC"/>
<path d="M330.895 35.4643C330.86 35.4771 330.824 35.4924 330.788 35.5127C330.661 35.5739 330.533 35.6554 330.401 35.737C330.332 35.7777 330.266 35.816 330.192 35.8542C330.144 35.8822 330.093 35.9051 330.044 35.9255C329.876 35.9892 329.708 36.0096 329.524 35.9485C329.165 35.8211 328.803 35.6886 328.441 35.5612C328.174 35.4618 327.901 35.3624 327.629 35.2656C327.356 35.1662 327.088 35.0694 326.816 34.9725C326.276 34.7763 325.735 34.5801 325.193 34.3916C324.938 34.2998 324.917 34.147 324.912 33.9355C324.907 33.8641 324.907 33.7877 324.907 33.7163C324.892 32.8805 325.014 32.0855 325.251 31.3287L325.323 31.102C325.363 30.9771 325.412 30.8548 325.458 30.735C325.506 30.6102 325.554 30.4904 325.611 30.3707C325.949 29.6241 326.39 28.9182 326.907 28.271C326.923 28.2506 326.941 28.2302 326.958 28.2099C327.409 27.6416 327.927 27.1091 328.475 26.6224C328.63 26.4822 328.791 26.3421 328.954 26.2096C328.994 26.1765 329.033 26.1459 329.073 26.1128V26.1077H329.078C329.056 26.1867 329.035 26.2682 329.015 26.3472C328.994 26.4262 328.979 26.5077 328.964 26.5867C328.949 26.6657 328.931 26.7472 328.92 26.8262C328.905 26.9052 328.892 26.9868 328.885 27.0658C328.862 27.2263 328.844 27.3817 328.836 27.5372C328.831 27.606 328.829 27.6697 328.829 27.7283C328.821 27.9168 328.821 28.1003 328.829 28.2838C328.829 28.3551 328.834 28.4315 328.842 28.508C328.836 28.5309 328.842 28.5589 328.847 28.587C328.852 28.6583 328.854 28.7297 328.867 28.8036C328.872 28.8928 328.882 28.9743 328.895 29.0635C328.938 29.4075 329.002 29.7438 329.084 30.0802C329.135 30.3044 329.196 30.5286 329.264 30.7529C329.298 30.8701 329.333 30.9797 329.369 31.0969C329.44 31.316 329.517 31.5402 329.596 31.7619C329.794 32.3174 330.024 32.8653 330.251 33.4105C330.256 33.4335 330.263 33.4615 330.271 33.4895C330.284 33.5303 330.299 33.5787 330.322 33.6246C330.355 33.7087 330.401 33.8004 330.454 33.8998C330.475 33.9431 330.498 33.9839 330.518 34.0246C330.523 34.0374 330.531 34.045 330.531 34.0527C330.567 34.1164 330.6 34.1801 330.635 34.2438C330.656 34.2795 330.676 34.3151 330.691 34.3559C330.753 34.4629 330.809 34.575 330.855 34.6795C330.867 34.7024 330.875 34.7228 330.883 34.7432C330.911 34.8069 330.934 34.8681 330.954 34.9267C331.043 35.1891 331.056 35.393 330.895 35.4643Z" fill="#4DA4DC"/>
<path d="M344.444 28.3705C344.168 28.4699 343.891 28.5693 343.621 28.6737C343.348 28.7782 343.078 28.8827 342.805 28.9948C342.469 29.1273 342.132 29.2674 341.801 29.4101C341.501 29.5375 341.202 29.67 340.904 29.8102C340.56 29.9631 340.216 30.1211 339.877 30.2867C339.597 30.4217 339.314 30.5593 339.034 30.702C338.825 30.8065 338.621 30.911 338.415 31.018C338.043 31.2091 337.668 31.4053 337.299 31.6092C336.792 31.8844 336.282 32.1697 335.78 32.4653C335.78 32.4653 335.78 32.4602 335.775 32.4653C335.27 32.7584 334.771 33.0539 334.272 33.3623C333.772 33.6655 333.273 33.9789 332.781 34.2949C332.534 34.4503 332.284 34.6108 332.037 34.7714C331.904 34.4834 331.769 34.1955 331.637 33.9076C331.502 33.6145 331.364 33.324 331.237 33.031C331.046 32.5902 330.857 32.1519 330.689 31.7085C330.628 31.5531 330.572 31.4002 330.521 31.2448C330.465 31.0919 330.414 30.9365 330.365 30.781C330.314 30.6256 330.268 30.4702 330.225 30.3122C330.182 30.1567 330.141 30.0013 330.105 29.8433C330.1 29.828 330.098 29.8102 330.093 29.7949C330.065 29.6777 330.042 29.563 330.016 29.4433C329.927 29.0075 329.863 28.5667 329.84 28.1233C329.833 28.0749 329.833 28.0265 329.833 27.9781C329.817 27.6749 329.817 27.3742 329.838 27.0659C329.843 26.9945 329.845 26.9232 329.853 26.8467C329.868 26.6429 329.896 26.439 329.93 26.2352C330.406 25.8428 330.939 25.4988 331.514 25.2083C331.731 25.0911 331.958 24.9892 332.187 24.8923C332.462 24.7726 332.75 24.6656 333.038 24.5713C333.079 24.5585 333.115 24.5483 333.155 24.5356C333.55 24.4082 333.963 24.2986 334.376 24.2196C334.529 24.1865 334.679 24.1585 334.832 24.1356C335.107 24.0922 335.385 24.0566 335.663 24.0311C335.943 24.0031 336.218 23.9903 336.499 23.9878C336.59 23.9827 336.68 23.9827 336.766 23.9827C336.863 23.9827 336.957 23.9878 337.054 23.9903C337.123 23.9903 337.189 23.9954 337.253 23.998C337.37 24.0056 337.485 24.0107 337.597 24.0183C337.796 24.0336 337.992 24.054 338.193 24.082C338.313 24.0973 338.43 24.1177 338.545 24.1381C338.672 24.1585 338.8 24.1814 338.929 24.2094C339.001 24.2222 339.072 24.2375 339.146 24.2579C339.217 24.2732 339.286 24.291 339.358 24.3088C339.5 24.3445 339.64 24.3853 339.781 24.4286C340.068 24.5178 340.351 24.6197 340.629 24.7369C340.756 24.7879 340.881 24.8439 341.001 24.9051C341.294 25.0452 341.577 25.2058 341.85 25.3816C341.941 25.4376 342.031 25.4988 342.117 25.5625C342.354 25.7256 342.581 25.9065 342.792 26.1027C342.899 26.1995 343.004 26.2989 343.103 26.4034C343.172 26.4722 343.238 26.5435 343.302 26.6149C343.366 26.6862 343.429 26.7576 343.491 26.834C343.542 26.8952 343.587 26.9538 343.633 27.0149C343.717 27.1219 343.796 27.2341 343.873 27.3462C343.921 27.4175 343.965 27.4863 344.008 27.5577C344.064 27.6468 344.12 27.7386 344.171 27.8303C344.207 27.8991 344.242 27.9654 344.278 28.0342C344.298 28.0749 344.319 28.1132 344.339 28.1539C344.377 28.2253 344.413 28.2992 344.444 28.3705Z" fill="#4DA4DC"/>
<path d="M350.404 43.1621C350.355 43.1136 350.314 43.0729 350.284 43.0347C350.248 42.9939 350.215 42.9582 350.195 42.9276C350.134 42.8359 350.123 42.7646 350.146 42.6728C350.154 42.6499 350.162 42.6168 350.179 42.5836C350.202 42.5199 350.243 42.4435 350.297 42.3467C350.465 42.0307 350.513 41.651 350.628 41.251C350.661 41.251 350.697 41.2561 350.732 41.2586C350.811 41.2637 350.903 41.2663 351.005 41.2714C351.056 41.2765 351.109 41.2765 351.16 41.279C351.334 41.9874 350.982 42.9939 350.404 43.1621Z" fill="white"/>
<path d="M329.744 43.6386C328.689 44.1381 327.629 40.3872 324.443 39.419C322.724 38.8049 317.367 36.1523 316.656 38.8839C315.686 41.6103 315.286 44.4668 314.947 47.3257C314.921 47.5169 314.987 47.7589 315.094 47.9144C315.869 49.0381 316.69 50.1338 317.472 51.2549C317.449 51.2804 317.423 51.3059 317.401 51.3288C316.593 50.6689 314.152 48.5285 314.101 47.5627C314.519 44.9968 314.794 36.6288 318.109 36.5269C321.07 36.5829 323.885 37.8162 326.678 38.6826C328.574 39.2712 329.609 40.6115 330.105 42.4563C330.246 42.9685 330.116 43.501 329.744 43.6386Z" fill="black"/>
<path d="M342.331 42.018C342.138 41.8396 341.88 41.7173 341.574 41.6383C341.411 41.5924 341.233 41.567 341.044 41.5491C340.892 41.5338 340.731 41.5262 340.563 41.5262C340.005 41.5236 339.383 41.6001 338.754 41.7224C338.132 41.8447 337.505 42.0154 336.924 42.2091C336.86 42.2269 336.797 42.2498 336.733 42.2728C336.46 42.3671 336.203 42.4639 335.966 42.5607C335.818 42.6244 335.673 42.6881 335.538 42.7518C335.441 42.7977 335.344 42.841 335.255 42.8894C335.077 42.9786 334.919 43.0678 334.789 43.1544C334.799 43.1926 334.814 43.2283 334.827 43.2665C335.383 43.4577 336.165 43.1442 336.336 43.8883C336.723 45.0324 337.546 45.7306 338.733 45.9472C340.894 46.4644 342.713 44.2552 342.01 42.2014C342.12 42.1428 342.196 42.097 342.331 42.018ZM340.469 44.8668C339.694 45.3815 338.384 45.3687 337.872 44.6884C339.072 44.4132 339.495 43.7583 339.294 42.655C339.778 42.6626 340.955 42.125 341.241 42.5174C341.567 43.2997 341.21 44.3724 340.469 44.8668Z" fill="black"/>
<path d="M340.469 44.8669C339.694 45.3816 338.384 45.3714 337.875 44.6886C339.072 44.4134 339.495 43.7585 339.296 42.6577C339.778 42.6654 340.955 42.1302 341.241 42.5176C341.567 43.3024 341.21 44.3726 340.469 44.8669Z" fill="white"/>
<path d="M341.057 37.0877C341.032 37.1692 340.986 37.2406 340.927 37.2966C340.917 37.3145 340.897 37.3272 340.881 37.3425C340.639 37.5387 340.206 37.5948 339.661 37.6636H339.638C339.009 37.7375 338.234 37.8241 337.441 38.1477C337.431 38.1477 337.416 38.1503 337.403 38.163C336.789 38.4127 336.16 38.8026 335.579 39.4447C335.141 40.0817 334.264 39.5925 334.911 38.8383C336.139 37.2737 337.709 36.3309 339.839 36.2061C340.239 36.2545 341.236 36.4889 341.057 37.0877Z" fill="black"/>
<path d="M322.701 54.9116C322.701 54.96 322.698 55.0059 322.698 55.0543C321.534 55.3422 320.017 53.6477 319.049 53.0362C318.858 52.9062 318.751 52.7304 318.797 52.496C318.945 52.4858 319.087 52.4705 319.192 52.6005C320.242 53.5535 321.508 54.1752 322.701 54.9116Z" fill="black"/>
<path d="M358.881 46.8515C358.833 47.1191 358.81 47.3943 358.728 47.6517C358.711 47.6899 358.695 47.7255 358.683 47.7663C358.57 48.0415 358.504 48.3549 358.407 48.6531C358.295 48.9334 358.158 49.1882 357.974 49.4048C357.806 48.8161 358.621 47.5192 358.782 46.8286C358.82 46.8388 358.853 46.8464 358.881 46.8515Z" fill="black"/>
<path d="M357.013 51.2959C356.891 51.0869 357.136 50.5238 357.508 50.1594C357.671 50.3607 357.434 50.9137 357.013 51.2959Z" fill="black"/>
</svg>
