<svg width="102" height="102" viewBox="0 0 102 102" fill="none" xmlns="http://www.w3.org/2000/svg">
<g clip-path="url(#clip0_1_820)">
<path d="M51 93.5001C27.5273 93.5001 8.5 74.4729 8.5 51.0001C8.5 27.5274 27.5273 8.50012 51 8.50012C74.4727 8.50012 93.5 27.5274 93.5 51.0001C93.5 74.4729 74.4727 93.5001 51 93.5001ZM51 85.0001C60.0174 85.0001 68.6654 81.418 75.0416 75.0418C81.4179 68.6655 85 60.0175 85 51.0001C85 41.9828 81.4179 33.3347 75.0416 26.9585C68.6654 20.5823 60.0174 17.0001 51 17.0001C41.9826 17.0001 33.3346 20.5823 26.9584 26.9585C20.5821 33.3347 17 41.9828 17 51.0001C17 60.0175 20.5821 68.6655 26.9584 75.0418C33.3346 81.418 41.9826 85.0001 51 85.0001ZM51 29.9626L72.0375 51.0001L51 72.0376L29.9625 51.0001L51 29.9626ZM51 41.9859L41.9857 51.0001L51 60.0144L60.0143 51.0001L51 41.9859Z" fill="#36A9F3"/>
</g>
<defs>
<clipPath id="clip0_1_820">
<rect width="102" height="102" fill="white"/>
</clipPath>
</defs>
</svg>
