<svg width="42" height="42" viewBox="0 0 42 42" fill="none" xmlns="http://www.w3.org/2000/svg">
<path d="M34 16.716C33.985 16.5874 33.9559 16.4607 33.9133 16.338V16.212C33.8439 16.0681 33.7512 15.9357 33.6389 15.82L24.9722 7.42C24.8528 7.3111 24.7163 7.22131 24.5678 7.154C24.5247 7.14806 24.4809 7.14806 24.4378 7.154C24.291 7.07244 24.129 7.02008 23.9611 7H18.1111C16.9618 7 15.8596 7.4425 15.047 8.23015C14.2343 9.0178 13.7778 10.0861 13.7778 11.2V12.6H12.3333C11.1841 12.6 10.0819 13.0425 9.2692 13.8302C8.45655 14.6178 8 15.6861 8 16.8V30.8C8 31.9139 8.45655 32.9822 9.2692 33.7698C10.0819 34.5575 11.1841 35 12.3333 35H23.8889C25.0382 35 26.1404 34.5575 26.953 33.7698C27.7657 32.9822 28.2222 31.9139 28.2222 30.8V29.4H29.6667C30.8159 29.4 31.9181 28.9575 32.7308 28.1698C33.5435 27.3822 34 26.3139 34 25.2V16.8C34 16.8 34 16.8 34 16.716ZM25.3333 11.774L29.0744 15.4H26.7778C26.3947 15.4 26.0273 15.2525 25.7564 14.9899C25.4855 14.7274 25.3333 14.3713 25.3333 14V11.774ZM25.3333 30.8C25.3333 31.1713 25.1812 31.5274 24.9103 31.7899C24.6394 32.0525 24.272 32.2 23.8889 32.2H12.3333C11.9502 32.2 11.5828 32.0525 11.312 31.7899C11.0411 31.5274 10.8889 31.1713 10.8889 30.8V16.8C10.8889 16.4287 11.0411 16.0726 11.312 15.8101C11.5828 15.5475 11.9502 15.4 12.3333 15.4H13.7778V25.2C13.7778 26.3139 14.2343 27.3822 15.047 28.1698C15.8596 28.9575 16.9618 29.4 18.1111 29.4H25.3333V30.8ZM31.1111 25.2C31.1111 25.5713 30.9589 25.9274 30.688 26.1899C30.4172 26.4525 30.0498 26.6 29.6667 26.6H18.1111C17.728 26.6 17.3606 26.4525 17.0897 26.1899C16.8188 25.9274 16.6667 25.5713 16.6667 25.2V11.2C16.6667 10.8287 16.8188 10.4726 17.0897 10.2101C17.3606 9.9475 17.728 9.8 18.1111 9.8H22.4444V14C22.4444 15.1139 22.901 16.1822 23.7136 16.9698C24.5263 17.7575 25.6285 18.2 26.7778 18.2H31.1111V25.2Z" fill="#83899E"/>
</svg>
