<svg width="203" height="34" viewBox="0 0 203 34" fill="none" xmlns="http://www.w3.org/2000/svg">
<path d="M12.3916 22.517L18.4543 22.4356L18.3369 27.1973L18.2556 32.4288L5.33492 32.3475L0.735895 32.4649L0.65458 23.9446C0.65458 23.285 0.645537 22.3905 0.61843 21.252C0.591324 20.1135 0.555178 18.7311 0.500965 17.0867C0.419647 14.2134 0.383514 11.9365 0.383514 10.274C0.383514 9.79509 0.401583 9.09936 0.437725 8.16871C0.482902 7.2471 0.528082 6.0996 0.582295 4.72622C0.609401 4.40998 0.636509 3.96724 0.65458 3.41608C0.681686 2.86492 0.726862 2.17823 0.781075 1.35601L4.18742 1.47346L18.7344 1.15723V1.83488C18.7344 2.0698 18.7164 2.33183 18.6893 2.62096C18.6351 4.15698 18.5989 5.3858 18.5718 6.30742C18.5447 7.23806 18.5357 7.84344 18.5357 8.13257C18.5357 8.81926 18.617 9.91255 18.7706 11.4215L9.58156 11.2227V12.7677L17.0719 12.6141L17.1894 20.6557L9.58156 20.8544L9.53638 22.3634C9.69902 22.3634 9.89781 22.3633 10.1508 22.3814C10.4038 22.3905 10.6658 22.4176 10.9459 22.4356C11.226 22.4627 11.488 22.4898 11.7591 22.4989C12.0211 22.517 12.2289 22.517 12.3916 22.517Z" fill="#01A0E2"/>
<path d="M41.323 22.3637L41.2055 27.1976L41.1242 32.5827L35.2151 32.6279L28.0048 32.5466L23.207 32.7453L23.1347 28.5439C23.1076 27.8843 23.0895 26.7458 23.0715 25.1375C23.0534 23.5202 23.0263 21.4059 22.9721 18.7947L22.8546 10.2743C22.8546 9.79538 22.8727 9.09062 22.9088 8.15093C22.954 7.21125 22.9992 6.03665 23.0534 4.60905C23.0805 4.2657 23.1076 3.8049 23.1347 3.23567C23.1618 2.66643 23.198 1.97974 23.2522 1.15752L26.8573 1.27498C27.282 1.30209 27.9596 1.29305 28.8993 1.23884C29.839 1.18463 31.0588 1.09427 32.5677 0.95874C32.5406 1.16655 32.5225 1.5099 32.5225 1.98878C32.5225 2.46765 32.5135 3.08206 32.4864 3.85008L32.3689 8.25032L32.2424 22.3998L35.0615 22.4359L41.323 22.3637Z" fill="#01A0E2"/>
<path d="M57.2976 22.517L63.3604 22.4356L63.2429 27.1973L63.1616 32.4288L50.241 32.3475L45.6419 32.4649L45.5606 23.9446C45.5606 23.285 45.5516 22.3905 45.5245 21.252C45.4974 20.1135 45.4612 18.7311 45.407 17.0867C45.3257 14.2134 45.2896 11.9365 45.2896 10.274C45.2896 9.79509 45.3076 9.09936 45.3438 8.16871C45.3889 7.2471 45.4341 6.0996 45.4883 4.72622C45.5064 4.40998 45.5335 3.96724 45.5606 3.41608C45.5877 2.86492 45.6329 2.17823 45.6871 1.35601L49.0935 1.47346L63.6405 1.15723V1.83488C63.6405 2.0698 63.6224 2.33183 63.5953 2.62096C63.5411 4.15698 63.505 5.3858 63.4779 6.30742C63.4507 7.23806 63.4417 7.84344 63.4417 8.13257C63.4417 8.81926 63.514 9.91255 63.6766 11.4215L54.4786 11.2227V12.7677L61.9689 12.6141L62.0954 20.6557L54.4786 20.8544L54.4424 22.3634C54.596 22.3634 54.8038 22.3633 55.0568 22.3814C55.3098 22.3905 55.5719 22.4176 55.852 22.4356C56.123 22.4627 56.3941 22.4898 56.6651 22.4989C56.9272 22.517 57.135 22.517 57.2976 22.517Z" fill="#01A0E2"/>
<path d="M86.3465 6.86784C83.8347 4.3831 79.579 2.84708 73.5795 2.26882C72.6579 2.13328 71.6188 2.09714 70.4532 2.15135H70.0557C69.9202 2.15135 69.7666 2.16039 69.5768 2.1875H67.7607L67.9143 9.32548C67.9685 12.3885 68.0046 15.2166 68.0317 17.8007C68.0589 20.3939 68.0769 22.7611 68.0769 24.8935V32.429L75.2511 32.5826L75.1697 25.0561V24.1797H75.6847C79.064 23.8183 82.0005 22.8063 84.4852 21.1709C87.5211 19.1922 89.0391 16.6713 89.0391 13.5992C89.0391 10.9067 88.1446 8.66589 86.3465 6.86784ZM77.546 15.9755C77.0401 16.4544 76.2088 16.8249 75.0523 17.0869V11.9367C75.8203 11.9367 76.4799 12.0271 77.031 12.2168C77.9526 12.5059 78.4225 12.9125 78.4225 13.4456C78.4225 14.5841 78.1243 15.4244 77.546 15.9755Z" fill="#01A0E2"/>
<path d="M116.154 28.2636C116.227 29.5376 116.272 30.4863 116.272 31.1188V32.7091L114.645 32.5464C114.112 32.4922 113.561 32.4561 112.983 32.429C112.396 32.4018 111.799 32.3838 111.194 32.3838H110.598C110.39 32.3838 110.065 32.4109 109.631 32.447C109.197 32.4832 108.872 32.5103 108.655 32.5103H107.273L107.191 31.164C107.191 30.8207 107.182 30.396 107.173 29.9081C107.155 29.4202 107.137 28.878 107.11 28.2636C107.011 26.818 106.938 25.6885 106.893 24.8753C106.857 24.0712 106.839 23.6014 106.839 23.4749L106.911 20.6558L105.493 20.7371L102.872 20.701C102.872 20.9359 102.863 21.2612 102.854 21.6678C102.836 22.0744 102.818 22.5713 102.791 23.1496L102.719 25.0561L102.637 32.5464H101.165C100.984 32.5464 100.758 32.5374 100.496 32.5283C100.234 32.5103 99.9268 32.4922 99.5834 32.4651L98.5082 32.3476H93.873L93.9544 30.8387C93.9815 30.396 93.9905 29.5376 93.9905 28.2636C93.9905 26.9716 93.9724 25.2819 93.9182 23.1948C93.864 20.3396 93.8188 17.8006 93.7737 15.5869C93.7375 13.3642 93.7194 11.4216 93.7194 9.75909C93.6923 9.54224 93.6291 8.98204 93.5387 8.06947C93.4484 7.16593 93.3219 5.87386 93.1592 4.21135C93.0056 2.67533 92.9514 1.78985 93.0056 1.55493C94.3519 1.84407 95.5627 2.06995 96.6469 2.22355C97.7312 2.38619 98.7251 2.46751 99.6196 2.46751H101.363C101.869 2.46751 102.276 2.42233 102.592 2.35005C102.836 5.35884 102.954 9.37057 102.954 14.3943C103.189 14.3943 103.55 14.4214 104.038 14.4756C104.526 14.5298 104.896 14.5569 105.131 14.5569H106.559C106.712 14.5027 106.857 14.4665 106.974 14.4575C107.092 14.4394 107.209 14.4214 107.309 14.3943C107.417 13.5449 107.489 12.2258 107.526 10.4096C107.571 8.60256 107.589 6.29853 107.589 3.49755H109.053C109.242 3.49755 109.468 3.50658 109.73 3.51562C109.992 3.52465 110.299 3.55176 110.643 3.57887L111.709 3.69633H116.859C116.57 6.01843 116.353 8.06947 116.209 9.84041C116.064 11.6114 115.992 13.1112 115.992 14.3581L116.028 25.4898C116.028 26.0771 116.073 26.9987 116.154 28.2636Z" fill="#01A0E2"/>
<path d="M145.637 24.4238C144.95 22.174 144.435 20.3037 144.092 18.7948C143.721 17.1593 143.405 15.7137 143.143 14.4578C142.872 13.2018 142.664 12.1266 142.502 11.2231C142.059 8.90097 141.661 6.00964 141.318 2.54004L127.205 2.82014C126.916 5.15128 126.608 7.33785 126.292 9.39792C125.976 11.458 125.632 13.4458 125.262 15.3432C125.054 16.3733 124.792 17.5569 124.494 18.8761C124.187 20.1952 123.825 21.659 123.401 23.2763C122.822 25.5171 122.326 27.4145 121.919 28.9596C121.503 30.5047 121.196 31.7244 120.988 32.628H131.406L132.237 28.8602L136.24 28.7066L137.071 32.8268C137.442 32.7725 137.794 32.7274 138.128 32.7093C138.454 32.6822 138.788 32.6551 139.14 32.628C139.719 32.5738 140.261 32.5376 140.758 32.5286C141.264 32.5105 141.743 32.4924 142.185 32.4653L148.176 32.3117C147.173 29.2939 146.324 26.6646 145.637 24.4238ZM133.466 19.7073C133.575 19.5989 133.773 19.0839 134.063 18.1623C134.09 18.0539 134.126 17.9003 134.18 17.6834C134.234 17.4756 134.297 17.2045 134.379 16.8883L135.174 19.626L133.466 19.7073Z" fill="#01A0E2"/>
<path d="M175.761 33.4591L172.707 33.423C172.102 33.423 171.108 33.4953 169.734 33.6579C169.518 33.685 169.256 33.7212 168.921 33.7754C168.587 33.8296 168.216 33.8838 167.792 33.938L166.446 31.119L163.87 25.8062C163.446 24.9116 163.12 24.2159 162.895 23.728C162.669 23.2401 162.533 22.9419 162.479 22.8335L162.678 32.6279L157.645 32.664L152.612 32.7815L152.811 27.3964C152.838 26.791 152.847 25.7248 152.829 24.2069C152.82 22.6889 152.784 20.7102 152.73 18.2796C152.676 15.822 152.612 13.2921 152.531 10.6899C152.45 8.0877 152.359 5.359 152.26 2.50381L161.729 2.38635L163.753 6.5065C165.199 9.33458 166.229 11.0784 166.843 11.738C166.843 11.3947 166.807 10.726 166.744 9.71407C166.671 8.71114 166.572 7.38293 166.446 5.71138C166.391 4.95241 166.328 4.16632 166.247 3.38024C166.165 2.58513 166.084 1.7629 166.012 0.922607L170.213 1.04007L175.644 0.994892L175.481 4.32896C175.3 7.95216 175.165 11.0242 175.083 13.5632C175.002 16.1021 174.966 18.117 174.966 19.6259C174.966 20.4753 175.002 21.6047 175.065 23.0323C175.129 24.4599 175.228 26.1766 175.363 28.1915C175.418 29.0318 175.472 29.8902 175.544 30.7666C175.607 31.634 175.68 32.5375 175.761 33.4591Z" fill="#01A0E2"/>
<path d="M202.587 1.87109L202.352 10.274L196.443 10.6264L196.127 33.2963L187.968 32.9078L188.402 11.4215L179.8 11.6565L179.836 3.41615L202.587 1.87109Z" fill="#01A0E2"/>
</svg>
