<svg width="50" height="51" viewBox="0 0 50 51" fill="none" xmlns="http://www.w3.org/2000/svg">
<path fill-rule="evenodd" clip-rule="evenodd" d="M24.9657 0.494873C38.7066 0.494873 49.8626 11.6421 49.8626 25.3724C49.8626 39.1027 38.7066 50.2499 24.9657 50.2499C11.2247 50.2499 0.0687866 39.1027 0.0687866 25.3724C0.0687866 11.6421 11.2247 0.494873 24.9657 0.494873ZM24.9657 9.82395C20.7397 9.82395 20.2098 9.84183 18.5501 9.91753C16.8938 9.99304 15.7627 10.2559 14.7728 10.6402C13.7496 11.0376 12.8818 11.5693 12.0168 12.4337C11.1517 13.2981 10.6196 14.1652 10.222 15.1876C9.83732 16.1766 9.57435 17.3068 9.49868 18.9618C9.42302 20.6202 9.40513 21.1497 9.40513 25.3724C9.40513 29.5951 9.42302 30.1246 9.49868 31.783C9.57435 33.438 9.83732 34.5682 10.222 35.5572C10.6196 36.5796 11.1517 37.4468 12.0168 38.3112C12.8818 39.1756 13.7496 39.7073 14.7728 40.1047C15.7627 40.4889 16.8938 40.7518 18.5501 40.8273C20.2098 40.903 20.7397 40.9209 24.9657 40.9209C29.1917 40.9209 29.7216 40.903 31.3813 40.8273C33.0375 40.7518 34.1687 40.4889 35.1584 40.1047C36.1817 39.7073 37.0494 39.1756 37.9146 38.3112C38.7797 37.4468 39.3118 36.5796 39.7094 35.5572C40.094 34.5682 40.357 33.438 40.4326 31.783C40.5084 30.1246 40.5263 29.5951 40.5263 25.3724C40.5263 21.1497 40.5084 20.6202 40.4326 18.9618C40.357 17.3068 40.094 16.1766 39.7094 15.1876C39.3118 14.1652 38.7797 13.2981 37.9146 12.4337C37.0494 11.5693 36.1817 11.0376 35.1584 10.6402C34.1687 10.2559 33.0375 9.99304 31.3813 9.91753C29.7216 9.84183 29.1917 9.82395 24.9657 9.82395ZM24.9657 12.6255C29.1206 12.6255 29.6127 12.6413 31.2535 12.7162C32.7707 12.7853 33.5945 13.0386 34.1428 13.2515C34.8692 13.5335 35.3876 13.8705 35.932 14.4146C36.4766 14.9586 36.8138 15.4767 37.096 16.2024C37.3091 16.7503 37.5627 17.5735 37.6318 19.0895C37.7067 20.7291 37.7225 21.2208 37.7225 25.3724C37.7225 29.524 37.7067 30.0158 37.6318 31.6553C37.5627 33.1713 37.3091 33.9945 37.096 34.5424C36.8138 35.2682 36.4766 35.7862 35.932 36.3302C35.3876 36.8744 34.8692 37.2113 34.1428 37.4933C33.5945 37.7062 32.7707 37.9596 31.2535 38.0287C29.613 38.1035 29.1208 38.1193 24.9657 38.1193C20.8105 38.1193 20.3185 38.1035 18.6779 38.0287C17.1607 37.9596 16.3369 37.7062 15.7886 37.4933C15.0622 37.2113 14.5438 36.8744 13.9993 36.3302C13.4548 35.7862 13.1176 35.2682 12.8354 34.5424C12.6223 33.9945 12.3687 33.1713 12.2995 31.6553C12.2246 30.0158 12.2088 29.524 12.2088 25.3724C12.2088 21.2208 12.2246 20.7291 12.2995 19.0895C12.3687 17.5735 12.6223 16.7503 12.8354 16.2024C13.1176 15.4767 13.4548 14.9586 13.9993 14.4146C14.5438 13.8705 15.0622 13.5335 15.7886 13.2515C16.3369 13.0386 17.1607 12.7853 18.6779 12.7162C20.3187 12.6413 20.8108 12.6255 24.9657 12.6255ZM24.9657 17.3881C20.5526 17.3881 16.9751 20.9628 16.9751 25.3724C16.9751 29.782 20.5526 33.3567 24.9657 33.3567C29.3788 33.3567 32.9562 29.782 32.9562 25.3724C32.9562 20.9628 29.3788 17.3881 24.9657 17.3881ZM24.9657 30.5552C22.1011 30.5552 19.7789 28.2348 19.7789 25.3724C19.7789 22.51 22.1011 20.1896 24.9657 20.1896C27.8303 20.1896 30.1525 22.51 30.1525 25.3724C30.1525 28.2348 27.8303 30.5552 24.9657 30.5552ZM35.1393 17.0726C35.1393 18.1031 34.3032 18.9384 33.2719 18.9384C32.2407 18.9384 31.4048 18.1031 31.4048 17.0726C31.4048 16.0422 32.2407 15.2068 33.2719 15.2068C34.3032 15.2068 35.1393 16.0422 35.1393 17.0726Z" fill="white"/>
</svg>
