<svg width="49" height="48" viewBox="0 0 49 48" fill="none" xmlns="http://www.w3.org/2000/svg">
<path d="M16.4808 38.404C16.4808 38.5984 16.2571 38.7539 15.9751 38.7539C15.6541 38.783 15.4305 38.6276 15.4305 38.404C15.4305 38.2097 15.6541 38.0542 15.9362 38.0542C16.2279 38.0251 16.4808 38.1805 16.4808 38.404ZM13.4562 37.9667C13.3881 38.1611 13.5826 38.3846 13.8744 38.4429C14.1273 38.5401 14.419 38.4429 14.4774 38.2486C14.5357 38.0542 14.3509 37.8307 14.0592 37.7432C13.8063 37.6752 13.5243 37.7724 13.4562 37.9667ZM17.7548 37.8015C17.4728 37.8696 17.2783 38.0542 17.3075 38.2777C17.3366 38.4721 17.5895 38.5984 17.8812 38.5304C18.1633 38.4624 18.3578 38.2777 18.3286 38.0834C18.2994 37.8987 18.0369 37.7724 17.7548 37.8015ZM24.1541 0.562988C10.665 0.562988 0.346436 10.7958 0.346436 24.2744C0.346436 35.0514 7.13473 44.2736 16.8309 47.5193C18.0758 47.7428 18.5134 46.9751 18.5134 46.3435C18.5134 45.741 18.4842 42.4175 18.4842 40.3768C18.4842 40.3768 11.6765 41.8344 10.2468 37.4809C10.2468 37.4809 9.13815 34.653 7.5432 33.9241C7.5432 33.9241 5.31609 32.3985 7.6988 32.4276C7.6988 32.4276 10.1204 32.622 11.4528 34.9348C13.5826 38.6859 17.1518 37.6072 18.5426 36.9658C18.7663 35.411 19.3984 34.3323 20.0986 33.6909C14.6622 33.0884 9.17706 32.3013 9.17706 22.9528C9.17706 20.2804 9.91618 18.9393 11.4722 17.229C11.2194 16.5973 10.3927 13.993 11.7251 10.6306C13.7577 9.99896 18.4356 13.2544 18.4356 13.2544C20.3807 12.7102 22.4716 12.4284 24.5431 12.4284C26.6146 12.4284 28.7056 12.7102 30.6506 13.2544C30.6506 13.2544 35.3285 9.98924 37.3611 10.6306C38.6935 14.0027 37.8668 16.5973 37.614 17.229C39.17 18.949 40.1231 20.2901 40.1231 22.9528C40.1231 32.3304 34.3949 33.0787 28.9584 33.6909C29.8532 34.4586 30.6117 35.9163 30.6117 38.2C30.6117 41.4749 30.5826 45.5272 30.5826 46.324C30.5826 46.9557 31.0299 47.7234 32.265 47.4999C41.9904 44.2736 48.5842 35.0514 48.5842 24.2744C48.5842 10.7958 37.6432 0.562988 24.1541 0.562988ZM9.79948 34.0796C9.67305 34.1768 9.70223 34.4003 9.86756 34.585C10.0232 34.7404 10.2468 34.8085 10.3733 34.6821C10.4997 34.585 10.4705 34.3614 10.3052 34.1768C10.1496 34.0213 9.92591 33.9533 9.79948 34.0796ZM8.74914 33.2925C8.68106 33.4188 8.77832 33.5743 8.97282 33.6715C9.12843 33.7687 9.32294 33.7395 9.39101 33.6035C9.45909 33.4771 9.36184 33.3216 9.16733 33.2245C8.97282 33.1662 8.81722 33.1953 8.74914 33.2925ZM11.9002 36.752C11.7445 36.8784 11.8029 37.1699 12.0266 37.3545C12.2503 37.578 12.5323 37.6072 12.6587 37.4517C12.7852 37.3254 12.7268 37.0338 12.5323 36.8492C12.3183 36.6257 12.0266 36.5965 11.9002 36.752ZM10.7915 35.3235C10.6359 35.4207 10.6359 35.6733 10.7915 35.8969C10.9471 36.1204 11.2097 36.2175 11.3361 36.1204C11.4917 35.994 11.4917 35.7414 11.3361 35.5179C11.1999 35.2944 10.9471 35.1972 10.7915 35.3235Z" fill="white"/>
</svg>
