<svg width="282" height="368" viewBox="0 0 282 368" fill="none" xmlns="http://www.w3.org/2000/svg">
<g filter="url(#filter0_d_1_2155)">
<path d="M255.593 8H26.199C18.3571 8 12 14.3571 12 22.199V337.523C12 345.365 18.3571 351.722 26.199 351.722H255.593C263.435 351.722 269.792 345.365 269.792 337.523V22.199C269.792 14.3571 263.435 8 255.593 8Z" fill="#1A2C49" fill-opacity="0.29" shape-rendering="crispEdges"/>
<path d="M26.199 8.5H255.593C263.158 8.5 269.292 14.6333 269.292 22.199V337.523C269.292 345.089 263.158 351.222 255.593 351.222H26.199C18.6333 351.222 12.5 345.089 12.5 337.523V22.199C12.5 14.6333 18.6333 8.5 26.199 8.5Z" stroke="#36A9F3" shape-rendering="crispEdges"/>
</g>
<defs>
<filter id="filter0_d_1_2155" x="0" y="0" width="281.792" height="367.722" filterUnits="userSpaceOnUse" color-interpolation-filters="sRGB">
<feFlood flood-opacity="0" result="BackgroundImageFix"/>
<feColorMatrix in="SourceAlpha" type="matrix" values="0 0 0 0 0 0 0 0 0 0 0 0 0 0 0 0 0 0 127 0" result="hardAlpha"/>
<feOffset dy="4"/>
<feGaussianBlur stdDeviation="6"/>
<feComposite in2="hardAlpha" operator="out"/>
<feColorMatrix type="matrix" values="0 0 0 0 0.615686 0 0 0 0 0.164706 0 0 0 0 1 0 0 0 0.1 0"/>
<feBlend mode="normal" in2="BackgroundImageFix" result="effect1_dropShadow_1_2155"/>
<feBlend mode="normal" in="SourceGraphic" in2="effect1_dropShadow_1_2155" result="shape"/>
</filter>
</defs>
</svg>
